G04 #@! TF.GenerationSoftware,KiCad,Pcbnew,(5.1.7)-1*
G04 #@! TF.CreationDate,2020-10-20T19:41:26+02:00*
G04 #@! TF.ProjectId,EQMOD_DIRECT_Isolated,45514d4f-445f-4444-9952-4543545f4973,rev?*
G04 #@! TF.SameCoordinates,Original*
G04 #@! TF.FileFunction,Copper,L3,Inr*
G04 #@! TF.FilePolarity,Positive*
%FSLAX46Y46*%
G04 Gerber Fmt 4.6, Leading zero omitted, Abs format (unit mm)*
G04 Created by KiCad (PCBNEW (5.1.7)-1) date 2020-10-20 19:41:26*
%MOMM*%
%LPD*%
G01*
G04 APERTURE LIST*
G04 #@! TA.AperFunction,ComponentPad*
%ADD10O,1.950000X1.700000*%
G04 #@! TD*
G04 #@! TA.AperFunction,ComponentPad*
%ADD11R,1.700000X1.700000*%
G04 #@! TD*
G04 #@! TA.AperFunction,ComponentPad*
%ADD12C,1.700000*%
G04 #@! TD*
G04 #@! TA.AperFunction,ComponentPad*
%ADD13C,3.500000*%
G04 #@! TD*
G04 #@! TA.AperFunction,ViaPad*
%ADD14C,0.800000*%
G04 #@! TD*
G04 #@! TA.AperFunction,ViaPad*
%ADD15C,1.000000*%
G04 #@! TD*
G04 #@! TA.AperFunction,Conductor*
%ADD16C,0.254000*%
G04 #@! TD*
G04 #@! TA.AperFunction,Conductor*
%ADD17C,0.100000*%
G04 #@! TD*
G04 APERTURE END LIST*
D10*
X144907000Y-107837000D03*
X144907000Y-105337000D03*
X144907000Y-102837000D03*
X144907000Y-100337000D03*
X144907000Y-97837000D03*
X144907000Y-95337000D03*
G04 #@! TA.AperFunction,ComponentPad*
G36*
G01*
X144182000Y-91987000D02*
X145632000Y-91987000D01*
G75*
G02*
X145882000Y-92237000I0J-250000D01*
G01*
X145882000Y-93437000D01*
G75*
G02*
X145632000Y-93687000I-250000J0D01*
G01*
X144182000Y-93687000D01*
G75*
G02*
X143932000Y-93437000I0J250000D01*
G01*
X143932000Y-92237000D01*
G75*
G02*
X144182000Y-91987000I250000J0D01*
G01*
G37*
G04 #@! TD.AperFunction*
D11*
X100330000Y-99060000D03*
D12*
X100330000Y-101560000D03*
X98330000Y-101560000D03*
X98330000Y-99060000D03*
D13*
X95620000Y-94290000D03*
X95620000Y-106330000D03*
D14*
X107442000Y-103486520D03*
X101594823Y-93522800D03*
X107315000Y-104775000D03*
X107696000Y-94742000D03*
X107696000Y-93726000D03*
X112268000Y-99822000D03*
X115062000Y-100203000D03*
X110786616Y-99937836D03*
X111252000Y-98044000D03*
X114909600Y-101346000D03*
X112014000Y-96926400D03*
X119634000Y-92710000D03*
X120523000Y-93726000D03*
X102870000Y-91440000D03*
X120650000Y-99314000D03*
X118237000Y-100203000D03*
X120396000Y-105410000D03*
X121666000Y-105918000D03*
X102235000Y-106426000D03*
X104013000Y-101727000D03*
X102997000Y-101727000D03*
D15*
X96774000Y-99060000D03*
X97028000Y-97790000D03*
X98330000Y-97250000D03*
D14*
X100318600Y-94626400D03*
X99341447Y-95531447D03*
X106680000Y-100838000D03*
X106533110Y-92300990D03*
X107724010Y-92300990D03*
X108994010Y-92300990D03*
X110264010Y-92300990D03*
X115500998Y-105480001D03*
X106121200Y-101955600D03*
X117476979Y-106043003D03*
X120650000Y-95504000D03*
X118205001Y-94011999D03*
X118110000Y-102705000D03*
X120523000Y-101219000D03*
X118606045Y-101132413D03*
X102235000Y-104775000D03*
D15*
X106181000Y-95495000D03*
X105511600Y-94197500D03*
D14*
X127889000Y-95504000D03*
X129921000Y-95504000D03*
X128270000Y-101219000D03*
X132610331Y-104797331D03*
X142113000Y-90932000D03*
X143129000Y-91948000D03*
D15*
X137644000Y-96417000D03*
X140298500Y-98461500D03*
D14*
X138279000Y-97433000D03*
X133167330Y-98475764D03*
X128905000Y-92583000D03*
X129794000Y-93726000D03*
X133097202Y-101982872D03*
X132945000Y-95591500D03*
X130161000Y-100598000D03*
X128016000Y-99949000D03*
X129159000Y-99949000D03*
X126873000Y-105791000D03*
X128016000Y-105664000D03*
X132588000Y-106426000D03*
X140017500Y-100647500D03*
X141097000Y-97409000D03*
X140335000Y-96647000D03*
D15*
X146271000Y-102837000D03*
X143510000Y-102870000D03*
X146304000Y-101473000D03*
X146177000Y-104267000D03*
X143510000Y-104267000D03*
D14*
X137795000Y-100584000D03*
X131595035Y-95480965D03*
X132080000Y-90805000D03*
X133350000Y-90805000D03*
X134620000Y-90805000D03*
X135890000Y-90805000D03*
X137160000Y-90805000D03*
X138430000Y-90805000D03*
X132080000Y-92075000D03*
X133350000Y-92075000D03*
X134620000Y-92075000D03*
X135890000Y-92075000D03*
X137160000Y-92075000D03*
X138430000Y-92075000D03*
X132080000Y-93345000D03*
X133350000Y-93345000D03*
X134620000Y-93345000D03*
X135890000Y-93345000D03*
X138430000Y-93345000D03*
X135676250Y-96924250D03*
X119356045Y-103357293D03*
X119380000Y-97282000D03*
X139065000Y-107950000D03*
X135255000Y-100330000D03*
X139168500Y-105306500D03*
X134747000Y-97860520D03*
X120142000Y-98044000D03*
X116586000Y-93726000D03*
D16*
X125603000Y-110338000D02*
X90070952Y-110338000D01*
X89234482Y-110267025D01*
X88449081Y-110063174D01*
X87709260Y-109729910D01*
X87036160Y-109276752D01*
X86449041Y-108716668D01*
X85964682Y-108065667D01*
X85596932Y-107342358D01*
X85356313Y-106567436D01*
X85293709Y-106095098D01*
X93235000Y-106095098D01*
X93235000Y-106564902D01*
X93326654Y-107025679D01*
X93506440Y-107459721D01*
X93767450Y-107850349D01*
X94099651Y-108182550D01*
X94490279Y-108443560D01*
X94924321Y-108623346D01*
X95385098Y-108715000D01*
X95854902Y-108715000D01*
X96315679Y-108623346D01*
X96749721Y-108443560D01*
X97140349Y-108182550D01*
X97472550Y-107850349D01*
X97733560Y-107459721D01*
X97913346Y-107025679D01*
X98005000Y-106564902D01*
X98005000Y-106324061D01*
X101200000Y-106324061D01*
X101200000Y-106527939D01*
X101239774Y-106727898D01*
X101317795Y-106916256D01*
X101431063Y-107085774D01*
X101575226Y-107229937D01*
X101744744Y-107343205D01*
X101933102Y-107421226D01*
X102133061Y-107461000D01*
X102336939Y-107461000D01*
X102536898Y-107421226D01*
X102725256Y-107343205D01*
X102894774Y-107229937D01*
X103038937Y-107085774D01*
X103152205Y-106916256D01*
X103230226Y-106727898D01*
X103270000Y-106527939D01*
X103270000Y-106324061D01*
X103230226Y-106124102D01*
X103152205Y-105935744D01*
X103038937Y-105766226D01*
X102894774Y-105622063D01*
X102725256Y-105508795D01*
X102536898Y-105430774D01*
X102336939Y-105391000D01*
X102133061Y-105391000D01*
X101933102Y-105430774D01*
X101744744Y-105508795D01*
X101575226Y-105622063D01*
X101431063Y-105766226D01*
X101317795Y-105935744D01*
X101239774Y-106124102D01*
X101200000Y-106324061D01*
X98005000Y-106324061D01*
X98005000Y-106095098D01*
X97913346Y-105634321D01*
X97733560Y-105200279D01*
X97472550Y-104809651D01*
X97335960Y-104673061D01*
X106280000Y-104673061D01*
X106280000Y-104876939D01*
X106319774Y-105076898D01*
X106397795Y-105265256D01*
X106511063Y-105434774D01*
X106655226Y-105578937D01*
X106824744Y-105692205D01*
X107013102Y-105770226D01*
X107213061Y-105810000D01*
X107416939Y-105810000D01*
X107616898Y-105770226D01*
X107805256Y-105692205D01*
X107974774Y-105578937D01*
X108118937Y-105434774D01*
X108203603Y-105308061D01*
X119361000Y-105308061D01*
X119361000Y-105511939D01*
X119400774Y-105711898D01*
X119478795Y-105900256D01*
X119592063Y-106069774D01*
X119736226Y-106213937D01*
X119905744Y-106327205D01*
X120094102Y-106405226D01*
X120294061Y-106445000D01*
X120497939Y-106445000D01*
X120697898Y-106405226D01*
X120740270Y-106387675D01*
X120748795Y-106408256D01*
X120862063Y-106577774D01*
X121006226Y-106721937D01*
X121175744Y-106835205D01*
X121364102Y-106913226D01*
X121564061Y-106953000D01*
X121767939Y-106953000D01*
X121967898Y-106913226D01*
X122156256Y-106835205D01*
X122325774Y-106721937D01*
X122469937Y-106577774D01*
X122583205Y-106408256D01*
X122661226Y-106219898D01*
X122701000Y-106019939D01*
X122701000Y-105816061D01*
X122661226Y-105616102D01*
X122583205Y-105427744D01*
X122469937Y-105258226D01*
X122325774Y-105114063D01*
X122156256Y-105000795D01*
X121967898Y-104922774D01*
X121767939Y-104883000D01*
X121564061Y-104883000D01*
X121364102Y-104922774D01*
X121321730Y-104940325D01*
X121313205Y-104919744D01*
X121199937Y-104750226D01*
X121055774Y-104606063D01*
X120886256Y-104492795D01*
X120697898Y-104414774D01*
X120497939Y-104375000D01*
X120294061Y-104375000D01*
X120094102Y-104414774D01*
X119905744Y-104492795D01*
X119736226Y-104606063D01*
X119592063Y-104750226D01*
X119478795Y-104919744D01*
X119400774Y-105108102D01*
X119361000Y-105308061D01*
X108203603Y-105308061D01*
X108232205Y-105265256D01*
X108310226Y-105076898D01*
X108350000Y-104876939D01*
X108350000Y-104673061D01*
X108310226Y-104473102D01*
X108232205Y-104284744D01*
X108182250Y-104209981D01*
X108245937Y-104146294D01*
X108359205Y-103976776D01*
X108437226Y-103788418D01*
X108477000Y-103588459D01*
X108477000Y-103384581D01*
X108451296Y-103255354D01*
X118321045Y-103255354D01*
X118321045Y-103459232D01*
X118360819Y-103659191D01*
X118438840Y-103847549D01*
X118552108Y-104017067D01*
X118696271Y-104161230D01*
X118865789Y-104274498D01*
X119054147Y-104352519D01*
X119254106Y-104392293D01*
X119457984Y-104392293D01*
X119657943Y-104352519D01*
X119846301Y-104274498D01*
X120015819Y-104161230D01*
X120159982Y-104017067D01*
X120273250Y-103847549D01*
X120351271Y-103659191D01*
X120391045Y-103459232D01*
X120391045Y-103255354D01*
X120351271Y-103055395D01*
X120273250Y-102867037D01*
X120159982Y-102697519D01*
X120015819Y-102553356D01*
X119846301Y-102440088D01*
X119657943Y-102362067D01*
X119457984Y-102322293D01*
X119254106Y-102322293D01*
X119054147Y-102362067D01*
X118865789Y-102440088D01*
X118696271Y-102553356D01*
X118552108Y-102697519D01*
X118438840Y-102867037D01*
X118360819Y-103055395D01*
X118321045Y-103255354D01*
X108451296Y-103255354D01*
X108437226Y-103184622D01*
X108359205Y-102996264D01*
X108245937Y-102826746D01*
X108101774Y-102682583D01*
X107932256Y-102569315D01*
X107743898Y-102491294D01*
X107543939Y-102451520D01*
X107340061Y-102451520D01*
X107140102Y-102491294D01*
X106951744Y-102569315D01*
X106782226Y-102682583D01*
X106638063Y-102826746D01*
X106524795Y-102996264D01*
X106446774Y-103184622D01*
X106407000Y-103384581D01*
X106407000Y-103588459D01*
X106446774Y-103788418D01*
X106524795Y-103976776D01*
X106574750Y-104051539D01*
X106511063Y-104115226D01*
X106397795Y-104284744D01*
X106319774Y-104473102D01*
X106280000Y-104673061D01*
X97335960Y-104673061D01*
X97140349Y-104477450D01*
X96749721Y-104216440D01*
X96315679Y-104036654D01*
X95854902Y-103945000D01*
X95385098Y-103945000D01*
X94924321Y-104036654D01*
X94490279Y-104216440D01*
X94099651Y-104477450D01*
X93767450Y-104809651D01*
X93506440Y-105200279D01*
X93326654Y-105634321D01*
X93235000Y-106095098D01*
X85293709Y-106095098D01*
X85247037Y-105742967D01*
X85242000Y-105529218D01*
X85242000Y-103321726D01*
X87734728Y-103321726D01*
X87735146Y-103381547D01*
X87734728Y-103441367D01*
X87735628Y-103450538D01*
X87745992Y-103549140D01*
X87758016Y-103607714D01*
X87769229Y-103666496D01*
X87771893Y-103675317D01*
X87801211Y-103770028D01*
X87824370Y-103825119D01*
X87846798Y-103880632D01*
X87851125Y-103888768D01*
X87898280Y-103975980D01*
X87931730Y-104025571D01*
X87964486Y-104075629D01*
X87970310Y-104082770D01*
X88033507Y-104159162D01*
X88075942Y-104201301D01*
X88117805Y-104244051D01*
X88124906Y-104249925D01*
X88201737Y-104312587D01*
X88251548Y-104345681D01*
X88300921Y-104379488D01*
X88309027Y-104383870D01*
X88396566Y-104430415D01*
X88451841Y-104453197D01*
X88506851Y-104476775D01*
X88515655Y-104479500D01*
X88610568Y-104508156D01*
X88669241Y-104519773D01*
X88727758Y-104532212D01*
X88736923Y-104533175D01*
X88835594Y-104542850D01*
X88835598Y-104542850D01*
X88867581Y-104546000D01*
X91726419Y-104546000D01*
X91765579Y-104542143D01*
X91785248Y-104541911D01*
X91794401Y-104540839D01*
X91892797Y-104528624D01*
X91951120Y-104515505D01*
X92009702Y-104503185D01*
X92018472Y-104500356D01*
X92112621Y-104469261D01*
X92167311Y-104445051D01*
X92222347Y-104421604D01*
X92230400Y-104417125D01*
X92316717Y-104368336D01*
X92365648Y-104333976D01*
X92415107Y-104300268D01*
X92422137Y-104294310D01*
X92497333Y-104229684D01*
X92538676Y-104186456D01*
X92580619Y-104143811D01*
X92586358Y-104136601D01*
X92647570Y-104058601D01*
X92679724Y-104008176D01*
X92712599Y-103958172D01*
X92716829Y-103949985D01*
X92761723Y-103861580D01*
X92783468Y-103805873D01*
X92806002Y-103750444D01*
X92808561Y-103741591D01*
X92835430Y-103646150D01*
X92845945Y-103587254D01*
X92857279Y-103528531D01*
X92858070Y-103519350D01*
X92865890Y-103420508D01*
X92864766Y-103360718D01*
X92864478Y-103300878D01*
X92863470Y-103291718D01*
X92851942Y-103193239D01*
X92839223Y-103134791D01*
X92827319Y-103076161D01*
X92824551Y-103067371D01*
X92794115Y-102973007D01*
X92770288Y-102918149D01*
X92747225Y-102862951D01*
X92742802Y-102854866D01*
X92694617Y-102768211D01*
X92660586Y-102719021D01*
X92627241Y-102669353D01*
X92621336Y-102662287D01*
X92621332Y-102662281D01*
X92621327Y-102662276D01*
X92557234Y-102586636D01*
X92514279Y-102544976D01*
X92471932Y-102502742D01*
X92464762Y-102496952D01*
X92387190Y-102435198D01*
X92336959Y-102402674D01*
X92287232Y-102369480D01*
X92279074Y-102365193D01*
X92279070Y-102365191D01*
X92279067Y-102365189D01*
X92279064Y-102365188D01*
X92190986Y-102319681D01*
X92135418Y-102297541D01*
X92080158Y-102274625D01*
X92071327Y-102272006D01*
X92071321Y-102272004D01*
X91976072Y-102244470D01*
X91917315Y-102233555D01*
X91858601Y-102221798D01*
X91849426Y-102220944D01*
X91754644Y-102212780D01*
X91726419Y-102210000D01*
X88867581Y-102210000D01*
X88835100Y-102213199D01*
X88828505Y-102213199D01*
X88819341Y-102214163D01*
X88776325Y-102218988D01*
X88770617Y-102219550D01*
X88770209Y-102219674D01*
X88720815Y-102225214D01*
X88662321Y-102237647D01*
X88603621Y-102249270D01*
X88594818Y-102251995D01*
X88500315Y-102281973D01*
X88445368Y-102305524D01*
X88390027Y-102328333D01*
X88381921Y-102332716D01*
X88295041Y-102380479D01*
X88245679Y-102414278D01*
X88195857Y-102447379D01*
X88188757Y-102453253D01*
X88112807Y-102516982D01*
X88070944Y-102559732D01*
X88028508Y-102601872D01*
X88022684Y-102609014D01*
X87960560Y-102686281D01*
X87927812Y-102736326D01*
X87894355Y-102785927D01*
X87890029Y-102794064D01*
X87844096Y-102881925D01*
X87821697Y-102937365D01*
X87798508Y-102992529D01*
X87795845Y-103001351D01*
X87767852Y-103096461D01*
X87756652Y-103155172D01*
X87744613Y-103213819D01*
X87743714Y-103222990D01*
X87734728Y-103321726D01*
X85242000Y-103321726D01*
X85242000Y-98948212D01*
X95639000Y-98948212D01*
X95639000Y-99171788D01*
X95682617Y-99391067D01*
X95768176Y-99597624D01*
X95892388Y-99783520D01*
X96050480Y-99941612D01*
X96236376Y-100065824D01*
X96442933Y-100151383D01*
X96662212Y-100195000D01*
X96885788Y-100195000D01*
X97105067Y-100151383D01*
X97257950Y-100088057D01*
X97383368Y-100213475D01*
X97527828Y-100310000D01*
X97383368Y-100406525D01*
X97176525Y-100613368D01*
X97014010Y-100856589D01*
X96902068Y-101126842D01*
X96845000Y-101413740D01*
X96845000Y-101706260D01*
X96902068Y-101993158D01*
X97014010Y-102263411D01*
X97176525Y-102506632D01*
X97383368Y-102713475D01*
X97626589Y-102875990D01*
X97896842Y-102987932D01*
X98183740Y-103045000D01*
X98476260Y-103045000D01*
X98763158Y-102987932D01*
X99033411Y-102875990D01*
X99276632Y-102713475D01*
X99330000Y-102660107D01*
X99383368Y-102713475D01*
X99626589Y-102875990D01*
X99896842Y-102987932D01*
X100183740Y-103045000D01*
X100476260Y-103045000D01*
X100763158Y-102987932D01*
X101033411Y-102875990D01*
X101276632Y-102713475D01*
X101483475Y-102506632D01*
X101645990Y-102263411D01*
X101757932Y-101993158D01*
X101815000Y-101706260D01*
X101815000Y-101625061D01*
X101962000Y-101625061D01*
X101962000Y-101828939D01*
X102001774Y-102028898D01*
X102079795Y-102217256D01*
X102193063Y-102386774D01*
X102337226Y-102530937D01*
X102506744Y-102644205D01*
X102695102Y-102722226D01*
X102895061Y-102762000D01*
X103098939Y-102762000D01*
X103298898Y-102722226D01*
X103487256Y-102644205D01*
X103505000Y-102632349D01*
X103522744Y-102644205D01*
X103711102Y-102722226D01*
X103911061Y-102762000D01*
X104114939Y-102762000D01*
X104314898Y-102722226D01*
X104503256Y-102644205D01*
X104672774Y-102530937D01*
X104816937Y-102386774D01*
X104930205Y-102217256D01*
X105008226Y-102028898D01*
X105048000Y-101828939D01*
X105048000Y-101625061D01*
X105008226Y-101425102D01*
X104933236Y-101244061D01*
X113874600Y-101244061D01*
X113874600Y-101447939D01*
X113914374Y-101647898D01*
X113992395Y-101836256D01*
X114105663Y-102005774D01*
X114249826Y-102149937D01*
X114419344Y-102263205D01*
X114607702Y-102341226D01*
X114807661Y-102381000D01*
X115011539Y-102381000D01*
X115211498Y-102341226D01*
X115399856Y-102263205D01*
X115569374Y-102149937D01*
X115713537Y-102005774D01*
X115826805Y-101836256D01*
X115904826Y-101647898D01*
X115944600Y-101447939D01*
X115944600Y-101244061D01*
X115904826Y-101044102D01*
X115840326Y-100888385D01*
X115865937Y-100862774D01*
X115979205Y-100693256D01*
X116057226Y-100504898D01*
X116097000Y-100304939D01*
X116097000Y-100101061D01*
X117202000Y-100101061D01*
X117202000Y-100304939D01*
X117241774Y-100504898D01*
X117319795Y-100693256D01*
X117433063Y-100862774D01*
X117577226Y-101006937D01*
X117746744Y-101120205D01*
X117935102Y-101198226D01*
X118135061Y-101238000D01*
X118338939Y-101238000D01*
X118538898Y-101198226D01*
X118727256Y-101120205D01*
X118896774Y-101006937D01*
X119040937Y-100862774D01*
X119154205Y-100693256D01*
X119232226Y-100504898D01*
X119272000Y-100304939D01*
X119272000Y-100101061D01*
X119232226Y-99901102D01*
X119154205Y-99712744D01*
X119040937Y-99543226D01*
X118896774Y-99399063D01*
X118727256Y-99285795D01*
X118538898Y-99207774D01*
X118338939Y-99168000D01*
X118135061Y-99168000D01*
X117935102Y-99207774D01*
X117746744Y-99285795D01*
X117577226Y-99399063D01*
X117433063Y-99543226D01*
X117319795Y-99712744D01*
X117241774Y-99901102D01*
X117202000Y-100101061D01*
X116097000Y-100101061D01*
X116057226Y-99901102D01*
X115979205Y-99712744D01*
X115865937Y-99543226D01*
X115721774Y-99399063D01*
X115552256Y-99285795D01*
X115363898Y-99207774D01*
X115163939Y-99168000D01*
X114960061Y-99168000D01*
X114760102Y-99207774D01*
X114571744Y-99285795D01*
X114402226Y-99399063D01*
X114258063Y-99543226D01*
X114144795Y-99712744D01*
X114066774Y-99901102D01*
X114027000Y-100101061D01*
X114027000Y-100304939D01*
X114066774Y-100504898D01*
X114131274Y-100660615D01*
X114105663Y-100686226D01*
X113992395Y-100855744D01*
X113914374Y-101044102D01*
X113874600Y-101244061D01*
X104933236Y-101244061D01*
X104930205Y-101236744D01*
X104816937Y-101067226D01*
X104672774Y-100923063D01*
X104503256Y-100809795D01*
X104314898Y-100731774D01*
X104114939Y-100692000D01*
X103911061Y-100692000D01*
X103711102Y-100731774D01*
X103522744Y-100809795D01*
X103505000Y-100821651D01*
X103487256Y-100809795D01*
X103298898Y-100731774D01*
X103098939Y-100692000D01*
X102895061Y-100692000D01*
X102695102Y-100731774D01*
X102506744Y-100809795D01*
X102337226Y-100923063D01*
X102193063Y-101067226D01*
X102079795Y-101236744D01*
X102001774Y-101425102D01*
X101962000Y-101625061D01*
X101815000Y-101625061D01*
X101815000Y-101413740D01*
X101757932Y-101126842D01*
X101645990Y-100856589D01*
X101483475Y-100613368D01*
X101382310Y-100512203D01*
X101424180Y-100499502D01*
X101534494Y-100440537D01*
X101631185Y-100361185D01*
X101710537Y-100264494D01*
X101769502Y-100154180D01*
X101805812Y-100034482D01*
X101818072Y-99910000D01*
X101818072Y-99835897D01*
X109751616Y-99835897D01*
X109751616Y-100039775D01*
X109791390Y-100239734D01*
X109869411Y-100428092D01*
X109982679Y-100597610D01*
X110126842Y-100741773D01*
X110296360Y-100855041D01*
X110484718Y-100933062D01*
X110684677Y-100972836D01*
X110888555Y-100972836D01*
X111088514Y-100933062D01*
X111276872Y-100855041D01*
X111446390Y-100741773D01*
X111585226Y-100602937D01*
X111608226Y-100625937D01*
X111777744Y-100739205D01*
X111966102Y-100817226D01*
X112166061Y-100857000D01*
X112369939Y-100857000D01*
X112569898Y-100817226D01*
X112758256Y-100739205D01*
X112927774Y-100625937D01*
X113071937Y-100481774D01*
X113185205Y-100312256D01*
X113263226Y-100123898D01*
X113303000Y-99923939D01*
X113303000Y-99720061D01*
X113263226Y-99520102D01*
X113185205Y-99331744D01*
X113071937Y-99162226D01*
X112927774Y-99018063D01*
X112758256Y-98904795D01*
X112569898Y-98826774D01*
X112369939Y-98787000D01*
X112166061Y-98787000D01*
X111966102Y-98826774D01*
X111906495Y-98851464D01*
X111911774Y-98847937D01*
X112055937Y-98703774D01*
X112169205Y-98534256D01*
X112247226Y-98345898D01*
X112287000Y-98145939D01*
X112287000Y-97942061D01*
X112284190Y-97927933D01*
X112315898Y-97921626D01*
X112504256Y-97843605D01*
X112673774Y-97730337D01*
X112817937Y-97586174D01*
X112931205Y-97416656D01*
X113009226Y-97228298D01*
X113018820Y-97180061D01*
X118345000Y-97180061D01*
X118345000Y-97383939D01*
X118384774Y-97583898D01*
X118462795Y-97772256D01*
X118576063Y-97941774D01*
X118720226Y-98085937D01*
X118889744Y-98199205D01*
X119078102Y-98277226D01*
X119135381Y-98288619D01*
X119146774Y-98345898D01*
X119224795Y-98534256D01*
X119338063Y-98703774D01*
X119482226Y-98847937D01*
X119651744Y-98961205D01*
X119672325Y-98969730D01*
X119654774Y-99012102D01*
X119615000Y-99212061D01*
X119615000Y-99415939D01*
X119654774Y-99615898D01*
X119732795Y-99804256D01*
X119846063Y-99973774D01*
X119990226Y-100117937D01*
X120159744Y-100231205D01*
X120348102Y-100309226D01*
X120548061Y-100349000D01*
X120751939Y-100349000D01*
X120951898Y-100309226D01*
X121140256Y-100231205D01*
X121309774Y-100117937D01*
X121453937Y-99973774D01*
X121567205Y-99804256D01*
X121645226Y-99615898D01*
X121685000Y-99415939D01*
X121685000Y-99212061D01*
X121645226Y-99012102D01*
X121567205Y-98823744D01*
X121453937Y-98654226D01*
X121309774Y-98510063D01*
X121140256Y-98396795D01*
X121119675Y-98388270D01*
X121137226Y-98345898D01*
X121177000Y-98145939D01*
X121177000Y-97942061D01*
X121137226Y-97742102D01*
X121059205Y-97553744D01*
X120945937Y-97384226D01*
X120801774Y-97240063D01*
X120632256Y-97126795D01*
X120443898Y-97048774D01*
X120386619Y-97037381D01*
X120375226Y-96980102D01*
X120297205Y-96791744D01*
X120183937Y-96622226D01*
X120039774Y-96478063D01*
X119870256Y-96364795D01*
X119681898Y-96286774D01*
X119481939Y-96247000D01*
X119278061Y-96247000D01*
X119078102Y-96286774D01*
X118889744Y-96364795D01*
X118720226Y-96478063D01*
X118576063Y-96622226D01*
X118462795Y-96791744D01*
X118384774Y-96980102D01*
X118345000Y-97180061D01*
X113018820Y-97180061D01*
X113049000Y-97028339D01*
X113049000Y-96824461D01*
X113009226Y-96624502D01*
X112931205Y-96436144D01*
X112817937Y-96266626D01*
X112673774Y-96122463D01*
X112504256Y-96009195D01*
X112315898Y-95931174D01*
X112115939Y-95891400D01*
X111912061Y-95891400D01*
X111712102Y-95931174D01*
X111523744Y-96009195D01*
X111354226Y-96122463D01*
X111210063Y-96266626D01*
X111096795Y-96436144D01*
X111018774Y-96624502D01*
X110979000Y-96824461D01*
X110979000Y-97028339D01*
X110981810Y-97042467D01*
X110950102Y-97048774D01*
X110761744Y-97126795D01*
X110592226Y-97240063D01*
X110448063Y-97384226D01*
X110334795Y-97553744D01*
X110256774Y-97742102D01*
X110217000Y-97942061D01*
X110217000Y-98145939D01*
X110256774Y-98345898D01*
X110334795Y-98534256D01*
X110448063Y-98703774D01*
X110592226Y-98847937D01*
X110676749Y-98904413D01*
X110484718Y-98942610D01*
X110296360Y-99020631D01*
X110126842Y-99133899D01*
X109982679Y-99278062D01*
X109869411Y-99447580D01*
X109791390Y-99635938D01*
X109751616Y-99835897D01*
X101818072Y-99835897D01*
X101818072Y-98210000D01*
X101805812Y-98085518D01*
X101769502Y-97965820D01*
X101710537Y-97855506D01*
X101631185Y-97758815D01*
X101534494Y-97679463D01*
X101424180Y-97620498D01*
X101304482Y-97584188D01*
X101180000Y-97571928D01*
X99480000Y-97571928D01*
X99422066Y-97577634D01*
X99465000Y-97361788D01*
X99465000Y-97138212D01*
X99421383Y-96918933D01*
X99335824Y-96712376D01*
X99238135Y-96566174D01*
X99239508Y-96566447D01*
X99443386Y-96566447D01*
X99643345Y-96526673D01*
X99831703Y-96448652D01*
X100001221Y-96335384D01*
X100145384Y-96191221D01*
X100258652Y-96021703D01*
X100336673Y-95833345D01*
X100370875Y-95661400D01*
X100420539Y-95661400D01*
X100620498Y-95621626D01*
X100808856Y-95543605D01*
X100978374Y-95430337D01*
X101122537Y-95286174D01*
X101235805Y-95116656D01*
X101313826Y-94928298D01*
X101353600Y-94728339D01*
X101353600Y-94530095D01*
X101492884Y-94557800D01*
X101696762Y-94557800D01*
X101896721Y-94518026D01*
X102085079Y-94440005D01*
X102254597Y-94326737D01*
X102398760Y-94182574D01*
X102512028Y-94013056D01*
X102590049Y-93824698D01*
X102629823Y-93624739D01*
X102629823Y-93624061D01*
X106661000Y-93624061D01*
X106661000Y-93827939D01*
X106700774Y-94027898D01*
X106778795Y-94216256D01*
X106790651Y-94234000D01*
X106778795Y-94251744D01*
X106700774Y-94440102D01*
X106661000Y-94640061D01*
X106661000Y-94843939D01*
X106700774Y-95043898D01*
X106778795Y-95232256D01*
X106892063Y-95401774D01*
X107036226Y-95545937D01*
X107205744Y-95659205D01*
X107394102Y-95737226D01*
X107594061Y-95777000D01*
X107797939Y-95777000D01*
X107997898Y-95737226D01*
X108186256Y-95659205D01*
X108355774Y-95545937D01*
X108499937Y-95401774D01*
X108613205Y-95232256D01*
X108691226Y-95043898D01*
X108731000Y-94843939D01*
X108731000Y-94640061D01*
X108691226Y-94440102D01*
X108613205Y-94251744D01*
X108601349Y-94234000D01*
X108613205Y-94216256D01*
X108691226Y-94027898D01*
X108731000Y-93827939D01*
X108731000Y-93624061D01*
X115551000Y-93624061D01*
X115551000Y-93827939D01*
X115590774Y-94027898D01*
X115668795Y-94216256D01*
X115782063Y-94385774D01*
X115926226Y-94529937D01*
X116095744Y-94643205D01*
X116284102Y-94721226D01*
X116484061Y-94761000D01*
X116687939Y-94761000D01*
X116887898Y-94721226D01*
X117076256Y-94643205D01*
X117245774Y-94529937D01*
X117389937Y-94385774D01*
X117503205Y-94216256D01*
X117581226Y-94027898D01*
X117621000Y-93827939D01*
X117621000Y-93624061D01*
X117581226Y-93424102D01*
X117503205Y-93235744D01*
X117389937Y-93066226D01*
X117245774Y-92922063D01*
X117076256Y-92808795D01*
X116887898Y-92730774D01*
X116687939Y-92691000D01*
X116484061Y-92691000D01*
X116284102Y-92730774D01*
X116095744Y-92808795D01*
X115926226Y-92922063D01*
X115782063Y-93066226D01*
X115668795Y-93235744D01*
X115590774Y-93424102D01*
X115551000Y-93624061D01*
X108731000Y-93624061D01*
X108691226Y-93424102D01*
X108613205Y-93235744D01*
X108499937Y-93066226D01*
X108355774Y-92922063D01*
X108186256Y-92808795D01*
X107997898Y-92730774D01*
X107797939Y-92691000D01*
X107594061Y-92691000D01*
X107394102Y-92730774D01*
X107205744Y-92808795D01*
X107036226Y-92922063D01*
X106892063Y-93066226D01*
X106778795Y-93235744D01*
X106700774Y-93424102D01*
X106661000Y-93624061D01*
X102629823Y-93624061D01*
X102629823Y-93420861D01*
X102590049Y-93220902D01*
X102512028Y-93032544D01*
X102398760Y-92863026D01*
X102254597Y-92718863D01*
X102088770Y-92608061D01*
X118599000Y-92608061D01*
X118599000Y-92811939D01*
X118638774Y-93011898D01*
X118716795Y-93200256D01*
X118830063Y-93369774D01*
X118974226Y-93513937D01*
X119143744Y-93627205D01*
X119332102Y-93705226D01*
X119488000Y-93736236D01*
X119488000Y-93827939D01*
X119527774Y-94027898D01*
X119605795Y-94216256D01*
X119719063Y-94385774D01*
X119863226Y-94529937D01*
X120032744Y-94643205D01*
X120221102Y-94721226D01*
X120421061Y-94761000D01*
X120624939Y-94761000D01*
X120824898Y-94721226D01*
X121013256Y-94643205D01*
X121182774Y-94529937D01*
X121326937Y-94385774D01*
X121440205Y-94216256D01*
X121518226Y-94027898D01*
X121558000Y-93827939D01*
X121558000Y-93624061D01*
X121518226Y-93424102D01*
X121440205Y-93235744D01*
X121326937Y-93066226D01*
X121182774Y-92922063D01*
X121013256Y-92808795D01*
X120824898Y-92730774D01*
X120669000Y-92699764D01*
X120669000Y-92608061D01*
X120629226Y-92408102D01*
X120551205Y-92219744D01*
X120437937Y-92050226D01*
X120293774Y-91906063D01*
X120124256Y-91792795D01*
X119935898Y-91714774D01*
X119735939Y-91675000D01*
X119532061Y-91675000D01*
X119332102Y-91714774D01*
X119143744Y-91792795D01*
X118974226Y-91906063D01*
X118830063Y-92050226D01*
X118716795Y-92219744D01*
X118638774Y-92408102D01*
X118599000Y-92608061D01*
X102088770Y-92608061D01*
X102085079Y-92605595D01*
X101896721Y-92527574D01*
X101696762Y-92487800D01*
X101492884Y-92487800D01*
X101292925Y-92527574D01*
X101104567Y-92605595D01*
X100935049Y-92718863D01*
X100790886Y-92863026D01*
X100677618Y-93032544D01*
X100599597Y-93220902D01*
X100559823Y-93420861D01*
X100559823Y-93619105D01*
X100420539Y-93591400D01*
X100216661Y-93591400D01*
X100016702Y-93631174D01*
X99828344Y-93709195D01*
X99658826Y-93822463D01*
X99514663Y-93966626D01*
X99401395Y-94136144D01*
X99323374Y-94324502D01*
X99289172Y-94496447D01*
X99239508Y-94496447D01*
X99039549Y-94536221D01*
X98851191Y-94614242D01*
X98681673Y-94727510D01*
X98537510Y-94871673D01*
X98424242Y-95041191D01*
X98346221Y-95229549D01*
X98306447Y-95429508D01*
X98306447Y-95633386D01*
X98346221Y-95833345D01*
X98424242Y-96021703D01*
X98493447Y-96125275D01*
X98441788Y-96115000D01*
X98218212Y-96115000D01*
X97998933Y-96158617D01*
X97792376Y-96244176D01*
X97606480Y-96368388D01*
X97448388Y-96526480D01*
X97336384Y-96694105D01*
X97139788Y-96655000D01*
X96916212Y-96655000D01*
X96696933Y-96698617D01*
X96490376Y-96784176D01*
X96304480Y-96908388D01*
X96146388Y-97066480D01*
X96022176Y-97252376D01*
X95936617Y-97458933D01*
X95893000Y-97678212D01*
X95893000Y-97901788D01*
X95936617Y-98121067D01*
X95986756Y-98242112D01*
X95892388Y-98336480D01*
X95768176Y-98522376D01*
X95682617Y-98728933D01*
X95639000Y-98948212D01*
X85242000Y-98948212D01*
X85242000Y-97225675D01*
X87742728Y-97225675D01*
X87743146Y-97285492D01*
X87742728Y-97345308D01*
X87743627Y-97354479D01*
X87753827Y-97451527D01*
X87765861Y-97510152D01*
X87777064Y-97568884D01*
X87779728Y-97577706D01*
X87808584Y-97670925D01*
X87831767Y-97726075D01*
X87854175Y-97781537D01*
X87858502Y-97789673D01*
X87904914Y-97875511D01*
X87938362Y-97925098D01*
X87971119Y-97975156D01*
X87976943Y-97982297D01*
X88039145Y-98057486D01*
X88081594Y-98099639D01*
X88123439Y-98142371D01*
X88130540Y-98148245D01*
X88206160Y-98209921D01*
X88256025Y-98243052D01*
X88305350Y-98276825D01*
X88313445Y-98281202D01*
X88313448Y-98281204D01*
X88313451Y-98281205D01*
X88313456Y-98281208D01*
X88399617Y-98327020D01*
X88454909Y-98349809D01*
X88509898Y-98373378D01*
X88518701Y-98376103D01*
X88612119Y-98404308D01*
X88670826Y-98415933D01*
X88729316Y-98428365D01*
X88738470Y-98429327D01*
X88738476Y-98429328D01*
X88738481Y-98429328D01*
X88834737Y-98438766D01*
X88865692Y-98441904D01*
X91724528Y-98450090D01*
X91758930Y-98446801D01*
X91765495Y-98446801D01*
X91774659Y-98445837D01*
X91807269Y-98442179D01*
X91821519Y-98440817D01*
X91822773Y-98440440D01*
X91873186Y-98434786D01*
X91931687Y-98422351D01*
X91990379Y-98410730D01*
X91999182Y-98408005D01*
X92093686Y-98378027D01*
X92148671Y-98354460D01*
X92203972Y-98331667D01*
X92212078Y-98327284D01*
X92298959Y-98279521D01*
X92348306Y-98245733D01*
X92398143Y-98212621D01*
X92405244Y-98206747D01*
X92481193Y-98143017D01*
X92523037Y-98100287D01*
X92565492Y-98058128D01*
X92571316Y-98050986D01*
X92633440Y-97973720D01*
X92666200Y-97923657D01*
X92699645Y-97874073D01*
X92703971Y-97865937D01*
X92749904Y-97778075D01*
X92772303Y-97722635D01*
X92795492Y-97667471D01*
X92798155Y-97658649D01*
X92826148Y-97563539D01*
X92837348Y-97504828D01*
X92849387Y-97446181D01*
X92850286Y-97437010D01*
X92859272Y-97338274D01*
X92858854Y-97278453D01*
X92859272Y-97218633D01*
X92858372Y-97209462D01*
X92848008Y-97110860D01*
X92835984Y-97052286D01*
X92824771Y-96993504D01*
X92822107Y-96984683D01*
X92792789Y-96889973D01*
X92769636Y-96834895D01*
X92747202Y-96779368D01*
X92742875Y-96771232D01*
X92695720Y-96684020D01*
X92662270Y-96634429D01*
X92629514Y-96584371D01*
X92623689Y-96577230D01*
X92560493Y-96500838D01*
X92518058Y-96458699D01*
X92476195Y-96415949D01*
X92469094Y-96410075D01*
X92392263Y-96347413D01*
X92342467Y-96314329D01*
X92293079Y-96280512D01*
X92284973Y-96276130D01*
X92197434Y-96229585D01*
X92142159Y-96206803D01*
X92087149Y-96183225D01*
X92078346Y-96180500D01*
X91983432Y-96151844D01*
X91924752Y-96140225D01*
X91866242Y-96127788D01*
X91857077Y-96126825D01*
X91822288Y-96123414D01*
X91821519Y-96123183D01*
X91724528Y-96113910D01*
X88865692Y-96122096D01*
X88835095Y-96125198D01*
X88828617Y-96125198D01*
X88819453Y-96126162D01*
X88722478Y-96137039D01*
X88663984Y-96149472D01*
X88605284Y-96161095D01*
X88596481Y-96163820D01*
X88503465Y-96193326D01*
X88448505Y-96216882D01*
X88393178Y-96239686D01*
X88385072Y-96244069D01*
X88299559Y-96291080D01*
X88250208Y-96324872D01*
X88200374Y-96357982D01*
X88193274Y-96363856D01*
X88118522Y-96426581D01*
X88076695Y-96469294D01*
X88034226Y-96511467D01*
X88028402Y-96518609D01*
X87967256Y-96594659D01*
X87934535Y-96644661D01*
X87901049Y-96694306D01*
X87896723Y-96702443D01*
X87851513Y-96788922D01*
X87829104Y-96844388D01*
X87805925Y-96899527D01*
X87803262Y-96908349D01*
X87775710Y-97001961D01*
X87764508Y-97060682D01*
X87752471Y-97119322D01*
X87751572Y-97128493D01*
X87742728Y-97225675D01*
X85242000Y-97225675D01*
X85242000Y-95023952D01*
X85312975Y-94187482D01*
X85347335Y-94055098D01*
X93235000Y-94055098D01*
X93235000Y-94524902D01*
X93326654Y-94985679D01*
X93506440Y-95419721D01*
X93767450Y-95810349D01*
X94099651Y-96142550D01*
X94490279Y-96403560D01*
X94924321Y-96583346D01*
X95385098Y-96675000D01*
X95854902Y-96675000D01*
X96315679Y-96583346D01*
X96749721Y-96403560D01*
X97140349Y-96142550D01*
X97472550Y-95810349D01*
X97733560Y-95419721D01*
X97913346Y-94985679D01*
X98005000Y-94524902D01*
X98005000Y-94055098D01*
X97913346Y-93594321D01*
X97733560Y-93160279D01*
X97472550Y-92769651D01*
X97140349Y-92437450D01*
X96749721Y-92176440D01*
X96315679Y-91996654D01*
X95854902Y-91905000D01*
X95385098Y-91905000D01*
X94924321Y-91996654D01*
X94490279Y-92176440D01*
X94099651Y-92437450D01*
X93767450Y-92769651D01*
X93506440Y-93160279D01*
X93326654Y-93594321D01*
X93235000Y-94055098D01*
X85347335Y-94055098D01*
X85516825Y-93402082D01*
X85850092Y-92662258D01*
X86303248Y-91989160D01*
X86863332Y-91402041D01*
X86949324Y-91338061D01*
X101835000Y-91338061D01*
X101835000Y-91541939D01*
X101874774Y-91741898D01*
X101952795Y-91930256D01*
X102066063Y-92099774D01*
X102210226Y-92243937D01*
X102379744Y-92357205D01*
X102568102Y-92435226D01*
X102768061Y-92475000D01*
X102971939Y-92475000D01*
X103171898Y-92435226D01*
X103360256Y-92357205D01*
X103529774Y-92243937D01*
X103673937Y-92099774D01*
X103787205Y-91930256D01*
X103865226Y-91741898D01*
X103905000Y-91541939D01*
X103905000Y-91338061D01*
X103865226Y-91138102D01*
X103787205Y-90949744D01*
X103673937Y-90780226D01*
X103529774Y-90636063D01*
X103360256Y-90522795D01*
X103171898Y-90444774D01*
X102971939Y-90405000D01*
X102768061Y-90405000D01*
X102568102Y-90444774D01*
X102379744Y-90522795D01*
X102210226Y-90636063D01*
X102066063Y-90780226D01*
X101952795Y-90949744D01*
X101874774Y-91138102D01*
X101835000Y-91338061D01*
X86949324Y-91338061D01*
X87514335Y-90917681D01*
X88237642Y-90549932D01*
X89012563Y-90309313D01*
X89837033Y-90200037D01*
X90050782Y-90195000D01*
X125603000Y-90195000D01*
X125603000Y-110338000D01*
G04 #@! TA.AperFunction,Conductor*
D17*
G36*
X125603000Y-110338000D02*
G01*
X90070952Y-110338000D01*
X89234482Y-110267025D01*
X88449081Y-110063174D01*
X87709260Y-109729910D01*
X87036160Y-109276752D01*
X86449041Y-108716668D01*
X85964682Y-108065667D01*
X85596932Y-107342358D01*
X85356313Y-106567436D01*
X85293709Y-106095098D01*
X93235000Y-106095098D01*
X93235000Y-106564902D01*
X93326654Y-107025679D01*
X93506440Y-107459721D01*
X93767450Y-107850349D01*
X94099651Y-108182550D01*
X94490279Y-108443560D01*
X94924321Y-108623346D01*
X95385098Y-108715000D01*
X95854902Y-108715000D01*
X96315679Y-108623346D01*
X96749721Y-108443560D01*
X97140349Y-108182550D01*
X97472550Y-107850349D01*
X97733560Y-107459721D01*
X97913346Y-107025679D01*
X98005000Y-106564902D01*
X98005000Y-106324061D01*
X101200000Y-106324061D01*
X101200000Y-106527939D01*
X101239774Y-106727898D01*
X101317795Y-106916256D01*
X101431063Y-107085774D01*
X101575226Y-107229937D01*
X101744744Y-107343205D01*
X101933102Y-107421226D01*
X102133061Y-107461000D01*
X102336939Y-107461000D01*
X102536898Y-107421226D01*
X102725256Y-107343205D01*
X102894774Y-107229937D01*
X103038937Y-107085774D01*
X103152205Y-106916256D01*
X103230226Y-106727898D01*
X103270000Y-106527939D01*
X103270000Y-106324061D01*
X103230226Y-106124102D01*
X103152205Y-105935744D01*
X103038937Y-105766226D01*
X102894774Y-105622063D01*
X102725256Y-105508795D01*
X102536898Y-105430774D01*
X102336939Y-105391000D01*
X102133061Y-105391000D01*
X101933102Y-105430774D01*
X101744744Y-105508795D01*
X101575226Y-105622063D01*
X101431063Y-105766226D01*
X101317795Y-105935744D01*
X101239774Y-106124102D01*
X101200000Y-106324061D01*
X98005000Y-106324061D01*
X98005000Y-106095098D01*
X97913346Y-105634321D01*
X97733560Y-105200279D01*
X97472550Y-104809651D01*
X97335960Y-104673061D01*
X106280000Y-104673061D01*
X106280000Y-104876939D01*
X106319774Y-105076898D01*
X106397795Y-105265256D01*
X106511063Y-105434774D01*
X106655226Y-105578937D01*
X106824744Y-105692205D01*
X107013102Y-105770226D01*
X107213061Y-105810000D01*
X107416939Y-105810000D01*
X107616898Y-105770226D01*
X107805256Y-105692205D01*
X107974774Y-105578937D01*
X108118937Y-105434774D01*
X108203603Y-105308061D01*
X119361000Y-105308061D01*
X119361000Y-105511939D01*
X119400774Y-105711898D01*
X119478795Y-105900256D01*
X119592063Y-106069774D01*
X119736226Y-106213937D01*
X119905744Y-106327205D01*
X120094102Y-106405226D01*
X120294061Y-106445000D01*
X120497939Y-106445000D01*
X120697898Y-106405226D01*
X120740270Y-106387675D01*
X120748795Y-106408256D01*
X120862063Y-106577774D01*
X121006226Y-106721937D01*
X121175744Y-106835205D01*
X121364102Y-106913226D01*
X121564061Y-106953000D01*
X121767939Y-106953000D01*
X121967898Y-106913226D01*
X122156256Y-106835205D01*
X122325774Y-106721937D01*
X122469937Y-106577774D01*
X122583205Y-106408256D01*
X122661226Y-106219898D01*
X122701000Y-106019939D01*
X122701000Y-105816061D01*
X122661226Y-105616102D01*
X122583205Y-105427744D01*
X122469937Y-105258226D01*
X122325774Y-105114063D01*
X122156256Y-105000795D01*
X121967898Y-104922774D01*
X121767939Y-104883000D01*
X121564061Y-104883000D01*
X121364102Y-104922774D01*
X121321730Y-104940325D01*
X121313205Y-104919744D01*
X121199937Y-104750226D01*
X121055774Y-104606063D01*
X120886256Y-104492795D01*
X120697898Y-104414774D01*
X120497939Y-104375000D01*
X120294061Y-104375000D01*
X120094102Y-104414774D01*
X119905744Y-104492795D01*
X119736226Y-104606063D01*
X119592063Y-104750226D01*
X119478795Y-104919744D01*
X119400774Y-105108102D01*
X119361000Y-105308061D01*
X108203603Y-105308061D01*
X108232205Y-105265256D01*
X108310226Y-105076898D01*
X108350000Y-104876939D01*
X108350000Y-104673061D01*
X108310226Y-104473102D01*
X108232205Y-104284744D01*
X108182250Y-104209981D01*
X108245937Y-104146294D01*
X108359205Y-103976776D01*
X108437226Y-103788418D01*
X108477000Y-103588459D01*
X108477000Y-103384581D01*
X108451296Y-103255354D01*
X118321045Y-103255354D01*
X118321045Y-103459232D01*
X118360819Y-103659191D01*
X118438840Y-103847549D01*
X118552108Y-104017067D01*
X118696271Y-104161230D01*
X118865789Y-104274498D01*
X119054147Y-104352519D01*
X119254106Y-104392293D01*
X119457984Y-104392293D01*
X119657943Y-104352519D01*
X119846301Y-104274498D01*
X120015819Y-104161230D01*
X120159982Y-104017067D01*
X120273250Y-103847549D01*
X120351271Y-103659191D01*
X120391045Y-103459232D01*
X120391045Y-103255354D01*
X120351271Y-103055395D01*
X120273250Y-102867037D01*
X120159982Y-102697519D01*
X120015819Y-102553356D01*
X119846301Y-102440088D01*
X119657943Y-102362067D01*
X119457984Y-102322293D01*
X119254106Y-102322293D01*
X119054147Y-102362067D01*
X118865789Y-102440088D01*
X118696271Y-102553356D01*
X118552108Y-102697519D01*
X118438840Y-102867037D01*
X118360819Y-103055395D01*
X118321045Y-103255354D01*
X108451296Y-103255354D01*
X108437226Y-103184622D01*
X108359205Y-102996264D01*
X108245937Y-102826746D01*
X108101774Y-102682583D01*
X107932256Y-102569315D01*
X107743898Y-102491294D01*
X107543939Y-102451520D01*
X107340061Y-102451520D01*
X107140102Y-102491294D01*
X106951744Y-102569315D01*
X106782226Y-102682583D01*
X106638063Y-102826746D01*
X106524795Y-102996264D01*
X106446774Y-103184622D01*
X106407000Y-103384581D01*
X106407000Y-103588459D01*
X106446774Y-103788418D01*
X106524795Y-103976776D01*
X106574750Y-104051539D01*
X106511063Y-104115226D01*
X106397795Y-104284744D01*
X106319774Y-104473102D01*
X106280000Y-104673061D01*
X97335960Y-104673061D01*
X97140349Y-104477450D01*
X96749721Y-104216440D01*
X96315679Y-104036654D01*
X95854902Y-103945000D01*
X95385098Y-103945000D01*
X94924321Y-104036654D01*
X94490279Y-104216440D01*
X94099651Y-104477450D01*
X93767450Y-104809651D01*
X93506440Y-105200279D01*
X93326654Y-105634321D01*
X93235000Y-106095098D01*
X85293709Y-106095098D01*
X85247037Y-105742967D01*
X85242000Y-105529218D01*
X85242000Y-103321726D01*
X87734728Y-103321726D01*
X87735146Y-103381547D01*
X87734728Y-103441367D01*
X87735628Y-103450538D01*
X87745992Y-103549140D01*
X87758016Y-103607714D01*
X87769229Y-103666496D01*
X87771893Y-103675317D01*
X87801211Y-103770028D01*
X87824370Y-103825119D01*
X87846798Y-103880632D01*
X87851125Y-103888768D01*
X87898280Y-103975980D01*
X87931730Y-104025571D01*
X87964486Y-104075629D01*
X87970310Y-104082770D01*
X88033507Y-104159162D01*
X88075942Y-104201301D01*
X88117805Y-104244051D01*
X88124906Y-104249925D01*
X88201737Y-104312587D01*
X88251548Y-104345681D01*
X88300921Y-104379488D01*
X88309027Y-104383870D01*
X88396566Y-104430415D01*
X88451841Y-104453197D01*
X88506851Y-104476775D01*
X88515655Y-104479500D01*
X88610568Y-104508156D01*
X88669241Y-104519773D01*
X88727758Y-104532212D01*
X88736923Y-104533175D01*
X88835594Y-104542850D01*
X88835598Y-104542850D01*
X88867581Y-104546000D01*
X91726419Y-104546000D01*
X91765579Y-104542143D01*
X91785248Y-104541911D01*
X91794401Y-104540839D01*
X91892797Y-104528624D01*
X91951120Y-104515505D01*
X92009702Y-104503185D01*
X92018472Y-104500356D01*
X92112621Y-104469261D01*
X92167311Y-104445051D01*
X92222347Y-104421604D01*
X92230400Y-104417125D01*
X92316717Y-104368336D01*
X92365648Y-104333976D01*
X92415107Y-104300268D01*
X92422137Y-104294310D01*
X92497333Y-104229684D01*
X92538676Y-104186456D01*
X92580619Y-104143811D01*
X92586358Y-104136601D01*
X92647570Y-104058601D01*
X92679724Y-104008176D01*
X92712599Y-103958172D01*
X92716829Y-103949985D01*
X92761723Y-103861580D01*
X92783468Y-103805873D01*
X92806002Y-103750444D01*
X92808561Y-103741591D01*
X92835430Y-103646150D01*
X92845945Y-103587254D01*
X92857279Y-103528531D01*
X92858070Y-103519350D01*
X92865890Y-103420508D01*
X92864766Y-103360718D01*
X92864478Y-103300878D01*
X92863470Y-103291718D01*
X92851942Y-103193239D01*
X92839223Y-103134791D01*
X92827319Y-103076161D01*
X92824551Y-103067371D01*
X92794115Y-102973007D01*
X92770288Y-102918149D01*
X92747225Y-102862951D01*
X92742802Y-102854866D01*
X92694617Y-102768211D01*
X92660586Y-102719021D01*
X92627241Y-102669353D01*
X92621336Y-102662287D01*
X92621332Y-102662281D01*
X92621327Y-102662276D01*
X92557234Y-102586636D01*
X92514279Y-102544976D01*
X92471932Y-102502742D01*
X92464762Y-102496952D01*
X92387190Y-102435198D01*
X92336959Y-102402674D01*
X92287232Y-102369480D01*
X92279074Y-102365193D01*
X92279070Y-102365191D01*
X92279067Y-102365189D01*
X92279064Y-102365188D01*
X92190986Y-102319681D01*
X92135418Y-102297541D01*
X92080158Y-102274625D01*
X92071327Y-102272006D01*
X92071321Y-102272004D01*
X91976072Y-102244470D01*
X91917315Y-102233555D01*
X91858601Y-102221798D01*
X91849426Y-102220944D01*
X91754644Y-102212780D01*
X91726419Y-102210000D01*
X88867581Y-102210000D01*
X88835100Y-102213199D01*
X88828505Y-102213199D01*
X88819341Y-102214163D01*
X88776325Y-102218988D01*
X88770617Y-102219550D01*
X88770209Y-102219674D01*
X88720815Y-102225214D01*
X88662321Y-102237647D01*
X88603621Y-102249270D01*
X88594818Y-102251995D01*
X88500315Y-102281973D01*
X88445368Y-102305524D01*
X88390027Y-102328333D01*
X88381921Y-102332716D01*
X88295041Y-102380479D01*
X88245679Y-102414278D01*
X88195857Y-102447379D01*
X88188757Y-102453253D01*
X88112807Y-102516982D01*
X88070944Y-102559732D01*
X88028508Y-102601872D01*
X88022684Y-102609014D01*
X87960560Y-102686281D01*
X87927812Y-102736326D01*
X87894355Y-102785927D01*
X87890029Y-102794064D01*
X87844096Y-102881925D01*
X87821697Y-102937365D01*
X87798508Y-102992529D01*
X87795845Y-103001351D01*
X87767852Y-103096461D01*
X87756652Y-103155172D01*
X87744613Y-103213819D01*
X87743714Y-103222990D01*
X87734728Y-103321726D01*
X85242000Y-103321726D01*
X85242000Y-98948212D01*
X95639000Y-98948212D01*
X95639000Y-99171788D01*
X95682617Y-99391067D01*
X95768176Y-99597624D01*
X95892388Y-99783520D01*
X96050480Y-99941612D01*
X96236376Y-100065824D01*
X96442933Y-100151383D01*
X96662212Y-100195000D01*
X96885788Y-100195000D01*
X97105067Y-100151383D01*
X97257950Y-100088057D01*
X97383368Y-100213475D01*
X97527828Y-100310000D01*
X97383368Y-100406525D01*
X97176525Y-100613368D01*
X97014010Y-100856589D01*
X96902068Y-101126842D01*
X96845000Y-101413740D01*
X96845000Y-101706260D01*
X96902068Y-101993158D01*
X97014010Y-102263411D01*
X97176525Y-102506632D01*
X97383368Y-102713475D01*
X97626589Y-102875990D01*
X97896842Y-102987932D01*
X98183740Y-103045000D01*
X98476260Y-103045000D01*
X98763158Y-102987932D01*
X99033411Y-102875990D01*
X99276632Y-102713475D01*
X99330000Y-102660107D01*
X99383368Y-102713475D01*
X99626589Y-102875990D01*
X99896842Y-102987932D01*
X100183740Y-103045000D01*
X100476260Y-103045000D01*
X100763158Y-102987932D01*
X101033411Y-102875990D01*
X101276632Y-102713475D01*
X101483475Y-102506632D01*
X101645990Y-102263411D01*
X101757932Y-101993158D01*
X101815000Y-101706260D01*
X101815000Y-101625061D01*
X101962000Y-101625061D01*
X101962000Y-101828939D01*
X102001774Y-102028898D01*
X102079795Y-102217256D01*
X102193063Y-102386774D01*
X102337226Y-102530937D01*
X102506744Y-102644205D01*
X102695102Y-102722226D01*
X102895061Y-102762000D01*
X103098939Y-102762000D01*
X103298898Y-102722226D01*
X103487256Y-102644205D01*
X103505000Y-102632349D01*
X103522744Y-102644205D01*
X103711102Y-102722226D01*
X103911061Y-102762000D01*
X104114939Y-102762000D01*
X104314898Y-102722226D01*
X104503256Y-102644205D01*
X104672774Y-102530937D01*
X104816937Y-102386774D01*
X104930205Y-102217256D01*
X105008226Y-102028898D01*
X105048000Y-101828939D01*
X105048000Y-101625061D01*
X105008226Y-101425102D01*
X104933236Y-101244061D01*
X113874600Y-101244061D01*
X113874600Y-101447939D01*
X113914374Y-101647898D01*
X113992395Y-101836256D01*
X114105663Y-102005774D01*
X114249826Y-102149937D01*
X114419344Y-102263205D01*
X114607702Y-102341226D01*
X114807661Y-102381000D01*
X115011539Y-102381000D01*
X115211498Y-102341226D01*
X115399856Y-102263205D01*
X115569374Y-102149937D01*
X115713537Y-102005774D01*
X115826805Y-101836256D01*
X115904826Y-101647898D01*
X115944600Y-101447939D01*
X115944600Y-101244061D01*
X115904826Y-101044102D01*
X115840326Y-100888385D01*
X115865937Y-100862774D01*
X115979205Y-100693256D01*
X116057226Y-100504898D01*
X116097000Y-100304939D01*
X116097000Y-100101061D01*
X117202000Y-100101061D01*
X117202000Y-100304939D01*
X117241774Y-100504898D01*
X117319795Y-100693256D01*
X117433063Y-100862774D01*
X117577226Y-101006937D01*
X117746744Y-101120205D01*
X117935102Y-101198226D01*
X118135061Y-101238000D01*
X118338939Y-101238000D01*
X118538898Y-101198226D01*
X118727256Y-101120205D01*
X118896774Y-101006937D01*
X119040937Y-100862774D01*
X119154205Y-100693256D01*
X119232226Y-100504898D01*
X119272000Y-100304939D01*
X119272000Y-100101061D01*
X119232226Y-99901102D01*
X119154205Y-99712744D01*
X119040937Y-99543226D01*
X118896774Y-99399063D01*
X118727256Y-99285795D01*
X118538898Y-99207774D01*
X118338939Y-99168000D01*
X118135061Y-99168000D01*
X117935102Y-99207774D01*
X117746744Y-99285795D01*
X117577226Y-99399063D01*
X117433063Y-99543226D01*
X117319795Y-99712744D01*
X117241774Y-99901102D01*
X117202000Y-100101061D01*
X116097000Y-100101061D01*
X116057226Y-99901102D01*
X115979205Y-99712744D01*
X115865937Y-99543226D01*
X115721774Y-99399063D01*
X115552256Y-99285795D01*
X115363898Y-99207774D01*
X115163939Y-99168000D01*
X114960061Y-99168000D01*
X114760102Y-99207774D01*
X114571744Y-99285795D01*
X114402226Y-99399063D01*
X114258063Y-99543226D01*
X114144795Y-99712744D01*
X114066774Y-99901102D01*
X114027000Y-100101061D01*
X114027000Y-100304939D01*
X114066774Y-100504898D01*
X114131274Y-100660615D01*
X114105663Y-100686226D01*
X113992395Y-100855744D01*
X113914374Y-101044102D01*
X113874600Y-101244061D01*
X104933236Y-101244061D01*
X104930205Y-101236744D01*
X104816937Y-101067226D01*
X104672774Y-100923063D01*
X104503256Y-100809795D01*
X104314898Y-100731774D01*
X104114939Y-100692000D01*
X103911061Y-100692000D01*
X103711102Y-100731774D01*
X103522744Y-100809795D01*
X103505000Y-100821651D01*
X103487256Y-100809795D01*
X103298898Y-100731774D01*
X103098939Y-100692000D01*
X102895061Y-100692000D01*
X102695102Y-100731774D01*
X102506744Y-100809795D01*
X102337226Y-100923063D01*
X102193063Y-101067226D01*
X102079795Y-101236744D01*
X102001774Y-101425102D01*
X101962000Y-101625061D01*
X101815000Y-101625061D01*
X101815000Y-101413740D01*
X101757932Y-101126842D01*
X101645990Y-100856589D01*
X101483475Y-100613368D01*
X101382310Y-100512203D01*
X101424180Y-100499502D01*
X101534494Y-100440537D01*
X101631185Y-100361185D01*
X101710537Y-100264494D01*
X101769502Y-100154180D01*
X101805812Y-100034482D01*
X101818072Y-99910000D01*
X101818072Y-99835897D01*
X109751616Y-99835897D01*
X109751616Y-100039775D01*
X109791390Y-100239734D01*
X109869411Y-100428092D01*
X109982679Y-100597610D01*
X110126842Y-100741773D01*
X110296360Y-100855041D01*
X110484718Y-100933062D01*
X110684677Y-100972836D01*
X110888555Y-100972836D01*
X111088514Y-100933062D01*
X111276872Y-100855041D01*
X111446390Y-100741773D01*
X111585226Y-100602937D01*
X111608226Y-100625937D01*
X111777744Y-100739205D01*
X111966102Y-100817226D01*
X112166061Y-100857000D01*
X112369939Y-100857000D01*
X112569898Y-100817226D01*
X112758256Y-100739205D01*
X112927774Y-100625937D01*
X113071937Y-100481774D01*
X113185205Y-100312256D01*
X113263226Y-100123898D01*
X113303000Y-99923939D01*
X113303000Y-99720061D01*
X113263226Y-99520102D01*
X113185205Y-99331744D01*
X113071937Y-99162226D01*
X112927774Y-99018063D01*
X112758256Y-98904795D01*
X112569898Y-98826774D01*
X112369939Y-98787000D01*
X112166061Y-98787000D01*
X111966102Y-98826774D01*
X111906495Y-98851464D01*
X111911774Y-98847937D01*
X112055937Y-98703774D01*
X112169205Y-98534256D01*
X112247226Y-98345898D01*
X112287000Y-98145939D01*
X112287000Y-97942061D01*
X112284190Y-97927933D01*
X112315898Y-97921626D01*
X112504256Y-97843605D01*
X112673774Y-97730337D01*
X112817937Y-97586174D01*
X112931205Y-97416656D01*
X113009226Y-97228298D01*
X113018820Y-97180061D01*
X118345000Y-97180061D01*
X118345000Y-97383939D01*
X118384774Y-97583898D01*
X118462795Y-97772256D01*
X118576063Y-97941774D01*
X118720226Y-98085937D01*
X118889744Y-98199205D01*
X119078102Y-98277226D01*
X119135381Y-98288619D01*
X119146774Y-98345898D01*
X119224795Y-98534256D01*
X119338063Y-98703774D01*
X119482226Y-98847937D01*
X119651744Y-98961205D01*
X119672325Y-98969730D01*
X119654774Y-99012102D01*
X119615000Y-99212061D01*
X119615000Y-99415939D01*
X119654774Y-99615898D01*
X119732795Y-99804256D01*
X119846063Y-99973774D01*
X119990226Y-100117937D01*
X120159744Y-100231205D01*
X120348102Y-100309226D01*
X120548061Y-100349000D01*
X120751939Y-100349000D01*
X120951898Y-100309226D01*
X121140256Y-100231205D01*
X121309774Y-100117937D01*
X121453937Y-99973774D01*
X121567205Y-99804256D01*
X121645226Y-99615898D01*
X121685000Y-99415939D01*
X121685000Y-99212061D01*
X121645226Y-99012102D01*
X121567205Y-98823744D01*
X121453937Y-98654226D01*
X121309774Y-98510063D01*
X121140256Y-98396795D01*
X121119675Y-98388270D01*
X121137226Y-98345898D01*
X121177000Y-98145939D01*
X121177000Y-97942061D01*
X121137226Y-97742102D01*
X121059205Y-97553744D01*
X120945937Y-97384226D01*
X120801774Y-97240063D01*
X120632256Y-97126795D01*
X120443898Y-97048774D01*
X120386619Y-97037381D01*
X120375226Y-96980102D01*
X120297205Y-96791744D01*
X120183937Y-96622226D01*
X120039774Y-96478063D01*
X119870256Y-96364795D01*
X119681898Y-96286774D01*
X119481939Y-96247000D01*
X119278061Y-96247000D01*
X119078102Y-96286774D01*
X118889744Y-96364795D01*
X118720226Y-96478063D01*
X118576063Y-96622226D01*
X118462795Y-96791744D01*
X118384774Y-96980102D01*
X118345000Y-97180061D01*
X113018820Y-97180061D01*
X113049000Y-97028339D01*
X113049000Y-96824461D01*
X113009226Y-96624502D01*
X112931205Y-96436144D01*
X112817937Y-96266626D01*
X112673774Y-96122463D01*
X112504256Y-96009195D01*
X112315898Y-95931174D01*
X112115939Y-95891400D01*
X111912061Y-95891400D01*
X111712102Y-95931174D01*
X111523744Y-96009195D01*
X111354226Y-96122463D01*
X111210063Y-96266626D01*
X111096795Y-96436144D01*
X111018774Y-96624502D01*
X110979000Y-96824461D01*
X110979000Y-97028339D01*
X110981810Y-97042467D01*
X110950102Y-97048774D01*
X110761744Y-97126795D01*
X110592226Y-97240063D01*
X110448063Y-97384226D01*
X110334795Y-97553744D01*
X110256774Y-97742102D01*
X110217000Y-97942061D01*
X110217000Y-98145939D01*
X110256774Y-98345898D01*
X110334795Y-98534256D01*
X110448063Y-98703774D01*
X110592226Y-98847937D01*
X110676749Y-98904413D01*
X110484718Y-98942610D01*
X110296360Y-99020631D01*
X110126842Y-99133899D01*
X109982679Y-99278062D01*
X109869411Y-99447580D01*
X109791390Y-99635938D01*
X109751616Y-99835897D01*
X101818072Y-99835897D01*
X101818072Y-98210000D01*
X101805812Y-98085518D01*
X101769502Y-97965820D01*
X101710537Y-97855506D01*
X101631185Y-97758815D01*
X101534494Y-97679463D01*
X101424180Y-97620498D01*
X101304482Y-97584188D01*
X101180000Y-97571928D01*
X99480000Y-97571928D01*
X99422066Y-97577634D01*
X99465000Y-97361788D01*
X99465000Y-97138212D01*
X99421383Y-96918933D01*
X99335824Y-96712376D01*
X99238135Y-96566174D01*
X99239508Y-96566447D01*
X99443386Y-96566447D01*
X99643345Y-96526673D01*
X99831703Y-96448652D01*
X100001221Y-96335384D01*
X100145384Y-96191221D01*
X100258652Y-96021703D01*
X100336673Y-95833345D01*
X100370875Y-95661400D01*
X100420539Y-95661400D01*
X100620498Y-95621626D01*
X100808856Y-95543605D01*
X100978374Y-95430337D01*
X101122537Y-95286174D01*
X101235805Y-95116656D01*
X101313826Y-94928298D01*
X101353600Y-94728339D01*
X101353600Y-94530095D01*
X101492884Y-94557800D01*
X101696762Y-94557800D01*
X101896721Y-94518026D01*
X102085079Y-94440005D01*
X102254597Y-94326737D01*
X102398760Y-94182574D01*
X102512028Y-94013056D01*
X102590049Y-93824698D01*
X102629823Y-93624739D01*
X102629823Y-93624061D01*
X106661000Y-93624061D01*
X106661000Y-93827939D01*
X106700774Y-94027898D01*
X106778795Y-94216256D01*
X106790651Y-94234000D01*
X106778795Y-94251744D01*
X106700774Y-94440102D01*
X106661000Y-94640061D01*
X106661000Y-94843939D01*
X106700774Y-95043898D01*
X106778795Y-95232256D01*
X106892063Y-95401774D01*
X107036226Y-95545937D01*
X107205744Y-95659205D01*
X107394102Y-95737226D01*
X107594061Y-95777000D01*
X107797939Y-95777000D01*
X107997898Y-95737226D01*
X108186256Y-95659205D01*
X108355774Y-95545937D01*
X108499937Y-95401774D01*
X108613205Y-95232256D01*
X108691226Y-95043898D01*
X108731000Y-94843939D01*
X108731000Y-94640061D01*
X108691226Y-94440102D01*
X108613205Y-94251744D01*
X108601349Y-94234000D01*
X108613205Y-94216256D01*
X108691226Y-94027898D01*
X108731000Y-93827939D01*
X108731000Y-93624061D01*
X115551000Y-93624061D01*
X115551000Y-93827939D01*
X115590774Y-94027898D01*
X115668795Y-94216256D01*
X115782063Y-94385774D01*
X115926226Y-94529937D01*
X116095744Y-94643205D01*
X116284102Y-94721226D01*
X116484061Y-94761000D01*
X116687939Y-94761000D01*
X116887898Y-94721226D01*
X117076256Y-94643205D01*
X117245774Y-94529937D01*
X117389937Y-94385774D01*
X117503205Y-94216256D01*
X117581226Y-94027898D01*
X117621000Y-93827939D01*
X117621000Y-93624061D01*
X117581226Y-93424102D01*
X117503205Y-93235744D01*
X117389937Y-93066226D01*
X117245774Y-92922063D01*
X117076256Y-92808795D01*
X116887898Y-92730774D01*
X116687939Y-92691000D01*
X116484061Y-92691000D01*
X116284102Y-92730774D01*
X116095744Y-92808795D01*
X115926226Y-92922063D01*
X115782063Y-93066226D01*
X115668795Y-93235744D01*
X115590774Y-93424102D01*
X115551000Y-93624061D01*
X108731000Y-93624061D01*
X108691226Y-93424102D01*
X108613205Y-93235744D01*
X108499937Y-93066226D01*
X108355774Y-92922063D01*
X108186256Y-92808795D01*
X107997898Y-92730774D01*
X107797939Y-92691000D01*
X107594061Y-92691000D01*
X107394102Y-92730774D01*
X107205744Y-92808795D01*
X107036226Y-92922063D01*
X106892063Y-93066226D01*
X106778795Y-93235744D01*
X106700774Y-93424102D01*
X106661000Y-93624061D01*
X102629823Y-93624061D01*
X102629823Y-93420861D01*
X102590049Y-93220902D01*
X102512028Y-93032544D01*
X102398760Y-92863026D01*
X102254597Y-92718863D01*
X102088770Y-92608061D01*
X118599000Y-92608061D01*
X118599000Y-92811939D01*
X118638774Y-93011898D01*
X118716795Y-93200256D01*
X118830063Y-93369774D01*
X118974226Y-93513937D01*
X119143744Y-93627205D01*
X119332102Y-93705226D01*
X119488000Y-93736236D01*
X119488000Y-93827939D01*
X119527774Y-94027898D01*
X119605795Y-94216256D01*
X119719063Y-94385774D01*
X119863226Y-94529937D01*
X120032744Y-94643205D01*
X120221102Y-94721226D01*
X120421061Y-94761000D01*
X120624939Y-94761000D01*
X120824898Y-94721226D01*
X121013256Y-94643205D01*
X121182774Y-94529937D01*
X121326937Y-94385774D01*
X121440205Y-94216256D01*
X121518226Y-94027898D01*
X121558000Y-93827939D01*
X121558000Y-93624061D01*
X121518226Y-93424102D01*
X121440205Y-93235744D01*
X121326937Y-93066226D01*
X121182774Y-92922063D01*
X121013256Y-92808795D01*
X120824898Y-92730774D01*
X120669000Y-92699764D01*
X120669000Y-92608061D01*
X120629226Y-92408102D01*
X120551205Y-92219744D01*
X120437937Y-92050226D01*
X120293774Y-91906063D01*
X120124256Y-91792795D01*
X119935898Y-91714774D01*
X119735939Y-91675000D01*
X119532061Y-91675000D01*
X119332102Y-91714774D01*
X119143744Y-91792795D01*
X118974226Y-91906063D01*
X118830063Y-92050226D01*
X118716795Y-92219744D01*
X118638774Y-92408102D01*
X118599000Y-92608061D01*
X102088770Y-92608061D01*
X102085079Y-92605595D01*
X101896721Y-92527574D01*
X101696762Y-92487800D01*
X101492884Y-92487800D01*
X101292925Y-92527574D01*
X101104567Y-92605595D01*
X100935049Y-92718863D01*
X100790886Y-92863026D01*
X100677618Y-93032544D01*
X100599597Y-93220902D01*
X100559823Y-93420861D01*
X100559823Y-93619105D01*
X100420539Y-93591400D01*
X100216661Y-93591400D01*
X100016702Y-93631174D01*
X99828344Y-93709195D01*
X99658826Y-93822463D01*
X99514663Y-93966626D01*
X99401395Y-94136144D01*
X99323374Y-94324502D01*
X99289172Y-94496447D01*
X99239508Y-94496447D01*
X99039549Y-94536221D01*
X98851191Y-94614242D01*
X98681673Y-94727510D01*
X98537510Y-94871673D01*
X98424242Y-95041191D01*
X98346221Y-95229549D01*
X98306447Y-95429508D01*
X98306447Y-95633386D01*
X98346221Y-95833345D01*
X98424242Y-96021703D01*
X98493447Y-96125275D01*
X98441788Y-96115000D01*
X98218212Y-96115000D01*
X97998933Y-96158617D01*
X97792376Y-96244176D01*
X97606480Y-96368388D01*
X97448388Y-96526480D01*
X97336384Y-96694105D01*
X97139788Y-96655000D01*
X96916212Y-96655000D01*
X96696933Y-96698617D01*
X96490376Y-96784176D01*
X96304480Y-96908388D01*
X96146388Y-97066480D01*
X96022176Y-97252376D01*
X95936617Y-97458933D01*
X95893000Y-97678212D01*
X95893000Y-97901788D01*
X95936617Y-98121067D01*
X95986756Y-98242112D01*
X95892388Y-98336480D01*
X95768176Y-98522376D01*
X95682617Y-98728933D01*
X95639000Y-98948212D01*
X85242000Y-98948212D01*
X85242000Y-97225675D01*
X87742728Y-97225675D01*
X87743146Y-97285492D01*
X87742728Y-97345308D01*
X87743627Y-97354479D01*
X87753827Y-97451527D01*
X87765861Y-97510152D01*
X87777064Y-97568884D01*
X87779728Y-97577706D01*
X87808584Y-97670925D01*
X87831767Y-97726075D01*
X87854175Y-97781537D01*
X87858502Y-97789673D01*
X87904914Y-97875511D01*
X87938362Y-97925098D01*
X87971119Y-97975156D01*
X87976943Y-97982297D01*
X88039145Y-98057486D01*
X88081594Y-98099639D01*
X88123439Y-98142371D01*
X88130540Y-98148245D01*
X88206160Y-98209921D01*
X88256025Y-98243052D01*
X88305350Y-98276825D01*
X88313445Y-98281202D01*
X88313448Y-98281204D01*
X88313451Y-98281205D01*
X88313456Y-98281208D01*
X88399617Y-98327020D01*
X88454909Y-98349809D01*
X88509898Y-98373378D01*
X88518701Y-98376103D01*
X88612119Y-98404308D01*
X88670826Y-98415933D01*
X88729316Y-98428365D01*
X88738470Y-98429327D01*
X88738476Y-98429328D01*
X88738481Y-98429328D01*
X88834737Y-98438766D01*
X88865692Y-98441904D01*
X91724528Y-98450090D01*
X91758930Y-98446801D01*
X91765495Y-98446801D01*
X91774659Y-98445837D01*
X91807269Y-98442179D01*
X91821519Y-98440817D01*
X91822773Y-98440440D01*
X91873186Y-98434786D01*
X91931687Y-98422351D01*
X91990379Y-98410730D01*
X91999182Y-98408005D01*
X92093686Y-98378027D01*
X92148671Y-98354460D01*
X92203972Y-98331667D01*
X92212078Y-98327284D01*
X92298959Y-98279521D01*
X92348306Y-98245733D01*
X92398143Y-98212621D01*
X92405244Y-98206747D01*
X92481193Y-98143017D01*
X92523037Y-98100287D01*
X92565492Y-98058128D01*
X92571316Y-98050986D01*
X92633440Y-97973720D01*
X92666200Y-97923657D01*
X92699645Y-97874073D01*
X92703971Y-97865937D01*
X92749904Y-97778075D01*
X92772303Y-97722635D01*
X92795492Y-97667471D01*
X92798155Y-97658649D01*
X92826148Y-97563539D01*
X92837348Y-97504828D01*
X92849387Y-97446181D01*
X92850286Y-97437010D01*
X92859272Y-97338274D01*
X92858854Y-97278453D01*
X92859272Y-97218633D01*
X92858372Y-97209462D01*
X92848008Y-97110860D01*
X92835984Y-97052286D01*
X92824771Y-96993504D01*
X92822107Y-96984683D01*
X92792789Y-96889973D01*
X92769636Y-96834895D01*
X92747202Y-96779368D01*
X92742875Y-96771232D01*
X92695720Y-96684020D01*
X92662270Y-96634429D01*
X92629514Y-96584371D01*
X92623689Y-96577230D01*
X92560493Y-96500838D01*
X92518058Y-96458699D01*
X92476195Y-96415949D01*
X92469094Y-96410075D01*
X92392263Y-96347413D01*
X92342467Y-96314329D01*
X92293079Y-96280512D01*
X92284973Y-96276130D01*
X92197434Y-96229585D01*
X92142159Y-96206803D01*
X92087149Y-96183225D01*
X92078346Y-96180500D01*
X91983432Y-96151844D01*
X91924752Y-96140225D01*
X91866242Y-96127788D01*
X91857077Y-96126825D01*
X91822288Y-96123414D01*
X91821519Y-96123183D01*
X91724528Y-96113910D01*
X88865692Y-96122096D01*
X88835095Y-96125198D01*
X88828617Y-96125198D01*
X88819453Y-96126162D01*
X88722478Y-96137039D01*
X88663984Y-96149472D01*
X88605284Y-96161095D01*
X88596481Y-96163820D01*
X88503465Y-96193326D01*
X88448505Y-96216882D01*
X88393178Y-96239686D01*
X88385072Y-96244069D01*
X88299559Y-96291080D01*
X88250208Y-96324872D01*
X88200374Y-96357982D01*
X88193274Y-96363856D01*
X88118522Y-96426581D01*
X88076695Y-96469294D01*
X88034226Y-96511467D01*
X88028402Y-96518609D01*
X87967256Y-96594659D01*
X87934535Y-96644661D01*
X87901049Y-96694306D01*
X87896723Y-96702443D01*
X87851513Y-96788922D01*
X87829104Y-96844388D01*
X87805925Y-96899527D01*
X87803262Y-96908349D01*
X87775710Y-97001961D01*
X87764508Y-97060682D01*
X87752471Y-97119322D01*
X87751572Y-97128493D01*
X87742728Y-97225675D01*
X85242000Y-97225675D01*
X85242000Y-95023952D01*
X85312975Y-94187482D01*
X85347335Y-94055098D01*
X93235000Y-94055098D01*
X93235000Y-94524902D01*
X93326654Y-94985679D01*
X93506440Y-95419721D01*
X93767450Y-95810349D01*
X94099651Y-96142550D01*
X94490279Y-96403560D01*
X94924321Y-96583346D01*
X95385098Y-96675000D01*
X95854902Y-96675000D01*
X96315679Y-96583346D01*
X96749721Y-96403560D01*
X97140349Y-96142550D01*
X97472550Y-95810349D01*
X97733560Y-95419721D01*
X97913346Y-94985679D01*
X98005000Y-94524902D01*
X98005000Y-94055098D01*
X97913346Y-93594321D01*
X97733560Y-93160279D01*
X97472550Y-92769651D01*
X97140349Y-92437450D01*
X96749721Y-92176440D01*
X96315679Y-91996654D01*
X95854902Y-91905000D01*
X95385098Y-91905000D01*
X94924321Y-91996654D01*
X94490279Y-92176440D01*
X94099651Y-92437450D01*
X93767450Y-92769651D01*
X93506440Y-93160279D01*
X93326654Y-93594321D01*
X93235000Y-94055098D01*
X85347335Y-94055098D01*
X85516825Y-93402082D01*
X85850092Y-92662258D01*
X86303248Y-91989160D01*
X86863332Y-91402041D01*
X86949324Y-91338061D01*
X101835000Y-91338061D01*
X101835000Y-91541939D01*
X101874774Y-91741898D01*
X101952795Y-91930256D01*
X102066063Y-92099774D01*
X102210226Y-92243937D01*
X102379744Y-92357205D01*
X102568102Y-92435226D01*
X102768061Y-92475000D01*
X102971939Y-92475000D01*
X103171898Y-92435226D01*
X103360256Y-92357205D01*
X103529774Y-92243937D01*
X103673937Y-92099774D01*
X103787205Y-91930256D01*
X103865226Y-91741898D01*
X103905000Y-91541939D01*
X103905000Y-91338061D01*
X103865226Y-91138102D01*
X103787205Y-90949744D01*
X103673937Y-90780226D01*
X103529774Y-90636063D01*
X103360256Y-90522795D01*
X103171898Y-90444774D01*
X102971939Y-90405000D01*
X102768061Y-90405000D01*
X102568102Y-90444774D01*
X102379744Y-90522795D01*
X102210226Y-90636063D01*
X102066063Y-90780226D01*
X101952795Y-90949744D01*
X101874774Y-91138102D01*
X101835000Y-91338061D01*
X86949324Y-91338061D01*
X87514335Y-90917681D01*
X88237642Y-90549932D01*
X89012563Y-90309313D01*
X89837033Y-90200037D01*
X90050782Y-90195000D01*
X125603000Y-90195000D01*
X125603000Y-110338000D01*
G37*
G04 #@! TD.AperFunction*
D16*
X131162795Y-90314744D02*
X131084774Y-90503102D01*
X131045000Y-90703061D01*
X131045000Y-90906939D01*
X131084774Y-91106898D01*
X131162795Y-91295256D01*
X131259510Y-91440000D01*
X131162795Y-91584744D01*
X131084774Y-91773102D01*
X131045000Y-91973061D01*
X131045000Y-92176939D01*
X131084774Y-92376898D01*
X131162795Y-92565256D01*
X131259510Y-92710000D01*
X131162795Y-92854744D01*
X131084774Y-93043102D01*
X131045000Y-93243061D01*
X131045000Y-93446939D01*
X131084774Y-93646898D01*
X131162795Y-93835256D01*
X131276063Y-94004774D01*
X131420226Y-94148937D01*
X131589744Y-94262205D01*
X131778102Y-94340226D01*
X131978061Y-94380000D01*
X132181939Y-94380000D01*
X132381898Y-94340226D01*
X132570256Y-94262205D01*
X132715000Y-94165490D01*
X132859744Y-94262205D01*
X133048102Y-94340226D01*
X133248061Y-94380000D01*
X133451939Y-94380000D01*
X133651898Y-94340226D01*
X133840256Y-94262205D01*
X133985000Y-94165490D01*
X134129744Y-94262205D01*
X134318102Y-94340226D01*
X134518061Y-94380000D01*
X134721939Y-94380000D01*
X134921898Y-94340226D01*
X135110256Y-94262205D01*
X135255000Y-94165490D01*
X135399744Y-94262205D01*
X135588102Y-94340226D01*
X135788061Y-94380000D01*
X135991939Y-94380000D01*
X136191898Y-94340226D01*
X136380256Y-94262205D01*
X136549774Y-94148937D01*
X136693937Y-94004774D01*
X136807205Y-93835256D01*
X136885226Y-93646898D01*
X136925000Y-93446939D01*
X136925000Y-93243061D01*
X136891961Y-93076961D01*
X137058061Y-93110000D01*
X137261939Y-93110000D01*
X137428039Y-93076961D01*
X137395000Y-93243061D01*
X137395000Y-93446939D01*
X137434774Y-93646898D01*
X137512795Y-93835256D01*
X137626063Y-94004774D01*
X137770226Y-94148937D01*
X137939744Y-94262205D01*
X138128102Y-94340226D01*
X138328061Y-94380000D01*
X138531939Y-94380000D01*
X138731898Y-94340226D01*
X138920256Y-94262205D01*
X139089774Y-94148937D01*
X139233937Y-94004774D01*
X139347205Y-93835256D01*
X139425226Y-93646898D01*
X139465000Y-93446939D01*
X139465000Y-93243061D01*
X139425226Y-93043102D01*
X139347205Y-92854744D01*
X139250490Y-92710000D01*
X139347205Y-92565256D01*
X139425226Y-92376898D01*
X139465000Y-92176939D01*
X139465000Y-91973061D01*
X139425226Y-91773102D01*
X139347205Y-91584744D01*
X139250490Y-91440000D01*
X139347205Y-91295256D01*
X139425226Y-91106898D01*
X139465000Y-90906939D01*
X139465000Y-90703061D01*
X139425226Y-90503102D01*
X139347205Y-90314744D01*
X139267195Y-90195000D01*
X155292179Y-90195000D01*
X156132196Y-90268492D01*
X156918743Y-90479247D01*
X157656739Y-90823380D01*
X158323769Y-91290439D01*
X158899560Y-91866231D01*
X159366622Y-92533263D01*
X159710754Y-93271262D01*
X159921509Y-94057806D01*
X159995000Y-94897821D01*
X159995001Y-105635168D01*
X159921509Y-106475194D01*
X159710754Y-107261738D01*
X159366622Y-107999737D01*
X158899560Y-108666769D01*
X158323769Y-109242561D01*
X157656739Y-109709620D01*
X156918743Y-110053753D01*
X156132196Y-110264508D01*
X155292179Y-110338000D01*
X126365000Y-110338000D01*
X126365000Y-107848061D01*
X138030000Y-107848061D01*
X138030000Y-108051939D01*
X138069774Y-108251898D01*
X138147795Y-108440256D01*
X138261063Y-108609774D01*
X138405226Y-108753937D01*
X138574744Y-108867205D01*
X138763102Y-108945226D01*
X138963061Y-108985000D01*
X139166939Y-108985000D01*
X139366898Y-108945226D01*
X139555256Y-108867205D01*
X139724774Y-108753937D01*
X139868937Y-108609774D01*
X139982205Y-108440256D01*
X140060226Y-108251898D01*
X140100000Y-108051939D01*
X140100000Y-107848061D01*
X140060226Y-107648102D01*
X139982205Y-107459744D01*
X139868937Y-107290226D01*
X139724774Y-107146063D01*
X139555256Y-107032795D01*
X139366898Y-106954774D01*
X139166939Y-106915000D01*
X138963061Y-106915000D01*
X138763102Y-106954774D01*
X138574744Y-107032795D01*
X138405226Y-107146063D01*
X138261063Y-107290226D01*
X138147795Y-107459744D01*
X138069774Y-107648102D01*
X138030000Y-107848061D01*
X126365000Y-107848061D01*
X126365000Y-106696349D01*
X126382744Y-106708205D01*
X126571102Y-106786226D01*
X126771061Y-106826000D01*
X126974939Y-106826000D01*
X127174898Y-106786226D01*
X127363256Y-106708205D01*
X127532774Y-106594937D01*
X127540425Y-106587286D01*
X127714102Y-106659226D01*
X127914061Y-106699000D01*
X128117939Y-106699000D01*
X128317898Y-106659226D01*
X128506256Y-106581205D01*
X128675774Y-106467937D01*
X128819650Y-106324061D01*
X131553000Y-106324061D01*
X131553000Y-106527939D01*
X131592774Y-106727898D01*
X131670795Y-106916256D01*
X131784063Y-107085774D01*
X131928226Y-107229937D01*
X132097744Y-107343205D01*
X132286102Y-107421226D01*
X132486061Y-107461000D01*
X132689939Y-107461000D01*
X132889898Y-107421226D01*
X133078256Y-107343205D01*
X133247774Y-107229937D01*
X133391937Y-107085774D01*
X133505205Y-106916256D01*
X133583226Y-106727898D01*
X133623000Y-106527939D01*
X133623000Y-106324061D01*
X133583226Y-106124102D01*
X133505205Y-105935744D01*
X133391937Y-105766226D01*
X133247774Y-105622063D01*
X133078256Y-105508795D01*
X132889898Y-105430774D01*
X132689939Y-105391000D01*
X132486061Y-105391000D01*
X132286102Y-105430774D01*
X132097744Y-105508795D01*
X131928226Y-105622063D01*
X131784063Y-105766226D01*
X131670795Y-105935744D01*
X131592774Y-106124102D01*
X131553000Y-106324061D01*
X128819650Y-106324061D01*
X128819937Y-106323774D01*
X128933205Y-106154256D01*
X129011226Y-105965898D01*
X129051000Y-105765939D01*
X129051000Y-105562061D01*
X129011226Y-105362102D01*
X128945970Y-105204561D01*
X138133500Y-105204561D01*
X138133500Y-105408439D01*
X138173274Y-105608398D01*
X138251295Y-105796756D01*
X138364563Y-105966274D01*
X138508726Y-106110437D01*
X138678244Y-106223705D01*
X138866602Y-106301726D01*
X139066561Y-106341500D01*
X139270439Y-106341500D01*
X139470398Y-106301726D01*
X139658756Y-106223705D01*
X139828274Y-106110437D01*
X139972437Y-105966274D01*
X140085705Y-105796756D01*
X140163726Y-105608398D01*
X140203500Y-105408439D01*
X140203500Y-105204561D01*
X140163726Y-105004602D01*
X140085705Y-104816244D01*
X139972437Y-104646726D01*
X139828274Y-104502563D01*
X139658756Y-104389295D01*
X139470398Y-104311274D01*
X139270439Y-104271500D01*
X139066561Y-104271500D01*
X138866602Y-104311274D01*
X138678244Y-104389295D01*
X138508726Y-104502563D01*
X138364563Y-104646726D01*
X138251295Y-104816244D01*
X138173274Y-105004602D01*
X138133500Y-105204561D01*
X128945970Y-105204561D01*
X128933205Y-105173744D01*
X128819937Y-105004226D01*
X128675774Y-104860063D01*
X128506256Y-104746795D01*
X128317898Y-104668774D01*
X128117939Y-104629000D01*
X127914061Y-104629000D01*
X127714102Y-104668774D01*
X127525744Y-104746795D01*
X127356226Y-104860063D01*
X127348575Y-104867714D01*
X127174898Y-104795774D01*
X126974939Y-104756000D01*
X126771061Y-104756000D01*
X126571102Y-104795774D01*
X126382744Y-104873795D01*
X126365000Y-104885651D01*
X126365000Y-101880933D01*
X132062202Y-101880933D01*
X132062202Y-102084811D01*
X132101976Y-102284770D01*
X132179997Y-102473128D01*
X132293265Y-102642646D01*
X132437428Y-102786809D01*
X132606946Y-102900077D01*
X132795304Y-102978098D01*
X132995263Y-103017872D01*
X133199141Y-103017872D01*
X133399100Y-102978098D01*
X133587458Y-102900077D01*
X133756976Y-102786809D01*
X133785573Y-102758212D01*
X142375000Y-102758212D01*
X142375000Y-102981788D01*
X142418617Y-103201067D01*
X142504176Y-103407624D01*
X142611670Y-103568500D01*
X142504176Y-103729376D01*
X142418617Y-103935933D01*
X142375000Y-104155212D01*
X142375000Y-104378788D01*
X142418617Y-104598067D01*
X142504176Y-104804624D01*
X142628388Y-104990520D01*
X142786480Y-105148612D01*
X142972376Y-105272824D01*
X143178933Y-105358383D01*
X143294179Y-105381307D01*
X143318487Y-105628111D01*
X143403401Y-105908034D01*
X143541294Y-106166014D01*
X143726866Y-106392134D01*
X143952986Y-106577706D01*
X143970374Y-106587000D01*
X143952986Y-106596294D01*
X143726866Y-106781866D01*
X143541294Y-107007986D01*
X143403401Y-107265966D01*
X143318487Y-107545889D01*
X143289815Y-107837000D01*
X143318487Y-108128111D01*
X143403401Y-108408034D01*
X143541294Y-108666014D01*
X143726866Y-108892134D01*
X143952986Y-109077706D01*
X144210966Y-109215599D01*
X144490889Y-109300513D01*
X144709050Y-109322000D01*
X145104950Y-109322000D01*
X145323111Y-109300513D01*
X145603034Y-109215599D01*
X145861014Y-109077706D01*
X146087134Y-108892134D01*
X146272706Y-108666014D01*
X146410599Y-108408034D01*
X146495513Y-108128111D01*
X146524185Y-107837000D01*
X146495513Y-107545889D01*
X146410599Y-107265966D01*
X146272706Y-107007986D01*
X146087134Y-106781866D01*
X145861014Y-106596294D01*
X145843626Y-106587000D01*
X145861014Y-106577706D01*
X146087134Y-106392134D01*
X146272706Y-106166014D01*
X146410599Y-105908034D01*
X146495513Y-105628111D01*
X146522675Y-105352332D01*
X146714624Y-105272824D01*
X146900520Y-105148612D01*
X147058612Y-104990520D01*
X147182824Y-104804624D01*
X147268383Y-104598067D01*
X147312000Y-104378788D01*
X147312000Y-104155212D01*
X147268383Y-103935933D01*
X147182824Y-103729376D01*
X147103088Y-103610044D01*
X147152612Y-103560520D01*
X147276824Y-103374624D01*
X147298756Y-103321675D01*
X151496728Y-103321675D01*
X151497146Y-103381492D01*
X151496728Y-103441308D01*
X151497627Y-103450479D01*
X151507827Y-103547527D01*
X151519861Y-103606152D01*
X151531064Y-103664884D01*
X151533728Y-103673706D01*
X151562584Y-103766925D01*
X151585767Y-103822075D01*
X151608175Y-103877537D01*
X151612502Y-103885673D01*
X151658914Y-103971511D01*
X151692362Y-104021098D01*
X151725119Y-104071156D01*
X151730943Y-104078297D01*
X151793145Y-104153486D01*
X151835594Y-104195639D01*
X151877439Y-104238371D01*
X151884540Y-104244245D01*
X151960160Y-104305921D01*
X152010025Y-104339052D01*
X152059350Y-104372825D01*
X152067445Y-104377202D01*
X152067448Y-104377204D01*
X152067451Y-104377205D01*
X152067456Y-104377208D01*
X152153617Y-104423020D01*
X152208909Y-104445809D01*
X152263898Y-104469378D01*
X152272701Y-104472103D01*
X152366119Y-104500308D01*
X152424826Y-104511933D01*
X152483316Y-104524365D01*
X152492470Y-104525327D01*
X152492476Y-104525328D01*
X152492481Y-104525328D01*
X152589598Y-104534850D01*
X152621581Y-104538000D01*
X155480419Y-104538000D01*
X155512890Y-104534802D01*
X155519383Y-104534802D01*
X155528547Y-104533838D01*
X155570831Y-104529095D01*
X155577383Y-104528450D01*
X155577852Y-104528308D01*
X155625522Y-104522961D01*
X155684002Y-104510531D01*
X155742717Y-104498905D01*
X155751520Y-104496180D01*
X155844535Y-104466674D01*
X155899495Y-104443118D01*
X155954822Y-104420314D01*
X155962928Y-104415931D01*
X156048440Y-104368920D01*
X156097771Y-104335143D01*
X156147626Y-104302019D01*
X156154719Y-104296149D01*
X156154723Y-104296147D01*
X156154726Y-104296144D01*
X156229478Y-104233419D01*
X156271321Y-104190690D01*
X156313774Y-104148533D01*
X156319598Y-104141391D01*
X156319601Y-104141388D01*
X156319604Y-104141384D01*
X156380744Y-104065341D01*
X156413487Y-104015305D01*
X156446951Y-103965693D01*
X156451277Y-103957557D01*
X156496487Y-103871077D01*
X156518890Y-103815626D01*
X156542075Y-103760473D01*
X156544738Y-103751651D01*
X156572290Y-103658040D01*
X156583496Y-103599297D01*
X156595529Y-103540678D01*
X156596428Y-103531507D01*
X156605272Y-103434324D01*
X156604854Y-103374509D01*
X156605272Y-103314693D01*
X156604373Y-103305522D01*
X156594173Y-103208473D01*
X156582140Y-103149854D01*
X156570936Y-103091116D01*
X156568272Y-103082294D01*
X156539416Y-102989075D01*
X156516238Y-102933937D01*
X156493825Y-102878463D01*
X156489498Y-102870327D01*
X156443085Y-102784489D01*
X156409645Y-102734913D01*
X156376881Y-102684844D01*
X156371057Y-102677703D01*
X156308855Y-102602514D01*
X156266406Y-102560361D01*
X156224561Y-102517629D01*
X156217460Y-102511755D01*
X156141839Y-102450079D01*
X156092034Y-102416988D01*
X156042650Y-102383174D01*
X156034544Y-102378792D01*
X155948383Y-102332980D01*
X155893091Y-102310191D01*
X155838102Y-102286622D01*
X155829299Y-102283897D01*
X155735881Y-102255692D01*
X155677174Y-102244067D01*
X155618684Y-102231635D01*
X155609530Y-102230673D01*
X155609524Y-102230672D01*
X155609519Y-102230672D01*
X155512402Y-102221150D01*
X155480419Y-102218000D01*
X152621581Y-102218000D01*
X152589110Y-102221198D01*
X152582617Y-102221198D01*
X152573453Y-102222162D01*
X152531169Y-102226905D01*
X152524617Y-102227550D01*
X152524148Y-102227692D01*
X152476478Y-102233039D01*
X152417984Y-102245472D01*
X152359284Y-102257095D01*
X152350481Y-102259820D01*
X152257465Y-102289326D01*
X152202505Y-102312882D01*
X152147178Y-102335686D01*
X152139072Y-102340069D01*
X152053559Y-102387080D01*
X152004208Y-102420872D01*
X151954374Y-102453982D01*
X151947274Y-102459856D01*
X151872522Y-102522581D01*
X151830695Y-102565294D01*
X151788226Y-102607467D01*
X151782402Y-102614609D01*
X151721256Y-102690659D01*
X151688535Y-102740661D01*
X151655049Y-102790306D01*
X151650723Y-102798443D01*
X151605513Y-102884922D01*
X151583104Y-102940388D01*
X151559925Y-102995527D01*
X151557262Y-103004349D01*
X151529710Y-103097961D01*
X151518508Y-103156682D01*
X151506471Y-103215322D01*
X151505572Y-103224493D01*
X151496728Y-103321675D01*
X147298756Y-103321675D01*
X147362383Y-103168067D01*
X147406000Y-102948788D01*
X147406000Y-102725212D01*
X147362383Y-102505933D01*
X147276824Y-102299376D01*
X147196855Y-102179694D01*
X147309824Y-102010624D01*
X147395383Y-101804067D01*
X147439000Y-101584788D01*
X147439000Y-101361212D01*
X147395383Y-101141933D01*
X147309824Y-100935376D01*
X147185612Y-100749480D01*
X147027520Y-100591388D01*
X146841624Y-100467176D01*
X146635067Y-100381617D01*
X146522006Y-100359128D01*
X146524185Y-100337000D01*
X146495513Y-100045889D01*
X146410599Y-99765966D01*
X146272706Y-99507986D01*
X146087134Y-99281866D01*
X145861014Y-99096294D01*
X145843626Y-99087000D01*
X145861014Y-99077706D01*
X146087134Y-98892134D01*
X146272706Y-98666014D01*
X146410599Y-98408034D01*
X146495513Y-98128111D01*
X146524185Y-97837000D01*
X146495513Y-97545889D01*
X146410599Y-97265966D01*
X146389064Y-97225675D01*
X151496728Y-97225675D01*
X151497146Y-97285491D01*
X151496728Y-97345308D01*
X151497627Y-97354479D01*
X151507827Y-97451527D01*
X151519861Y-97510152D01*
X151531064Y-97568884D01*
X151533728Y-97577706D01*
X151562584Y-97670925D01*
X151585767Y-97726075D01*
X151608175Y-97781537D01*
X151612502Y-97789673D01*
X151658914Y-97875511D01*
X151692362Y-97925098D01*
X151725119Y-97975156D01*
X151730943Y-97982297D01*
X151793145Y-98057486D01*
X151835594Y-98099639D01*
X151877439Y-98142371D01*
X151884540Y-98148245D01*
X151960160Y-98209921D01*
X152010025Y-98243052D01*
X152059350Y-98276825D01*
X152067445Y-98281202D01*
X152067448Y-98281204D01*
X152067451Y-98281205D01*
X152067456Y-98281208D01*
X152153617Y-98327020D01*
X152208909Y-98349809D01*
X152263898Y-98373378D01*
X152272701Y-98376103D01*
X152366119Y-98404308D01*
X152424826Y-98415933D01*
X152483316Y-98428365D01*
X152492470Y-98429327D01*
X152492476Y-98429328D01*
X152492481Y-98429328D01*
X152589598Y-98438850D01*
X152621581Y-98442000D01*
X155480419Y-98442000D01*
X155512890Y-98438802D01*
X155519383Y-98438802D01*
X155528547Y-98437838D01*
X155570831Y-98433095D01*
X155577383Y-98432450D01*
X155577852Y-98432308D01*
X155625522Y-98426961D01*
X155684002Y-98414531D01*
X155742717Y-98402905D01*
X155751520Y-98400180D01*
X155844535Y-98370674D01*
X155899495Y-98347118D01*
X155954822Y-98324314D01*
X155962928Y-98319931D01*
X156048440Y-98272920D01*
X156097771Y-98239143D01*
X156147626Y-98206019D01*
X156154719Y-98200149D01*
X156154723Y-98200147D01*
X156154726Y-98200144D01*
X156229478Y-98137419D01*
X156271321Y-98094690D01*
X156313774Y-98052533D01*
X156319598Y-98045391D01*
X156319601Y-98045388D01*
X156319604Y-98045384D01*
X156380744Y-97969341D01*
X156413487Y-97919305D01*
X156446951Y-97869693D01*
X156451277Y-97861557D01*
X156496487Y-97775077D01*
X156518890Y-97719626D01*
X156542075Y-97664473D01*
X156544738Y-97655651D01*
X156572290Y-97562040D01*
X156583496Y-97503297D01*
X156595529Y-97444678D01*
X156596428Y-97435507D01*
X156605272Y-97338324D01*
X156604854Y-97278509D01*
X156605272Y-97218693D01*
X156604373Y-97209522D01*
X156594173Y-97112473D01*
X156582140Y-97053854D01*
X156570936Y-96995116D01*
X156568272Y-96986294D01*
X156539416Y-96893075D01*
X156516238Y-96837937D01*
X156493825Y-96782463D01*
X156489498Y-96774327D01*
X156443085Y-96688489D01*
X156409645Y-96638913D01*
X156376881Y-96588844D01*
X156371057Y-96581703D01*
X156308855Y-96506514D01*
X156266406Y-96464361D01*
X156224561Y-96421629D01*
X156217460Y-96415755D01*
X156141839Y-96354079D01*
X156092034Y-96320988D01*
X156042650Y-96287174D01*
X156034544Y-96282792D01*
X155948383Y-96236980D01*
X155893091Y-96214191D01*
X155838102Y-96190622D01*
X155829299Y-96187897D01*
X155735881Y-96159692D01*
X155677174Y-96148067D01*
X155618684Y-96135635D01*
X155609530Y-96134673D01*
X155609524Y-96134672D01*
X155609519Y-96134672D01*
X155512402Y-96125150D01*
X155480419Y-96122000D01*
X152621581Y-96122000D01*
X152589110Y-96125198D01*
X152582617Y-96125198D01*
X152573453Y-96126162D01*
X152531169Y-96130905D01*
X152524617Y-96131550D01*
X152524148Y-96131692D01*
X152476478Y-96137039D01*
X152417984Y-96149472D01*
X152359284Y-96161095D01*
X152350481Y-96163820D01*
X152257465Y-96193326D01*
X152202505Y-96216882D01*
X152147178Y-96239686D01*
X152139072Y-96244069D01*
X152053559Y-96291080D01*
X152004208Y-96324872D01*
X151954374Y-96357982D01*
X151947274Y-96363856D01*
X151872522Y-96426581D01*
X151830695Y-96469294D01*
X151788226Y-96511467D01*
X151782402Y-96518609D01*
X151721256Y-96594659D01*
X151688535Y-96644661D01*
X151655049Y-96694306D01*
X151650723Y-96702443D01*
X151605513Y-96788922D01*
X151583104Y-96844388D01*
X151559925Y-96899527D01*
X151557262Y-96908349D01*
X151529710Y-97001961D01*
X151518508Y-97060682D01*
X151506471Y-97119322D01*
X151505572Y-97128493D01*
X151496728Y-97225675D01*
X146389064Y-97225675D01*
X146272706Y-97007986D01*
X146087134Y-96781866D01*
X145861014Y-96596294D01*
X145843626Y-96587000D01*
X145861014Y-96577706D01*
X146087134Y-96392134D01*
X146272706Y-96166014D01*
X146410599Y-95908034D01*
X146495513Y-95628111D01*
X146524185Y-95337000D01*
X146495513Y-95045889D01*
X146410599Y-94765966D01*
X146272706Y-94507986D01*
X146087134Y-94281866D01*
X146023663Y-94229777D01*
X146125386Y-94175405D01*
X146259962Y-94064962D01*
X146370405Y-93930386D01*
X146452472Y-93776850D01*
X146503008Y-93610254D01*
X146520072Y-93437000D01*
X146520072Y-92237000D01*
X146503008Y-92063746D01*
X146452472Y-91897150D01*
X146370405Y-91743614D01*
X146259962Y-91609038D01*
X146125386Y-91498595D01*
X145971850Y-91416528D01*
X145805254Y-91365992D01*
X145632000Y-91348928D01*
X144182000Y-91348928D01*
X144008746Y-91365992D01*
X143842150Y-91416528D01*
X143688614Y-91498595D01*
X143554038Y-91609038D01*
X143443595Y-91743614D01*
X143361528Y-91897150D01*
X143310992Y-92063746D01*
X143293928Y-92237000D01*
X143293928Y-93437000D01*
X143310992Y-93610254D01*
X143361528Y-93776850D01*
X143443595Y-93930386D01*
X143554038Y-94064962D01*
X143688614Y-94175405D01*
X143790337Y-94229777D01*
X143726866Y-94281866D01*
X143541294Y-94507986D01*
X143403401Y-94765966D01*
X143318487Y-95045889D01*
X143289815Y-95337000D01*
X143318487Y-95628111D01*
X143403401Y-95908034D01*
X143541294Y-96166014D01*
X143726866Y-96392134D01*
X143952986Y-96577706D01*
X143970374Y-96587000D01*
X143952986Y-96596294D01*
X143726866Y-96781866D01*
X143541294Y-97007986D01*
X143403401Y-97265966D01*
X143318487Y-97545889D01*
X143289815Y-97837000D01*
X143318487Y-98128111D01*
X143403401Y-98408034D01*
X143541294Y-98666014D01*
X143726866Y-98892134D01*
X143952986Y-99077706D01*
X143970374Y-99087000D01*
X143952986Y-99096294D01*
X143726866Y-99281866D01*
X143541294Y-99507986D01*
X143403401Y-99765966D01*
X143318487Y-100045889D01*
X143289815Y-100337000D01*
X143318487Y-100628111D01*
X143403401Y-100908034D01*
X143541294Y-101166014D01*
X143726866Y-101392134D01*
X143952986Y-101577706D01*
X143970374Y-101587000D01*
X143952986Y-101596294D01*
X143752332Y-101760967D01*
X143621788Y-101735000D01*
X143398212Y-101735000D01*
X143178933Y-101778617D01*
X142972376Y-101864176D01*
X142786480Y-101988388D01*
X142628388Y-102146480D01*
X142504176Y-102332376D01*
X142418617Y-102538933D01*
X142375000Y-102758212D01*
X133785573Y-102758212D01*
X133901139Y-102642646D01*
X134014407Y-102473128D01*
X134092428Y-102284770D01*
X134132202Y-102084811D01*
X134132202Y-101880933D01*
X134092428Y-101680974D01*
X134014407Y-101492616D01*
X133901139Y-101323098D01*
X133756976Y-101178935D01*
X133587458Y-101065667D01*
X133399100Y-100987646D01*
X133199141Y-100947872D01*
X132995263Y-100947872D01*
X132795304Y-100987646D01*
X132606946Y-101065667D01*
X132437428Y-101178935D01*
X132293265Y-101323098D01*
X132179997Y-101492616D01*
X132101976Y-101680974D01*
X132062202Y-101880933D01*
X126365000Y-101880933D01*
X126365000Y-99847061D01*
X126981000Y-99847061D01*
X126981000Y-100050939D01*
X127020774Y-100250898D01*
X127098795Y-100439256D01*
X127212063Y-100608774D01*
X127356226Y-100752937D01*
X127525744Y-100866205D01*
X127714102Y-100944226D01*
X127914061Y-100984000D01*
X128117939Y-100984000D01*
X128317898Y-100944226D01*
X128506256Y-100866205D01*
X128587500Y-100811920D01*
X128668744Y-100866205D01*
X128857102Y-100944226D01*
X129057061Y-100984000D01*
X129200610Y-100984000D01*
X129243795Y-101088256D01*
X129357063Y-101257774D01*
X129501226Y-101401937D01*
X129670744Y-101515205D01*
X129859102Y-101593226D01*
X130059061Y-101633000D01*
X130262939Y-101633000D01*
X130462898Y-101593226D01*
X130651256Y-101515205D01*
X130820774Y-101401937D01*
X130964937Y-101257774D01*
X131078205Y-101088256D01*
X131156226Y-100899898D01*
X131196000Y-100699939D01*
X131196000Y-100496061D01*
X131156226Y-100296102D01*
X131128043Y-100228061D01*
X134220000Y-100228061D01*
X134220000Y-100431939D01*
X134259774Y-100631898D01*
X134337795Y-100820256D01*
X134451063Y-100989774D01*
X134595226Y-101133937D01*
X134764744Y-101247205D01*
X134953102Y-101325226D01*
X135153061Y-101365000D01*
X135356939Y-101365000D01*
X135556898Y-101325226D01*
X135745256Y-101247205D01*
X135914774Y-101133937D01*
X136058937Y-100989774D01*
X136172205Y-100820256D01*
X136250226Y-100631898D01*
X136280030Y-100482061D01*
X136760000Y-100482061D01*
X136760000Y-100685939D01*
X136799774Y-100885898D01*
X136877795Y-101074256D01*
X136991063Y-101243774D01*
X137135226Y-101387937D01*
X137304744Y-101501205D01*
X137493102Y-101579226D01*
X137693061Y-101619000D01*
X137896939Y-101619000D01*
X138096898Y-101579226D01*
X138285256Y-101501205D01*
X138454774Y-101387937D01*
X138598937Y-101243774D01*
X138712205Y-101074256D01*
X138790226Y-100885898D01*
X138830000Y-100685939D01*
X138830000Y-100545561D01*
X138982500Y-100545561D01*
X138982500Y-100749439D01*
X139022274Y-100949398D01*
X139100295Y-101137756D01*
X139213563Y-101307274D01*
X139357726Y-101451437D01*
X139527244Y-101564705D01*
X139715602Y-101642726D01*
X139915561Y-101682500D01*
X140119439Y-101682500D01*
X140319398Y-101642726D01*
X140507756Y-101564705D01*
X140677274Y-101451437D01*
X140821437Y-101307274D01*
X140934705Y-101137756D01*
X141012726Y-100949398D01*
X141052500Y-100749439D01*
X141052500Y-100545561D01*
X141012726Y-100345602D01*
X140934705Y-100157244D01*
X140821437Y-99987726D01*
X140677274Y-99843563D01*
X140507756Y-99730295D01*
X140319398Y-99652274D01*
X140119439Y-99612500D01*
X139915561Y-99612500D01*
X139715602Y-99652274D01*
X139527244Y-99730295D01*
X139357726Y-99843563D01*
X139213563Y-99987726D01*
X139100295Y-100157244D01*
X139022274Y-100345602D01*
X138982500Y-100545561D01*
X138830000Y-100545561D01*
X138830000Y-100482061D01*
X138790226Y-100282102D01*
X138712205Y-100093744D01*
X138598937Y-99924226D01*
X138454774Y-99780063D01*
X138285256Y-99666795D01*
X138096898Y-99588774D01*
X137896939Y-99549000D01*
X137693061Y-99549000D01*
X137493102Y-99588774D01*
X137304744Y-99666795D01*
X137135226Y-99780063D01*
X136991063Y-99924226D01*
X136877795Y-100093744D01*
X136799774Y-100282102D01*
X136760000Y-100482061D01*
X136280030Y-100482061D01*
X136290000Y-100431939D01*
X136290000Y-100228061D01*
X136250226Y-100028102D01*
X136172205Y-99839744D01*
X136058937Y-99670226D01*
X135914774Y-99526063D01*
X135745256Y-99412795D01*
X135556898Y-99334774D01*
X135356939Y-99295000D01*
X135153061Y-99295000D01*
X134953102Y-99334774D01*
X134764744Y-99412795D01*
X134595226Y-99526063D01*
X134451063Y-99670226D01*
X134337795Y-99839744D01*
X134259774Y-100028102D01*
X134220000Y-100228061D01*
X131128043Y-100228061D01*
X131078205Y-100107744D01*
X130964937Y-99938226D01*
X130820774Y-99794063D01*
X130651256Y-99680795D01*
X130462898Y-99602774D01*
X130262939Y-99563000D01*
X130119390Y-99563000D01*
X130076205Y-99458744D01*
X129962937Y-99289226D01*
X129818774Y-99145063D01*
X129649256Y-99031795D01*
X129460898Y-98953774D01*
X129260939Y-98914000D01*
X129057061Y-98914000D01*
X128857102Y-98953774D01*
X128668744Y-99031795D01*
X128587500Y-99086080D01*
X128506256Y-99031795D01*
X128317898Y-98953774D01*
X128117939Y-98914000D01*
X127914061Y-98914000D01*
X127714102Y-98953774D01*
X127525744Y-99031795D01*
X127356226Y-99145063D01*
X127212063Y-99289226D01*
X127098795Y-99458744D01*
X127020774Y-99647102D01*
X126981000Y-99847061D01*
X126365000Y-99847061D01*
X126365000Y-97758581D01*
X133712000Y-97758581D01*
X133712000Y-97962459D01*
X133751774Y-98162418D01*
X133829795Y-98350776D01*
X133943063Y-98520294D01*
X134087226Y-98664457D01*
X134256744Y-98777725D01*
X134445102Y-98855746D01*
X134645061Y-98895520D01*
X134848939Y-98895520D01*
X135048898Y-98855746D01*
X135237256Y-98777725D01*
X135406774Y-98664457D01*
X135550937Y-98520294D01*
X135664205Y-98350776D01*
X135742226Y-98162418D01*
X135782000Y-97962459D01*
X135782000Y-97958492D01*
X135978148Y-97919476D01*
X136166506Y-97841455D01*
X136336024Y-97728187D01*
X136480187Y-97584024D01*
X136593455Y-97414506D01*
X136671476Y-97226148D01*
X136711250Y-97026189D01*
X136711250Y-96822311D01*
X136671476Y-96622352D01*
X136639461Y-96545061D01*
X139300000Y-96545061D01*
X139300000Y-96748939D01*
X139339774Y-96948898D01*
X139417795Y-97137256D01*
X139531063Y-97306774D01*
X139675226Y-97450937D01*
X139844744Y-97564205D01*
X140033102Y-97642226D01*
X140090381Y-97653619D01*
X140101774Y-97710898D01*
X140179795Y-97899256D01*
X140293063Y-98068774D01*
X140437226Y-98212937D01*
X140606744Y-98326205D01*
X140795102Y-98404226D01*
X140995061Y-98444000D01*
X141198939Y-98444000D01*
X141398898Y-98404226D01*
X141587256Y-98326205D01*
X141756774Y-98212937D01*
X141900937Y-98068774D01*
X142014205Y-97899256D01*
X142092226Y-97710898D01*
X142132000Y-97510939D01*
X142132000Y-97307061D01*
X142092226Y-97107102D01*
X142014205Y-96918744D01*
X141900937Y-96749226D01*
X141756774Y-96605063D01*
X141587256Y-96491795D01*
X141398898Y-96413774D01*
X141341619Y-96402381D01*
X141330226Y-96345102D01*
X141252205Y-96156744D01*
X141138937Y-95987226D01*
X140994774Y-95843063D01*
X140825256Y-95729795D01*
X140636898Y-95651774D01*
X140436939Y-95612000D01*
X140233061Y-95612000D01*
X140033102Y-95651774D01*
X139844744Y-95729795D01*
X139675226Y-95843063D01*
X139531063Y-95987226D01*
X139417795Y-96156744D01*
X139339774Y-96345102D01*
X139300000Y-96545061D01*
X136639461Y-96545061D01*
X136593455Y-96433994D01*
X136480187Y-96264476D01*
X136336024Y-96120313D01*
X136166506Y-96007045D01*
X135978148Y-95929024D01*
X135778189Y-95889250D01*
X135574311Y-95889250D01*
X135374352Y-95929024D01*
X135185994Y-96007045D01*
X135016476Y-96120313D01*
X134872313Y-96264476D01*
X134759045Y-96433994D01*
X134681024Y-96622352D01*
X134641250Y-96822311D01*
X134641250Y-96826278D01*
X134445102Y-96865294D01*
X134256744Y-96943315D01*
X134087226Y-97056583D01*
X133943063Y-97200746D01*
X133829795Y-97370264D01*
X133751774Y-97558622D01*
X133712000Y-97758581D01*
X126365000Y-97758581D01*
X126365000Y-95379026D01*
X130560035Y-95379026D01*
X130560035Y-95582904D01*
X130599809Y-95782863D01*
X130677830Y-95971221D01*
X130791098Y-96140739D01*
X130935261Y-96284902D01*
X131104779Y-96398170D01*
X131293137Y-96476191D01*
X131493096Y-96515965D01*
X131696974Y-96515965D01*
X131896933Y-96476191D01*
X132085291Y-96398170D01*
X132206782Y-96316993D01*
X132285226Y-96395437D01*
X132454744Y-96508705D01*
X132643102Y-96586726D01*
X132843061Y-96626500D01*
X133046939Y-96626500D01*
X133246898Y-96586726D01*
X133435256Y-96508705D01*
X133604774Y-96395437D01*
X133748937Y-96251274D01*
X133862205Y-96081756D01*
X133940226Y-95893398D01*
X133980000Y-95693439D01*
X133980000Y-95489561D01*
X133940226Y-95289602D01*
X133862205Y-95101244D01*
X133748937Y-94931726D01*
X133604774Y-94787563D01*
X133435256Y-94674295D01*
X133246898Y-94596274D01*
X133046939Y-94556500D01*
X132843061Y-94556500D01*
X132643102Y-94596274D01*
X132454744Y-94674295D01*
X132333253Y-94755472D01*
X132254809Y-94677028D01*
X132085291Y-94563760D01*
X131896933Y-94485739D01*
X131696974Y-94445965D01*
X131493096Y-94445965D01*
X131293137Y-94485739D01*
X131104779Y-94563760D01*
X130935261Y-94677028D01*
X130791098Y-94821191D01*
X130677830Y-94990709D01*
X130599809Y-95179067D01*
X130560035Y-95379026D01*
X126365000Y-95379026D01*
X126365000Y-92481061D01*
X127870000Y-92481061D01*
X127870000Y-92684939D01*
X127909774Y-92884898D01*
X127987795Y-93073256D01*
X128101063Y-93242774D01*
X128245226Y-93386937D01*
X128414744Y-93500205D01*
X128603102Y-93578226D01*
X128761837Y-93609800D01*
X128759000Y-93624061D01*
X128759000Y-93827939D01*
X128798774Y-94027898D01*
X128876795Y-94216256D01*
X128990063Y-94385774D01*
X129134226Y-94529937D01*
X129303744Y-94643205D01*
X129492102Y-94721226D01*
X129692061Y-94761000D01*
X129895939Y-94761000D01*
X130095898Y-94721226D01*
X130284256Y-94643205D01*
X130453774Y-94529937D01*
X130597937Y-94385774D01*
X130711205Y-94216256D01*
X130789226Y-94027898D01*
X130829000Y-93827939D01*
X130829000Y-93624061D01*
X130789226Y-93424102D01*
X130711205Y-93235744D01*
X130597937Y-93066226D01*
X130453774Y-92922063D01*
X130284256Y-92808795D01*
X130095898Y-92730774D01*
X129937163Y-92699200D01*
X129940000Y-92684939D01*
X129940000Y-92481061D01*
X129900226Y-92281102D01*
X129822205Y-92092744D01*
X129708937Y-91923226D01*
X129564774Y-91779063D01*
X129395256Y-91665795D01*
X129206898Y-91587774D01*
X129006939Y-91548000D01*
X128803061Y-91548000D01*
X128603102Y-91587774D01*
X128414744Y-91665795D01*
X128245226Y-91779063D01*
X128101063Y-91923226D01*
X127987795Y-92092744D01*
X127909774Y-92281102D01*
X127870000Y-92481061D01*
X126365000Y-92481061D01*
X126365000Y-90195000D01*
X131242805Y-90195000D01*
X131162795Y-90314744D01*
G04 #@! TA.AperFunction,Conductor*
D17*
G36*
X131162795Y-90314744D02*
G01*
X131084774Y-90503102D01*
X131045000Y-90703061D01*
X131045000Y-90906939D01*
X131084774Y-91106898D01*
X131162795Y-91295256D01*
X131259510Y-91440000D01*
X131162795Y-91584744D01*
X131084774Y-91773102D01*
X131045000Y-91973061D01*
X131045000Y-92176939D01*
X131084774Y-92376898D01*
X131162795Y-92565256D01*
X131259510Y-92710000D01*
X131162795Y-92854744D01*
X131084774Y-93043102D01*
X131045000Y-93243061D01*
X131045000Y-93446939D01*
X131084774Y-93646898D01*
X131162795Y-93835256D01*
X131276063Y-94004774D01*
X131420226Y-94148937D01*
X131589744Y-94262205D01*
X131778102Y-94340226D01*
X131978061Y-94380000D01*
X132181939Y-94380000D01*
X132381898Y-94340226D01*
X132570256Y-94262205D01*
X132715000Y-94165490D01*
X132859744Y-94262205D01*
X133048102Y-94340226D01*
X133248061Y-94380000D01*
X133451939Y-94380000D01*
X133651898Y-94340226D01*
X133840256Y-94262205D01*
X133985000Y-94165490D01*
X134129744Y-94262205D01*
X134318102Y-94340226D01*
X134518061Y-94380000D01*
X134721939Y-94380000D01*
X134921898Y-94340226D01*
X135110256Y-94262205D01*
X135255000Y-94165490D01*
X135399744Y-94262205D01*
X135588102Y-94340226D01*
X135788061Y-94380000D01*
X135991939Y-94380000D01*
X136191898Y-94340226D01*
X136380256Y-94262205D01*
X136549774Y-94148937D01*
X136693937Y-94004774D01*
X136807205Y-93835256D01*
X136885226Y-93646898D01*
X136925000Y-93446939D01*
X136925000Y-93243061D01*
X136891961Y-93076961D01*
X137058061Y-93110000D01*
X137261939Y-93110000D01*
X137428039Y-93076961D01*
X137395000Y-93243061D01*
X137395000Y-93446939D01*
X137434774Y-93646898D01*
X137512795Y-93835256D01*
X137626063Y-94004774D01*
X137770226Y-94148937D01*
X137939744Y-94262205D01*
X138128102Y-94340226D01*
X138328061Y-94380000D01*
X138531939Y-94380000D01*
X138731898Y-94340226D01*
X138920256Y-94262205D01*
X139089774Y-94148937D01*
X139233937Y-94004774D01*
X139347205Y-93835256D01*
X139425226Y-93646898D01*
X139465000Y-93446939D01*
X139465000Y-93243061D01*
X139425226Y-93043102D01*
X139347205Y-92854744D01*
X139250490Y-92710000D01*
X139347205Y-92565256D01*
X139425226Y-92376898D01*
X139465000Y-92176939D01*
X139465000Y-91973061D01*
X139425226Y-91773102D01*
X139347205Y-91584744D01*
X139250490Y-91440000D01*
X139347205Y-91295256D01*
X139425226Y-91106898D01*
X139465000Y-90906939D01*
X139465000Y-90703061D01*
X139425226Y-90503102D01*
X139347205Y-90314744D01*
X139267195Y-90195000D01*
X155292179Y-90195000D01*
X156132196Y-90268492D01*
X156918743Y-90479247D01*
X157656739Y-90823380D01*
X158323769Y-91290439D01*
X158899560Y-91866231D01*
X159366622Y-92533263D01*
X159710754Y-93271262D01*
X159921509Y-94057806D01*
X159995000Y-94897821D01*
X159995001Y-105635168D01*
X159921509Y-106475194D01*
X159710754Y-107261738D01*
X159366622Y-107999737D01*
X158899560Y-108666769D01*
X158323769Y-109242561D01*
X157656739Y-109709620D01*
X156918743Y-110053753D01*
X156132196Y-110264508D01*
X155292179Y-110338000D01*
X126365000Y-110338000D01*
X126365000Y-107848061D01*
X138030000Y-107848061D01*
X138030000Y-108051939D01*
X138069774Y-108251898D01*
X138147795Y-108440256D01*
X138261063Y-108609774D01*
X138405226Y-108753937D01*
X138574744Y-108867205D01*
X138763102Y-108945226D01*
X138963061Y-108985000D01*
X139166939Y-108985000D01*
X139366898Y-108945226D01*
X139555256Y-108867205D01*
X139724774Y-108753937D01*
X139868937Y-108609774D01*
X139982205Y-108440256D01*
X140060226Y-108251898D01*
X140100000Y-108051939D01*
X140100000Y-107848061D01*
X140060226Y-107648102D01*
X139982205Y-107459744D01*
X139868937Y-107290226D01*
X139724774Y-107146063D01*
X139555256Y-107032795D01*
X139366898Y-106954774D01*
X139166939Y-106915000D01*
X138963061Y-106915000D01*
X138763102Y-106954774D01*
X138574744Y-107032795D01*
X138405226Y-107146063D01*
X138261063Y-107290226D01*
X138147795Y-107459744D01*
X138069774Y-107648102D01*
X138030000Y-107848061D01*
X126365000Y-107848061D01*
X126365000Y-106696349D01*
X126382744Y-106708205D01*
X126571102Y-106786226D01*
X126771061Y-106826000D01*
X126974939Y-106826000D01*
X127174898Y-106786226D01*
X127363256Y-106708205D01*
X127532774Y-106594937D01*
X127540425Y-106587286D01*
X127714102Y-106659226D01*
X127914061Y-106699000D01*
X128117939Y-106699000D01*
X128317898Y-106659226D01*
X128506256Y-106581205D01*
X128675774Y-106467937D01*
X128819650Y-106324061D01*
X131553000Y-106324061D01*
X131553000Y-106527939D01*
X131592774Y-106727898D01*
X131670795Y-106916256D01*
X131784063Y-107085774D01*
X131928226Y-107229937D01*
X132097744Y-107343205D01*
X132286102Y-107421226D01*
X132486061Y-107461000D01*
X132689939Y-107461000D01*
X132889898Y-107421226D01*
X133078256Y-107343205D01*
X133247774Y-107229937D01*
X133391937Y-107085774D01*
X133505205Y-106916256D01*
X133583226Y-106727898D01*
X133623000Y-106527939D01*
X133623000Y-106324061D01*
X133583226Y-106124102D01*
X133505205Y-105935744D01*
X133391937Y-105766226D01*
X133247774Y-105622063D01*
X133078256Y-105508795D01*
X132889898Y-105430774D01*
X132689939Y-105391000D01*
X132486061Y-105391000D01*
X132286102Y-105430774D01*
X132097744Y-105508795D01*
X131928226Y-105622063D01*
X131784063Y-105766226D01*
X131670795Y-105935744D01*
X131592774Y-106124102D01*
X131553000Y-106324061D01*
X128819650Y-106324061D01*
X128819937Y-106323774D01*
X128933205Y-106154256D01*
X129011226Y-105965898D01*
X129051000Y-105765939D01*
X129051000Y-105562061D01*
X129011226Y-105362102D01*
X128945970Y-105204561D01*
X138133500Y-105204561D01*
X138133500Y-105408439D01*
X138173274Y-105608398D01*
X138251295Y-105796756D01*
X138364563Y-105966274D01*
X138508726Y-106110437D01*
X138678244Y-106223705D01*
X138866602Y-106301726D01*
X139066561Y-106341500D01*
X139270439Y-106341500D01*
X139470398Y-106301726D01*
X139658756Y-106223705D01*
X139828274Y-106110437D01*
X139972437Y-105966274D01*
X140085705Y-105796756D01*
X140163726Y-105608398D01*
X140203500Y-105408439D01*
X140203500Y-105204561D01*
X140163726Y-105004602D01*
X140085705Y-104816244D01*
X139972437Y-104646726D01*
X139828274Y-104502563D01*
X139658756Y-104389295D01*
X139470398Y-104311274D01*
X139270439Y-104271500D01*
X139066561Y-104271500D01*
X138866602Y-104311274D01*
X138678244Y-104389295D01*
X138508726Y-104502563D01*
X138364563Y-104646726D01*
X138251295Y-104816244D01*
X138173274Y-105004602D01*
X138133500Y-105204561D01*
X128945970Y-105204561D01*
X128933205Y-105173744D01*
X128819937Y-105004226D01*
X128675774Y-104860063D01*
X128506256Y-104746795D01*
X128317898Y-104668774D01*
X128117939Y-104629000D01*
X127914061Y-104629000D01*
X127714102Y-104668774D01*
X127525744Y-104746795D01*
X127356226Y-104860063D01*
X127348575Y-104867714D01*
X127174898Y-104795774D01*
X126974939Y-104756000D01*
X126771061Y-104756000D01*
X126571102Y-104795774D01*
X126382744Y-104873795D01*
X126365000Y-104885651D01*
X126365000Y-101880933D01*
X132062202Y-101880933D01*
X132062202Y-102084811D01*
X132101976Y-102284770D01*
X132179997Y-102473128D01*
X132293265Y-102642646D01*
X132437428Y-102786809D01*
X132606946Y-102900077D01*
X132795304Y-102978098D01*
X132995263Y-103017872D01*
X133199141Y-103017872D01*
X133399100Y-102978098D01*
X133587458Y-102900077D01*
X133756976Y-102786809D01*
X133785573Y-102758212D01*
X142375000Y-102758212D01*
X142375000Y-102981788D01*
X142418617Y-103201067D01*
X142504176Y-103407624D01*
X142611670Y-103568500D01*
X142504176Y-103729376D01*
X142418617Y-103935933D01*
X142375000Y-104155212D01*
X142375000Y-104378788D01*
X142418617Y-104598067D01*
X142504176Y-104804624D01*
X142628388Y-104990520D01*
X142786480Y-105148612D01*
X142972376Y-105272824D01*
X143178933Y-105358383D01*
X143294179Y-105381307D01*
X143318487Y-105628111D01*
X143403401Y-105908034D01*
X143541294Y-106166014D01*
X143726866Y-106392134D01*
X143952986Y-106577706D01*
X143970374Y-106587000D01*
X143952986Y-106596294D01*
X143726866Y-106781866D01*
X143541294Y-107007986D01*
X143403401Y-107265966D01*
X143318487Y-107545889D01*
X143289815Y-107837000D01*
X143318487Y-108128111D01*
X143403401Y-108408034D01*
X143541294Y-108666014D01*
X143726866Y-108892134D01*
X143952986Y-109077706D01*
X144210966Y-109215599D01*
X144490889Y-109300513D01*
X144709050Y-109322000D01*
X145104950Y-109322000D01*
X145323111Y-109300513D01*
X145603034Y-109215599D01*
X145861014Y-109077706D01*
X146087134Y-108892134D01*
X146272706Y-108666014D01*
X146410599Y-108408034D01*
X146495513Y-108128111D01*
X146524185Y-107837000D01*
X146495513Y-107545889D01*
X146410599Y-107265966D01*
X146272706Y-107007986D01*
X146087134Y-106781866D01*
X145861014Y-106596294D01*
X145843626Y-106587000D01*
X145861014Y-106577706D01*
X146087134Y-106392134D01*
X146272706Y-106166014D01*
X146410599Y-105908034D01*
X146495513Y-105628111D01*
X146522675Y-105352332D01*
X146714624Y-105272824D01*
X146900520Y-105148612D01*
X147058612Y-104990520D01*
X147182824Y-104804624D01*
X147268383Y-104598067D01*
X147312000Y-104378788D01*
X147312000Y-104155212D01*
X147268383Y-103935933D01*
X147182824Y-103729376D01*
X147103088Y-103610044D01*
X147152612Y-103560520D01*
X147276824Y-103374624D01*
X147298756Y-103321675D01*
X151496728Y-103321675D01*
X151497146Y-103381492D01*
X151496728Y-103441308D01*
X151497627Y-103450479D01*
X151507827Y-103547527D01*
X151519861Y-103606152D01*
X151531064Y-103664884D01*
X151533728Y-103673706D01*
X151562584Y-103766925D01*
X151585767Y-103822075D01*
X151608175Y-103877537D01*
X151612502Y-103885673D01*
X151658914Y-103971511D01*
X151692362Y-104021098D01*
X151725119Y-104071156D01*
X151730943Y-104078297D01*
X151793145Y-104153486D01*
X151835594Y-104195639D01*
X151877439Y-104238371D01*
X151884540Y-104244245D01*
X151960160Y-104305921D01*
X152010025Y-104339052D01*
X152059350Y-104372825D01*
X152067445Y-104377202D01*
X152067448Y-104377204D01*
X152067451Y-104377205D01*
X152067456Y-104377208D01*
X152153617Y-104423020D01*
X152208909Y-104445809D01*
X152263898Y-104469378D01*
X152272701Y-104472103D01*
X152366119Y-104500308D01*
X152424826Y-104511933D01*
X152483316Y-104524365D01*
X152492470Y-104525327D01*
X152492476Y-104525328D01*
X152492481Y-104525328D01*
X152589598Y-104534850D01*
X152621581Y-104538000D01*
X155480419Y-104538000D01*
X155512890Y-104534802D01*
X155519383Y-104534802D01*
X155528547Y-104533838D01*
X155570831Y-104529095D01*
X155577383Y-104528450D01*
X155577852Y-104528308D01*
X155625522Y-104522961D01*
X155684002Y-104510531D01*
X155742717Y-104498905D01*
X155751520Y-104496180D01*
X155844535Y-104466674D01*
X155899495Y-104443118D01*
X155954822Y-104420314D01*
X155962928Y-104415931D01*
X156048440Y-104368920D01*
X156097771Y-104335143D01*
X156147626Y-104302019D01*
X156154719Y-104296149D01*
X156154723Y-104296147D01*
X156154726Y-104296144D01*
X156229478Y-104233419D01*
X156271321Y-104190690D01*
X156313774Y-104148533D01*
X156319598Y-104141391D01*
X156319601Y-104141388D01*
X156319604Y-104141384D01*
X156380744Y-104065341D01*
X156413487Y-104015305D01*
X156446951Y-103965693D01*
X156451277Y-103957557D01*
X156496487Y-103871077D01*
X156518890Y-103815626D01*
X156542075Y-103760473D01*
X156544738Y-103751651D01*
X156572290Y-103658040D01*
X156583496Y-103599297D01*
X156595529Y-103540678D01*
X156596428Y-103531507D01*
X156605272Y-103434324D01*
X156604854Y-103374509D01*
X156605272Y-103314693D01*
X156604373Y-103305522D01*
X156594173Y-103208473D01*
X156582140Y-103149854D01*
X156570936Y-103091116D01*
X156568272Y-103082294D01*
X156539416Y-102989075D01*
X156516238Y-102933937D01*
X156493825Y-102878463D01*
X156489498Y-102870327D01*
X156443085Y-102784489D01*
X156409645Y-102734913D01*
X156376881Y-102684844D01*
X156371057Y-102677703D01*
X156308855Y-102602514D01*
X156266406Y-102560361D01*
X156224561Y-102517629D01*
X156217460Y-102511755D01*
X156141839Y-102450079D01*
X156092034Y-102416988D01*
X156042650Y-102383174D01*
X156034544Y-102378792D01*
X155948383Y-102332980D01*
X155893091Y-102310191D01*
X155838102Y-102286622D01*
X155829299Y-102283897D01*
X155735881Y-102255692D01*
X155677174Y-102244067D01*
X155618684Y-102231635D01*
X155609530Y-102230673D01*
X155609524Y-102230672D01*
X155609519Y-102230672D01*
X155512402Y-102221150D01*
X155480419Y-102218000D01*
X152621581Y-102218000D01*
X152589110Y-102221198D01*
X152582617Y-102221198D01*
X152573453Y-102222162D01*
X152531169Y-102226905D01*
X152524617Y-102227550D01*
X152524148Y-102227692D01*
X152476478Y-102233039D01*
X152417984Y-102245472D01*
X152359284Y-102257095D01*
X152350481Y-102259820D01*
X152257465Y-102289326D01*
X152202505Y-102312882D01*
X152147178Y-102335686D01*
X152139072Y-102340069D01*
X152053559Y-102387080D01*
X152004208Y-102420872D01*
X151954374Y-102453982D01*
X151947274Y-102459856D01*
X151872522Y-102522581D01*
X151830695Y-102565294D01*
X151788226Y-102607467D01*
X151782402Y-102614609D01*
X151721256Y-102690659D01*
X151688535Y-102740661D01*
X151655049Y-102790306D01*
X151650723Y-102798443D01*
X151605513Y-102884922D01*
X151583104Y-102940388D01*
X151559925Y-102995527D01*
X151557262Y-103004349D01*
X151529710Y-103097961D01*
X151518508Y-103156682D01*
X151506471Y-103215322D01*
X151505572Y-103224493D01*
X151496728Y-103321675D01*
X147298756Y-103321675D01*
X147362383Y-103168067D01*
X147406000Y-102948788D01*
X147406000Y-102725212D01*
X147362383Y-102505933D01*
X147276824Y-102299376D01*
X147196855Y-102179694D01*
X147309824Y-102010624D01*
X147395383Y-101804067D01*
X147439000Y-101584788D01*
X147439000Y-101361212D01*
X147395383Y-101141933D01*
X147309824Y-100935376D01*
X147185612Y-100749480D01*
X147027520Y-100591388D01*
X146841624Y-100467176D01*
X146635067Y-100381617D01*
X146522006Y-100359128D01*
X146524185Y-100337000D01*
X146495513Y-100045889D01*
X146410599Y-99765966D01*
X146272706Y-99507986D01*
X146087134Y-99281866D01*
X145861014Y-99096294D01*
X145843626Y-99087000D01*
X145861014Y-99077706D01*
X146087134Y-98892134D01*
X146272706Y-98666014D01*
X146410599Y-98408034D01*
X146495513Y-98128111D01*
X146524185Y-97837000D01*
X146495513Y-97545889D01*
X146410599Y-97265966D01*
X146389064Y-97225675D01*
X151496728Y-97225675D01*
X151497146Y-97285491D01*
X151496728Y-97345308D01*
X151497627Y-97354479D01*
X151507827Y-97451527D01*
X151519861Y-97510152D01*
X151531064Y-97568884D01*
X151533728Y-97577706D01*
X151562584Y-97670925D01*
X151585767Y-97726075D01*
X151608175Y-97781537D01*
X151612502Y-97789673D01*
X151658914Y-97875511D01*
X151692362Y-97925098D01*
X151725119Y-97975156D01*
X151730943Y-97982297D01*
X151793145Y-98057486D01*
X151835594Y-98099639D01*
X151877439Y-98142371D01*
X151884540Y-98148245D01*
X151960160Y-98209921D01*
X152010025Y-98243052D01*
X152059350Y-98276825D01*
X152067445Y-98281202D01*
X152067448Y-98281204D01*
X152067451Y-98281205D01*
X152067456Y-98281208D01*
X152153617Y-98327020D01*
X152208909Y-98349809D01*
X152263898Y-98373378D01*
X152272701Y-98376103D01*
X152366119Y-98404308D01*
X152424826Y-98415933D01*
X152483316Y-98428365D01*
X152492470Y-98429327D01*
X152492476Y-98429328D01*
X152492481Y-98429328D01*
X152589598Y-98438850D01*
X152621581Y-98442000D01*
X155480419Y-98442000D01*
X155512890Y-98438802D01*
X155519383Y-98438802D01*
X155528547Y-98437838D01*
X155570831Y-98433095D01*
X155577383Y-98432450D01*
X155577852Y-98432308D01*
X155625522Y-98426961D01*
X155684002Y-98414531D01*
X155742717Y-98402905D01*
X155751520Y-98400180D01*
X155844535Y-98370674D01*
X155899495Y-98347118D01*
X155954822Y-98324314D01*
X155962928Y-98319931D01*
X156048440Y-98272920D01*
X156097771Y-98239143D01*
X156147626Y-98206019D01*
X156154719Y-98200149D01*
X156154723Y-98200147D01*
X156154726Y-98200144D01*
X156229478Y-98137419D01*
X156271321Y-98094690D01*
X156313774Y-98052533D01*
X156319598Y-98045391D01*
X156319601Y-98045388D01*
X156319604Y-98045384D01*
X156380744Y-97969341D01*
X156413487Y-97919305D01*
X156446951Y-97869693D01*
X156451277Y-97861557D01*
X156496487Y-97775077D01*
X156518890Y-97719626D01*
X156542075Y-97664473D01*
X156544738Y-97655651D01*
X156572290Y-97562040D01*
X156583496Y-97503297D01*
X156595529Y-97444678D01*
X156596428Y-97435507D01*
X156605272Y-97338324D01*
X156604854Y-97278509D01*
X156605272Y-97218693D01*
X156604373Y-97209522D01*
X156594173Y-97112473D01*
X156582140Y-97053854D01*
X156570936Y-96995116D01*
X156568272Y-96986294D01*
X156539416Y-96893075D01*
X156516238Y-96837937D01*
X156493825Y-96782463D01*
X156489498Y-96774327D01*
X156443085Y-96688489D01*
X156409645Y-96638913D01*
X156376881Y-96588844D01*
X156371057Y-96581703D01*
X156308855Y-96506514D01*
X156266406Y-96464361D01*
X156224561Y-96421629D01*
X156217460Y-96415755D01*
X156141839Y-96354079D01*
X156092034Y-96320988D01*
X156042650Y-96287174D01*
X156034544Y-96282792D01*
X155948383Y-96236980D01*
X155893091Y-96214191D01*
X155838102Y-96190622D01*
X155829299Y-96187897D01*
X155735881Y-96159692D01*
X155677174Y-96148067D01*
X155618684Y-96135635D01*
X155609530Y-96134673D01*
X155609524Y-96134672D01*
X155609519Y-96134672D01*
X155512402Y-96125150D01*
X155480419Y-96122000D01*
X152621581Y-96122000D01*
X152589110Y-96125198D01*
X152582617Y-96125198D01*
X152573453Y-96126162D01*
X152531169Y-96130905D01*
X152524617Y-96131550D01*
X152524148Y-96131692D01*
X152476478Y-96137039D01*
X152417984Y-96149472D01*
X152359284Y-96161095D01*
X152350481Y-96163820D01*
X152257465Y-96193326D01*
X152202505Y-96216882D01*
X152147178Y-96239686D01*
X152139072Y-96244069D01*
X152053559Y-96291080D01*
X152004208Y-96324872D01*
X151954374Y-96357982D01*
X151947274Y-96363856D01*
X151872522Y-96426581D01*
X151830695Y-96469294D01*
X151788226Y-96511467D01*
X151782402Y-96518609D01*
X151721256Y-96594659D01*
X151688535Y-96644661D01*
X151655049Y-96694306D01*
X151650723Y-96702443D01*
X151605513Y-96788922D01*
X151583104Y-96844388D01*
X151559925Y-96899527D01*
X151557262Y-96908349D01*
X151529710Y-97001961D01*
X151518508Y-97060682D01*
X151506471Y-97119322D01*
X151505572Y-97128493D01*
X151496728Y-97225675D01*
X146389064Y-97225675D01*
X146272706Y-97007986D01*
X146087134Y-96781866D01*
X145861014Y-96596294D01*
X145843626Y-96587000D01*
X145861014Y-96577706D01*
X146087134Y-96392134D01*
X146272706Y-96166014D01*
X146410599Y-95908034D01*
X146495513Y-95628111D01*
X146524185Y-95337000D01*
X146495513Y-95045889D01*
X146410599Y-94765966D01*
X146272706Y-94507986D01*
X146087134Y-94281866D01*
X146023663Y-94229777D01*
X146125386Y-94175405D01*
X146259962Y-94064962D01*
X146370405Y-93930386D01*
X146452472Y-93776850D01*
X146503008Y-93610254D01*
X146520072Y-93437000D01*
X146520072Y-92237000D01*
X146503008Y-92063746D01*
X146452472Y-91897150D01*
X146370405Y-91743614D01*
X146259962Y-91609038D01*
X146125386Y-91498595D01*
X145971850Y-91416528D01*
X145805254Y-91365992D01*
X145632000Y-91348928D01*
X144182000Y-91348928D01*
X144008746Y-91365992D01*
X143842150Y-91416528D01*
X143688614Y-91498595D01*
X143554038Y-91609038D01*
X143443595Y-91743614D01*
X143361528Y-91897150D01*
X143310992Y-92063746D01*
X143293928Y-92237000D01*
X143293928Y-93437000D01*
X143310992Y-93610254D01*
X143361528Y-93776850D01*
X143443595Y-93930386D01*
X143554038Y-94064962D01*
X143688614Y-94175405D01*
X143790337Y-94229777D01*
X143726866Y-94281866D01*
X143541294Y-94507986D01*
X143403401Y-94765966D01*
X143318487Y-95045889D01*
X143289815Y-95337000D01*
X143318487Y-95628111D01*
X143403401Y-95908034D01*
X143541294Y-96166014D01*
X143726866Y-96392134D01*
X143952986Y-96577706D01*
X143970374Y-96587000D01*
X143952986Y-96596294D01*
X143726866Y-96781866D01*
X143541294Y-97007986D01*
X143403401Y-97265966D01*
X143318487Y-97545889D01*
X143289815Y-97837000D01*
X143318487Y-98128111D01*
X143403401Y-98408034D01*
X143541294Y-98666014D01*
X143726866Y-98892134D01*
X143952986Y-99077706D01*
X143970374Y-99087000D01*
X143952986Y-99096294D01*
X143726866Y-99281866D01*
X143541294Y-99507986D01*
X143403401Y-99765966D01*
X143318487Y-100045889D01*
X143289815Y-100337000D01*
X143318487Y-100628111D01*
X143403401Y-100908034D01*
X143541294Y-101166014D01*
X143726866Y-101392134D01*
X143952986Y-101577706D01*
X143970374Y-101587000D01*
X143952986Y-101596294D01*
X143752332Y-101760967D01*
X143621788Y-101735000D01*
X143398212Y-101735000D01*
X143178933Y-101778617D01*
X142972376Y-101864176D01*
X142786480Y-101988388D01*
X142628388Y-102146480D01*
X142504176Y-102332376D01*
X142418617Y-102538933D01*
X142375000Y-102758212D01*
X133785573Y-102758212D01*
X133901139Y-102642646D01*
X134014407Y-102473128D01*
X134092428Y-102284770D01*
X134132202Y-102084811D01*
X134132202Y-101880933D01*
X134092428Y-101680974D01*
X134014407Y-101492616D01*
X133901139Y-101323098D01*
X133756976Y-101178935D01*
X133587458Y-101065667D01*
X133399100Y-100987646D01*
X133199141Y-100947872D01*
X132995263Y-100947872D01*
X132795304Y-100987646D01*
X132606946Y-101065667D01*
X132437428Y-101178935D01*
X132293265Y-101323098D01*
X132179997Y-101492616D01*
X132101976Y-101680974D01*
X132062202Y-101880933D01*
X126365000Y-101880933D01*
X126365000Y-99847061D01*
X126981000Y-99847061D01*
X126981000Y-100050939D01*
X127020774Y-100250898D01*
X127098795Y-100439256D01*
X127212063Y-100608774D01*
X127356226Y-100752937D01*
X127525744Y-100866205D01*
X127714102Y-100944226D01*
X127914061Y-100984000D01*
X128117939Y-100984000D01*
X128317898Y-100944226D01*
X128506256Y-100866205D01*
X128587500Y-100811920D01*
X128668744Y-100866205D01*
X128857102Y-100944226D01*
X129057061Y-100984000D01*
X129200610Y-100984000D01*
X129243795Y-101088256D01*
X129357063Y-101257774D01*
X129501226Y-101401937D01*
X129670744Y-101515205D01*
X129859102Y-101593226D01*
X130059061Y-101633000D01*
X130262939Y-101633000D01*
X130462898Y-101593226D01*
X130651256Y-101515205D01*
X130820774Y-101401937D01*
X130964937Y-101257774D01*
X131078205Y-101088256D01*
X131156226Y-100899898D01*
X131196000Y-100699939D01*
X131196000Y-100496061D01*
X131156226Y-100296102D01*
X131128043Y-100228061D01*
X134220000Y-100228061D01*
X134220000Y-100431939D01*
X134259774Y-100631898D01*
X134337795Y-100820256D01*
X134451063Y-100989774D01*
X134595226Y-101133937D01*
X134764744Y-101247205D01*
X134953102Y-101325226D01*
X135153061Y-101365000D01*
X135356939Y-101365000D01*
X135556898Y-101325226D01*
X135745256Y-101247205D01*
X135914774Y-101133937D01*
X136058937Y-100989774D01*
X136172205Y-100820256D01*
X136250226Y-100631898D01*
X136280030Y-100482061D01*
X136760000Y-100482061D01*
X136760000Y-100685939D01*
X136799774Y-100885898D01*
X136877795Y-101074256D01*
X136991063Y-101243774D01*
X137135226Y-101387937D01*
X137304744Y-101501205D01*
X137493102Y-101579226D01*
X137693061Y-101619000D01*
X137896939Y-101619000D01*
X138096898Y-101579226D01*
X138285256Y-101501205D01*
X138454774Y-101387937D01*
X138598937Y-101243774D01*
X138712205Y-101074256D01*
X138790226Y-100885898D01*
X138830000Y-100685939D01*
X138830000Y-100545561D01*
X138982500Y-100545561D01*
X138982500Y-100749439D01*
X139022274Y-100949398D01*
X139100295Y-101137756D01*
X139213563Y-101307274D01*
X139357726Y-101451437D01*
X139527244Y-101564705D01*
X139715602Y-101642726D01*
X139915561Y-101682500D01*
X140119439Y-101682500D01*
X140319398Y-101642726D01*
X140507756Y-101564705D01*
X140677274Y-101451437D01*
X140821437Y-101307274D01*
X140934705Y-101137756D01*
X141012726Y-100949398D01*
X141052500Y-100749439D01*
X141052500Y-100545561D01*
X141012726Y-100345602D01*
X140934705Y-100157244D01*
X140821437Y-99987726D01*
X140677274Y-99843563D01*
X140507756Y-99730295D01*
X140319398Y-99652274D01*
X140119439Y-99612500D01*
X139915561Y-99612500D01*
X139715602Y-99652274D01*
X139527244Y-99730295D01*
X139357726Y-99843563D01*
X139213563Y-99987726D01*
X139100295Y-100157244D01*
X139022274Y-100345602D01*
X138982500Y-100545561D01*
X138830000Y-100545561D01*
X138830000Y-100482061D01*
X138790226Y-100282102D01*
X138712205Y-100093744D01*
X138598937Y-99924226D01*
X138454774Y-99780063D01*
X138285256Y-99666795D01*
X138096898Y-99588774D01*
X137896939Y-99549000D01*
X137693061Y-99549000D01*
X137493102Y-99588774D01*
X137304744Y-99666795D01*
X137135226Y-99780063D01*
X136991063Y-99924226D01*
X136877795Y-100093744D01*
X136799774Y-100282102D01*
X136760000Y-100482061D01*
X136280030Y-100482061D01*
X136290000Y-100431939D01*
X136290000Y-100228061D01*
X136250226Y-100028102D01*
X136172205Y-99839744D01*
X136058937Y-99670226D01*
X135914774Y-99526063D01*
X135745256Y-99412795D01*
X135556898Y-99334774D01*
X135356939Y-99295000D01*
X135153061Y-99295000D01*
X134953102Y-99334774D01*
X134764744Y-99412795D01*
X134595226Y-99526063D01*
X134451063Y-99670226D01*
X134337795Y-99839744D01*
X134259774Y-100028102D01*
X134220000Y-100228061D01*
X131128043Y-100228061D01*
X131078205Y-100107744D01*
X130964937Y-99938226D01*
X130820774Y-99794063D01*
X130651256Y-99680795D01*
X130462898Y-99602774D01*
X130262939Y-99563000D01*
X130119390Y-99563000D01*
X130076205Y-99458744D01*
X129962937Y-99289226D01*
X129818774Y-99145063D01*
X129649256Y-99031795D01*
X129460898Y-98953774D01*
X129260939Y-98914000D01*
X129057061Y-98914000D01*
X128857102Y-98953774D01*
X128668744Y-99031795D01*
X128587500Y-99086080D01*
X128506256Y-99031795D01*
X128317898Y-98953774D01*
X128117939Y-98914000D01*
X127914061Y-98914000D01*
X127714102Y-98953774D01*
X127525744Y-99031795D01*
X127356226Y-99145063D01*
X127212063Y-99289226D01*
X127098795Y-99458744D01*
X127020774Y-99647102D01*
X126981000Y-99847061D01*
X126365000Y-99847061D01*
X126365000Y-97758581D01*
X133712000Y-97758581D01*
X133712000Y-97962459D01*
X133751774Y-98162418D01*
X133829795Y-98350776D01*
X133943063Y-98520294D01*
X134087226Y-98664457D01*
X134256744Y-98777725D01*
X134445102Y-98855746D01*
X134645061Y-98895520D01*
X134848939Y-98895520D01*
X135048898Y-98855746D01*
X135237256Y-98777725D01*
X135406774Y-98664457D01*
X135550937Y-98520294D01*
X135664205Y-98350776D01*
X135742226Y-98162418D01*
X135782000Y-97962459D01*
X135782000Y-97958492D01*
X135978148Y-97919476D01*
X136166506Y-97841455D01*
X136336024Y-97728187D01*
X136480187Y-97584024D01*
X136593455Y-97414506D01*
X136671476Y-97226148D01*
X136711250Y-97026189D01*
X136711250Y-96822311D01*
X136671476Y-96622352D01*
X136639461Y-96545061D01*
X139300000Y-96545061D01*
X139300000Y-96748939D01*
X139339774Y-96948898D01*
X139417795Y-97137256D01*
X139531063Y-97306774D01*
X139675226Y-97450937D01*
X139844744Y-97564205D01*
X140033102Y-97642226D01*
X140090381Y-97653619D01*
X140101774Y-97710898D01*
X140179795Y-97899256D01*
X140293063Y-98068774D01*
X140437226Y-98212937D01*
X140606744Y-98326205D01*
X140795102Y-98404226D01*
X140995061Y-98444000D01*
X141198939Y-98444000D01*
X141398898Y-98404226D01*
X141587256Y-98326205D01*
X141756774Y-98212937D01*
X141900937Y-98068774D01*
X142014205Y-97899256D01*
X142092226Y-97710898D01*
X142132000Y-97510939D01*
X142132000Y-97307061D01*
X142092226Y-97107102D01*
X142014205Y-96918744D01*
X141900937Y-96749226D01*
X141756774Y-96605063D01*
X141587256Y-96491795D01*
X141398898Y-96413774D01*
X141341619Y-96402381D01*
X141330226Y-96345102D01*
X141252205Y-96156744D01*
X141138937Y-95987226D01*
X140994774Y-95843063D01*
X140825256Y-95729795D01*
X140636898Y-95651774D01*
X140436939Y-95612000D01*
X140233061Y-95612000D01*
X140033102Y-95651774D01*
X139844744Y-95729795D01*
X139675226Y-95843063D01*
X139531063Y-95987226D01*
X139417795Y-96156744D01*
X139339774Y-96345102D01*
X139300000Y-96545061D01*
X136639461Y-96545061D01*
X136593455Y-96433994D01*
X136480187Y-96264476D01*
X136336024Y-96120313D01*
X136166506Y-96007045D01*
X135978148Y-95929024D01*
X135778189Y-95889250D01*
X135574311Y-95889250D01*
X135374352Y-95929024D01*
X135185994Y-96007045D01*
X135016476Y-96120313D01*
X134872313Y-96264476D01*
X134759045Y-96433994D01*
X134681024Y-96622352D01*
X134641250Y-96822311D01*
X134641250Y-96826278D01*
X134445102Y-96865294D01*
X134256744Y-96943315D01*
X134087226Y-97056583D01*
X133943063Y-97200746D01*
X133829795Y-97370264D01*
X133751774Y-97558622D01*
X133712000Y-97758581D01*
X126365000Y-97758581D01*
X126365000Y-95379026D01*
X130560035Y-95379026D01*
X130560035Y-95582904D01*
X130599809Y-95782863D01*
X130677830Y-95971221D01*
X130791098Y-96140739D01*
X130935261Y-96284902D01*
X131104779Y-96398170D01*
X131293137Y-96476191D01*
X131493096Y-96515965D01*
X131696974Y-96515965D01*
X131896933Y-96476191D01*
X132085291Y-96398170D01*
X132206782Y-96316993D01*
X132285226Y-96395437D01*
X132454744Y-96508705D01*
X132643102Y-96586726D01*
X132843061Y-96626500D01*
X133046939Y-96626500D01*
X133246898Y-96586726D01*
X133435256Y-96508705D01*
X133604774Y-96395437D01*
X133748937Y-96251274D01*
X133862205Y-96081756D01*
X133940226Y-95893398D01*
X133980000Y-95693439D01*
X133980000Y-95489561D01*
X133940226Y-95289602D01*
X133862205Y-95101244D01*
X133748937Y-94931726D01*
X133604774Y-94787563D01*
X133435256Y-94674295D01*
X133246898Y-94596274D01*
X133046939Y-94556500D01*
X132843061Y-94556500D01*
X132643102Y-94596274D01*
X132454744Y-94674295D01*
X132333253Y-94755472D01*
X132254809Y-94677028D01*
X132085291Y-94563760D01*
X131896933Y-94485739D01*
X131696974Y-94445965D01*
X131493096Y-94445965D01*
X131293137Y-94485739D01*
X131104779Y-94563760D01*
X130935261Y-94677028D01*
X130791098Y-94821191D01*
X130677830Y-94990709D01*
X130599809Y-95179067D01*
X130560035Y-95379026D01*
X126365000Y-95379026D01*
X126365000Y-92481061D01*
X127870000Y-92481061D01*
X127870000Y-92684939D01*
X127909774Y-92884898D01*
X127987795Y-93073256D01*
X128101063Y-93242774D01*
X128245226Y-93386937D01*
X128414744Y-93500205D01*
X128603102Y-93578226D01*
X128761837Y-93609800D01*
X128759000Y-93624061D01*
X128759000Y-93827939D01*
X128798774Y-94027898D01*
X128876795Y-94216256D01*
X128990063Y-94385774D01*
X129134226Y-94529937D01*
X129303744Y-94643205D01*
X129492102Y-94721226D01*
X129692061Y-94761000D01*
X129895939Y-94761000D01*
X130095898Y-94721226D01*
X130284256Y-94643205D01*
X130453774Y-94529937D01*
X130597937Y-94385774D01*
X130711205Y-94216256D01*
X130789226Y-94027898D01*
X130829000Y-93827939D01*
X130829000Y-93624061D01*
X130789226Y-93424102D01*
X130711205Y-93235744D01*
X130597937Y-93066226D01*
X130453774Y-92922063D01*
X130284256Y-92808795D01*
X130095898Y-92730774D01*
X129937163Y-92699200D01*
X129940000Y-92684939D01*
X129940000Y-92481061D01*
X129900226Y-92281102D01*
X129822205Y-92092744D01*
X129708937Y-91923226D01*
X129564774Y-91779063D01*
X129395256Y-91665795D01*
X129206898Y-91587774D01*
X129006939Y-91548000D01*
X128803061Y-91548000D01*
X128603102Y-91587774D01*
X128414744Y-91665795D01*
X128245226Y-91779063D01*
X128101063Y-91923226D01*
X127987795Y-92092744D01*
X127909774Y-92281102D01*
X127870000Y-92481061D01*
X126365000Y-92481061D01*
X126365000Y-90195000D01*
X131242805Y-90195000D01*
X131162795Y-90314744D01*
G37*
G04 #@! TD.AperFunction*
M02*
