M48
; DRILL file {KiCad (5.1.7)-1} date 10/20/20 19:41:35
; FORMAT={-:-/ absolute / inch / decimal}
; #@! TF.CreationDate,2020-10-20T19:41:35+02:00
; #@! TF.GenerationSoftware,Kicad,Pcbnew,(5.1.7)-1
; #@! TF.FileFunction,Plated,1,4,PTH
FMAT,2
INCH
T1C0.0157
T2C0.0236
T3C0.0362
T4C0.0374
T5C0.0917
%
G90
G05
T1
X3.9111Y-3.7611
X3.9496Y-3.7254
X3.9998Y-3.682
X4.025Y-4.125
X4.025Y-4.19
X4.05Y-3.6
X4.055Y-4.005
X4.095Y-4.005
X4.178Y-4.014
X4.1942Y-3.6339
X4.2Y-3.97
X4.225Y-4.125
X4.23Y-4.0743
X4.24Y-3.69
X4.24Y-3.73
X4.2411Y-3.6339
X4.2911Y-3.6339
X4.3411Y-3.6339
X4.3617Y-3.9346
X4.38Y-3.86
X4.41Y-3.816
X4.42Y-3.93
X4.524Y-3.99
X4.53Y-3.945
X4.5473Y-4.1528
X4.59Y-3.69
X4.6251Y-4.1749
X4.65Y-4.0435
X4.6537Y-3.7013
X4.655Y-3.945
X4.6695Y-3.9816
X4.6991Y-4.0692
X4.7Y-3.83
X4.71Y-3.65
X4.73Y-3.86
X4.74Y-4.15
X4.745Y-3.69
X4.745Y-3.985
X4.75Y-3.76
X4.75Y-3.91
X4.79Y-4.17
X4.995Y-4.165
X5.035Y-3.76
X5.04Y-3.935
X5.04Y-4.16
X5.05Y-3.985
X5.075Y-3.645
X5.085Y-3.935
X5.11Y-3.69
X5.115Y-3.76
X5.1244Y-3.9606
X5.1809Y-3.7591
X5.2Y-3.575
X5.2Y-3.625
X5.2Y-3.675
X5.22Y-4.19
X5.2209Y-4.1259
X5.2341Y-3.7634
X5.24Y-4.0151
X5.2428Y-3.877
X5.25Y-3.575
X5.25Y-3.625
X5.25Y-3.675
X5.3Y-3.575
X5.3Y-3.625
X5.3Y-3.675
X5.305Y-3.8528
X5.325Y-3.95
X5.3416Y-3.8159
X5.35Y-3.575
X5.35Y-3.625
X5.35Y-3.675
X5.4Y-3.575
X5.4Y-3.625
X5.425Y-3.96
X5.4441Y-3.8359
X5.45Y-3.575
X5.45Y-3.625
X5.45Y-3.675
X5.475Y-4.25
X5.4791Y-4.1459
X5.5125Y-3.9625
X5.525Y-3.805
X5.555Y-3.835
X5.595Y-3.58
X5.635Y-3.62
T2
X3.81Y-3.9
X3.82Y-3.85
X3.8713Y-3.8287
X4.154Y-3.7086
X4.1804Y-3.7596
X5.4191Y-3.7959
X5.5236Y-3.8764
X5.65Y-4.05
X5.65Y-4.105
X5.755Y-4.105
X5.7587Y-4.0487
X5.76Y-3.995
T3
X3.8713Y-3.9
X3.8713Y-3.9984
X3.95Y-3.9
X3.95Y-3.9984
T4
X5.705Y-3.655
X5.705Y-3.7534
X5.705Y-3.8519
X5.705Y-3.9503
X5.705Y-4.0487
X5.705Y-4.1471
X5.705Y-4.2456
T5
X3.7646Y-3.7122
X3.7646Y-4.1862
T0
M30
