G04 #@! TF.GenerationSoftware,KiCad,Pcbnew,(5.1.7)-1*
G04 #@! TF.CreationDate,2020-10-20T19:41:26+02:00*
G04 #@! TF.ProjectId,EQMOD_DIRECT_Isolated,45514d4f-445f-4444-9952-4543545f4973,rev?*
G04 #@! TF.SameCoordinates,Original*
G04 #@! TF.FileFunction,Copper,L1,Top*
G04 #@! TF.FilePolarity,Positive*
%FSLAX46Y46*%
G04 Gerber Fmt 4.6, Leading zero omitted, Abs format (unit mm)*
G04 Created by KiCad (PCBNEW (5.1.7)-1) date 2020-10-20 19:41:26*
%MOMM*%
%LPD*%
G01*
G04 APERTURE LIST*
G04 #@! TA.AperFunction,ComponentPad*
%ADD10O,1.950000X1.700000*%
G04 #@! TD*
G04 #@! TA.AperFunction,SMDPad,CuDef*
%ADD11R,0.900000X1.300000*%
G04 #@! TD*
G04 #@! TA.AperFunction,SMDPad,CuDef*
%ADD12C,0.100000*%
G04 #@! TD*
G04 #@! TA.AperFunction,ComponentPad*
%ADD13R,1.700000X1.700000*%
G04 #@! TD*
G04 #@! TA.AperFunction,ComponentPad*
%ADD14C,1.700000*%
G04 #@! TD*
G04 #@! TA.AperFunction,ComponentPad*
%ADD15C,3.500000*%
G04 #@! TD*
G04 #@! TA.AperFunction,SMDPad,CuDef*
%ADD16R,1.750000X0.450000*%
G04 #@! TD*
G04 #@! TA.AperFunction,SMDPad,CuDef*
%ADD17R,1.060000X0.650000*%
G04 #@! TD*
G04 #@! TA.AperFunction,SMDPad,CuDef*
%ADD18R,0.400000X0.650000*%
G04 #@! TD*
G04 #@! TA.AperFunction,ViaPad*
%ADD19C,0.800000*%
G04 #@! TD*
G04 #@! TA.AperFunction,ViaPad*
%ADD20C,1.000000*%
G04 #@! TD*
G04 #@! TA.AperFunction,Conductor*
%ADD21C,0.500000*%
G04 #@! TD*
G04 #@! TA.AperFunction,Conductor*
%ADD22C,1.500000*%
G04 #@! TD*
G04 #@! TA.AperFunction,Conductor*
%ADD23C,1.000000*%
G04 #@! TD*
G04 #@! TA.AperFunction,Conductor*
%ADD24C,0.300000*%
G04 #@! TD*
G04 #@! TA.AperFunction,Conductor*
%ADD25C,0.750000*%
G04 #@! TD*
G04 #@! TA.AperFunction,Conductor*
%ADD26C,0.200000*%
G04 #@! TD*
G04 #@! TA.AperFunction,Conductor*
%ADD27C,0.254000*%
G04 #@! TD*
G04 #@! TA.AperFunction,Conductor*
%ADD28C,0.100000*%
G04 #@! TD*
G04 APERTURE END LIST*
D10*
X144907000Y-107837000D03*
X144907000Y-105337000D03*
X144907000Y-102837000D03*
X144907000Y-100337000D03*
X144907000Y-97837000D03*
X144907000Y-95337000D03*
G04 #@! TA.AperFunction,ComponentPad*
G36*
G01*
X144182000Y-91987000D02*
X145632000Y-91987000D01*
G75*
G02*
X145882000Y-92237000I0J-250000D01*
G01*
X145882000Y-93437000D01*
G75*
G02*
X145632000Y-93687000I-250000J0D01*
G01*
X144182000Y-93687000D01*
G75*
G02*
X143932000Y-93437000I0J250000D01*
G01*
X143932000Y-92237000D01*
G75*
G02*
X144182000Y-91987000I250000J0D01*
G01*
G37*
G04 #@! TD.AperFunction*
G04 #@! TA.AperFunction,SMDPad,CuDef*
G36*
G01*
X142604000Y-91169500D02*
X142604000Y-90694500D01*
G75*
G02*
X142841500Y-90457000I237500J0D01*
G01*
X143416500Y-90457000D01*
G75*
G02*
X143654000Y-90694500I0J-237500D01*
G01*
X143654000Y-91169500D01*
G75*
G02*
X143416500Y-91407000I-237500J0D01*
G01*
X142841500Y-91407000D01*
G75*
G02*
X142604000Y-91169500I0J237500D01*
G01*
G37*
G04 #@! TD.AperFunction*
G04 #@! TA.AperFunction,SMDPad,CuDef*
G36*
G01*
X144354000Y-91169500D02*
X144354000Y-90694500D01*
G75*
G02*
X144591500Y-90457000I237500J0D01*
G01*
X145166500Y-90457000D01*
G75*
G02*
X145404000Y-90694500I0J-237500D01*
G01*
X145404000Y-91169500D01*
G75*
G02*
X145166500Y-91407000I-237500J0D01*
G01*
X144591500Y-91407000D01*
G75*
G02*
X144354000Y-91169500I0J237500D01*
G01*
G37*
G04 #@! TD.AperFunction*
G04 #@! TA.AperFunction,SMDPad,CuDef*
G36*
G01*
X142129500Y-92947000D02*
X142604500Y-92947000D01*
G75*
G02*
X142842000Y-93184500I0J-237500D01*
G01*
X142842000Y-93759500D01*
G75*
G02*
X142604500Y-93997000I-237500J0D01*
G01*
X142129500Y-93997000D01*
G75*
G02*
X141892000Y-93759500I0J237500D01*
G01*
X141892000Y-93184500D01*
G75*
G02*
X142129500Y-92947000I237500J0D01*
G01*
G37*
G04 #@! TD.AperFunction*
G04 #@! TA.AperFunction,SMDPad,CuDef*
G36*
G01*
X142129500Y-94697000D02*
X142604500Y-94697000D01*
G75*
G02*
X142842000Y-94934500I0J-237500D01*
G01*
X142842000Y-95509500D01*
G75*
G02*
X142604500Y-95747000I-237500J0D01*
G01*
X142129500Y-95747000D01*
G75*
G02*
X141892000Y-95509500I0J237500D01*
G01*
X141892000Y-94934500D01*
G75*
G02*
X142129500Y-94697000I237500J0D01*
G01*
G37*
G04 #@! TD.AperFunction*
D11*
X133818500Y-95591500D03*
X136818500Y-95591500D03*
G04 #@! TA.AperFunction,SMDPad,CuDef*
D12*
G36*
X136185000Y-91641500D02*
G01*
X136185000Y-94766500D01*
X135768500Y-94766500D01*
X135768500Y-96241500D01*
X134868500Y-96241500D01*
X134868500Y-94766500D01*
X134452000Y-94766500D01*
X134452000Y-91641500D01*
X136185000Y-91641500D01*
G37*
G04 #@! TD.AperFunction*
D13*
X100330000Y-99060000D03*
D14*
X100330000Y-101560000D03*
X98330000Y-101560000D03*
X98330000Y-99060000D03*
D15*
X95620000Y-94290000D03*
X95620000Y-106330000D03*
D16*
X116630000Y-104555000D03*
X116630000Y-103905000D03*
X116630000Y-103255000D03*
X116630000Y-102605000D03*
X116630000Y-101955000D03*
X116630000Y-101305000D03*
X116630000Y-100655000D03*
X116630000Y-100005000D03*
X116630000Y-99355000D03*
X116630000Y-98705000D03*
X116630000Y-98055000D03*
X116630000Y-97405000D03*
X116630000Y-96755000D03*
X116630000Y-96105000D03*
X109430000Y-96105000D03*
X109430000Y-96755000D03*
X109430000Y-97405000D03*
X109430000Y-98055000D03*
X109430000Y-98705000D03*
X109430000Y-99355000D03*
X109430000Y-100005000D03*
X109430000Y-100655000D03*
X109430000Y-101305000D03*
X109430000Y-101955000D03*
X109430000Y-102605000D03*
X109430000Y-103255000D03*
X109430000Y-103905000D03*
X109430000Y-104555000D03*
G04 #@! TA.AperFunction,SMDPad,CuDef*
G36*
G01*
X102593600Y-95215700D02*
X102593600Y-95690700D01*
G75*
G02*
X102356100Y-95928200I-237500J0D01*
G01*
X101781100Y-95928200D01*
G75*
G02*
X101543600Y-95690700I0J237500D01*
G01*
X101543600Y-95215700D01*
G75*
G02*
X101781100Y-94978200I237500J0D01*
G01*
X102356100Y-94978200D01*
G75*
G02*
X102593600Y-95215700I0J-237500D01*
G01*
G37*
G04 #@! TD.AperFunction*
G04 #@! TA.AperFunction,SMDPad,CuDef*
G36*
G01*
X100843600Y-95215700D02*
X100843600Y-95690700D01*
G75*
G02*
X100606100Y-95928200I-237500J0D01*
G01*
X100031100Y-95928200D01*
G75*
G02*
X99793600Y-95690700I0J237500D01*
G01*
X99793600Y-95215700D01*
G75*
G02*
X100031100Y-94978200I237500J0D01*
G01*
X100606100Y-94978200D01*
G75*
G02*
X100843600Y-95215700I0J-237500D01*
G01*
G37*
G04 #@! TD.AperFunction*
G04 #@! TA.AperFunction,SMDPad,CuDef*
G36*
G01*
X104490000Y-106663500D02*
X104490000Y-106188500D01*
G75*
G02*
X104727500Y-105951000I237500J0D01*
G01*
X105302500Y-105951000D01*
G75*
G02*
X105540000Y-106188500I0J-237500D01*
G01*
X105540000Y-106663500D01*
G75*
G02*
X105302500Y-106901000I-237500J0D01*
G01*
X104727500Y-106901000D01*
G75*
G02*
X104490000Y-106663500I0J237500D01*
G01*
G37*
G04 #@! TD.AperFunction*
G04 #@! TA.AperFunction,SMDPad,CuDef*
G36*
G01*
X102740000Y-106663500D02*
X102740000Y-106188500D01*
G75*
G02*
X102977500Y-105951000I237500J0D01*
G01*
X103552500Y-105951000D01*
G75*
G02*
X103790000Y-106188500I0J-237500D01*
G01*
X103790000Y-106663500D01*
G75*
G02*
X103552500Y-106901000I-237500J0D01*
G01*
X102977500Y-106901000D01*
G75*
G02*
X102740000Y-106663500I0J237500D01*
G01*
G37*
G04 #@! TD.AperFunction*
G04 #@! TA.AperFunction,SMDPad,CuDef*
G36*
G01*
X105540000Y-104537500D02*
X105540000Y-105012500D01*
G75*
G02*
X105302500Y-105250000I-237500J0D01*
G01*
X104727500Y-105250000D01*
G75*
G02*
X104490000Y-105012500I0J237500D01*
G01*
X104490000Y-104537500D01*
G75*
G02*
X104727500Y-104300000I237500J0D01*
G01*
X105302500Y-104300000D01*
G75*
G02*
X105540000Y-104537500I0J-237500D01*
G01*
G37*
G04 #@! TD.AperFunction*
G04 #@! TA.AperFunction,SMDPad,CuDef*
G36*
G01*
X103790000Y-104537500D02*
X103790000Y-105012500D01*
G75*
G02*
X103552500Y-105250000I-237500J0D01*
G01*
X102977500Y-105250000D01*
G75*
G02*
X102740000Y-105012500I0J237500D01*
G01*
X102740000Y-104537500D01*
G75*
G02*
X102977500Y-104300000I237500J0D01*
G01*
X103552500Y-104300000D01*
G75*
G02*
X103790000Y-104537500I0J-237500D01*
G01*
G37*
G04 #@! TD.AperFunction*
G04 #@! TA.AperFunction,SMDPad,CuDef*
G36*
G01*
X104765000Y-94910000D02*
X103515000Y-94910000D01*
G75*
G02*
X103265000Y-94660000I0J250000D01*
G01*
X103265000Y-93735000D01*
G75*
G02*
X103515000Y-93485000I250000J0D01*
G01*
X104765000Y-93485000D01*
G75*
G02*
X105015000Y-93735000I0J-250000D01*
G01*
X105015000Y-94660000D01*
G75*
G02*
X104765000Y-94910000I-250000J0D01*
G01*
G37*
G04 #@! TD.AperFunction*
G04 #@! TA.AperFunction,SMDPad,CuDef*
G36*
G01*
X104765000Y-91935000D02*
X103515000Y-91935000D01*
G75*
G02*
X103265000Y-91685000I0J250000D01*
G01*
X103265000Y-90760000D01*
G75*
G02*
X103515000Y-90510000I250000J0D01*
G01*
X104765000Y-90510000D01*
G75*
G02*
X105015000Y-90760000I0J-250000D01*
G01*
X105015000Y-91685000D01*
G75*
G02*
X104765000Y-91935000I-250000J0D01*
G01*
G37*
G04 #@! TD.AperFunction*
G04 #@! TA.AperFunction,SMDPad,CuDef*
G36*
G01*
X109632000Y-93488500D02*
X109632000Y-93963500D01*
G75*
G02*
X109394500Y-94201000I-237500J0D01*
G01*
X108819500Y-94201000D01*
G75*
G02*
X108582000Y-93963500I0J237500D01*
G01*
X108582000Y-93488500D01*
G75*
G02*
X108819500Y-93251000I237500J0D01*
G01*
X109394500Y-93251000D01*
G75*
G02*
X109632000Y-93488500I0J-237500D01*
G01*
G37*
G04 #@! TD.AperFunction*
G04 #@! TA.AperFunction,SMDPad,CuDef*
G36*
G01*
X111382000Y-93488500D02*
X111382000Y-93963500D01*
G75*
G02*
X111144500Y-94201000I-237500J0D01*
G01*
X110569500Y-94201000D01*
G75*
G02*
X110332000Y-93963500I0J237500D01*
G01*
X110332000Y-93488500D01*
G75*
G02*
X110569500Y-93251000I237500J0D01*
G01*
X111144500Y-93251000D01*
G75*
G02*
X111382000Y-93488500I0J-237500D01*
G01*
G37*
G04 #@! TD.AperFunction*
G04 #@! TA.AperFunction,SMDPad,CuDef*
G36*
G01*
X107204500Y-99692000D02*
X107679500Y-99692000D01*
G75*
G02*
X107917000Y-99929500I0J-237500D01*
G01*
X107917000Y-100504500D01*
G75*
G02*
X107679500Y-100742000I-237500J0D01*
G01*
X107204500Y-100742000D01*
G75*
G02*
X106967000Y-100504500I0J237500D01*
G01*
X106967000Y-99929500D01*
G75*
G02*
X107204500Y-99692000I237500J0D01*
G01*
G37*
G04 #@! TD.AperFunction*
G04 #@! TA.AperFunction,SMDPad,CuDef*
G36*
G01*
X107204500Y-101442000D02*
X107679500Y-101442000D01*
G75*
G02*
X107917000Y-101679500I0J-237500D01*
G01*
X107917000Y-102254500D01*
G75*
G02*
X107679500Y-102492000I-237500J0D01*
G01*
X107204500Y-102492000D01*
G75*
G02*
X106967000Y-102254500I0J237500D01*
G01*
X106967000Y-101679500D01*
G75*
G02*
X107204500Y-101442000I237500J0D01*
G01*
G37*
G04 #@! TD.AperFunction*
G04 #@! TA.AperFunction,SMDPad,CuDef*
G36*
G01*
X136668500Y-100567000D02*
X137143500Y-100567000D01*
G75*
G02*
X137381000Y-100804500I0J-237500D01*
G01*
X137381000Y-101379500D01*
G75*
G02*
X137143500Y-101617000I-237500J0D01*
G01*
X136668500Y-101617000D01*
G75*
G02*
X136431000Y-101379500I0J237500D01*
G01*
X136431000Y-100804500D01*
G75*
G02*
X136668500Y-100567000I237500J0D01*
G01*
G37*
G04 #@! TD.AperFunction*
G04 #@! TA.AperFunction,SMDPad,CuDef*
G36*
G01*
X136668500Y-98817000D02*
X137143500Y-98817000D01*
G75*
G02*
X137381000Y-99054500I0J-237500D01*
G01*
X137381000Y-99629500D01*
G75*
G02*
X137143500Y-99867000I-237500J0D01*
G01*
X136668500Y-99867000D01*
G75*
G02*
X136431000Y-99629500I0J237500D01*
G01*
X136431000Y-99054500D01*
G75*
G02*
X136668500Y-98817000I237500J0D01*
G01*
G37*
G04 #@! TD.AperFunction*
G04 #@! TA.AperFunction,SMDPad,CuDef*
G36*
G01*
X133347000Y-106663500D02*
X133347000Y-106188500D01*
G75*
G02*
X133584500Y-105951000I237500J0D01*
G01*
X134159500Y-105951000D01*
G75*
G02*
X134397000Y-106188500I0J-237500D01*
G01*
X134397000Y-106663500D01*
G75*
G02*
X134159500Y-106901000I-237500J0D01*
G01*
X133584500Y-106901000D01*
G75*
G02*
X133347000Y-106663500I0J237500D01*
G01*
G37*
G04 #@! TD.AperFunction*
G04 #@! TA.AperFunction,SMDPad,CuDef*
G36*
G01*
X135097000Y-106663500D02*
X135097000Y-106188500D01*
G75*
G02*
X135334500Y-105951000I237500J0D01*
G01*
X135909500Y-105951000D01*
G75*
G02*
X136147000Y-106188500I0J-237500D01*
G01*
X136147000Y-106663500D01*
G75*
G02*
X135909500Y-106901000I-237500J0D01*
G01*
X135334500Y-106901000D01*
G75*
G02*
X135097000Y-106663500I0J237500D01*
G01*
G37*
G04 #@! TD.AperFunction*
G04 #@! TA.AperFunction,SMDPad,CuDef*
G36*
G01*
X111983000Y-108949500D02*
X111983000Y-108474500D01*
G75*
G02*
X112220500Y-108237000I237500J0D01*
G01*
X112795500Y-108237000D01*
G75*
G02*
X113033000Y-108474500I0J-237500D01*
G01*
X113033000Y-108949500D01*
G75*
G02*
X112795500Y-109187000I-237500J0D01*
G01*
X112220500Y-109187000D01*
G75*
G02*
X111983000Y-108949500I0J237500D01*
G01*
G37*
G04 #@! TD.AperFunction*
G04 #@! TA.AperFunction,SMDPad,CuDef*
G36*
G01*
X110233000Y-108949500D02*
X110233000Y-108474500D01*
G75*
G02*
X110470500Y-108237000I237500J0D01*
G01*
X111045500Y-108237000D01*
G75*
G02*
X111283000Y-108474500I0J-237500D01*
G01*
X111283000Y-108949500D01*
G75*
G02*
X111045500Y-109187000I-237500J0D01*
G01*
X110470500Y-109187000D01*
G75*
G02*
X110233000Y-108949500I0J237500D01*
G01*
G37*
G04 #@! TD.AperFunction*
G04 #@! TA.AperFunction,SMDPad,CuDef*
G36*
G01*
X110233000Y-107171500D02*
X110233000Y-106696500D01*
G75*
G02*
X110470500Y-106459000I237500J0D01*
G01*
X111045500Y-106459000D01*
G75*
G02*
X111283000Y-106696500I0J-237500D01*
G01*
X111283000Y-107171500D01*
G75*
G02*
X111045500Y-107409000I-237500J0D01*
G01*
X110470500Y-107409000D01*
G75*
G02*
X110233000Y-107171500I0J237500D01*
G01*
G37*
G04 #@! TD.AperFunction*
G04 #@! TA.AperFunction,SMDPad,CuDef*
G36*
G01*
X111983000Y-107171500D02*
X111983000Y-106696500D01*
G75*
G02*
X112220500Y-106459000I237500J0D01*
G01*
X112795500Y-106459000D01*
G75*
G02*
X113033000Y-106696500I0J-237500D01*
G01*
X113033000Y-107171500D01*
G75*
G02*
X112795500Y-107409000I-237500J0D01*
G01*
X112220500Y-107409000D01*
G75*
G02*
X111983000Y-107171500I0J237500D01*
G01*
G37*
G04 #@! TD.AperFunction*
G04 #@! TA.AperFunction,SMDPad,CuDef*
G36*
G01*
X101543600Y-97214700D02*
X101543600Y-96739700D01*
G75*
G02*
X101781100Y-96502200I237500J0D01*
G01*
X102356100Y-96502200D01*
G75*
G02*
X102593600Y-96739700I0J-237500D01*
G01*
X102593600Y-97214700D01*
G75*
G02*
X102356100Y-97452200I-237500J0D01*
G01*
X101781100Y-97452200D01*
G75*
G02*
X101543600Y-97214700I0J237500D01*
G01*
G37*
G04 #@! TD.AperFunction*
G04 #@! TA.AperFunction,SMDPad,CuDef*
G36*
G01*
X99793600Y-97214700D02*
X99793600Y-96739700D01*
G75*
G02*
X100031100Y-96502200I237500J0D01*
G01*
X100606100Y-96502200D01*
G75*
G02*
X100843600Y-96739700I0J-237500D01*
G01*
X100843600Y-97214700D01*
G75*
G02*
X100606100Y-97452200I-237500J0D01*
G01*
X100031100Y-97452200D01*
G75*
G02*
X99793600Y-97214700I0J237500D01*
G01*
G37*
G04 #@! TD.AperFunction*
G04 #@! TA.AperFunction,SMDPad,CuDef*
G36*
G01*
X106756000Y-96069999D02*
X106756000Y-96970001D01*
G75*
G02*
X106506001Y-97220000I-249999J0D01*
G01*
X105855999Y-97220000D01*
G75*
G02*
X105606000Y-96970001I0J249999D01*
G01*
X105606000Y-96069999D01*
G75*
G02*
X105855999Y-95820000I249999J0D01*
G01*
X106506001Y-95820000D01*
G75*
G02*
X106756000Y-96069999I0J-249999D01*
G01*
G37*
G04 #@! TD.AperFunction*
G04 #@! TA.AperFunction,SMDPad,CuDef*
G36*
G01*
X104706000Y-96069999D02*
X104706000Y-96970001D01*
G75*
G02*
X104456001Y-97220000I-249999J0D01*
G01*
X103805999Y-97220000D01*
G75*
G02*
X103556000Y-96970001I0J249999D01*
G01*
X103556000Y-96069999D01*
G75*
G02*
X103805999Y-95820000I249999J0D01*
G01*
X104456001Y-95820000D01*
G75*
G02*
X104706000Y-96069999I0J-249999D01*
G01*
G37*
G04 #@! TD.AperFunction*
G04 #@! TA.AperFunction,SMDPad,CuDef*
G36*
G01*
X134397000Y-104537500D02*
X134397000Y-105012500D01*
G75*
G02*
X134159500Y-105250000I-237500J0D01*
G01*
X133584500Y-105250000D01*
G75*
G02*
X133347000Y-105012500I0J237500D01*
G01*
X133347000Y-104537500D01*
G75*
G02*
X133584500Y-104300000I237500J0D01*
G01*
X134159500Y-104300000D01*
G75*
G02*
X134397000Y-104537500I0J-237500D01*
G01*
G37*
G04 #@! TD.AperFunction*
G04 #@! TA.AperFunction,SMDPad,CuDef*
G36*
G01*
X136147000Y-104537500D02*
X136147000Y-105012500D01*
G75*
G02*
X135909500Y-105250000I-237500J0D01*
G01*
X135334500Y-105250000D01*
G75*
G02*
X135097000Y-105012500I0J237500D01*
G01*
X135097000Y-104537500D01*
G75*
G02*
X135334500Y-104300000I237500J0D01*
G01*
X135909500Y-104300000D01*
G75*
G02*
X136147000Y-104537500I0J-237500D01*
G01*
G37*
G04 #@! TD.AperFunction*
G04 #@! TA.AperFunction,SMDPad,CuDef*
G36*
G01*
X114825000Y-108474500D02*
X114825000Y-108949500D01*
G75*
G02*
X114587500Y-109187000I-237500J0D01*
G01*
X114012500Y-109187000D01*
G75*
G02*
X113775000Y-108949500I0J237500D01*
G01*
X113775000Y-108474500D01*
G75*
G02*
X114012500Y-108237000I237500J0D01*
G01*
X114587500Y-108237000D01*
G75*
G02*
X114825000Y-108474500I0J-237500D01*
G01*
G37*
G04 #@! TD.AperFunction*
G04 #@! TA.AperFunction,SMDPad,CuDef*
G36*
G01*
X116575000Y-108474500D02*
X116575000Y-108949500D01*
G75*
G02*
X116337500Y-109187000I-237500J0D01*
G01*
X115762500Y-109187000D01*
G75*
G02*
X115525000Y-108949500I0J237500D01*
G01*
X115525000Y-108474500D01*
G75*
G02*
X115762500Y-108237000I237500J0D01*
G01*
X116337500Y-108237000D01*
G75*
G02*
X116575000Y-108474500I0J-237500D01*
G01*
G37*
G04 #@! TD.AperFunction*
G04 #@! TA.AperFunction,SMDPad,CuDef*
G36*
G01*
X116575000Y-106696500D02*
X116575000Y-107171500D01*
G75*
G02*
X116337500Y-107409000I-237500J0D01*
G01*
X115762500Y-107409000D01*
G75*
G02*
X115525000Y-107171500I0J237500D01*
G01*
X115525000Y-106696500D01*
G75*
G02*
X115762500Y-106459000I237500J0D01*
G01*
X116337500Y-106459000D01*
G75*
G02*
X116575000Y-106696500I0J-237500D01*
G01*
G37*
G04 #@! TD.AperFunction*
G04 #@! TA.AperFunction,SMDPad,CuDef*
G36*
G01*
X114825000Y-106696500D02*
X114825000Y-107171500D01*
G75*
G02*
X114587500Y-107409000I-237500J0D01*
G01*
X114012500Y-107409000D01*
G75*
G02*
X113775000Y-107171500I0J237500D01*
G01*
X113775000Y-106696500D01*
G75*
G02*
X114012500Y-106459000I237500J0D01*
G01*
X114587500Y-106459000D01*
G75*
G02*
X114825000Y-106696500I0J-237500D01*
G01*
G37*
G04 #@! TD.AperFunction*
G04 #@! TA.AperFunction,SMDPad,CuDef*
G36*
G01*
X131307000Y-104283500D02*
X131307000Y-104758500D01*
G75*
G02*
X131069500Y-104996000I-237500J0D01*
G01*
X130494500Y-104996000D01*
G75*
G02*
X130257000Y-104758500I0J237500D01*
G01*
X130257000Y-104283500D01*
G75*
G02*
X130494500Y-104046000I237500J0D01*
G01*
X131069500Y-104046000D01*
G75*
G02*
X131307000Y-104283500I0J-237500D01*
G01*
G37*
G04 #@! TD.AperFunction*
G04 #@! TA.AperFunction,SMDPad,CuDef*
G36*
G01*
X129557000Y-104283500D02*
X129557000Y-104758500D01*
G75*
G02*
X129319500Y-104996000I-237500J0D01*
G01*
X128744500Y-104996000D01*
G75*
G02*
X128507000Y-104758500I0J237500D01*
G01*
X128507000Y-104283500D01*
G75*
G02*
X128744500Y-104046000I237500J0D01*
G01*
X129319500Y-104046000D01*
G75*
G02*
X129557000Y-104283500I0J-237500D01*
G01*
G37*
G04 #@! TD.AperFunction*
G04 #@! TA.AperFunction,SMDPad,CuDef*
G36*
G01*
X129557000Y-102632500D02*
X129557000Y-103107500D01*
G75*
G02*
X129319500Y-103345000I-237500J0D01*
G01*
X128744500Y-103345000D01*
G75*
G02*
X128507000Y-103107500I0J237500D01*
G01*
X128507000Y-102632500D01*
G75*
G02*
X128744500Y-102395000I237500J0D01*
G01*
X129319500Y-102395000D01*
G75*
G02*
X129557000Y-102632500I0J-237500D01*
G01*
G37*
G04 #@! TD.AperFunction*
G04 #@! TA.AperFunction,SMDPad,CuDef*
G36*
G01*
X131307000Y-102632500D02*
X131307000Y-103107500D01*
G75*
G02*
X131069500Y-103345000I-237500J0D01*
G01*
X130494500Y-103345000D01*
G75*
G02*
X130257000Y-103107500I0J237500D01*
G01*
X130257000Y-102632500D01*
G75*
G02*
X130494500Y-102395000I237500J0D01*
G01*
X131069500Y-102395000D01*
G75*
G02*
X131307000Y-102632500I0J-237500D01*
G01*
G37*
G04 #@! TD.AperFunction*
D17*
X103040000Y-98745000D03*
X103040000Y-99695000D03*
X103040000Y-100645000D03*
X105240000Y-100645000D03*
X105240000Y-98745000D03*
X105240000Y-99695000D03*
G04 #@! TA.AperFunction,SMDPad,CuDef*
G36*
G01*
X120883000Y-101369000D02*
X120883000Y-101069000D01*
G75*
G02*
X121033000Y-100919000I150000J0D01*
G01*
X122683000Y-100919000D01*
G75*
G02*
X122833000Y-101069000I0J-150000D01*
G01*
X122833000Y-101369000D01*
G75*
G02*
X122683000Y-101519000I-150000J0D01*
G01*
X121033000Y-101519000D01*
G75*
G02*
X120883000Y-101369000I0J150000D01*
G01*
G37*
G04 #@! TD.AperFunction*
G04 #@! TA.AperFunction,SMDPad,CuDef*
G36*
G01*
X120883000Y-102639000D02*
X120883000Y-102339000D01*
G75*
G02*
X121033000Y-102189000I150000J0D01*
G01*
X122683000Y-102189000D01*
G75*
G02*
X122833000Y-102339000I0J-150000D01*
G01*
X122833000Y-102639000D01*
G75*
G02*
X122683000Y-102789000I-150000J0D01*
G01*
X121033000Y-102789000D01*
G75*
G02*
X120883000Y-102639000I0J150000D01*
G01*
G37*
G04 #@! TD.AperFunction*
G04 #@! TA.AperFunction,SMDPad,CuDef*
G36*
G01*
X120883000Y-103909000D02*
X120883000Y-103609000D01*
G75*
G02*
X121033000Y-103459000I150000J0D01*
G01*
X122683000Y-103459000D01*
G75*
G02*
X122833000Y-103609000I0J-150000D01*
G01*
X122833000Y-103909000D01*
G75*
G02*
X122683000Y-104059000I-150000J0D01*
G01*
X121033000Y-104059000D01*
G75*
G02*
X120883000Y-103909000I0J150000D01*
G01*
G37*
G04 #@! TD.AperFunction*
G04 #@! TA.AperFunction,SMDPad,CuDef*
G36*
G01*
X120883000Y-105179000D02*
X120883000Y-104879000D01*
G75*
G02*
X121033000Y-104729000I150000J0D01*
G01*
X122683000Y-104729000D01*
G75*
G02*
X122833000Y-104879000I0J-150000D01*
G01*
X122833000Y-105179000D01*
G75*
G02*
X122683000Y-105329000I-150000J0D01*
G01*
X121033000Y-105329000D01*
G75*
G02*
X120883000Y-105179000I0J150000D01*
G01*
G37*
G04 #@! TD.AperFunction*
G04 #@! TA.AperFunction,SMDPad,CuDef*
G36*
G01*
X125833000Y-105179000D02*
X125833000Y-104879000D01*
G75*
G02*
X125983000Y-104729000I150000J0D01*
G01*
X127633000Y-104729000D01*
G75*
G02*
X127783000Y-104879000I0J-150000D01*
G01*
X127783000Y-105179000D01*
G75*
G02*
X127633000Y-105329000I-150000J0D01*
G01*
X125983000Y-105329000D01*
G75*
G02*
X125833000Y-105179000I0J150000D01*
G01*
G37*
G04 #@! TD.AperFunction*
G04 #@! TA.AperFunction,SMDPad,CuDef*
G36*
G01*
X125833000Y-103909000D02*
X125833000Y-103609000D01*
G75*
G02*
X125983000Y-103459000I150000J0D01*
G01*
X127633000Y-103459000D01*
G75*
G02*
X127783000Y-103609000I0J-150000D01*
G01*
X127783000Y-103909000D01*
G75*
G02*
X127633000Y-104059000I-150000J0D01*
G01*
X125983000Y-104059000D01*
G75*
G02*
X125833000Y-103909000I0J150000D01*
G01*
G37*
G04 #@! TD.AperFunction*
G04 #@! TA.AperFunction,SMDPad,CuDef*
G36*
G01*
X125833000Y-102639000D02*
X125833000Y-102339000D01*
G75*
G02*
X125983000Y-102189000I150000J0D01*
G01*
X127633000Y-102189000D01*
G75*
G02*
X127783000Y-102339000I0J-150000D01*
G01*
X127783000Y-102639000D01*
G75*
G02*
X127633000Y-102789000I-150000J0D01*
G01*
X125983000Y-102789000D01*
G75*
G02*
X125833000Y-102639000I0J150000D01*
G01*
G37*
G04 #@! TD.AperFunction*
G04 #@! TA.AperFunction,SMDPad,CuDef*
G36*
G01*
X125833000Y-101369000D02*
X125833000Y-101069000D01*
G75*
G02*
X125983000Y-100919000I150000J0D01*
G01*
X127633000Y-100919000D01*
G75*
G02*
X127783000Y-101069000I0J-150000D01*
G01*
X127783000Y-101369000D01*
G75*
G02*
X127633000Y-101519000I-150000J0D01*
G01*
X125983000Y-101519000D01*
G75*
G02*
X125833000Y-101369000I0J150000D01*
G01*
G37*
G04 #@! TD.AperFunction*
G04 #@! TA.AperFunction,SMDPad,CuDef*
G36*
G01*
X138313000Y-97749000D02*
X139563000Y-97749000D01*
G75*
G02*
X139813000Y-97999000I0J-250000D01*
G01*
X139813000Y-98924000D01*
G75*
G02*
X139563000Y-99174000I-250000J0D01*
G01*
X138313000Y-99174000D01*
G75*
G02*
X138063000Y-98924000I0J250000D01*
G01*
X138063000Y-97999000D01*
G75*
G02*
X138313000Y-97749000I250000J0D01*
G01*
G37*
G04 #@! TD.AperFunction*
G04 #@! TA.AperFunction,SMDPad,CuDef*
G36*
G01*
X138313000Y-100724000D02*
X139563000Y-100724000D01*
G75*
G02*
X139813000Y-100974000I0J-250000D01*
G01*
X139813000Y-101899000D01*
G75*
G02*
X139563000Y-102149000I-250000J0D01*
G01*
X138313000Y-102149000D01*
G75*
G02*
X138063000Y-101899000I0J250000D01*
G01*
X138063000Y-100974000D01*
G75*
G02*
X138313000Y-100724000I250000J0D01*
G01*
G37*
G04 #@! TD.AperFunction*
G04 #@! TA.AperFunction,SMDPad,CuDef*
G36*
G01*
X131307000Y-100981500D02*
X131307000Y-101456500D01*
G75*
G02*
X131069500Y-101694000I-237500J0D01*
G01*
X130494500Y-101694000D01*
G75*
G02*
X130257000Y-101456500I0J237500D01*
G01*
X130257000Y-100981500D01*
G75*
G02*
X130494500Y-100744000I237500J0D01*
G01*
X131069500Y-100744000D01*
G75*
G02*
X131307000Y-100981500I0J-237500D01*
G01*
G37*
G04 #@! TD.AperFunction*
G04 #@! TA.AperFunction,SMDPad,CuDef*
G36*
G01*
X129557000Y-100981500D02*
X129557000Y-101456500D01*
G75*
G02*
X129319500Y-101694000I-237500J0D01*
G01*
X128744500Y-101694000D01*
G75*
G02*
X128507000Y-101456500I0J237500D01*
G01*
X128507000Y-100981500D01*
G75*
G02*
X128744500Y-100744000I237500J0D01*
G01*
X129319500Y-100744000D01*
G75*
G02*
X129557000Y-100981500I0J-237500D01*
G01*
G37*
G04 #@! TD.AperFunction*
G04 #@! TA.AperFunction,SMDPad,CuDef*
G36*
G01*
X139710000Y-94718500D02*
X140960000Y-94718500D01*
G75*
G02*
X141210000Y-94968500I0J-250000D01*
G01*
X141210000Y-95893500D01*
G75*
G02*
X140960000Y-96143500I-250000J0D01*
G01*
X139710000Y-96143500D01*
G75*
G02*
X139460000Y-95893500I0J250000D01*
G01*
X139460000Y-94968500D01*
G75*
G02*
X139710000Y-94718500I250000J0D01*
G01*
G37*
G04 #@! TD.AperFunction*
G04 #@! TA.AperFunction,SMDPad,CuDef*
G36*
G01*
X139710000Y-91743500D02*
X140960000Y-91743500D01*
G75*
G02*
X141210000Y-91993500I0J-250000D01*
G01*
X141210000Y-92918500D01*
G75*
G02*
X140960000Y-93168500I-250000J0D01*
G01*
X139710000Y-93168500D01*
G75*
G02*
X139460000Y-92918500I0J250000D01*
G01*
X139460000Y-91993500D01*
G75*
G02*
X139710000Y-91743500I250000J0D01*
G01*
G37*
G04 #@! TD.AperFunction*
G04 #@! TA.AperFunction,SMDPad,CuDef*
G36*
G01*
X128667500Y-93229000D02*
X129142500Y-93229000D01*
G75*
G02*
X129380000Y-93466500I0J-237500D01*
G01*
X129380000Y-94041500D01*
G75*
G02*
X129142500Y-94279000I-237500J0D01*
G01*
X128667500Y-94279000D01*
G75*
G02*
X128430000Y-94041500I0J237500D01*
G01*
X128430000Y-93466500D01*
G75*
G02*
X128667500Y-93229000I237500J0D01*
G01*
G37*
G04 #@! TD.AperFunction*
G04 #@! TA.AperFunction,SMDPad,CuDef*
G36*
G01*
X128667500Y-94979000D02*
X129142500Y-94979000D01*
G75*
G02*
X129380000Y-95216500I0J-237500D01*
G01*
X129380000Y-95791500D01*
G75*
G02*
X129142500Y-96029000I-237500J0D01*
G01*
X128667500Y-96029000D01*
G75*
G02*
X128430000Y-95791500I0J237500D01*
G01*
X128430000Y-95216500D01*
G75*
G02*
X128667500Y-94979000I237500J0D01*
G01*
G37*
G04 #@! TD.AperFunction*
G04 #@! TA.AperFunction,SMDPad,CuDef*
G36*
G01*
X112519000Y-93963500D02*
X112519000Y-93488500D01*
G75*
G02*
X112756500Y-93251000I237500J0D01*
G01*
X113331500Y-93251000D01*
G75*
G02*
X113569000Y-93488500I0J-237500D01*
G01*
X113569000Y-93963500D01*
G75*
G02*
X113331500Y-94201000I-237500J0D01*
G01*
X112756500Y-94201000D01*
G75*
G02*
X112519000Y-93963500I0J237500D01*
G01*
G37*
G04 #@! TD.AperFunction*
G04 #@! TA.AperFunction,SMDPad,CuDef*
G36*
G01*
X114269000Y-93963500D02*
X114269000Y-93488500D01*
G75*
G02*
X114506500Y-93251000I237500J0D01*
G01*
X115081500Y-93251000D01*
G75*
G02*
X115319000Y-93488500I0J-237500D01*
G01*
X115319000Y-93963500D01*
G75*
G02*
X115081500Y-94201000I-237500J0D01*
G01*
X114506500Y-94201000D01*
G75*
G02*
X114269000Y-93963500I0J237500D01*
G01*
G37*
G04 #@! TD.AperFunction*
G04 #@! TA.AperFunction,SMDPad,CuDef*
G36*
G01*
X129557000Y-98568500D02*
X129557000Y-99043500D01*
G75*
G02*
X129319500Y-99281000I-237500J0D01*
G01*
X128744500Y-99281000D01*
G75*
G02*
X128507000Y-99043500I0J237500D01*
G01*
X128507000Y-98568500D01*
G75*
G02*
X128744500Y-98331000I237500J0D01*
G01*
X129319500Y-98331000D01*
G75*
G02*
X129557000Y-98568500I0J-237500D01*
G01*
G37*
G04 #@! TD.AperFunction*
G04 #@! TA.AperFunction,SMDPad,CuDef*
G36*
G01*
X131307000Y-98568500D02*
X131307000Y-99043500D01*
G75*
G02*
X131069500Y-99281000I-237500J0D01*
G01*
X130494500Y-99281000D01*
G75*
G02*
X130257000Y-99043500I0J237500D01*
G01*
X130257000Y-98568500D01*
G75*
G02*
X130494500Y-98331000I237500J0D01*
G01*
X131069500Y-98331000D01*
G75*
G02*
X131307000Y-98568500I0J-237500D01*
G01*
G37*
G04 #@! TD.AperFunction*
G04 #@! TA.AperFunction,SMDPad,CuDef*
G36*
G01*
X131307000Y-96917500D02*
X131307000Y-97392500D01*
G75*
G02*
X131069500Y-97630000I-237500J0D01*
G01*
X130494500Y-97630000D01*
G75*
G02*
X130257000Y-97392500I0J237500D01*
G01*
X130257000Y-96917500D01*
G75*
G02*
X130494500Y-96680000I237500J0D01*
G01*
X131069500Y-96680000D01*
G75*
G02*
X131307000Y-96917500I0J-237500D01*
G01*
G37*
G04 #@! TD.AperFunction*
G04 #@! TA.AperFunction,SMDPad,CuDef*
G36*
G01*
X129557000Y-96917500D02*
X129557000Y-97392500D01*
G75*
G02*
X129319500Y-97630000I-237500J0D01*
G01*
X128744500Y-97630000D01*
G75*
G02*
X128507000Y-97392500I0J237500D01*
G01*
X128507000Y-96917500D01*
G75*
G02*
X128744500Y-96680000I237500J0D01*
G01*
X129319500Y-96680000D01*
G75*
G02*
X129557000Y-96917500I0J-237500D01*
G01*
G37*
G04 #@! TD.AperFunction*
G04 #@! TA.AperFunction,SMDPad,CuDef*
G36*
G01*
X120857600Y-95654000D02*
X120857600Y-95354000D01*
G75*
G02*
X121007600Y-95204000I150000J0D01*
G01*
X122657600Y-95204000D01*
G75*
G02*
X122807600Y-95354000I0J-150000D01*
G01*
X122807600Y-95654000D01*
G75*
G02*
X122657600Y-95804000I-150000J0D01*
G01*
X121007600Y-95804000D01*
G75*
G02*
X120857600Y-95654000I0J150000D01*
G01*
G37*
G04 #@! TD.AperFunction*
G04 #@! TA.AperFunction,SMDPad,CuDef*
G36*
G01*
X120857600Y-96924000D02*
X120857600Y-96624000D01*
G75*
G02*
X121007600Y-96474000I150000J0D01*
G01*
X122657600Y-96474000D01*
G75*
G02*
X122807600Y-96624000I0J-150000D01*
G01*
X122807600Y-96924000D01*
G75*
G02*
X122657600Y-97074000I-150000J0D01*
G01*
X121007600Y-97074000D01*
G75*
G02*
X120857600Y-96924000I0J150000D01*
G01*
G37*
G04 #@! TD.AperFunction*
G04 #@! TA.AperFunction,SMDPad,CuDef*
G36*
G01*
X120857600Y-98194000D02*
X120857600Y-97894000D01*
G75*
G02*
X121007600Y-97744000I150000J0D01*
G01*
X122657600Y-97744000D01*
G75*
G02*
X122807600Y-97894000I0J-150000D01*
G01*
X122807600Y-98194000D01*
G75*
G02*
X122657600Y-98344000I-150000J0D01*
G01*
X121007600Y-98344000D01*
G75*
G02*
X120857600Y-98194000I0J150000D01*
G01*
G37*
G04 #@! TD.AperFunction*
G04 #@! TA.AperFunction,SMDPad,CuDef*
G36*
G01*
X120857600Y-99464000D02*
X120857600Y-99164000D01*
G75*
G02*
X121007600Y-99014000I150000J0D01*
G01*
X122657600Y-99014000D01*
G75*
G02*
X122807600Y-99164000I0J-150000D01*
G01*
X122807600Y-99464000D01*
G75*
G02*
X122657600Y-99614000I-150000J0D01*
G01*
X121007600Y-99614000D01*
G75*
G02*
X120857600Y-99464000I0J150000D01*
G01*
G37*
G04 #@! TD.AperFunction*
G04 #@! TA.AperFunction,SMDPad,CuDef*
G36*
G01*
X125807600Y-99464000D02*
X125807600Y-99164000D01*
G75*
G02*
X125957600Y-99014000I150000J0D01*
G01*
X127607600Y-99014000D01*
G75*
G02*
X127757600Y-99164000I0J-150000D01*
G01*
X127757600Y-99464000D01*
G75*
G02*
X127607600Y-99614000I-150000J0D01*
G01*
X125957600Y-99614000D01*
G75*
G02*
X125807600Y-99464000I0J150000D01*
G01*
G37*
G04 #@! TD.AperFunction*
G04 #@! TA.AperFunction,SMDPad,CuDef*
G36*
G01*
X125807600Y-98194000D02*
X125807600Y-97894000D01*
G75*
G02*
X125957600Y-97744000I150000J0D01*
G01*
X127607600Y-97744000D01*
G75*
G02*
X127757600Y-97894000I0J-150000D01*
G01*
X127757600Y-98194000D01*
G75*
G02*
X127607600Y-98344000I-150000J0D01*
G01*
X125957600Y-98344000D01*
G75*
G02*
X125807600Y-98194000I0J150000D01*
G01*
G37*
G04 #@! TD.AperFunction*
G04 #@! TA.AperFunction,SMDPad,CuDef*
G36*
G01*
X125807600Y-96924000D02*
X125807600Y-96624000D01*
G75*
G02*
X125957600Y-96474000I150000J0D01*
G01*
X127607600Y-96474000D01*
G75*
G02*
X127757600Y-96624000I0J-150000D01*
G01*
X127757600Y-96924000D01*
G75*
G02*
X127607600Y-97074000I-150000J0D01*
G01*
X125957600Y-97074000D01*
G75*
G02*
X125807600Y-96924000I0J150000D01*
G01*
G37*
G04 #@! TD.AperFunction*
G04 #@! TA.AperFunction,SMDPad,CuDef*
G36*
G01*
X125807600Y-95654000D02*
X125807600Y-95354000D01*
G75*
G02*
X125957600Y-95204000I150000J0D01*
G01*
X127607600Y-95204000D01*
G75*
G02*
X127757600Y-95354000I0J-150000D01*
G01*
X127757600Y-95654000D01*
G75*
G02*
X127607600Y-95804000I-150000J0D01*
G01*
X125957600Y-95804000D01*
G75*
G02*
X125807600Y-95654000I0J150000D01*
G01*
G37*
G04 #@! TD.AperFunction*
D18*
X132573000Y-101153000D03*
X133873000Y-101153000D03*
X133223000Y-99253000D03*
X133223000Y-101153000D03*
X133873000Y-99253000D03*
X132573000Y-99253000D03*
G04 #@! TA.AperFunction,SMDPad,CuDef*
G36*
G01*
X119871500Y-99867000D02*
X119396500Y-99867000D01*
G75*
G02*
X119159000Y-99629500I0J237500D01*
G01*
X119159000Y-99054500D01*
G75*
G02*
X119396500Y-98817000I237500J0D01*
G01*
X119871500Y-98817000D01*
G75*
G02*
X120109000Y-99054500I0J-237500D01*
G01*
X120109000Y-99629500D01*
G75*
G02*
X119871500Y-99867000I-237500J0D01*
G01*
G37*
G04 #@! TD.AperFunction*
G04 #@! TA.AperFunction,SMDPad,CuDef*
G36*
G01*
X119871500Y-101617000D02*
X119396500Y-101617000D01*
G75*
G02*
X119159000Y-101379500I0J237500D01*
G01*
X119159000Y-100804500D01*
G75*
G02*
X119396500Y-100567000I237500J0D01*
G01*
X119871500Y-100567000D01*
G75*
G02*
X120109000Y-100804500I0J-237500D01*
G01*
X120109000Y-101379500D01*
G75*
G02*
X119871500Y-101617000I-237500J0D01*
G01*
G37*
G04 #@! TD.AperFunction*
G04 #@! TA.AperFunction,SMDPad,CuDef*
G36*
G01*
X119396500Y-93229000D02*
X119871500Y-93229000D01*
G75*
G02*
X120109000Y-93466500I0J-237500D01*
G01*
X120109000Y-94041500D01*
G75*
G02*
X119871500Y-94279000I-237500J0D01*
G01*
X119396500Y-94279000D01*
G75*
G02*
X119159000Y-94041500I0J237500D01*
G01*
X119159000Y-93466500D01*
G75*
G02*
X119396500Y-93229000I237500J0D01*
G01*
G37*
G04 #@! TD.AperFunction*
G04 #@! TA.AperFunction,SMDPad,CuDef*
G36*
G01*
X119396500Y-94979000D02*
X119871500Y-94979000D01*
G75*
G02*
X120109000Y-95216500I0J-237500D01*
G01*
X120109000Y-95791500D01*
G75*
G02*
X119871500Y-96029000I-237500J0D01*
G01*
X119396500Y-96029000D01*
G75*
G02*
X119159000Y-95791500I0J237500D01*
G01*
X119159000Y-95216500D01*
G75*
G02*
X119396500Y-94979000I237500J0D01*
G01*
G37*
G04 #@! TD.AperFunction*
D19*
X107442000Y-103486520D03*
X101594823Y-93522800D03*
X107315000Y-104775000D03*
X107696000Y-94742000D03*
X107696000Y-93726000D03*
X112268000Y-99822000D03*
X115062000Y-100203000D03*
X110786616Y-99937836D03*
X111252000Y-98044000D03*
X114909600Y-101346000D03*
X112014000Y-96926400D03*
X119634000Y-92710000D03*
X120523000Y-93726000D03*
X102870000Y-91440000D03*
X120650000Y-99314000D03*
X118237000Y-100203000D03*
X120396000Y-105410000D03*
X121666000Y-105918000D03*
X102235000Y-106426000D03*
X104013000Y-101727000D03*
X102997000Y-101727000D03*
D20*
X96774000Y-99060000D03*
X97028000Y-97790000D03*
X98330000Y-97250000D03*
D19*
X100318600Y-94626400D03*
X99341447Y-95531447D03*
X106680000Y-100838000D03*
X106533110Y-92300990D03*
X107724010Y-92300990D03*
X108994010Y-92300990D03*
X110264010Y-92300990D03*
X115500998Y-105480001D03*
X106121200Y-101955600D03*
X117476979Y-106043003D03*
X120650000Y-95504000D03*
X118205001Y-94011999D03*
X118110000Y-102705000D03*
X120523000Y-101219000D03*
X118606045Y-101132413D03*
X102235000Y-104775000D03*
D20*
X106181000Y-95495000D03*
X105511600Y-94197500D03*
D19*
X127889000Y-95504000D03*
X129921000Y-95504000D03*
X128270000Y-101219000D03*
X132610331Y-104797331D03*
X142113000Y-90932000D03*
X143129000Y-91948000D03*
D20*
X137644000Y-96417000D03*
X140298500Y-98461500D03*
D19*
X138279000Y-97433000D03*
X133167330Y-98475764D03*
X128905000Y-92583000D03*
X129794000Y-93726000D03*
X133097202Y-101982872D03*
X132945000Y-95591500D03*
X130161000Y-100598000D03*
X128016000Y-99949000D03*
X129159000Y-99949000D03*
X126873000Y-105791000D03*
X128016000Y-105664000D03*
X132588000Y-106426000D03*
X140017500Y-100647500D03*
X141097000Y-97409000D03*
X140335000Y-96647000D03*
D20*
X146271000Y-102837000D03*
X143510000Y-102870000D03*
X146304000Y-101473000D03*
X146177000Y-104267000D03*
X143510000Y-104267000D03*
D19*
X137795000Y-100584000D03*
X131595035Y-95480965D03*
X132080000Y-90805000D03*
X133350000Y-90805000D03*
X134620000Y-90805000D03*
X135890000Y-90805000D03*
X137160000Y-90805000D03*
X138430000Y-90805000D03*
X132080000Y-92075000D03*
X133350000Y-92075000D03*
X134620000Y-92075000D03*
X135890000Y-92075000D03*
X137160000Y-92075000D03*
X138430000Y-92075000D03*
X132080000Y-93345000D03*
X133350000Y-93345000D03*
X134620000Y-93345000D03*
X135890000Y-93345000D03*
X138430000Y-93345000D03*
X135676250Y-96924250D03*
X119356045Y-103357293D03*
X119380000Y-97282000D03*
X139065000Y-107950000D03*
X135255000Y-100330000D03*
X139168500Y-105306500D03*
X134747000Y-97860520D03*
X120142000Y-98044000D03*
X116586000Y-93726000D03*
D21*
X104524998Y-99695000D02*
X104259999Y-99430001D01*
X105240000Y-99695000D02*
X104524998Y-99695000D01*
X104259999Y-99430001D02*
X104259999Y-96648999D01*
D22*
X103673800Y-96977200D02*
X104131000Y-96520000D01*
X102068600Y-96977200D02*
X103673800Y-96977200D01*
X102068600Y-96977200D02*
X102068600Y-95453200D01*
D21*
X103505000Y-99695000D02*
X103679999Y-99869999D01*
X103040000Y-99695000D02*
X103505000Y-99695000D01*
D23*
X107948521Y-102979999D02*
X109430000Y-102979999D01*
X107442000Y-103486520D02*
X107948521Y-102979999D01*
D24*
X116630000Y-100655000D02*
X115499000Y-100655000D01*
D23*
X98298000Y-99060000D02*
X97028000Y-97790000D01*
X98330000Y-99060000D02*
X98298000Y-99060000D01*
X98330000Y-99060000D02*
X96774000Y-99060000D01*
X107442000Y-101967000D02*
X107442000Y-103486520D01*
D22*
X98330000Y-99060000D02*
X98330000Y-97250000D01*
D23*
X107442000Y-104648000D02*
X107315000Y-104775000D01*
X107442000Y-103486520D02*
X107442000Y-104648000D01*
D25*
X109107000Y-93726000D02*
X109107000Y-93759098D01*
X109107000Y-93726000D02*
X107696000Y-93726000D01*
X108712000Y-93726000D02*
X107696000Y-94742000D01*
X109107000Y-93726000D02*
X108712000Y-93726000D01*
D24*
X111252000Y-99822000D02*
X112268000Y-99822000D01*
X103505000Y-99695000D02*
X103575002Y-99695000D01*
D21*
X104020001Y-101330001D02*
X104020001Y-100584000D01*
X104020001Y-101330001D02*
X104020001Y-100179966D01*
D24*
X103535035Y-99695000D02*
X104020001Y-100179966D01*
X103505000Y-99695000D02*
X103535035Y-99695000D01*
D21*
X115499000Y-100640000D02*
X115062000Y-100203000D01*
X115499000Y-100655000D02*
X115499000Y-100640000D01*
D24*
X110719452Y-100005000D02*
X110786616Y-99937836D01*
X109430000Y-100005000D02*
X110719452Y-100005000D01*
X111136164Y-99937836D02*
X111252000Y-99822000D01*
X110786616Y-99937836D02*
X111136164Y-99937836D01*
X111241000Y-98055000D02*
X111252000Y-98044000D01*
X109430000Y-98055000D02*
X111241000Y-98055000D01*
X114909600Y-101244400D02*
X114909600Y-101346000D01*
X115499000Y-100655000D02*
X114909600Y-101244400D01*
X115054999Y-101099001D02*
X114909600Y-101244400D01*
X111252000Y-98044000D02*
X112014000Y-97282000D01*
X112014000Y-97282000D02*
X112014000Y-96926400D01*
D23*
X119634000Y-93754000D02*
X119634000Y-92710000D01*
X120495000Y-93754000D02*
X120523000Y-93726000D01*
X119634000Y-93754000D02*
X120495000Y-93754000D01*
X101594823Y-93522800D02*
X101594823Y-92715177D01*
X103087500Y-91222500D02*
X104140000Y-91222500D01*
X101594823Y-92715177D02*
X102870000Y-91440000D01*
X102870000Y-91440000D02*
X103087500Y-91222500D01*
X119662000Y-99314000D02*
X119634000Y-99342000D01*
X121832600Y-99314000D02*
X120650000Y-99314000D01*
D24*
X116630000Y-100655000D02*
X117785000Y-100655000D01*
D21*
X119098000Y-99342000D02*
X119634000Y-99342000D01*
X117785000Y-100655000D02*
X118237000Y-100203000D01*
D23*
X120650000Y-99314000D02*
X119662000Y-99314000D01*
D21*
X118364000Y-100076000D02*
X119098000Y-99342000D01*
X118237000Y-100203000D02*
X118364000Y-100076000D01*
D23*
X120777000Y-105029000D02*
X120396000Y-105410000D01*
X121858000Y-105029000D02*
X120777000Y-105029000D01*
X121858000Y-105726000D02*
X121666000Y-105918000D01*
X121858000Y-105029000D02*
X121858000Y-105726000D01*
D25*
X103265000Y-106426000D02*
X102235000Y-106426000D01*
X104020001Y-101719999D02*
X104013000Y-101727000D01*
X104020001Y-101330001D02*
X104020001Y-101719999D01*
X104013000Y-101727000D02*
X102997000Y-101727000D01*
D23*
X96774000Y-99060000D02*
X96774000Y-99060000D01*
X97028000Y-97790000D02*
X97028000Y-97790000D01*
X100318600Y-95453200D02*
X100318600Y-94626400D01*
X101041200Y-93522800D02*
X101594823Y-93522800D01*
X100318600Y-94245400D02*
X101041200Y-93522800D01*
X100318600Y-94626400D02*
X100318600Y-94245400D01*
X98330000Y-96542894D02*
X98330000Y-97250000D01*
X99419694Y-95453200D02*
X99341447Y-95531447D01*
X100318600Y-95453200D02*
X99419694Y-95453200D01*
X99341447Y-95531447D02*
X98330000Y-96542894D01*
D24*
X109430000Y-97405000D02*
X110621000Y-97405000D01*
D25*
X110857000Y-95396998D02*
X110998000Y-95537998D01*
X110998000Y-95537998D02*
X110998000Y-96600998D01*
X110857000Y-93726000D02*
X110857000Y-95396998D01*
D21*
X110909999Y-96688999D02*
X110998000Y-96600998D01*
X110909999Y-97116001D02*
X110909999Y-96688999D01*
X110621000Y-97405000D02*
X110909999Y-97116001D01*
D24*
X108304000Y-99355000D02*
X107442000Y-100217000D01*
X109430000Y-99355000D02*
X108304000Y-99355000D01*
D23*
X107301000Y-100217000D02*
X106680000Y-100838000D01*
X107442000Y-100217000D02*
X107301000Y-100217000D01*
D22*
X106181000Y-93528100D02*
X106186300Y-93522800D01*
X106181000Y-96520000D02*
X106181000Y-95495000D01*
X106186300Y-92647800D02*
X106533110Y-92300990D01*
X106186300Y-93522800D02*
X106186300Y-92647800D01*
X111636384Y-92300990D02*
X111534010Y-92300990D01*
X106181000Y-95037800D02*
X106181000Y-93528100D01*
X107724010Y-92300990D02*
X106533110Y-92300990D01*
X108994010Y-92300990D02*
X107724010Y-92300990D01*
X110264010Y-92300990D02*
X108994010Y-92300990D01*
X111534010Y-92300990D02*
X110264010Y-92300990D01*
D23*
X116064000Y-106043003D02*
X115500998Y-105480001D01*
X116050000Y-108712000D02*
X116050000Y-106934000D01*
X116050000Y-106057003D02*
X116064000Y-106043003D01*
X116050000Y-106934000D02*
X116050000Y-106057003D01*
D21*
X106121200Y-101396800D02*
X106121200Y-101955600D01*
X106680000Y-100838000D02*
X106121200Y-101396800D01*
D23*
X116064000Y-106043003D02*
X117476979Y-106043003D01*
X121832600Y-95504000D02*
X120650000Y-95504000D01*
D22*
X112093990Y-92300990D02*
X111534010Y-92300990D01*
X113044000Y-93251000D02*
X112093990Y-92300990D01*
X113044000Y-93726000D02*
X113044000Y-93251000D01*
D23*
X120650000Y-95504000D02*
X119634000Y-95504000D01*
X118205001Y-93462999D02*
X117042992Y-92300990D01*
X118205001Y-94550001D02*
X118205001Y-94011999D01*
X119159000Y-95504000D02*
X118205001Y-94550001D01*
X117042992Y-92300990D02*
X112093990Y-92300990D01*
X119634000Y-95504000D02*
X119159000Y-95504000D01*
X118205001Y-94011999D02*
X118205001Y-93462999D01*
X105511600Y-94197500D02*
X105511600Y-94197500D01*
X104140000Y-94197500D02*
X105511600Y-94197500D01*
D24*
X118010000Y-102605000D02*
X118110000Y-102705000D01*
X116630000Y-102605000D02*
X118010000Y-102605000D01*
D23*
X119761000Y-101219000D02*
X119634000Y-101092000D01*
X121858000Y-101219000D02*
X120523000Y-101219000D01*
X120523000Y-101219000D02*
X119761000Y-101219000D01*
D25*
X118646458Y-101092000D02*
X118606045Y-101132413D01*
X119634000Y-101092000D02*
X118646458Y-101092000D01*
X103265000Y-104775000D02*
X102235000Y-104775000D01*
D22*
X106181000Y-95495000D02*
X106181000Y-95037800D01*
D23*
X105511600Y-94197500D02*
X106181000Y-93528100D01*
X126782600Y-95504000D02*
X127889000Y-95504000D01*
X127889000Y-95504000D02*
X128905000Y-95504000D01*
X128905000Y-95504000D02*
X129921000Y-95504000D01*
D21*
X138279000Y-97802500D02*
X138938000Y-98461500D01*
X140425500Y-98461500D02*
X140462000Y-98425000D01*
X138938000Y-98461500D02*
X140298500Y-98461500D01*
X138279000Y-97433000D02*
X138279000Y-97433000D01*
D23*
X138279000Y-97433000D02*
X138279000Y-97306000D01*
X137580500Y-96353500D02*
X136818500Y-95591500D01*
X138279000Y-97052000D02*
X137644000Y-96417000D01*
D25*
X126808000Y-101219000D02*
X128270000Y-101219000D01*
X128270000Y-101219000D02*
X129032000Y-101219000D01*
X132632662Y-104775000D02*
X132610331Y-104797331D01*
X133872000Y-104775000D02*
X132632662Y-104775000D01*
D23*
X143129000Y-90932000D02*
X142113000Y-90932000D01*
X143129000Y-90932000D02*
X143129000Y-91948000D01*
X137644000Y-96417000D02*
X137580500Y-96353500D01*
X138279000Y-97306000D02*
X138279000Y-97052000D01*
D21*
X140298500Y-98461500D02*
X140425500Y-98461500D01*
X138279000Y-97433000D02*
X138279000Y-97802500D01*
D24*
X133223000Y-99253000D02*
X133223000Y-98531434D01*
X133223000Y-98531434D02*
X133167330Y-98475764D01*
D23*
X128905000Y-93754000D02*
X128905000Y-92583000D01*
X129766000Y-93754000D02*
X129794000Y-93726000D01*
X128905000Y-93754000D02*
X129766000Y-93754000D01*
D24*
X133223000Y-101857074D02*
X133097202Y-101982872D01*
X133223000Y-101153000D02*
X133223000Y-101857074D01*
D23*
X129794000Y-93726000D02*
X129840070Y-93726000D01*
X131705570Y-95591500D02*
X132945000Y-95591500D01*
X129840070Y-93726000D02*
X131595035Y-95480965D01*
X132945000Y-95591500D02*
X133818500Y-95591500D01*
D25*
X130782000Y-101219000D02*
X130161000Y-100598000D01*
X127417600Y-99949000D02*
X126782600Y-99314000D01*
X129512000Y-99949000D02*
X129159000Y-99949000D01*
X130161000Y-100598000D02*
X129512000Y-99949000D01*
X128016000Y-99949000D02*
X127417600Y-99949000D01*
X129159000Y-99949000D02*
X128016000Y-99949000D01*
X126808000Y-105726000D02*
X126873000Y-105791000D01*
X126808000Y-105029000D02*
X126808000Y-105726000D01*
X126808000Y-105029000D02*
X127381000Y-105029000D01*
X127381000Y-105029000D02*
X128016000Y-105664000D01*
X133872000Y-106426000D02*
X132588000Y-106426000D01*
D23*
X140335000Y-96647000D02*
X140335000Y-96647000D01*
X143543000Y-102837000D02*
X143510000Y-102870000D01*
X144907000Y-102837000D02*
X143543000Y-102837000D01*
X146271000Y-102837000D02*
X146271000Y-102837000D01*
X144907000Y-102837000D02*
X146271000Y-102837000D01*
X144940000Y-102837000D02*
X145923000Y-101854000D01*
X144907000Y-102837000D02*
X144940000Y-102837000D01*
X144907000Y-102997000D02*
X145796000Y-103886000D01*
X144907000Y-102837000D02*
X144907000Y-102997000D01*
X144907000Y-102870000D02*
X143891000Y-103886000D01*
X144907000Y-102837000D02*
X144907000Y-102870000D01*
X140335000Y-96647000D02*
X140335000Y-95431000D01*
X141562001Y-99102999D02*
X141562001Y-97874001D01*
X141562001Y-97874001D02*
X141097000Y-97409000D01*
X140017500Y-100647500D02*
X141562001Y-99102999D01*
X141097000Y-97409000D02*
X140335000Y-96647000D01*
X138938000Y-101436500D02*
X139228500Y-101436500D01*
X139228500Y-101436500D02*
X140017500Y-100647500D01*
X146271000Y-102837000D02*
X146304000Y-102870000D01*
X143510000Y-102870000D02*
X143510000Y-102870000D01*
X145923000Y-101854000D02*
X146304000Y-101473000D01*
X145796000Y-103886000D02*
X146177000Y-104267000D01*
X143891000Y-103886000D02*
X143510000Y-104267000D01*
X137287000Y-101092000D02*
X137795000Y-100584000D01*
X136906000Y-101092000D02*
X137287000Y-101092000D01*
X131595035Y-95480965D02*
X131705570Y-95591500D01*
X135318500Y-94731498D02*
X135318500Y-95504000D01*
X137593998Y-92456000D02*
X135318500Y-94731498D01*
X140335000Y-92456000D02*
X137593998Y-92456000D01*
X142367000Y-93472000D02*
X142367000Y-93218000D01*
X141605000Y-92456000D02*
X140335000Y-92456000D01*
X142367000Y-93218000D02*
X141605000Y-92456000D01*
X135318500Y-96566500D02*
X135318500Y-95504000D01*
X135676250Y-96924250D02*
X135318500Y-96566500D01*
X136906000Y-98154000D02*
X136906000Y-99342000D01*
X135676250Y-96924250D02*
X136906000Y-98154000D01*
D25*
X105015000Y-104775000D02*
X105015000Y-106426000D01*
X135622000Y-104775000D02*
X135622000Y-106426000D01*
D23*
X112508000Y-106934000D02*
X114300000Y-106934000D01*
X112508000Y-108712000D02*
X114300000Y-108712000D01*
D22*
X100330000Y-96988600D02*
X100318600Y-96977200D01*
X100330000Y-99060000D02*
X100330000Y-96988600D01*
D23*
X142536570Y-95337000D02*
X142394285Y-95194715D01*
X144907000Y-95337000D02*
X142536570Y-95337000D01*
X144879000Y-92809000D02*
X144907000Y-92837000D01*
X144879000Y-90932000D02*
X144879000Y-92809000D01*
D22*
X93870001Y-104580001D02*
X95620000Y-106330000D01*
X93870001Y-96039999D02*
X93870001Y-104580001D01*
X95620000Y-94290000D02*
X93870001Y-96039999D01*
D24*
X117805000Y-103905000D02*
X116630000Y-103905000D01*
X118808338Y-103905000D02*
X119356045Y-103357293D01*
X117805000Y-103905000D02*
X118808338Y-103905000D01*
X119380000Y-97282000D02*
X119888000Y-96774000D01*
X119888000Y-96774000D02*
X121832600Y-96774000D01*
X130856000Y-102870000D02*
X132573000Y-101153000D01*
X130782000Y-102870000D02*
X130856000Y-102870000D01*
X136263990Y-101973990D02*
X137795000Y-103505000D01*
X132573000Y-100647998D02*
X132742999Y-100477999D01*
X135628990Y-101973990D02*
X136263990Y-101973990D01*
X134620000Y-100965000D02*
X135628990Y-101973990D01*
X134620000Y-100744998D02*
X134620000Y-100965000D01*
X132742999Y-100477999D02*
X134353001Y-100477999D01*
X139239000Y-103505000D02*
X144907000Y-97837000D01*
X134353001Y-100477999D02*
X134620000Y-100744998D01*
X132573000Y-101153000D02*
X132573000Y-100647998D01*
X137795000Y-103505000D02*
X139239000Y-103505000D01*
X133873000Y-102474000D02*
X133873000Y-101153000D01*
X132969000Y-103378000D02*
X133873000Y-102474000D01*
X131826000Y-104521000D02*
X132969000Y-103378000D01*
X130782000Y-104521000D02*
X131826000Y-104521000D01*
X135811500Y-102474000D02*
X137414000Y-104076500D01*
X133873000Y-102474000D02*
X135811500Y-102474000D01*
X137414000Y-104076500D02*
X140398500Y-104076500D01*
X140398500Y-104076500D02*
X144145000Y-100330000D01*
X144152000Y-100337000D02*
X144145000Y-100330000D01*
X144907000Y-100337000D02*
X144152000Y-100337000D01*
D25*
X128519600Y-98806000D02*
X129032000Y-98806000D01*
X127757600Y-98044000D02*
X128519600Y-98806000D01*
X126782600Y-98044000D02*
X127757600Y-98044000D01*
D26*
X102230007Y-100659992D02*
X102244999Y-100645000D01*
X100330000Y-101560000D02*
X100330000Y-100659992D01*
X100330000Y-100659992D02*
X102230007Y-100659992D01*
X102244999Y-100645000D02*
X103040000Y-100645000D01*
X102244999Y-98745000D02*
X103040000Y-98745000D01*
X101519999Y-99470000D02*
X102244999Y-98745000D01*
X101519999Y-100110003D02*
X101519999Y-99470000D01*
X101420001Y-100210001D02*
X101519999Y-100110003D01*
X99679999Y-100210001D02*
X101420001Y-100210001D01*
X98330000Y-101560000D02*
X99679999Y-100210001D01*
X109330000Y-96205000D02*
X109430000Y-96105000D01*
X108353615Y-96205000D02*
X109330000Y-96205000D01*
X107805008Y-97443595D02*
X107805008Y-96753607D01*
X106503603Y-98745000D02*
X107805008Y-97443595D01*
X107805008Y-96753607D02*
X108353615Y-96205000D01*
X105240000Y-98745000D02*
X106503603Y-98745000D01*
X109330000Y-96655000D02*
X109430000Y-96755000D01*
X108254999Y-96939999D02*
X108539998Y-96655000D01*
X108254999Y-97630001D02*
X108254999Y-96939999D01*
X106070001Y-99814999D02*
X108254999Y-97630001D01*
X106070001Y-100260001D02*
X106070001Y-99814999D01*
X106010001Y-100320001D02*
X106070001Y-100260001D01*
X108539998Y-96655000D02*
X109330000Y-96655000D01*
X105564999Y-100320001D02*
X106010001Y-100320001D01*
X105240000Y-100645000D02*
X105564999Y-100320001D01*
D24*
X109626400Y-107580400D02*
X110758000Y-108712000D01*
X109626400Y-106324400D02*
X109626400Y-107580400D01*
X110655001Y-105295799D02*
X109626400Y-106324400D01*
X110655001Y-101449999D02*
X110655001Y-105295799D01*
X110510002Y-101305000D02*
X110655001Y-101449999D01*
X109430000Y-101305000D02*
X110510002Y-101305000D01*
X109430000Y-100655000D02*
X110567122Y-100655000D01*
X111255061Y-106563939D02*
X111255061Y-101342939D01*
X110567122Y-100655000D02*
X111255061Y-101342939D01*
X110885000Y-106934000D02*
X111255061Y-106563939D01*
X110758000Y-106934000D02*
X110885000Y-106934000D01*
X134853001Y-99928001D02*
X135255000Y-100330000D01*
X132623001Y-99928001D02*
X134853001Y-99928001D01*
X132573000Y-99878000D02*
X132623001Y-99928001D01*
X132573000Y-99253000D02*
X132573000Y-99878000D01*
X132126000Y-98806000D02*
X132573000Y-99253000D01*
X130782000Y-98806000D02*
X132126000Y-98806000D01*
X144794000Y-107950000D02*
X144907000Y-107837000D01*
X139065000Y-107950000D02*
X144794000Y-107950000D01*
X133873000Y-97882660D02*
X133145340Y-97155000D01*
X133145340Y-97155000D02*
X130782000Y-97155000D01*
X139199000Y-105337000D02*
X139168500Y-105306500D01*
X144907000Y-105337000D02*
X139199000Y-105337000D01*
X133873000Y-99253000D02*
X133973007Y-99152993D01*
X133973007Y-99152993D02*
X133973007Y-97982667D01*
X133973007Y-97982667D02*
X133873000Y-97882660D01*
X133873000Y-97882660D02*
X134724860Y-97882660D01*
X134724860Y-97882660D02*
X134747000Y-97860520D01*
X114794000Y-95612002D02*
X114794000Y-93726000D01*
X111612001Y-98794001D02*
X114794000Y-95612002D01*
X110599003Y-98794001D02*
X111612001Y-98794001D01*
X110510002Y-98705000D02*
X110599003Y-98794001D01*
X109430000Y-98705000D02*
X110510002Y-98705000D01*
X121832600Y-98044000D02*
X120142000Y-98044000D01*
X116586000Y-93726000D02*
X114794000Y-93726000D01*
X128651000Y-102489000D02*
X129032000Y-102870000D01*
X126808000Y-102489000D02*
X128651000Y-102489000D01*
D25*
X128651000Y-96774000D02*
X129032000Y-97155000D01*
X126782600Y-96774000D02*
X128651000Y-96774000D01*
D24*
X120015000Y-103759000D02*
X121858000Y-103759000D01*
X119219000Y-104555000D02*
X120015000Y-103759000D01*
X116630000Y-104555000D02*
X119219000Y-104555000D01*
X119761000Y-102489000D02*
X121858000Y-102489000D01*
X119227000Y-101955000D02*
X119761000Y-102489000D01*
X116630000Y-101955000D02*
X119227000Y-101955000D01*
X128270000Y-103759000D02*
X129032000Y-104521000D01*
X126808000Y-103759000D02*
X128270000Y-103759000D01*
D27*
X141097000Y-90425066D02*
X141059324Y-90495553D01*
X140994423Y-90709501D01*
X140972509Y-90932000D01*
X140989703Y-91106576D01*
X140620750Y-91108500D01*
X140462000Y-91267250D01*
X140462000Y-92329000D01*
X140482000Y-92329000D01*
X140482000Y-92583000D01*
X140462000Y-92583000D01*
X140462000Y-93644750D01*
X140620750Y-93803500D01*
X141097000Y-93805983D01*
X141097000Y-94093921D01*
X140960000Y-94080428D01*
X139710000Y-94080428D01*
X139536746Y-94097492D01*
X139370150Y-94148028D01*
X139216614Y-94230095D01*
X139082038Y-94340538D01*
X139020060Y-94416059D01*
X137670321Y-94449803D01*
X137622994Y-94410963D01*
X137512680Y-94351998D01*
X137392982Y-94315688D01*
X137268500Y-94303428D01*
X136368500Y-94303428D01*
X136244018Y-94315688D01*
X136124320Y-94351998D01*
X136014006Y-94410963D01*
X135917315Y-94490315D01*
X135837963Y-94587006D01*
X135778998Y-94697320D01*
X135742688Y-94817018D01*
X135730428Y-94941500D01*
X135730428Y-95268441D01*
X135699923Y-95369002D01*
X135678009Y-95591500D01*
X135699923Y-95813998D01*
X135730428Y-95914559D01*
X135730428Y-96241500D01*
X135732841Y-96266000D01*
X134904159Y-96266000D01*
X134906572Y-96241500D01*
X134906572Y-95914560D01*
X134937077Y-95813999D01*
X134958991Y-95591500D01*
X134937077Y-95369001D01*
X134906572Y-95268440D01*
X134906572Y-94941500D01*
X134894312Y-94817018D01*
X134858002Y-94697320D01*
X134799037Y-94587006D01*
X134719685Y-94490315D01*
X134622994Y-94410963D01*
X134512680Y-94351998D01*
X134392982Y-94315688D01*
X134268500Y-94303428D01*
X133368500Y-94303428D01*
X133244018Y-94315688D01*
X133124320Y-94351998D01*
X133014006Y-94410963D01*
X132958519Y-94456500D01*
X132175702Y-94456500D01*
X130887702Y-93168500D01*
X138821928Y-93168500D01*
X138834188Y-93292982D01*
X138870498Y-93412680D01*
X138929463Y-93522994D01*
X139008815Y-93619685D01*
X139105506Y-93699037D01*
X139215820Y-93758002D01*
X139335518Y-93794312D01*
X139460000Y-93806572D01*
X140049250Y-93803500D01*
X140208000Y-93644750D01*
X140208000Y-92583000D01*
X138983750Y-92583000D01*
X138825000Y-92741750D01*
X138821928Y-93168500D01*
X130887702Y-93168500D01*
X130683000Y-92963799D01*
X130683000Y-91743500D01*
X138821928Y-91743500D01*
X138825000Y-92170250D01*
X138983750Y-92329000D01*
X140208000Y-92329000D01*
X140208000Y-91267250D01*
X140049250Y-91108500D01*
X139460000Y-91105428D01*
X139335518Y-91117688D01*
X139215820Y-91153998D01*
X139105506Y-91212963D01*
X139008815Y-91292315D01*
X138929463Y-91389006D01*
X138870498Y-91499320D01*
X138834188Y-91619018D01*
X138821928Y-91743500D01*
X130683000Y-91743500D01*
X130683000Y-90195000D01*
X141097000Y-90195000D01*
X141097000Y-90425066D01*
G04 #@! TA.AperFunction,Conductor*
D28*
G36*
X141097000Y-90425066D02*
G01*
X141059324Y-90495553D01*
X140994423Y-90709501D01*
X140972509Y-90932000D01*
X140989703Y-91106576D01*
X140620750Y-91108500D01*
X140462000Y-91267250D01*
X140462000Y-92329000D01*
X140482000Y-92329000D01*
X140482000Y-92583000D01*
X140462000Y-92583000D01*
X140462000Y-93644750D01*
X140620750Y-93803500D01*
X141097000Y-93805983D01*
X141097000Y-94093921D01*
X140960000Y-94080428D01*
X139710000Y-94080428D01*
X139536746Y-94097492D01*
X139370150Y-94148028D01*
X139216614Y-94230095D01*
X139082038Y-94340538D01*
X139020060Y-94416059D01*
X137670321Y-94449803D01*
X137622994Y-94410963D01*
X137512680Y-94351998D01*
X137392982Y-94315688D01*
X137268500Y-94303428D01*
X136368500Y-94303428D01*
X136244018Y-94315688D01*
X136124320Y-94351998D01*
X136014006Y-94410963D01*
X135917315Y-94490315D01*
X135837963Y-94587006D01*
X135778998Y-94697320D01*
X135742688Y-94817018D01*
X135730428Y-94941500D01*
X135730428Y-95268441D01*
X135699923Y-95369002D01*
X135678009Y-95591500D01*
X135699923Y-95813998D01*
X135730428Y-95914559D01*
X135730428Y-96241500D01*
X135732841Y-96266000D01*
X134904159Y-96266000D01*
X134906572Y-96241500D01*
X134906572Y-95914560D01*
X134937077Y-95813999D01*
X134958991Y-95591500D01*
X134937077Y-95369001D01*
X134906572Y-95268440D01*
X134906572Y-94941500D01*
X134894312Y-94817018D01*
X134858002Y-94697320D01*
X134799037Y-94587006D01*
X134719685Y-94490315D01*
X134622994Y-94410963D01*
X134512680Y-94351998D01*
X134392982Y-94315688D01*
X134268500Y-94303428D01*
X133368500Y-94303428D01*
X133244018Y-94315688D01*
X133124320Y-94351998D01*
X133014006Y-94410963D01*
X132958519Y-94456500D01*
X132175702Y-94456500D01*
X130887702Y-93168500D01*
X138821928Y-93168500D01*
X138834188Y-93292982D01*
X138870498Y-93412680D01*
X138929463Y-93522994D01*
X139008815Y-93619685D01*
X139105506Y-93699037D01*
X139215820Y-93758002D01*
X139335518Y-93794312D01*
X139460000Y-93806572D01*
X140049250Y-93803500D01*
X140208000Y-93644750D01*
X140208000Y-92583000D01*
X138983750Y-92583000D01*
X138825000Y-92741750D01*
X138821928Y-93168500D01*
X130887702Y-93168500D01*
X130683000Y-92963799D01*
X130683000Y-91743500D01*
X138821928Y-91743500D01*
X138825000Y-92170250D01*
X138983750Y-92329000D01*
X140208000Y-92329000D01*
X140208000Y-91267250D01*
X140049250Y-91108500D01*
X139460000Y-91105428D01*
X139335518Y-91117688D01*
X139215820Y-91153998D01*
X139105506Y-91212963D01*
X139008815Y-91292315D01*
X138929463Y-91389006D01*
X138870498Y-91499320D01*
X138834188Y-91619018D01*
X138821928Y-91743500D01*
X130683000Y-91743500D01*
X130683000Y-90195000D01*
X141097000Y-90195000D01*
X141097000Y-90425066D01*
G37*
G04 #@! TD.AperFunction*
D27*
X104258000Y-96393000D02*
X104278000Y-96393000D01*
X104278000Y-96647000D01*
X104258000Y-96647000D01*
X104258000Y-97696250D01*
X104416750Y-97855000D01*
X104419918Y-97855034D01*
X104355506Y-97889463D01*
X104258815Y-97968815D01*
X104179463Y-98065506D01*
X104140000Y-98139335D01*
X104100537Y-98065506D01*
X104021185Y-97968815D01*
X103924494Y-97889463D01*
X103917152Y-97885538D01*
X103911538Y-97788712D01*
X104004000Y-97696250D01*
X104004000Y-96647000D01*
X103984000Y-96647000D01*
X103984000Y-96393000D01*
X104004000Y-96393000D01*
X104004000Y-96373000D01*
X104258000Y-96373000D01*
X104258000Y-96393000D01*
G04 #@! TA.AperFunction,Conductor*
D28*
G36*
X104258000Y-96393000D02*
G01*
X104278000Y-96393000D01*
X104278000Y-96647000D01*
X104258000Y-96647000D01*
X104258000Y-97696250D01*
X104416750Y-97855000D01*
X104419918Y-97855034D01*
X104355506Y-97889463D01*
X104258815Y-97968815D01*
X104179463Y-98065506D01*
X104140000Y-98139335D01*
X104100537Y-98065506D01*
X104021185Y-97968815D01*
X103924494Y-97889463D01*
X103917152Y-97885538D01*
X103911538Y-97788712D01*
X104004000Y-97696250D01*
X104004000Y-96647000D01*
X103984000Y-96647000D01*
X103984000Y-96393000D01*
X104004000Y-96393000D01*
X104004000Y-96373000D01*
X104258000Y-96373000D01*
X104258000Y-96393000D01*
G37*
G04 #@! TD.AperFunction*
D27*
X98679000Y-97616494D02*
X98553589Y-97584661D01*
X98261469Y-97569389D01*
X97971981Y-97611401D01*
X97696253Y-97709081D01*
X97558843Y-97782528D01*
X97481208Y-98031603D01*
X98330000Y-98880395D01*
X98344143Y-98866253D01*
X98523748Y-99045858D01*
X98509605Y-99060000D01*
X98523748Y-99074143D01*
X98360090Y-99237800D01*
X98299910Y-99237800D01*
X98136253Y-99074143D01*
X98150395Y-99060000D01*
X97301603Y-98211208D01*
X97052528Y-98288843D01*
X96926629Y-98552883D01*
X96854661Y-98836411D01*
X96839389Y-99128531D01*
X96855247Y-99237800D01*
X95832029Y-99237800D01*
X95787842Y-96675000D01*
X95854902Y-96675000D01*
X96315679Y-96583346D01*
X96407289Y-96545400D01*
X98679000Y-96545400D01*
X98679000Y-97616494D01*
G04 #@! TA.AperFunction,Conductor*
D28*
G36*
X98679000Y-97616494D02*
G01*
X98553589Y-97584661D01*
X98261469Y-97569389D01*
X97971981Y-97611401D01*
X97696253Y-97709081D01*
X97558843Y-97782528D01*
X97481208Y-98031603D01*
X98330000Y-98880395D01*
X98344143Y-98866253D01*
X98523748Y-99045858D01*
X98509605Y-99060000D01*
X98523748Y-99074143D01*
X98360090Y-99237800D01*
X98299910Y-99237800D01*
X98136253Y-99074143D01*
X98150395Y-99060000D01*
X97301603Y-98211208D01*
X97052528Y-98288843D01*
X96926629Y-98552883D01*
X96854661Y-98836411D01*
X96839389Y-99128531D01*
X96855247Y-99237800D01*
X95832029Y-99237800D01*
X95787842Y-96675000D01*
X95854902Y-96675000D01*
X96315679Y-96583346D01*
X96407289Y-96545400D01*
X98679000Y-96545400D01*
X98679000Y-97616494D01*
G37*
G04 #@! TD.AperFunction*
M02*
