G04 #@! TF.GenerationSoftware,KiCad,Pcbnew,(5.1.7)-1*
G04 #@! TF.CreationDate,2020-10-20T19:41:26+02:00*
G04 #@! TF.ProjectId,EQMOD_DIRECT_Isolated,45514d4f-445f-4444-9952-4543545f4973,rev?*
G04 #@! TF.SameCoordinates,Original*
G04 #@! TF.FileFunction,Copper,L2,Inr*
G04 #@! TF.FilePolarity,Positive*
%FSLAX46Y46*%
G04 Gerber Fmt 4.6, Leading zero omitted, Abs format (unit mm)*
G04 Created by KiCad (PCBNEW (5.1.7)-1) date 2020-10-20 19:41:26*
%MOMM*%
%LPD*%
G01*
G04 APERTURE LIST*
G04 #@! TA.AperFunction,ComponentPad*
%ADD10O,1.950000X1.700000*%
G04 #@! TD*
G04 #@! TA.AperFunction,ComponentPad*
%ADD11R,1.700000X1.700000*%
G04 #@! TD*
G04 #@! TA.AperFunction,ComponentPad*
%ADD12C,1.700000*%
G04 #@! TD*
G04 #@! TA.AperFunction,ComponentPad*
%ADD13C,3.500000*%
G04 #@! TD*
G04 #@! TA.AperFunction,ViaPad*
%ADD14C,0.800000*%
G04 #@! TD*
G04 #@! TA.AperFunction,ViaPad*
%ADD15C,1.000000*%
G04 #@! TD*
G04 #@! TA.AperFunction,Conductor*
%ADD16C,0.254000*%
G04 #@! TD*
G04 #@! TA.AperFunction,Conductor*
%ADD17C,0.100000*%
G04 #@! TD*
G04 APERTURE END LIST*
D10*
X144907000Y-107837000D03*
X144907000Y-105337000D03*
X144907000Y-102837000D03*
X144907000Y-100337000D03*
X144907000Y-97837000D03*
X144907000Y-95337000D03*
G04 #@! TA.AperFunction,ComponentPad*
G36*
G01*
X144182000Y-91987000D02*
X145632000Y-91987000D01*
G75*
G02*
X145882000Y-92237000I0J-250000D01*
G01*
X145882000Y-93437000D01*
G75*
G02*
X145632000Y-93687000I-250000J0D01*
G01*
X144182000Y-93687000D01*
G75*
G02*
X143932000Y-93437000I0J250000D01*
G01*
X143932000Y-92237000D01*
G75*
G02*
X144182000Y-91987000I250000J0D01*
G01*
G37*
G04 #@! TD.AperFunction*
D11*
X100330000Y-99060000D03*
D12*
X100330000Y-101560000D03*
X98330000Y-101560000D03*
X98330000Y-99060000D03*
D13*
X95620000Y-94290000D03*
X95620000Y-106330000D03*
D14*
X107442000Y-103486520D03*
X101594823Y-93522800D03*
X107315000Y-104775000D03*
X107696000Y-94742000D03*
X107696000Y-93726000D03*
X112268000Y-99822000D03*
X115062000Y-100203000D03*
X110786616Y-99937836D03*
X111252000Y-98044000D03*
X114909600Y-101346000D03*
X112014000Y-96926400D03*
X119634000Y-92710000D03*
X120523000Y-93726000D03*
X102870000Y-91440000D03*
X120650000Y-99314000D03*
X118237000Y-100203000D03*
X120396000Y-105410000D03*
X121666000Y-105918000D03*
X102235000Y-106426000D03*
X104013000Y-101727000D03*
X102997000Y-101727000D03*
D15*
X96774000Y-99060000D03*
X97028000Y-97790000D03*
X98330000Y-97250000D03*
D14*
X100318600Y-94626400D03*
X99341447Y-95531447D03*
X106680000Y-100838000D03*
X106533110Y-92300990D03*
X107724010Y-92300990D03*
X108994010Y-92300990D03*
X110264010Y-92300990D03*
X115500998Y-105480001D03*
X106121200Y-101955600D03*
X117476979Y-106043003D03*
X120650000Y-95504000D03*
X118205001Y-94011999D03*
X118110000Y-102705000D03*
X120523000Y-101219000D03*
X118606045Y-101132413D03*
X102235000Y-104775000D03*
D15*
X106181000Y-95495000D03*
X105511600Y-94197500D03*
D14*
X127889000Y-95504000D03*
X129921000Y-95504000D03*
X128270000Y-101219000D03*
X132610331Y-104797331D03*
X142113000Y-90932000D03*
X143129000Y-91948000D03*
D15*
X137644000Y-96417000D03*
X140298500Y-98461500D03*
D14*
X138279000Y-97433000D03*
X133167330Y-98475764D03*
X128905000Y-92583000D03*
X129794000Y-93726000D03*
X133097202Y-101982872D03*
X132945000Y-95591500D03*
X130161000Y-100598000D03*
X128016000Y-99949000D03*
X129159000Y-99949000D03*
X126873000Y-105791000D03*
X128016000Y-105664000D03*
X132588000Y-106426000D03*
X140017500Y-100647500D03*
X141097000Y-97409000D03*
X140335000Y-96647000D03*
D15*
X146271000Y-102837000D03*
X143510000Y-102870000D03*
X146304000Y-101473000D03*
X146177000Y-104267000D03*
X143510000Y-104267000D03*
D14*
X137795000Y-100584000D03*
X131595035Y-95480965D03*
X132080000Y-90805000D03*
X133350000Y-90805000D03*
X134620000Y-90805000D03*
X135890000Y-90805000D03*
X137160000Y-90805000D03*
X138430000Y-90805000D03*
X132080000Y-92075000D03*
X133350000Y-92075000D03*
X134620000Y-92075000D03*
X135890000Y-92075000D03*
X137160000Y-92075000D03*
X138430000Y-92075000D03*
X132080000Y-93345000D03*
X133350000Y-93345000D03*
X134620000Y-93345000D03*
X135890000Y-93345000D03*
X138430000Y-93345000D03*
X135676250Y-96924250D03*
X119356045Y-103357293D03*
X119380000Y-97282000D03*
X139065000Y-107950000D03*
X135255000Y-100330000D03*
X139168500Y-105306500D03*
X134747000Y-97860520D03*
X120142000Y-98044000D03*
X116586000Y-93726000D03*
D16*
X122809000Y-110338000D02*
X90070952Y-110338000D01*
X89234482Y-110267025D01*
X88449081Y-110063174D01*
X87709260Y-109729910D01*
X87036160Y-109276752D01*
X86449041Y-108716668D01*
X85964682Y-108065667D01*
X85596932Y-107342358D01*
X85356313Y-106567436D01*
X85293709Y-106095098D01*
X93235000Y-106095098D01*
X93235000Y-106564902D01*
X93326654Y-107025679D01*
X93506440Y-107459721D01*
X93767450Y-107850349D01*
X94099651Y-108182550D01*
X94490279Y-108443560D01*
X94924321Y-108623346D01*
X95385098Y-108715000D01*
X95854902Y-108715000D01*
X96315679Y-108623346D01*
X96749721Y-108443560D01*
X97140349Y-108182550D01*
X97472550Y-107850349D01*
X97733560Y-107459721D01*
X97913346Y-107025679D01*
X98005000Y-106564902D01*
X98005000Y-106095098D01*
X97913346Y-105634321D01*
X97733560Y-105200279D01*
X97472550Y-104809651D01*
X97335960Y-104673061D01*
X101200000Y-104673061D01*
X101200000Y-104876939D01*
X101239774Y-105076898D01*
X101317795Y-105265256D01*
X101431063Y-105434774D01*
X101575226Y-105578937D01*
X101744744Y-105692205D01*
X101933102Y-105770226D01*
X102133061Y-105810000D01*
X102336939Y-105810000D01*
X102536898Y-105770226D01*
X102725256Y-105692205D01*
X102894774Y-105578937D01*
X103038937Y-105434774D01*
X103076830Y-105378062D01*
X114465998Y-105378062D01*
X114465998Y-105581940D01*
X114505772Y-105781899D01*
X114583793Y-105970257D01*
X114697061Y-106139775D01*
X114841224Y-106283938D01*
X115010742Y-106397206D01*
X115199100Y-106475227D01*
X115399059Y-106515001D01*
X115602937Y-106515001D01*
X115802896Y-106475227D01*
X115991254Y-106397206D01*
X116160772Y-106283938D01*
X116304935Y-106139775D01*
X116418203Y-105970257D01*
X116452773Y-105886798D01*
X116441979Y-105941064D01*
X116441979Y-106144942D01*
X116481753Y-106344901D01*
X116559774Y-106533259D01*
X116673042Y-106702777D01*
X116817205Y-106846940D01*
X116986723Y-106960208D01*
X117175081Y-107038229D01*
X117375040Y-107078003D01*
X117578918Y-107078003D01*
X117778877Y-107038229D01*
X117967235Y-106960208D01*
X118136753Y-106846940D01*
X118280916Y-106702777D01*
X118394184Y-106533259D01*
X118472205Y-106344901D01*
X118511979Y-106144942D01*
X118511979Y-105941064D01*
X118472205Y-105741105D01*
X118394184Y-105552747D01*
X118280916Y-105383229D01*
X118136753Y-105239066D01*
X117967235Y-105125798D01*
X117778877Y-105047777D01*
X117578918Y-105008003D01*
X117375040Y-105008003D01*
X117175081Y-105047777D01*
X116986723Y-105125798D01*
X116817205Y-105239066D01*
X116673042Y-105383229D01*
X116559774Y-105552747D01*
X116525204Y-105636206D01*
X116535998Y-105581940D01*
X116535998Y-105378062D01*
X116496224Y-105178103D01*
X116418203Y-104989745D01*
X116304935Y-104820227D01*
X116160772Y-104676064D01*
X115991254Y-104562796D01*
X115802896Y-104484775D01*
X115602937Y-104445001D01*
X115399059Y-104445001D01*
X115199100Y-104484775D01*
X115010742Y-104562796D01*
X114841224Y-104676064D01*
X114697061Y-104820227D01*
X114583793Y-104989745D01*
X114505772Y-105178103D01*
X114465998Y-105378062D01*
X103076830Y-105378062D01*
X103152205Y-105265256D01*
X103230226Y-105076898D01*
X103270000Y-104876939D01*
X103270000Y-104673061D01*
X103230226Y-104473102D01*
X103152205Y-104284744D01*
X103038937Y-104115226D01*
X102894774Y-103971063D01*
X102725256Y-103857795D01*
X102536898Y-103779774D01*
X102336939Y-103740000D01*
X102133061Y-103740000D01*
X101933102Y-103779774D01*
X101744744Y-103857795D01*
X101575226Y-103971063D01*
X101431063Y-104115226D01*
X101317795Y-104284744D01*
X101239774Y-104473102D01*
X101200000Y-104673061D01*
X97335960Y-104673061D01*
X97140349Y-104477450D01*
X96749721Y-104216440D01*
X96315679Y-104036654D01*
X95854902Y-103945000D01*
X95385098Y-103945000D01*
X94924321Y-104036654D01*
X94490279Y-104216440D01*
X94099651Y-104477450D01*
X93767450Y-104809651D01*
X93506440Y-105200279D01*
X93326654Y-105634321D01*
X93235000Y-106095098D01*
X85293709Y-106095098D01*
X85247037Y-105742967D01*
X85242000Y-105529218D01*
X85242000Y-103321726D01*
X87734728Y-103321726D01*
X87735146Y-103381547D01*
X87734728Y-103441367D01*
X87735628Y-103450538D01*
X87745992Y-103549140D01*
X87758016Y-103607714D01*
X87769229Y-103666496D01*
X87771893Y-103675317D01*
X87801211Y-103770028D01*
X87824370Y-103825119D01*
X87846798Y-103880632D01*
X87851125Y-103888768D01*
X87898280Y-103975980D01*
X87931730Y-104025571D01*
X87964486Y-104075629D01*
X87970310Y-104082770D01*
X88033507Y-104159162D01*
X88075942Y-104201301D01*
X88117805Y-104244051D01*
X88124906Y-104249925D01*
X88201737Y-104312587D01*
X88251548Y-104345681D01*
X88300921Y-104379488D01*
X88309027Y-104383870D01*
X88396566Y-104430415D01*
X88451841Y-104453197D01*
X88506851Y-104476775D01*
X88515655Y-104479500D01*
X88610568Y-104508156D01*
X88669241Y-104519773D01*
X88727758Y-104532212D01*
X88736923Y-104533175D01*
X88835594Y-104542850D01*
X88835598Y-104542850D01*
X88867581Y-104546000D01*
X91726419Y-104546000D01*
X91765579Y-104542143D01*
X91785248Y-104541911D01*
X91794401Y-104540839D01*
X91892797Y-104528624D01*
X91951120Y-104515505D01*
X92009702Y-104503185D01*
X92018472Y-104500356D01*
X92112621Y-104469261D01*
X92167311Y-104445051D01*
X92222347Y-104421604D01*
X92230400Y-104417125D01*
X92316717Y-104368336D01*
X92365648Y-104333976D01*
X92415107Y-104300268D01*
X92422137Y-104294310D01*
X92497333Y-104229684D01*
X92538676Y-104186456D01*
X92580619Y-104143811D01*
X92586358Y-104136601D01*
X92647570Y-104058601D01*
X92679724Y-104008176D01*
X92712599Y-103958172D01*
X92716829Y-103949985D01*
X92761723Y-103861580D01*
X92783468Y-103805873D01*
X92806002Y-103750444D01*
X92808561Y-103741591D01*
X92835430Y-103646150D01*
X92845945Y-103587254D01*
X92857279Y-103528531D01*
X92858070Y-103519350D01*
X92865890Y-103420508D01*
X92864766Y-103360718D01*
X92864478Y-103300878D01*
X92863470Y-103291718D01*
X92851942Y-103193239D01*
X92839223Y-103134791D01*
X92827319Y-103076161D01*
X92824551Y-103067371D01*
X92794115Y-102973007D01*
X92770288Y-102918149D01*
X92747225Y-102862951D01*
X92742802Y-102854866D01*
X92694617Y-102768211D01*
X92660586Y-102719021D01*
X92627241Y-102669353D01*
X92621336Y-102662287D01*
X92621332Y-102662281D01*
X92621327Y-102662276D01*
X92557234Y-102586636D01*
X92514279Y-102544976D01*
X92471932Y-102502742D01*
X92464762Y-102496952D01*
X92387190Y-102435198D01*
X92336959Y-102402674D01*
X92287232Y-102369480D01*
X92279074Y-102365193D01*
X92279070Y-102365191D01*
X92279067Y-102365189D01*
X92279064Y-102365188D01*
X92190986Y-102319681D01*
X92135418Y-102297541D01*
X92080158Y-102274625D01*
X92071327Y-102272006D01*
X92071321Y-102272004D01*
X91976072Y-102244470D01*
X91917315Y-102233555D01*
X91858601Y-102221798D01*
X91849426Y-102220944D01*
X91754644Y-102212780D01*
X91726419Y-102210000D01*
X88867581Y-102210000D01*
X88835100Y-102213199D01*
X88828505Y-102213199D01*
X88819341Y-102214163D01*
X88776325Y-102218988D01*
X88770617Y-102219550D01*
X88770209Y-102219674D01*
X88720815Y-102225214D01*
X88662321Y-102237647D01*
X88603621Y-102249270D01*
X88594818Y-102251995D01*
X88500315Y-102281973D01*
X88445368Y-102305524D01*
X88390027Y-102328333D01*
X88381921Y-102332716D01*
X88295041Y-102380479D01*
X88245679Y-102414278D01*
X88195857Y-102447379D01*
X88188757Y-102453253D01*
X88112807Y-102516982D01*
X88070944Y-102559732D01*
X88028508Y-102601872D01*
X88022684Y-102609014D01*
X87960560Y-102686281D01*
X87927812Y-102736326D01*
X87894355Y-102785927D01*
X87890029Y-102794064D01*
X87844096Y-102881925D01*
X87821697Y-102937365D01*
X87798508Y-102992529D01*
X87795845Y-103001351D01*
X87767852Y-103096461D01*
X87756652Y-103155172D01*
X87744613Y-103213819D01*
X87743714Y-103222990D01*
X87734728Y-103321726D01*
X85242000Y-103321726D01*
X85242000Y-101413740D01*
X96845000Y-101413740D01*
X96845000Y-101706260D01*
X96902068Y-101993158D01*
X97014010Y-102263411D01*
X97176525Y-102506632D01*
X97383368Y-102713475D01*
X97626589Y-102875990D01*
X97896842Y-102987932D01*
X98183740Y-103045000D01*
X98476260Y-103045000D01*
X98763158Y-102987932D01*
X99033411Y-102875990D01*
X99276632Y-102713475D01*
X99330000Y-102660107D01*
X99383368Y-102713475D01*
X99626589Y-102875990D01*
X99896842Y-102987932D01*
X100183740Y-103045000D01*
X100476260Y-103045000D01*
X100763158Y-102987932D01*
X101033411Y-102875990D01*
X101276632Y-102713475D01*
X101483475Y-102506632D01*
X101645990Y-102263411D01*
X101757932Y-101993158D01*
X101785679Y-101853661D01*
X105086200Y-101853661D01*
X105086200Y-102057539D01*
X105125974Y-102257498D01*
X105203995Y-102445856D01*
X105317263Y-102615374D01*
X105461426Y-102759537D01*
X105630944Y-102872805D01*
X105819302Y-102950826D01*
X106019261Y-102990600D01*
X106223139Y-102990600D01*
X106423098Y-102950826D01*
X106611456Y-102872805D01*
X106780974Y-102759537D01*
X106925137Y-102615374D01*
X106933364Y-102603061D01*
X117075000Y-102603061D01*
X117075000Y-102806939D01*
X117114774Y-103006898D01*
X117192795Y-103195256D01*
X117306063Y-103364774D01*
X117450226Y-103508937D01*
X117619744Y-103622205D01*
X117808102Y-103700226D01*
X118008061Y-103740000D01*
X118211939Y-103740000D01*
X118380411Y-103706489D01*
X118438840Y-103847549D01*
X118552108Y-104017067D01*
X118696271Y-104161230D01*
X118865789Y-104274498D01*
X119054147Y-104352519D01*
X119254106Y-104392293D01*
X119457984Y-104392293D01*
X119657943Y-104352519D01*
X119846301Y-104274498D01*
X120015819Y-104161230D01*
X120159982Y-104017067D01*
X120273250Y-103847549D01*
X120351271Y-103659191D01*
X120391045Y-103459232D01*
X120391045Y-103255354D01*
X120351271Y-103055395D01*
X120273250Y-102867037D01*
X120159982Y-102697519D01*
X120015819Y-102553356D01*
X119846301Y-102440088D01*
X119657943Y-102362067D01*
X119457984Y-102322293D01*
X119254106Y-102322293D01*
X119085634Y-102355804D01*
X119027205Y-102214744D01*
X118955767Y-102107829D01*
X119096301Y-102049618D01*
X119265819Y-101936350D01*
X119409982Y-101792187D01*
X119523250Y-101622669D01*
X119546590Y-101566323D01*
X119605795Y-101709256D01*
X119719063Y-101878774D01*
X119863226Y-102022937D01*
X120032744Y-102136205D01*
X120221102Y-102214226D01*
X120421061Y-102254000D01*
X120624939Y-102254000D01*
X120824898Y-102214226D01*
X121013256Y-102136205D01*
X121182774Y-102022937D01*
X121326937Y-101878774D01*
X121440205Y-101709256D01*
X121518226Y-101520898D01*
X121558000Y-101320939D01*
X121558000Y-101117061D01*
X121518226Y-100917102D01*
X121440205Y-100728744D01*
X121326937Y-100559226D01*
X121182774Y-100415063D01*
X121013256Y-100301795D01*
X120824898Y-100223774D01*
X120624939Y-100184000D01*
X120421061Y-100184000D01*
X120221102Y-100223774D01*
X120032744Y-100301795D01*
X119863226Y-100415063D01*
X119719063Y-100559226D01*
X119605795Y-100728744D01*
X119582455Y-100785090D01*
X119523250Y-100642157D01*
X119409982Y-100472639D01*
X119265819Y-100328476D01*
X119096301Y-100215208D01*
X118907943Y-100137187D01*
X118707984Y-100097413D01*
X118504106Y-100097413D01*
X118304147Y-100137187D01*
X118115789Y-100215208D01*
X117946271Y-100328476D01*
X117802108Y-100472639D01*
X117688840Y-100642157D01*
X117610819Y-100830515D01*
X117571045Y-101030474D01*
X117571045Y-101234352D01*
X117610819Y-101434311D01*
X117688840Y-101622669D01*
X117760278Y-101729584D01*
X117619744Y-101787795D01*
X117450226Y-101901063D01*
X117306063Y-102045226D01*
X117192795Y-102214744D01*
X117114774Y-102403102D01*
X117075000Y-102603061D01*
X106933364Y-102603061D01*
X107038405Y-102445856D01*
X107116426Y-102257498D01*
X107156200Y-102057539D01*
X107156200Y-101853661D01*
X107139177Y-101768079D01*
X107170256Y-101755205D01*
X107339774Y-101641937D01*
X107483937Y-101497774D01*
X107597205Y-101328256D01*
X107675226Y-101139898D01*
X107715000Y-100939939D01*
X107715000Y-100736061D01*
X107675226Y-100536102D01*
X107597205Y-100347744D01*
X107483937Y-100178226D01*
X107339774Y-100034063D01*
X107170256Y-99920795D01*
X106981898Y-99842774D01*
X106781939Y-99803000D01*
X106578061Y-99803000D01*
X106378102Y-99842774D01*
X106189744Y-99920795D01*
X106020226Y-100034063D01*
X105876063Y-100178226D01*
X105762795Y-100347744D01*
X105684774Y-100536102D01*
X105645000Y-100736061D01*
X105645000Y-100939939D01*
X105662023Y-101025521D01*
X105630944Y-101038395D01*
X105461426Y-101151663D01*
X105317263Y-101295826D01*
X105203995Y-101465344D01*
X105125974Y-101653702D01*
X105086200Y-101853661D01*
X101785679Y-101853661D01*
X101815000Y-101706260D01*
X101815000Y-101413740D01*
X101757932Y-101126842D01*
X101645990Y-100856589D01*
X101483475Y-100613368D01*
X101382310Y-100512203D01*
X101424180Y-100499502D01*
X101534494Y-100440537D01*
X101631185Y-100361185D01*
X101710537Y-100264494D01*
X101769502Y-100154180D01*
X101805812Y-100034482D01*
X101818072Y-99910000D01*
X101818072Y-98210000D01*
X101805812Y-98085518D01*
X101769502Y-97965820D01*
X101710537Y-97855506D01*
X101631185Y-97758815D01*
X101534494Y-97679463D01*
X101424180Y-97620498D01*
X101304482Y-97584188D01*
X101180000Y-97571928D01*
X99480000Y-97571928D01*
X99355518Y-97584188D01*
X99235820Y-97620498D01*
X99125506Y-97679463D01*
X99037124Y-97751996D01*
X98837117Y-97656629D01*
X98553589Y-97584661D01*
X98261469Y-97569389D01*
X97971981Y-97611401D01*
X97696253Y-97709081D01*
X97558843Y-97782528D01*
X97481208Y-98031603D01*
X98330000Y-98880395D01*
X98344143Y-98866253D01*
X98523748Y-99045858D01*
X98509605Y-99060000D01*
X98523748Y-99074143D01*
X98344143Y-99253748D01*
X98330000Y-99239605D01*
X97481208Y-100088397D01*
X97546410Y-100297584D01*
X97383368Y-100406525D01*
X97176525Y-100613368D01*
X97014010Y-100856589D01*
X96902068Y-101126842D01*
X96845000Y-101413740D01*
X85242000Y-101413740D01*
X85242000Y-99128531D01*
X96839389Y-99128531D01*
X96881401Y-99418019D01*
X96979081Y-99693747D01*
X97052528Y-99831157D01*
X97301603Y-99908792D01*
X98150395Y-99060000D01*
X97301603Y-98211208D01*
X97052528Y-98288843D01*
X96926629Y-98552883D01*
X96854661Y-98836411D01*
X96839389Y-99128531D01*
X85242000Y-99128531D01*
X85242000Y-97225675D01*
X87742728Y-97225675D01*
X87743146Y-97285492D01*
X87742728Y-97345308D01*
X87743627Y-97354479D01*
X87753827Y-97451527D01*
X87765861Y-97510152D01*
X87777064Y-97568884D01*
X87779728Y-97577706D01*
X87808584Y-97670925D01*
X87831767Y-97726075D01*
X87854175Y-97781537D01*
X87858502Y-97789673D01*
X87904914Y-97875511D01*
X87938362Y-97925098D01*
X87971119Y-97975156D01*
X87976943Y-97982297D01*
X88039145Y-98057486D01*
X88081594Y-98099639D01*
X88123439Y-98142371D01*
X88130540Y-98148245D01*
X88206160Y-98209921D01*
X88256025Y-98243052D01*
X88305350Y-98276825D01*
X88313445Y-98281202D01*
X88313448Y-98281204D01*
X88313451Y-98281205D01*
X88313456Y-98281208D01*
X88399617Y-98327020D01*
X88454909Y-98349809D01*
X88509898Y-98373378D01*
X88518701Y-98376103D01*
X88612119Y-98404308D01*
X88670826Y-98415933D01*
X88729316Y-98428365D01*
X88738470Y-98429327D01*
X88738476Y-98429328D01*
X88738481Y-98429328D01*
X88834737Y-98438766D01*
X88865692Y-98441904D01*
X91724528Y-98450090D01*
X91758930Y-98446801D01*
X91765495Y-98446801D01*
X91774659Y-98445837D01*
X91807269Y-98442179D01*
X91821519Y-98440817D01*
X91822773Y-98440440D01*
X91873186Y-98434786D01*
X91931687Y-98422351D01*
X91990379Y-98410730D01*
X91999182Y-98408005D01*
X92093686Y-98378027D01*
X92148671Y-98354460D01*
X92203972Y-98331667D01*
X92212078Y-98327284D01*
X92298959Y-98279521D01*
X92348306Y-98245733D01*
X92398143Y-98212621D01*
X92405244Y-98206747D01*
X92481193Y-98143017D01*
X92523037Y-98100287D01*
X92565492Y-98058128D01*
X92571316Y-98050986D01*
X92633440Y-97973720D01*
X92666200Y-97923657D01*
X92699645Y-97874073D01*
X92703971Y-97865937D01*
X92749904Y-97778075D01*
X92772303Y-97722635D01*
X92795492Y-97667471D01*
X92798155Y-97658649D01*
X92826148Y-97563539D01*
X92837348Y-97504828D01*
X92849387Y-97446181D01*
X92850286Y-97437010D01*
X92859272Y-97338274D01*
X92858854Y-97278453D01*
X92859272Y-97218633D01*
X92858372Y-97209462D01*
X92855282Y-97180061D01*
X118345000Y-97180061D01*
X118345000Y-97383939D01*
X118384774Y-97583898D01*
X118462795Y-97772256D01*
X118576063Y-97941774D01*
X118720226Y-98085937D01*
X118889744Y-98199205D01*
X119078102Y-98277226D01*
X119135381Y-98288619D01*
X119146774Y-98345898D01*
X119224795Y-98534256D01*
X119338063Y-98703774D01*
X119482226Y-98847937D01*
X119651744Y-98961205D01*
X119840102Y-99039226D01*
X120040061Y-99079000D01*
X120243939Y-99079000D01*
X120443898Y-99039226D01*
X120632256Y-98961205D01*
X120801774Y-98847937D01*
X120945937Y-98703774D01*
X121059205Y-98534256D01*
X121137226Y-98345898D01*
X121177000Y-98145939D01*
X121177000Y-97942061D01*
X121137226Y-97742102D01*
X121059205Y-97553744D01*
X120945937Y-97384226D01*
X120801774Y-97240063D01*
X120632256Y-97126795D01*
X120443898Y-97048774D01*
X120386619Y-97037381D01*
X120375226Y-96980102D01*
X120297205Y-96791744D01*
X120183937Y-96622226D01*
X120039774Y-96478063D01*
X119870256Y-96364795D01*
X119681898Y-96286774D01*
X119481939Y-96247000D01*
X119278061Y-96247000D01*
X119078102Y-96286774D01*
X118889744Y-96364795D01*
X118720226Y-96478063D01*
X118576063Y-96622226D01*
X118462795Y-96791744D01*
X118384774Y-96980102D01*
X118345000Y-97180061D01*
X92855282Y-97180061D01*
X92848008Y-97110860D01*
X92835984Y-97052286D01*
X92824771Y-96993504D01*
X92822107Y-96984683D01*
X92792789Y-96889973D01*
X92769636Y-96834895D01*
X92747202Y-96779368D01*
X92742875Y-96771232D01*
X92695720Y-96684020D01*
X92662270Y-96634429D01*
X92629514Y-96584371D01*
X92623689Y-96577230D01*
X92560493Y-96500838D01*
X92518058Y-96458699D01*
X92476195Y-96415949D01*
X92469094Y-96410075D01*
X92392263Y-96347413D01*
X92342467Y-96314329D01*
X92293079Y-96280512D01*
X92284973Y-96276130D01*
X92197434Y-96229585D01*
X92142159Y-96206803D01*
X92087149Y-96183225D01*
X92078346Y-96180500D01*
X91983432Y-96151844D01*
X91924752Y-96140225D01*
X91866242Y-96127788D01*
X91857077Y-96126825D01*
X91822288Y-96123414D01*
X91821519Y-96123183D01*
X91724528Y-96113910D01*
X88865692Y-96122096D01*
X88835095Y-96125198D01*
X88828617Y-96125198D01*
X88819453Y-96126162D01*
X88722478Y-96137039D01*
X88663984Y-96149472D01*
X88605284Y-96161095D01*
X88596481Y-96163820D01*
X88503465Y-96193326D01*
X88448505Y-96216882D01*
X88393178Y-96239686D01*
X88385072Y-96244069D01*
X88299559Y-96291080D01*
X88250208Y-96324872D01*
X88200374Y-96357982D01*
X88193274Y-96363856D01*
X88118522Y-96426581D01*
X88076695Y-96469294D01*
X88034226Y-96511467D01*
X88028402Y-96518609D01*
X87967256Y-96594659D01*
X87934535Y-96644661D01*
X87901049Y-96694306D01*
X87896723Y-96702443D01*
X87851513Y-96788922D01*
X87829104Y-96844388D01*
X87805925Y-96899527D01*
X87803262Y-96908349D01*
X87775710Y-97001961D01*
X87764508Y-97060682D01*
X87752471Y-97119322D01*
X87751572Y-97128493D01*
X87742728Y-97225675D01*
X85242000Y-97225675D01*
X85242000Y-95023952D01*
X85312975Y-94187482D01*
X85347335Y-94055098D01*
X93235000Y-94055098D01*
X93235000Y-94524902D01*
X93326654Y-94985679D01*
X93506440Y-95419721D01*
X93767450Y-95810349D01*
X94099651Y-96142550D01*
X94490279Y-96403560D01*
X94924321Y-96583346D01*
X95385098Y-96675000D01*
X95854902Y-96675000D01*
X96315679Y-96583346D01*
X96749721Y-96403560D01*
X97140349Y-96142550D01*
X97472550Y-95810349D01*
X97733560Y-95419721D01*
X97913346Y-94985679D01*
X98005000Y-94524902D01*
X98005000Y-94085712D01*
X104376600Y-94085712D01*
X104376600Y-94309288D01*
X104420217Y-94528567D01*
X104505776Y-94735124D01*
X104629988Y-94921020D01*
X104788080Y-95079112D01*
X104973976Y-95203324D01*
X105073576Y-95244580D01*
X105046000Y-95383212D01*
X105046000Y-95606788D01*
X105089617Y-95826067D01*
X105175176Y-96032624D01*
X105299388Y-96218520D01*
X105457480Y-96376612D01*
X105643376Y-96500824D01*
X105849933Y-96586383D01*
X106069212Y-96630000D01*
X106292788Y-96630000D01*
X106512067Y-96586383D01*
X106718624Y-96500824D01*
X106904520Y-96376612D01*
X107062612Y-96218520D01*
X107186824Y-96032624D01*
X107272383Y-95826067D01*
X107316000Y-95606788D01*
X107316000Y-95402061D01*
X119615000Y-95402061D01*
X119615000Y-95605939D01*
X119654774Y-95805898D01*
X119732795Y-95994256D01*
X119846063Y-96163774D01*
X119990226Y-96307937D01*
X120159744Y-96421205D01*
X120348102Y-96499226D01*
X120548061Y-96539000D01*
X120751939Y-96539000D01*
X120951898Y-96499226D01*
X121140256Y-96421205D01*
X121309774Y-96307937D01*
X121453937Y-96163774D01*
X121567205Y-95994256D01*
X121645226Y-95805898D01*
X121685000Y-95605939D01*
X121685000Y-95402061D01*
X121645226Y-95202102D01*
X121567205Y-95013744D01*
X121453937Y-94844226D01*
X121309774Y-94700063D01*
X121140256Y-94586795D01*
X120951898Y-94508774D01*
X120751939Y-94469000D01*
X120548061Y-94469000D01*
X120348102Y-94508774D01*
X120159744Y-94586795D01*
X119990226Y-94700063D01*
X119846063Y-94844226D01*
X119732795Y-95013744D01*
X119654774Y-95202102D01*
X119615000Y-95402061D01*
X107316000Y-95402061D01*
X107316000Y-95383212D01*
X107272383Y-95163933D01*
X107186824Y-94957376D01*
X107062612Y-94771480D01*
X106904520Y-94613388D01*
X106718624Y-94489176D01*
X106619024Y-94447920D01*
X106646600Y-94309288D01*
X106646600Y-94085712D01*
X106602983Y-93866433D01*
X106517424Y-93659876D01*
X106493494Y-93624061D01*
X115551000Y-93624061D01*
X115551000Y-93827939D01*
X115590774Y-94027898D01*
X115668795Y-94216256D01*
X115782063Y-94385774D01*
X115926226Y-94529937D01*
X116095744Y-94643205D01*
X116284102Y-94721226D01*
X116484061Y-94761000D01*
X116687939Y-94761000D01*
X116887898Y-94721226D01*
X117076256Y-94643205D01*
X117245774Y-94529937D01*
X117283596Y-94492115D01*
X117287796Y-94502255D01*
X117401064Y-94671773D01*
X117545227Y-94815936D01*
X117714745Y-94929204D01*
X117903103Y-95007225D01*
X118103062Y-95046999D01*
X118306940Y-95046999D01*
X118506899Y-95007225D01*
X118695257Y-94929204D01*
X118864775Y-94815936D01*
X119008938Y-94671773D01*
X119122206Y-94502255D01*
X119200227Y-94313897D01*
X119240001Y-94113938D01*
X119240001Y-93910060D01*
X119200227Y-93710101D01*
X119122206Y-93521743D01*
X119008938Y-93352225D01*
X118864775Y-93208062D01*
X118695257Y-93094794D01*
X118506899Y-93016773D01*
X118306940Y-92976999D01*
X118103062Y-92976999D01*
X117903103Y-93016773D01*
X117714745Y-93094794D01*
X117545227Y-93208062D01*
X117507405Y-93245884D01*
X117503205Y-93235744D01*
X117389937Y-93066226D01*
X117245774Y-92922063D01*
X117076256Y-92808795D01*
X116887898Y-92730774D01*
X116687939Y-92691000D01*
X116484061Y-92691000D01*
X116284102Y-92730774D01*
X116095744Y-92808795D01*
X115926226Y-92922063D01*
X115782063Y-93066226D01*
X115668795Y-93235744D01*
X115590774Y-93424102D01*
X115551000Y-93624061D01*
X106493494Y-93624061D01*
X106393212Y-93473980D01*
X106235120Y-93315888D01*
X106164034Y-93268390D01*
X106231212Y-93296216D01*
X106431171Y-93335990D01*
X106635049Y-93335990D01*
X106835008Y-93296216D01*
X107023366Y-93218195D01*
X107128560Y-93147907D01*
X107233754Y-93218195D01*
X107422112Y-93296216D01*
X107622071Y-93335990D01*
X107825949Y-93335990D01*
X108025908Y-93296216D01*
X108214266Y-93218195D01*
X108359010Y-93121480D01*
X108503754Y-93218195D01*
X108692112Y-93296216D01*
X108892071Y-93335990D01*
X109095949Y-93335990D01*
X109295908Y-93296216D01*
X109484266Y-93218195D01*
X109629010Y-93121480D01*
X109773754Y-93218195D01*
X109962112Y-93296216D01*
X110162071Y-93335990D01*
X110365949Y-93335990D01*
X110565908Y-93296216D01*
X110754266Y-93218195D01*
X110923784Y-93104927D01*
X111067947Y-92960764D01*
X111181215Y-92791246D01*
X111259236Y-92602888D01*
X111299010Y-92402929D01*
X111299010Y-92199051D01*
X111259236Y-91999092D01*
X111181215Y-91810734D01*
X111067947Y-91641216D01*
X110923784Y-91497053D01*
X110754266Y-91383785D01*
X110565908Y-91305764D01*
X110365949Y-91265990D01*
X110162071Y-91265990D01*
X109962112Y-91305764D01*
X109773754Y-91383785D01*
X109629010Y-91480500D01*
X109484266Y-91383785D01*
X109295908Y-91305764D01*
X109095949Y-91265990D01*
X108892071Y-91265990D01*
X108692112Y-91305764D01*
X108503754Y-91383785D01*
X108359010Y-91480500D01*
X108214266Y-91383785D01*
X108025908Y-91305764D01*
X107825949Y-91265990D01*
X107622071Y-91265990D01*
X107422112Y-91305764D01*
X107233754Y-91383785D01*
X107128560Y-91454073D01*
X107023366Y-91383785D01*
X106835008Y-91305764D01*
X106635049Y-91265990D01*
X106431171Y-91265990D01*
X106231212Y-91305764D01*
X106042854Y-91383785D01*
X105873336Y-91497053D01*
X105729173Y-91641216D01*
X105615905Y-91810734D01*
X105537884Y-91999092D01*
X105498110Y-92199051D01*
X105498110Y-92402929D01*
X105537884Y-92602888D01*
X105615905Y-92791246D01*
X105729173Y-92960764D01*
X105873336Y-93104927D01*
X105928043Y-93141481D01*
X105842667Y-93106117D01*
X105623388Y-93062500D01*
X105399812Y-93062500D01*
X105180533Y-93106117D01*
X104973976Y-93191676D01*
X104788080Y-93315888D01*
X104629988Y-93473980D01*
X104505776Y-93659876D01*
X104420217Y-93866433D01*
X104376600Y-94085712D01*
X98005000Y-94085712D01*
X98005000Y-94055098D01*
X97913346Y-93594321D01*
X97733560Y-93160279D01*
X97472550Y-92769651D01*
X97140349Y-92437450D01*
X96749721Y-92176440D01*
X96315679Y-91996654D01*
X95854902Y-91905000D01*
X95385098Y-91905000D01*
X94924321Y-91996654D01*
X94490279Y-92176440D01*
X94099651Y-92437450D01*
X93767450Y-92769651D01*
X93506440Y-93160279D01*
X93326654Y-93594321D01*
X93235000Y-94055098D01*
X85347335Y-94055098D01*
X85516825Y-93402082D01*
X85850092Y-92662258D01*
X86303248Y-91989160D01*
X86863332Y-91402041D01*
X87514335Y-90917681D01*
X88237642Y-90549932D01*
X89012563Y-90309313D01*
X89837033Y-90200037D01*
X90050782Y-90195000D01*
X122809000Y-90195000D01*
X122809000Y-110338000D01*
G04 #@! TA.AperFunction,Conductor*
D17*
G36*
X122809000Y-110338000D02*
G01*
X90070952Y-110338000D01*
X89234482Y-110267025D01*
X88449081Y-110063174D01*
X87709260Y-109729910D01*
X87036160Y-109276752D01*
X86449041Y-108716668D01*
X85964682Y-108065667D01*
X85596932Y-107342358D01*
X85356313Y-106567436D01*
X85293709Y-106095098D01*
X93235000Y-106095098D01*
X93235000Y-106564902D01*
X93326654Y-107025679D01*
X93506440Y-107459721D01*
X93767450Y-107850349D01*
X94099651Y-108182550D01*
X94490279Y-108443560D01*
X94924321Y-108623346D01*
X95385098Y-108715000D01*
X95854902Y-108715000D01*
X96315679Y-108623346D01*
X96749721Y-108443560D01*
X97140349Y-108182550D01*
X97472550Y-107850349D01*
X97733560Y-107459721D01*
X97913346Y-107025679D01*
X98005000Y-106564902D01*
X98005000Y-106095098D01*
X97913346Y-105634321D01*
X97733560Y-105200279D01*
X97472550Y-104809651D01*
X97335960Y-104673061D01*
X101200000Y-104673061D01*
X101200000Y-104876939D01*
X101239774Y-105076898D01*
X101317795Y-105265256D01*
X101431063Y-105434774D01*
X101575226Y-105578937D01*
X101744744Y-105692205D01*
X101933102Y-105770226D01*
X102133061Y-105810000D01*
X102336939Y-105810000D01*
X102536898Y-105770226D01*
X102725256Y-105692205D01*
X102894774Y-105578937D01*
X103038937Y-105434774D01*
X103076830Y-105378062D01*
X114465998Y-105378062D01*
X114465998Y-105581940D01*
X114505772Y-105781899D01*
X114583793Y-105970257D01*
X114697061Y-106139775D01*
X114841224Y-106283938D01*
X115010742Y-106397206D01*
X115199100Y-106475227D01*
X115399059Y-106515001D01*
X115602937Y-106515001D01*
X115802896Y-106475227D01*
X115991254Y-106397206D01*
X116160772Y-106283938D01*
X116304935Y-106139775D01*
X116418203Y-105970257D01*
X116452773Y-105886798D01*
X116441979Y-105941064D01*
X116441979Y-106144942D01*
X116481753Y-106344901D01*
X116559774Y-106533259D01*
X116673042Y-106702777D01*
X116817205Y-106846940D01*
X116986723Y-106960208D01*
X117175081Y-107038229D01*
X117375040Y-107078003D01*
X117578918Y-107078003D01*
X117778877Y-107038229D01*
X117967235Y-106960208D01*
X118136753Y-106846940D01*
X118280916Y-106702777D01*
X118394184Y-106533259D01*
X118472205Y-106344901D01*
X118511979Y-106144942D01*
X118511979Y-105941064D01*
X118472205Y-105741105D01*
X118394184Y-105552747D01*
X118280916Y-105383229D01*
X118136753Y-105239066D01*
X117967235Y-105125798D01*
X117778877Y-105047777D01*
X117578918Y-105008003D01*
X117375040Y-105008003D01*
X117175081Y-105047777D01*
X116986723Y-105125798D01*
X116817205Y-105239066D01*
X116673042Y-105383229D01*
X116559774Y-105552747D01*
X116525204Y-105636206D01*
X116535998Y-105581940D01*
X116535998Y-105378062D01*
X116496224Y-105178103D01*
X116418203Y-104989745D01*
X116304935Y-104820227D01*
X116160772Y-104676064D01*
X115991254Y-104562796D01*
X115802896Y-104484775D01*
X115602937Y-104445001D01*
X115399059Y-104445001D01*
X115199100Y-104484775D01*
X115010742Y-104562796D01*
X114841224Y-104676064D01*
X114697061Y-104820227D01*
X114583793Y-104989745D01*
X114505772Y-105178103D01*
X114465998Y-105378062D01*
X103076830Y-105378062D01*
X103152205Y-105265256D01*
X103230226Y-105076898D01*
X103270000Y-104876939D01*
X103270000Y-104673061D01*
X103230226Y-104473102D01*
X103152205Y-104284744D01*
X103038937Y-104115226D01*
X102894774Y-103971063D01*
X102725256Y-103857795D01*
X102536898Y-103779774D01*
X102336939Y-103740000D01*
X102133061Y-103740000D01*
X101933102Y-103779774D01*
X101744744Y-103857795D01*
X101575226Y-103971063D01*
X101431063Y-104115226D01*
X101317795Y-104284744D01*
X101239774Y-104473102D01*
X101200000Y-104673061D01*
X97335960Y-104673061D01*
X97140349Y-104477450D01*
X96749721Y-104216440D01*
X96315679Y-104036654D01*
X95854902Y-103945000D01*
X95385098Y-103945000D01*
X94924321Y-104036654D01*
X94490279Y-104216440D01*
X94099651Y-104477450D01*
X93767450Y-104809651D01*
X93506440Y-105200279D01*
X93326654Y-105634321D01*
X93235000Y-106095098D01*
X85293709Y-106095098D01*
X85247037Y-105742967D01*
X85242000Y-105529218D01*
X85242000Y-103321726D01*
X87734728Y-103321726D01*
X87735146Y-103381547D01*
X87734728Y-103441367D01*
X87735628Y-103450538D01*
X87745992Y-103549140D01*
X87758016Y-103607714D01*
X87769229Y-103666496D01*
X87771893Y-103675317D01*
X87801211Y-103770028D01*
X87824370Y-103825119D01*
X87846798Y-103880632D01*
X87851125Y-103888768D01*
X87898280Y-103975980D01*
X87931730Y-104025571D01*
X87964486Y-104075629D01*
X87970310Y-104082770D01*
X88033507Y-104159162D01*
X88075942Y-104201301D01*
X88117805Y-104244051D01*
X88124906Y-104249925D01*
X88201737Y-104312587D01*
X88251548Y-104345681D01*
X88300921Y-104379488D01*
X88309027Y-104383870D01*
X88396566Y-104430415D01*
X88451841Y-104453197D01*
X88506851Y-104476775D01*
X88515655Y-104479500D01*
X88610568Y-104508156D01*
X88669241Y-104519773D01*
X88727758Y-104532212D01*
X88736923Y-104533175D01*
X88835594Y-104542850D01*
X88835598Y-104542850D01*
X88867581Y-104546000D01*
X91726419Y-104546000D01*
X91765579Y-104542143D01*
X91785248Y-104541911D01*
X91794401Y-104540839D01*
X91892797Y-104528624D01*
X91951120Y-104515505D01*
X92009702Y-104503185D01*
X92018472Y-104500356D01*
X92112621Y-104469261D01*
X92167311Y-104445051D01*
X92222347Y-104421604D01*
X92230400Y-104417125D01*
X92316717Y-104368336D01*
X92365648Y-104333976D01*
X92415107Y-104300268D01*
X92422137Y-104294310D01*
X92497333Y-104229684D01*
X92538676Y-104186456D01*
X92580619Y-104143811D01*
X92586358Y-104136601D01*
X92647570Y-104058601D01*
X92679724Y-104008176D01*
X92712599Y-103958172D01*
X92716829Y-103949985D01*
X92761723Y-103861580D01*
X92783468Y-103805873D01*
X92806002Y-103750444D01*
X92808561Y-103741591D01*
X92835430Y-103646150D01*
X92845945Y-103587254D01*
X92857279Y-103528531D01*
X92858070Y-103519350D01*
X92865890Y-103420508D01*
X92864766Y-103360718D01*
X92864478Y-103300878D01*
X92863470Y-103291718D01*
X92851942Y-103193239D01*
X92839223Y-103134791D01*
X92827319Y-103076161D01*
X92824551Y-103067371D01*
X92794115Y-102973007D01*
X92770288Y-102918149D01*
X92747225Y-102862951D01*
X92742802Y-102854866D01*
X92694617Y-102768211D01*
X92660586Y-102719021D01*
X92627241Y-102669353D01*
X92621336Y-102662287D01*
X92621332Y-102662281D01*
X92621327Y-102662276D01*
X92557234Y-102586636D01*
X92514279Y-102544976D01*
X92471932Y-102502742D01*
X92464762Y-102496952D01*
X92387190Y-102435198D01*
X92336959Y-102402674D01*
X92287232Y-102369480D01*
X92279074Y-102365193D01*
X92279070Y-102365191D01*
X92279067Y-102365189D01*
X92279064Y-102365188D01*
X92190986Y-102319681D01*
X92135418Y-102297541D01*
X92080158Y-102274625D01*
X92071327Y-102272006D01*
X92071321Y-102272004D01*
X91976072Y-102244470D01*
X91917315Y-102233555D01*
X91858601Y-102221798D01*
X91849426Y-102220944D01*
X91754644Y-102212780D01*
X91726419Y-102210000D01*
X88867581Y-102210000D01*
X88835100Y-102213199D01*
X88828505Y-102213199D01*
X88819341Y-102214163D01*
X88776325Y-102218988D01*
X88770617Y-102219550D01*
X88770209Y-102219674D01*
X88720815Y-102225214D01*
X88662321Y-102237647D01*
X88603621Y-102249270D01*
X88594818Y-102251995D01*
X88500315Y-102281973D01*
X88445368Y-102305524D01*
X88390027Y-102328333D01*
X88381921Y-102332716D01*
X88295041Y-102380479D01*
X88245679Y-102414278D01*
X88195857Y-102447379D01*
X88188757Y-102453253D01*
X88112807Y-102516982D01*
X88070944Y-102559732D01*
X88028508Y-102601872D01*
X88022684Y-102609014D01*
X87960560Y-102686281D01*
X87927812Y-102736326D01*
X87894355Y-102785927D01*
X87890029Y-102794064D01*
X87844096Y-102881925D01*
X87821697Y-102937365D01*
X87798508Y-102992529D01*
X87795845Y-103001351D01*
X87767852Y-103096461D01*
X87756652Y-103155172D01*
X87744613Y-103213819D01*
X87743714Y-103222990D01*
X87734728Y-103321726D01*
X85242000Y-103321726D01*
X85242000Y-101413740D01*
X96845000Y-101413740D01*
X96845000Y-101706260D01*
X96902068Y-101993158D01*
X97014010Y-102263411D01*
X97176525Y-102506632D01*
X97383368Y-102713475D01*
X97626589Y-102875990D01*
X97896842Y-102987932D01*
X98183740Y-103045000D01*
X98476260Y-103045000D01*
X98763158Y-102987932D01*
X99033411Y-102875990D01*
X99276632Y-102713475D01*
X99330000Y-102660107D01*
X99383368Y-102713475D01*
X99626589Y-102875990D01*
X99896842Y-102987932D01*
X100183740Y-103045000D01*
X100476260Y-103045000D01*
X100763158Y-102987932D01*
X101033411Y-102875990D01*
X101276632Y-102713475D01*
X101483475Y-102506632D01*
X101645990Y-102263411D01*
X101757932Y-101993158D01*
X101785679Y-101853661D01*
X105086200Y-101853661D01*
X105086200Y-102057539D01*
X105125974Y-102257498D01*
X105203995Y-102445856D01*
X105317263Y-102615374D01*
X105461426Y-102759537D01*
X105630944Y-102872805D01*
X105819302Y-102950826D01*
X106019261Y-102990600D01*
X106223139Y-102990600D01*
X106423098Y-102950826D01*
X106611456Y-102872805D01*
X106780974Y-102759537D01*
X106925137Y-102615374D01*
X106933364Y-102603061D01*
X117075000Y-102603061D01*
X117075000Y-102806939D01*
X117114774Y-103006898D01*
X117192795Y-103195256D01*
X117306063Y-103364774D01*
X117450226Y-103508937D01*
X117619744Y-103622205D01*
X117808102Y-103700226D01*
X118008061Y-103740000D01*
X118211939Y-103740000D01*
X118380411Y-103706489D01*
X118438840Y-103847549D01*
X118552108Y-104017067D01*
X118696271Y-104161230D01*
X118865789Y-104274498D01*
X119054147Y-104352519D01*
X119254106Y-104392293D01*
X119457984Y-104392293D01*
X119657943Y-104352519D01*
X119846301Y-104274498D01*
X120015819Y-104161230D01*
X120159982Y-104017067D01*
X120273250Y-103847549D01*
X120351271Y-103659191D01*
X120391045Y-103459232D01*
X120391045Y-103255354D01*
X120351271Y-103055395D01*
X120273250Y-102867037D01*
X120159982Y-102697519D01*
X120015819Y-102553356D01*
X119846301Y-102440088D01*
X119657943Y-102362067D01*
X119457984Y-102322293D01*
X119254106Y-102322293D01*
X119085634Y-102355804D01*
X119027205Y-102214744D01*
X118955767Y-102107829D01*
X119096301Y-102049618D01*
X119265819Y-101936350D01*
X119409982Y-101792187D01*
X119523250Y-101622669D01*
X119546590Y-101566323D01*
X119605795Y-101709256D01*
X119719063Y-101878774D01*
X119863226Y-102022937D01*
X120032744Y-102136205D01*
X120221102Y-102214226D01*
X120421061Y-102254000D01*
X120624939Y-102254000D01*
X120824898Y-102214226D01*
X121013256Y-102136205D01*
X121182774Y-102022937D01*
X121326937Y-101878774D01*
X121440205Y-101709256D01*
X121518226Y-101520898D01*
X121558000Y-101320939D01*
X121558000Y-101117061D01*
X121518226Y-100917102D01*
X121440205Y-100728744D01*
X121326937Y-100559226D01*
X121182774Y-100415063D01*
X121013256Y-100301795D01*
X120824898Y-100223774D01*
X120624939Y-100184000D01*
X120421061Y-100184000D01*
X120221102Y-100223774D01*
X120032744Y-100301795D01*
X119863226Y-100415063D01*
X119719063Y-100559226D01*
X119605795Y-100728744D01*
X119582455Y-100785090D01*
X119523250Y-100642157D01*
X119409982Y-100472639D01*
X119265819Y-100328476D01*
X119096301Y-100215208D01*
X118907943Y-100137187D01*
X118707984Y-100097413D01*
X118504106Y-100097413D01*
X118304147Y-100137187D01*
X118115789Y-100215208D01*
X117946271Y-100328476D01*
X117802108Y-100472639D01*
X117688840Y-100642157D01*
X117610819Y-100830515D01*
X117571045Y-101030474D01*
X117571045Y-101234352D01*
X117610819Y-101434311D01*
X117688840Y-101622669D01*
X117760278Y-101729584D01*
X117619744Y-101787795D01*
X117450226Y-101901063D01*
X117306063Y-102045226D01*
X117192795Y-102214744D01*
X117114774Y-102403102D01*
X117075000Y-102603061D01*
X106933364Y-102603061D01*
X107038405Y-102445856D01*
X107116426Y-102257498D01*
X107156200Y-102057539D01*
X107156200Y-101853661D01*
X107139177Y-101768079D01*
X107170256Y-101755205D01*
X107339774Y-101641937D01*
X107483937Y-101497774D01*
X107597205Y-101328256D01*
X107675226Y-101139898D01*
X107715000Y-100939939D01*
X107715000Y-100736061D01*
X107675226Y-100536102D01*
X107597205Y-100347744D01*
X107483937Y-100178226D01*
X107339774Y-100034063D01*
X107170256Y-99920795D01*
X106981898Y-99842774D01*
X106781939Y-99803000D01*
X106578061Y-99803000D01*
X106378102Y-99842774D01*
X106189744Y-99920795D01*
X106020226Y-100034063D01*
X105876063Y-100178226D01*
X105762795Y-100347744D01*
X105684774Y-100536102D01*
X105645000Y-100736061D01*
X105645000Y-100939939D01*
X105662023Y-101025521D01*
X105630944Y-101038395D01*
X105461426Y-101151663D01*
X105317263Y-101295826D01*
X105203995Y-101465344D01*
X105125974Y-101653702D01*
X105086200Y-101853661D01*
X101785679Y-101853661D01*
X101815000Y-101706260D01*
X101815000Y-101413740D01*
X101757932Y-101126842D01*
X101645990Y-100856589D01*
X101483475Y-100613368D01*
X101382310Y-100512203D01*
X101424180Y-100499502D01*
X101534494Y-100440537D01*
X101631185Y-100361185D01*
X101710537Y-100264494D01*
X101769502Y-100154180D01*
X101805812Y-100034482D01*
X101818072Y-99910000D01*
X101818072Y-98210000D01*
X101805812Y-98085518D01*
X101769502Y-97965820D01*
X101710537Y-97855506D01*
X101631185Y-97758815D01*
X101534494Y-97679463D01*
X101424180Y-97620498D01*
X101304482Y-97584188D01*
X101180000Y-97571928D01*
X99480000Y-97571928D01*
X99355518Y-97584188D01*
X99235820Y-97620498D01*
X99125506Y-97679463D01*
X99037124Y-97751996D01*
X98837117Y-97656629D01*
X98553589Y-97584661D01*
X98261469Y-97569389D01*
X97971981Y-97611401D01*
X97696253Y-97709081D01*
X97558843Y-97782528D01*
X97481208Y-98031603D01*
X98330000Y-98880395D01*
X98344143Y-98866253D01*
X98523748Y-99045858D01*
X98509605Y-99060000D01*
X98523748Y-99074143D01*
X98344143Y-99253748D01*
X98330000Y-99239605D01*
X97481208Y-100088397D01*
X97546410Y-100297584D01*
X97383368Y-100406525D01*
X97176525Y-100613368D01*
X97014010Y-100856589D01*
X96902068Y-101126842D01*
X96845000Y-101413740D01*
X85242000Y-101413740D01*
X85242000Y-99128531D01*
X96839389Y-99128531D01*
X96881401Y-99418019D01*
X96979081Y-99693747D01*
X97052528Y-99831157D01*
X97301603Y-99908792D01*
X98150395Y-99060000D01*
X97301603Y-98211208D01*
X97052528Y-98288843D01*
X96926629Y-98552883D01*
X96854661Y-98836411D01*
X96839389Y-99128531D01*
X85242000Y-99128531D01*
X85242000Y-97225675D01*
X87742728Y-97225675D01*
X87743146Y-97285492D01*
X87742728Y-97345308D01*
X87743627Y-97354479D01*
X87753827Y-97451527D01*
X87765861Y-97510152D01*
X87777064Y-97568884D01*
X87779728Y-97577706D01*
X87808584Y-97670925D01*
X87831767Y-97726075D01*
X87854175Y-97781537D01*
X87858502Y-97789673D01*
X87904914Y-97875511D01*
X87938362Y-97925098D01*
X87971119Y-97975156D01*
X87976943Y-97982297D01*
X88039145Y-98057486D01*
X88081594Y-98099639D01*
X88123439Y-98142371D01*
X88130540Y-98148245D01*
X88206160Y-98209921D01*
X88256025Y-98243052D01*
X88305350Y-98276825D01*
X88313445Y-98281202D01*
X88313448Y-98281204D01*
X88313451Y-98281205D01*
X88313456Y-98281208D01*
X88399617Y-98327020D01*
X88454909Y-98349809D01*
X88509898Y-98373378D01*
X88518701Y-98376103D01*
X88612119Y-98404308D01*
X88670826Y-98415933D01*
X88729316Y-98428365D01*
X88738470Y-98429327D01*
X88738476Y-98429328D01*
X88738481Y-98429328D01*
X88834737Y-98438766D01*
X88865692Y-98441904D01*
X91724528Y-98450090D01*
X91758930Y-98446801D01*
X91765495Y-98446801D01*
X91774659Y-98445837D01*
X91807269Y-98442179D01*
X91821519Y-98440817D01*
X91822773Y-98440440D01*
X91873186Y-98434786D01*
X91931687Y-98422351D01*
X91990379Y-98410730D01*
X91999182Y-98408005D01*
X92093686Y-98378027D01*
X92148671Y-98354460D01*
X92203972Y-98331667D01*
X92212078Y-98327284D01*
X92298959Y-98279521D01*
X92348306Y-98245733D01*
X92398143Y-98212621D01*
X92405244Y-98206747D01*
X92481193Y-98143017D01*
X92523037Y-98100287D01*
X92565492Y-98058128D01*
X92571316Y-98050986D01*
X92633440Y-97973720D01*
X92666200Y-97923657D01*
X92699645Y-97874073D01*
X92703971Y-97865937D01*
X92749904Y-97778075D01*
X92772303Y-97722635D01*
X92795492Y-97667471D01*
X92798155Y-97658649D01*
X92826148Y-97563539D01*
X92837348Y-97504828D01*
X92849387Y-97446181D01*
X92850286Y-97437010D01*
X92859272Y-97338274D01*
X92858854Y-97278453D01*
X92859272Y-97218633D01*
X92858372Y-97209462D01*
X92855282Y-97180061D01*
X118345000Y-97180061D01*
X118345000Y-97383939D01*
X118384774Y-97583898D01*
X118462795Y-97772256D01*
X118576063Y-97941774D01*
X118720226Y-98085937D01*
X118889744Y-98199205D01*
X119078102Y-98277226D01*
X119135381Y-98288619D01*
X119146774Y-98345898D01*
X119224795Y-98534256D01*
X119338063Y-98703774D01*
X119482226Y-98847937D01*
X119651744Y-98961205D01*
X119840102Y-99039226D01*
X120040061Y-99079000D01*
X120243939Y-99079000D01*
X120443898Y-99039226D01*
X120632256Y-98961205D01*
X120801774Y-98847937D01*
X120945937Y-98703774D01*
X121059205Y-98534256D01*
X121137226Y-98345898D01*
X121177000Y-98145939D01*
X121177000Y-97942061D01*
X121137226Y-97742102D01*
X121059205Y-97553744D01*
X120945937Y-97384226D01*
X120801774Y-97240063D01*
X120632256Y-97126795D01*
X120443898Y-97048774D01*
X120386619Y-97037381D01*
X120375226Y-96980102D01*
X120297205Y-96791744D01*
X120183937Y-96622226D01*
X120039774Y-96478063D01*
X119870256Y-96364795D01*
X119681898Y-96286774D01*
X119481939Y-96247000D01*
X119278061Y-96247000D01*
X119078102Y-96286774D01*
X118889744Y-96364795D01*
X118720226Y-96478063D01*
X118576063Y-96622226D01*
X118462795Y-96791744D01*
X118384774Y-96980102D01*
X118345000Y-97180061D01*
X92855282Y-97180061D01*
X92848008Y-97110860D01*
X92835984Y-97052286D01*
X92824771Y-96993504D01*
X92822107Y-96984683D01*
X92792789Y-96889973D01*
X92769636Y-96834895D01*
X92747202Y-96779368D01*
X92742875Y-96771232D01*
X92695720Y-96684020D01*
X92662270Y-96634429D01*
X92629514Y-96584371D01*
X92623689Y-96577230D01*
X92560493Y-96500838D01*
X92518058Y-96458699D01*
X92476195Y-96415949D01*
X92469094Y-96410075D01*
X92392263Y-96347413D01*
X92342467Y-96314329D01*
X92293079Y-96280512D01*
X92284973Y-96276130D01*
X92197434Y-96229585D01*
X92142159Y-96206803D01*
X92087149Y-96183225D01*
X92078346Y-96180500D01*
X91983432Y-96151844D01*
X91924752Y-96140225D01*
X91866242Y-96127788D01*
X91857077Y-96126825D01*
X91822288Y-96123414D01*
X91821519Y-96123183D01*
X91724528Y-96113910D01*
X88865692Y-96122096D01*
X88835095Y-96125198D01*
X88828617Y-96125198D01*
X88819453Y-96126162D01*
X88722478Y-96137039D01*
X88663984Y-96149472D01*
X88605284Y-96161095D01*
X88596481Y-96163820D01*
X88503465Y-96193326D01*
X88448505Y-96216882D01*
X88393178Y-96239686D01*
X88385072Y-96244069D01*
X88299559Y-96291080D01*
X88250208Y-96324872D01*
X88200374Y-96357982D01*
X88193274Y-96363856D01*
X88118522Y-96426581D01*
X88076695Y-96469294D01*
X88034226Y-96511467D01*
X88028402Y-96518609D01*
X87967256Y-96594659D01*
X87934535Y-96644661D01*
X87901049Y-96694306D01*
X87896723Y-96702443D01*
X87851513Y-96788922D01*
X87829104Y-96844388D01*
X87805925Y-96899527D01*
X87803262Y-96908349D01*
X87775710Y-97001961D01*
X87764508Y-97060682D01*
X87752471Y-97119322D01*
X87751572Y-97128493D01*
X87742728Y-97225675D01*
X85242000Y-97225675D01*
X85242000Y-95023952D01*
X85312975Y-94187482D01*
X85347335Y-94055098D01*
X93235000Y-94055098D01*
X93235000Y-94524902D01*
X93326654Y-94985679D01*
X93506440Y-95419721D01*
X93767450Y-95810349D01*
X94099651Y-96142550D01*
X94490279Y-96403560D01*
X94924321Y-96583346D01*
X95385098Y-96675000D01*
X95854902Y-96675000D01*
X96315679Y-96583346D01*
X96749721Y-96403560D01*
X97140349Y-96142550D01*
X97472550Y-95810349D01*
X97733560Y-95419721D01*
X97913346Y-94985679D01*
X98005000Y-94524902D01*
X98005000Y-94085712D01*
X104376600Y-94085712D01*
X104376600Y-94309288D01*
X104420217Y-94528567D01*
X104505776Y-94735124D01*
X104629988Y-94921020D01*
X104788080Y-95079112D01*
X104973976Y-95203324D01*
X105073576Y-95244580D01*
X105046000Y-95383212D01*
X105046000Y-95606788D01*
X105089617Y-95826067D01*
X105175176Y-96032624D01*
X105299388Y-96218520D01*
X105457480Y-96376612D01*
X105643376Y-96500824D01*
X105849933Y-96586383D01*
X106069212Y-96630000D01*
X106292788Y-96630000D01*
X106512067Y-96586383D01*
X106718624Y-96500824D01*
X106904520Y-96376612D01*
X107062612Y-96218520D01*
X107186824Y-96032624D01*
X107272383Y-95826067D01*
X107316000Y-95606788D01*
X107316000Y-95402061D01*
X119615000Y-95402061D01*
X119615000Y-95605939D01*
X119654774Y-95805898D01*
X119732795Y-95994256D01*
X119846063Y-96163774D01*
X119990226Y-96307937D01*
X120159744Y-96421205D01*
X120348102Y-96499226D01*
X120548061Y-96539000D01*
X120751939Y-96539000D01*
X120951898Y-96499226D01*
X121140256Y-96421205D01*
X121309774Y-96307937D01*
X121453937Y-96163774D01*
X121567205Y-95994256D01*
X121645226Y-95805898D01*
X121685000Y-95605939D01*
X121685000Y-95402061D01*
X121645226Y-95202102D01*
X121567205Y-95013744D01*
X121453937Y-94844226D01*
X121309774Y-94700063D01*
X121140256Y-94586795D01*
X120951898Y-94508774D01*
X120751939Y-94469000D01*
X120548061Y-94469000D01*
X120348102Y-94508774D01*
X120159744Y-94586795D01*
X119990226Y-94700063D01*
X119846063Y-94844226D01*
X119732795Y-95013744D01*
X119654774Y-95202102D01*
X119615000Y-95402061D01*
X107316000Y-95402061D01*
X107316000Y-95383212D01*
X107272383Y-95163933D01*
X107186824Y-94957376D01*
X107062612Y-94771480D01*
X106904520Y-94613388D01*
X106718624Y-94489176D01*
X106619024Y-94447920D01*
X106646600Y-94309288D01*
X106646600Y-94085712D01*
X106602983Y-93866433D01*
X106517424Y-93659876D01*
X106493494Y-93624061D01*
X115551000Y-93624061D01*
X115551000Y-93827939D01*
X115590774Y-94027898D01*
X115668795Y-94216256D01*
X115782063Y-94385774D01*
X115926226Y-94529937D01*
X116095744Y-94643205D01*
X116284102Y-94721226D01*
X116484061Y-94761000D01*
X116687939Y-94761000D01*
X116887898Y-94721226D01*
X117076256Y-94643205D01*
X117245774Y-94529937D01*
X117283596Y-94492115D01*
X117287796Y-94502255D01*
X117401064Y-94671773D01*
X117545227Y-94815936D01*
X117714745Y-94929204D01*
X117903103Y-95007225D01*
X118103062Y-95046999D01*
X118306940Y-95046999D01*
X118506899Y-95007225D01*
X118695257Y-94929204D01*
X118864775Y-94815936D01*
X119008938Y-94671773D01*
X119122206Y-94502255D01*
X119200227Y-94313897D01*
X119240001Y-94113938D01*
X119240001Y-93910060D01*
X119200227Y-93710101D01*
X119122206Y-93521743D01*
X119008938Y-93352225D01*
X118864775Y-93208062D01*
X118695257Y-93094794D01*
X118506899Y-93016773D01*
X118306940Y-92976999D01*
X118103062Y-92976999D01*
X117903103Y-93016773D01*
X117714745Y-93094794D01*
X117545227Y-93208062D01*
X117507405Y-93245884D01*
X117503205Y-93235744D01*
X117389937Y-93066226D01*
X117245774Y-92922063D01*
X117076256Y-92808795D01*
X116887898Y-92730774D01*
X116687939Y-92691000D01*
X116484061Y-92691000D01*
X116284102Y-92730774D01*
X116095744Y-92808795D01*
X115926226Y-92922063D01*
X115782063Y-93066226D01*
X115668795Y-93235744D01*
X115590774Y-93424102D01*
X115551000Y-93624061D01*
X106493494Y-93624061D01*
X106393212Y-93473980D01*
X106235120Y-93315888D01*
X106164034Y-93268390D01*
X106231212Y-93296216D01*
X106431171Y-93335990D01*
X106635049Y-93335990D01*
X106835008Y-93296216D01*
X107023366Y-93218195D01*
X107128560Y-93147907D01*
X107233754Y-93218195D01*
X107422112Y-93296216D01*
X107622071Y-93335990D01*
X107825949Y-93335990D01*
X108025908Y-93296216D01*
X108214266Y-93218195D01*
X108359010Y-93121480D01*
X108503754Y-93218195D01*
X108692112Y-93296216D01*
X108892071Y-93335990D01*
X109095949Y-93335990D01*
X109295908Y-93296216D01*
X109484266Y-93218195D01*
X109629010Y-93121480D01*
X109773754Y-93218195D01*
X109962112Y-93296216D01*
X110162071Y-93335990D01*
X110365949Y-93335990D01*
X110565908Y-93296216D01*
X110754266Y-93218195D01*
X110923784Y-93104927D01*
X111067947Y-92960764D01*
X111181215Y-92791246D01*
X111259236Y-92602888D01*
X111299010Y-92402929D01*
X111299010Y-92199051D01*
X111259236Y-91999092D01*
X111181215Y-91810734D01*
X111067947Y-91641216D01*
X110923784Y-91497053D01*
X110754266Y-91383785D01*
X110565908Y-91305764D01*
X110365949Y-91265990D01*
X110162071Y-91265990D01*
X109962112Y-91305764D01*
X109773754Y-91383785D01*
X109629010Y-91480500D01*
X109484266Y-91383785D01*
X109295908Y-91305764D01*
X109095949Y-91265990D01*
X108892071Y-91265990D01*
X108692112Y-91305764D01*
X108503754Y-91383785D01*
X108359010Y-91480500D01*
X108214266Y-91383785D01*
X108025908Y-91305764D01*
X107825949Y-91265990D01*
X107622071Y-91265990D01*
X107422112Y-91305764D01*
X107233754Y-91383785D01*
X107128560Y-91454073D01*
X107023366Y-91383785D01*
X106835008Y-91305764D01*
X106635049Y-91265990D01*
X106431171Y-91265990D01*
X106231212Y-91305764D01*
X106042854Y-91383785D01*
X105873336Y-91497053D01*
X105729173Y-91641216D01*
X105615905Y-91810734D01*
X105537884Y-91999092D01*
X105498110Y-92199051D01*
X105498110Y-92402929D01*
X105537884Y-92602888D01*
X105615905Y-92791246D01*
X105729173Y-92960764D01*
X105873336Y-93104927D01*
X105928043Y-93141481D01*
X105842667Y-93106117D01*
X105623388Y-93062500D01*
X105399812Y-93062500D01*
X105180533Y-93106117D01*
X104973976Y-93191676D01*
X104788080Y-93315888D01*
X104629988Y-93473980D01*
X104505776Y-93659876D01*
X104420217Y-93866433D01*
X104376600Y-94085712D01*
X98005000Y-94085712D01*
X98005000Y-94055098D01*
X97913346Y-93594321D01*
X97733560Y-93160279D01*
X97472550Y-92769651D01*
X97140349Y-92437450D01*
X96749721Y-92176440D01*
X96315679Y-91996654D01*
X95854902Y-91905000D01*
X95385098Y-91905000D01*
X94924321Y-91996654D01*
X94490279Y-92176440D01*
X94099651Y-92437450D01*
X93767450Y-92769651D01*
X93506440Y-93160279D01*
X93326654Y-93594321D01*
X93235000Y-94055098D01*
X85347335Y-94055098D01*
X85516825Y-93402082D01*
X85850092Y-92662258D01*
X86303248Y-91989160D01*
X86863332Y-91402041D01*
X87514335Y-90917681D01*
X88237642Y-90549932D01*
X89012563Y-90309313D01*
X89837033Y-90200037D01*
X90050782Y-90195000D01*
X122809000Y-90195000D01*
X122809000Y-110338000D01*
G37*
G04 #@! TD.AperFunction*
D16*
X131162795Y-90314744D02*
X131084774Y-90503102D01*
X131045000Y-90703061D01*
X131045000Y-90906939D01*
X131084774Y-91106898D01*
X131162795Y-91295256D01*
X131259510Y-91440000D01*
X131162795Y-91584744D01*
X131084774Y-91773102D01*
X131045000Y-91973061D01*
X131045000Y-92176939D01*
X131084774Y-92376898D01*
X131162795Y-92565256D01*
X131259510Y-92710000D01*
X131162795Y-92854744D01*
X131084774Y-93043102D01*
X131045000Y-93243061D01*
X131045000Y-93446939D01*
X131084774Y-93646898D01*
X131162795Y-93835256D01*
X131276063Y-94004774D01*
X131420226Y-94148937D01*
X131589744Y-94262205D01*
X131778102Y-94340226D01*
X131978061Y-94380000D01*
X132181939Y-94380000D01*
X132381898Y-94340226D01*
X132570256Y-94262205D01*
X132715000Y-94165490D01*
X132859744Y-94262205D01*
X133048102Y-94340226D01*
X133248061Y-94380000D01*
X133451939Y-94380000D01*
X133651898Y-94340226D01*
X133840256Y-94262205D01*
X133985000Y-94165490D01*
X134129744Y-94262205D01*
X134318102Y-94340226D01*
X134518061Y-94380000D01*
X134721939Y-94380000D01*
X134921898Y-94340226D01*
X135110256Y-94262205D01*
X135255000Y-94165490D01*
X135399744Y-94262205D01*
X135588102Y-94340226D01*
X135788061Y-94380000D01*
X135991939Y-94380000D01*
X136191898Y-94340226D01*
X136380256Y-94262205D01*
X136549774Y-94148937D01*
X136693937Y-94004774D01*
X136807205Y-93835256D01*
X136885226Y-93646898D01*
X136925000Y-93446939D01*
X136925000Y-93243061D01*
X136891961Y-93076961D01*
X137058061Y-93110000D01*
X137261939Y-93110000D01*
X137428039Y-93076961D01*
X137395000Y-93243061D01*
X137395000Y-93446939D01*
X137434774Y-93646898D01*
X137512795Y-93835256D01*
X137626063Y-94004774D01*
X137770226Y-94148937D01*
X137939744Y-94262205D01*
X138128102Y-94340226D01*
X138328061Y-94380000D01*
X138531939Y-94380000D01*
X138731898Y-94340226D01*
X138920256Y-94262205D01*
X139089774Y-94148937D01*
X139233937Y-94004774D01*
X139347205Y-93835256D01*
X139425226Y-93646898D01*
X139465000Y-93446939D01*
X139465000Y-93243061D01*
X139425226Y-93043102D01*
X139347205Y-92854744D01*
X139250490Y-92710000D01*
X139347205Y-92565256D01*
X139425226Y-92376898D01*
X139465000Y-92176939D01*
X139465000Y-91973061D01*
X139425226Y-91773102D01*
X139347205Y-91584744D01*
X139250490Y-91440000D01*
X139347205Y-91295256D01*
X139425226Y-91106898D01*
X139465000Y-90906939D01*
X139465000Y-90703061D01*
X139425226Y-90503102D01*
X139347205Y-90314744D01*
X139267195Y-90195000D01*
X141386289Y-90195000D01*
X141309063Y-90272226D01*
X141195795Y-90441744D01*
X141117774Y-90630102D01*
X141078000Y-90830061D01*
X141078000Y-91033939D01*
X141117774Y-91233898D01*
X141195795Y-91422256D01*
X141309063Y-91591774D01*
X141453226Y-91735937D01*
X141622744Y-91849205D01*
X141811102Y-91927226D01*
X142011061Y-91967000D01*
X142094000Y-91967000D01*
X142094000Y-92049939D01*
X142133774Y-92249898D01*
X142211795Y-92438256D01*
X142325063Y-92607774D01*
X142469226Y-92751937D01*
X142638744Y-92865205D01*
X142827102Y-92943226D01*
X143027061Y-92983000D01*
X143230939Y-92983000D01*
X143293928Y-92970471D01*
X143293928Y-93437000D01*
X143310992Y-93610254D01*
X143361528Y-93776850D01*
X143443595Y-93930386D01*
X143554038Y-94064962D01*
X143688614Y-94175405D01*
X143790337Y-94229777D01*
X143726866Y-94281866D01*
X143541294Y-94507986D01*
X143403401Y-94765966D01*
X143318487Y-95045889D01*
X143289815Y-95337000D01*
X143318487Y-95628111D01*
X143403401Y-95908034D01*
X143541294Y-96166014D01*
X143726866Y-96392134D01*
X143952986Y-96577706D01*
X143970374Y-96587000D01*
X143952986Y-96596294D01*
X143726866Y-96781866D01*
X143541294Y-97007986D01*
X143403401Y-97265966D01*
X143318487Y-97545889D01*
X143289815Y-97837000D01*
X143318487Y-98128111D01*
X143403401Y-98408034D01*
X143541294Y-98666014D01*
X143726866Y-98892134D01*
X143952986Y-99077706D01*
X143970374Y-99087000D01*
X143952986Y-99096294D01*
X143726866Y-99281866D01*
X143541294Y-99507986D01*
X143403401Y-99765966D01*
X143318487Y-100045889D01*
X143289815Y-100337000D01*
X143318487Y-100628111D01*
X143403401Y-100908034D01*
X143541294Y-101166014D01*
X143726866Y-101392134D01*
X143952986Y-101577706D01*
X143978722Y-101591462D01*
X143772571Y-101747951D01*
X143579504Y-101965807D01*
X143432648Y-102217142D01*
X143340524Y-102480110D01*
X143461845Y-102710000D01*
X144780000Y-102710000D01*
X144780000Y-102690000D01*
X145034000Y-102690000D01*
X145034000Y-102710000D01*
X146352155Y-102710000D01*
X146473476Y-102480110D01*
X146381352Y-102217142D01*
X146234496Y-101965807D01*
X146041429Y-101747951D01*
X145835278Y-101591462D01*
X145861014Y-101577706D01*
X146087134Y-101392134D01*
X146272706Y-101166014D01*
X146410599Y-100908034D01*
X146495513Y-100628111D01*
X146524185Y-100337000D01*
X146495513Y-100045889D01*
X146410599Y-99765966D01*
X146272706Y-99507986D01*
X146087134Y-99281866D01*
X145861014Y-99096294D01*
X145843626Y-99087000D01*
X145861014Y-99077706D01*
X146087134Y-98892134D01*
X146272706Y-98666014D01*
X146410599Y-98408034D01*
X146495513Y-98128111D01*
X146524185Y-97837000D01*
X146495513Y-97545889D01*
X146410599Y-97265966D01*
X146389064Y-97225675D01*
X151496728Y-97225675D01*
X151497146Y-97285491D01*
X151496728Y-97345308D01*
X151497627Y-97354479D01*
X151507827Y-97451527D01*
X151519861Y-97510152D01*
X151531064Y-97568884D01*
X151533728Y-97577706D01*
X151562584Y-97670925D01*
X151585767Y-97726075D01*
X151608175Y-97781537D01*
X151612502Y-97789673D01*
X151658914Y-97875511D01*
X151692362Y-97925098D01*
X151725119Y-97975156D01*
X151730943Y-97982297D01*
X151793145Y-98057486D01*
X151835594Y-98099639D01*
X151877439Y-98142371D01*
X151884540Y-98148245D01*
X151960160Y-98209921D01*
X152010025Y-98243052D01*
X152059350Y-98276825D01*
X152067445Y-98281202D01*
X152067448Y-98281204D01*
X152067451Y-98281205D01*
X152067456Y-98281208D01*
X152153617Y-98327020D01*
X152208909Y-98349809D01*
X152263898Y-98373378D01*
X152272701Y-98376103D01*
X152366119Y-98404308D01*
X152424826Y-98415933D01*
X152483316Y-98428365D01*
X152492470Y-98429327D01*
X152492476Y-98429328D01*
X152492481Y-98429328D01*
X152589598Y-98438850D01*
X152621581Y-98442000D01*
X155480419Y-98442000D01*
X155512890Y-98438802D01*
X155519383Y-98438802D01*
X155528547Y-98437838D01*
X155570831Y-98433095D01*
X155577383Y-98432450D01*
X155577852Y-98432308D01*
X155625522Y-98426961D01*
X155684002Y-98414531D01*
X155742717Y-98402905D01*
X155751520Y-98400180D01*
X155844535Y-98370674D01*
X155899495Y-98347118D01*
X155954822Y-98324314D01*
X155962928Y-98319931D01*
X156048440Y-98272920D01*
X156097771Y-98239143D01*
X156147626Y-98206019D01*
X156154719Y-98200149D01*
X156154723Y-98200147D01*
X156154726Y-98200144D01*
X156229478Y-98137419D01*
X156271321Y-98094690D01*
X156313774Y-98052533D01*
X156319598Y-98045391D01*
X156319601Y-98045388D01*
X156319604Y-98045384D01*
X156380744Y-97969341D01*
X156413487Y-97919305D01*
X156446951Y-97869693D01*
X156451277Y-97861557D01*
X156496487Y-97775077D01*
X156518890Y-97719626D01*
X156542075Y-97664473D01*
X156544738Y-97655651D01*
X156572290Y-97562040D01*
X156583496Y-97503297D01*
X156595529Y-97444678D01*
X156596428Y-97435507D01*
X156605272Y-97338324D01*
X156604854Y-97278509D01*
X156605272Y-97218693D01*
X156604373Y-97209522D01*
X156594173Y-97112473D01*
X156582140Y-97053854D01*
X156570936Y-96995116D01*
X156568272Y-96986294D01*
X156539416Y-96893075D01*
X156516238Y-96837937D01*
X156493825Y-96782463D01*
X156489498Y-96774327D01*
X156443085Y-96688489D01*
X156409645Y-96638913D01*
X156376881Y-96588844D01*
X156371057Y-96581703D01*
X156308855Y-96506514D01*
X156266406Y-96464361D01*
X156224561Y-96421629D01*
X156217460Y-96415755D01*
X156141839Y-96354079D01*
X156092034Y-96320988D01*
X156042650Y-96287174D01*
X156034544Y-96282792D01*
X155948383Y-96236980D01*
X155893091Y-96214191D01*
X155838102Y-96190622D01*
X155829299Y-96187897D01*
X155735881Y-96159692D01*
X155677174Y-96148067D01*
X155618684Y-96135635D01*
X155609530Y-96134673D01*
X155609524Y-96134672D01*
X155609519Y-96134672D01*
X155512402Y-96125150D01*
X155480419Y-96122000D01*
X152621581Y-96122000D01*
X152589110Y-96125198D01*
X152582617Y-96125198D01*
X152573453Y-96126162D01*
X152531169Y-96130905D01*
X152524617Y-96131550D01*
X152524148Y-96131692D01*
X152476478Y-96137039D01*
X152417984Y-96149472D01*
X152359284Y-96161095D01*
X152350481Y-96163820D01*
X152257465Y-96193326D01*
X152202505Y-96216882D01*
X152147178Y-96239686D01*
X152139072Y-96244069D01*
X152053559Y-96291080D01*
X152004208Y-96324872D01*
X151954374Y-96357982D01*
X151947274Y-96363856D01*
X151872522Y-96426581D01*
X151830695Y-96469294D01*
X151788226Y-96511467D01*
X151782402Y-96518609D01*
X151721256Y-96594659D01*
X151688535Y-96644661D01*
X151655049Y-96694306D01*
X151650723Y-96702443D01*
X151605513Y-96788922D01*
X151583104Y-96844388D01*
X151559925Y-96899527D01*
X151557262Y-96908349D01*
X151529710Y-97001961D01*
X151518508Y-97060682D01*
X151506471Y-97119322D01*
X151505572Y-97128493D01*
X151496728Y-97225675D01*
X146389064Y-97225675D01*
X146272706Y-97007986D01*
X146087134Y-96781866D01*
X145861014Y-96596294D01*
X145843626Y-96587000D01*
X145861014Y-96577706D01*
X146087134Y-96392134D01*
X146272706Y-96166014D01*
X146410599Y-95908034D01*
X146495513Y-95628111D01*
X146524185Y-95337000D01*
X146495513Y-95045889D01*
X146410599Y-94765966D01*
X146272706Y-94507986D01*
X146087134Y-94281866D01*
X146023663Y-94229777D01*
X146125386Y-94175405D01*
X146259962Y-94064962D01*
X146370405Y-93930386D01*
X146452472Y-93776850D01*
X146503008Y-93610254D01*
X146520072Y-93437000D01*
X146520072Y-92237000D01*
X146503008Y-92063746D01*
X146452472Y-91897150D01*
X146370405Y-91743614D01*
X146259962Y-91609038D01*
X146125386Y-91498595D01*
X145971850Y-91416528D01*
X145805254Y-91365992D01*
X145632000Y-91348928D01*
X144182000Y-91348928D01*
X144008746Y-91365992D01*
X143988917Y-91372007D01*
X143932937Y-91288226D01*
X143788774Y-91144063D01*
X143619256Y-91030795D01*
X143430898Y-90952774D01*
X143230939Y-90913000D01*
X143148000Y-90913000D01*
X143148000Y-90830061D01*
X143108226Y-90630102D01*
X143030205Y-90441744D01*
X142916937Y-90272226D01*
X142839711Y-90195000D01*
X155292179Y-90195000D01*
X156132196Y-90268492D01*
X156918743Y-90479247D01*
X157656739Y-90823380D01*
X158323769Y-91290439D01*
X158899560Y-91866231D01*
X159366622Y-92533263D01*
X159710754Y-93271262D01*
X159921509Y-94057806D01*
X159995000Y-94897821D01*
X159995001Y-105635168D01*
X159921509Y-106475194D01*
X159710754Y-107261738D01*
X159366622Y-107999737D01*
X158899560Y-108666769D01*
X158323769Y-109242561D01*
X157656739Y-109709620D01*
X156918743Y-110053753D01*
X156132196Y-110264508D01*
X155292179Y-110338000D01*
X123571000Y-110338000D01*
X123571000Y-107848061D01*
X138030000Y-107848061D01*
X138030000Y-108051939D01*
X138069774Y-108251898D01*
X138147795Y-108440256D01*
X138261063Y-108609774D01*
X138405226Y-108753937D01*
X138574744Y-108867205D01*
X138763102Y-108945226D01*
X138963061Y-108985000D01*
X139166939Y-108985000D01*
X139366898Y-108945226D01*
X139555256Y-108867205D01*
X139724774Y-108753937D01*
X139868937Y-108609774D01*
X139982205Y-108440256D01*
X140060226Y-108251898D01*
X140100000Y-108051939D01*
X140100000Y-107848061D01*
X140060226Y-107648102D01*
X139982205Y-107459744D01*
X139868937Y-107290226D01*
X139724774Y-107146063D01*
X139555256Y-107032795D01*
X139366898Y-106954774D01*
X139166939Y-106915000D01*
X138963061Y-106915000D01*
X138763102Y-106954774D01*
X138574744Y-107032795D01*
X138405226Y-107146063D01*
X138261063Y-107290226D01*
X138147795Y-107459744D01*
X138069774Y-107648102D01*
X138030000Y-107848061D01*
X123571000Y-107848061D01*
X123571000Y-104695392D01*
X131575331Y-104695392D01*
X131575331Y-104899270D01*
X131615105Y-105099229D01*
X131693126Y-105287587D01*
X131806394Y-105457105D01*
X131950557Y-105601268D01*
X132120075Y-105714536D01*
X132308433Y-105792557D01*
X132508392Y-105832331D01*
X132712270Y-105832331D01*
X132912229Y-105792557D01*
X133100587Y-105714536D01*
X133270105Y-105601268D01*
X133414268Y-105457105D01*
X133527536Y-105287587D01*
X133561926Y-105204561D01*
X138133500Y-105204561D01*
X138133500Y-105408439D01*
X138173274Y-105608398D01*
X138251295Y-105796756D01*
X138364563Y-105966274D01*
X138508726Y-106110437D01*
X138678244Y-106223705D01*
X138866602Y-106301726D01*
X139066561Y-106341500D01*
X139270439Y-106341500D01*
X139470398Y-106301726D01*
X139658756Y-106223705D01*
X139828274Y-106110437D01*
X139972437Y-105966274D01*
X140085705Y-105796756D01*
X140163726Y-105608398D01*
X140203500Y-105408439D01*
X140203500Y-105337000D01*
X143289815Y-105337000D01*
X143318487Y-105628111D01*
X143403401Y-105908034D01*
X143541294Y-106166014D01*
X143726866Y-106392134D01*
X143952986Y-106577706D01*
X143970374Y-106587000D01*
X143952986Y-106596294D01*
X143726866Y-106781866D01*
X143541294Y-107007986D01*
X143403401Y-107265966D01*
X143318487Y-107545889D01*
X143289815Y-107837000D01*
X143318487Y-108128111D01*
X143403401Y-108408034D01*
X143541294Y-108666014D01*
X143726866Y-108892134D01*
X143952986Y-109077706D01*
X144210966Y-109215599D01*
X144490889Y-109300513D01*
X144709050Y-109322000D01*
X145104950Y-109322000D01*
X145323111Y-109300513D01*
X145603034Y-109215599D01*
X145861014Y-109077706D01*
X146087134Y-108892134D01*
X146272706Y-108666014D01*
X146410599Y-108408034D01*
X146495513Y-108128111D01*
X146524185Y-107837000D01*
X146495513Y-107545889D01*
X146410599Y-107265966D01*
X146272706Y-107007986D01*
X146087134Y-106781866D01*
X145861014Y-106596294D01*
X145843626Y-106587000D01*
X145861014Y-106577706D01*
X146087134Y-106392134D01*
X146272706Y-106166014D01*
X146410599Y-105908034D01*
X146495513Y-105628111D01*
X146524185Y-105337000D01*
X146495513Y-105045889D01*
X146410599Y-104765966D01*
X146272706Y-104507986D01*
X146087134Y-104281866D01*
X145861014Y-104096294D01*
X145835278Y-104082538D01*
X146041429Y-103926049D01*
X146234496Y-103708193D01*
X146381352Y-103456858D01*
X146428709Y-103321675D01*
X151496728Y-103321675D01*
X151497146Y-103381492D01*
X151496728Y-103441308D01*
X151497627Y-103450479D01*
X151507827Y-103547527D01*
X151519861Y-103606152D01*
X151531064Y-103664884D01*
X151533728Y-103673706D01*
X151562584Y-103766925D01*
X151585767Y-103822075D01*
X151608175Y-103877537D01*
X151612502Y-103885673D01*
X151658914Y-103971511D01*
X151692362Y-104021098D01*
X151725119Y-104071156D01*
X151730943Y-104078297D01*
X151793145Y-104153486D01*
X151835594Y-104195639D01*
X151877439Y-104238371D01*
X151884540Y-104244245D01*
X151960160Y-104305921D01*
X152010025Y-104339052D01*
X152059350Y-104372825D01*
X152067445Y-104377202D01*
X152067448Y-104377204D01*
X152067451Y-104377205D01*
X152067456Y-104377208D01*
X152153617Y-104423020D01*
X152208909Y-104445809D01*
X152263898Y-104469378D01*
X152272701Y-104472103D01*
X152366119Y-104500308D01*
X152424826Y-104511933D01*
X152483316Y-104524365D01*
X152492470Y-104525327D01*
X152492476Y-104525328D01*
X152492481Y-104525328D01*
X152589598Y-104534850D01*
X152621581Y-104538000D01*
X155480419Y-104538000D01*
X155512890Y-104534802D01*
X155519383Y-104534802D01*
X155528547Y-104533838D01*
X155570831Y-104529095D01*
X155577383Y-104528450D01*
X155577852Y-104528308D01*
X155625522Y-104522961D01*
X155684002Y-104510531D01*
X155742717Y-104498905D01*
X155751520Y-104496180D01*
X155844535Y-104466674D01*
X155899495Y-104443118D01*
X155954822Y-104420314D01*
X155962928Y-104415931D01*
X156048440Y-104368920D01*
X156097771Y-104335143D01*
X156147626Y-104302019D01*
X156154719Y-104296149D01*
X156154723Y-104296147D01*
X156154726Y-104296144D01*
X156229478Y-104233419D01*
X156271321Y-104190690D01*
X156313774Y-104148533D01*
X156319598Y-104141391D01*
X156319601Y-104141388D01*
X156319604Y-104141384D01*
X156380744Y-104065341D01*
X156413487Y-104015305D01*
X156446951Y-103965693D01*
X156451277Y-103957557D01*
X156496487Y-103871077D01*
X156518890Y-103815626D01*
X156542075Y-103760473D01*
X156544738Y-103751651D01*
X156572290Y-103658040D01*
X156583496Y-103599297D01*
X156595529Y-103540678D01*
X156596428Y-103531507D01*
X156605272Y-103434324D01*
X156604854Y-103374509D01*
X156605272Y-103314693D01*
X156604373Y-103305522D01*
X156594173Y-103208473D01*
X156582140Y-103149854D01*
X156570936Y-103091116D01*
X156568272Y-103082294D01*
X156539416Y-102989075D01*
X156516238Y-102933937D01*
X156493825Y-102878463D01*
X156489498Y-102870327D01*
X156443085Y-102784489D01*
X156409645Y-102734913D01*
X156376881Y-102684844D01*
X156371057Y-102677703D01*
X156308855Y-102602514D01*
X156266406Y-102560361D01*
X156224561Y-102517629D01*
X156217460Y-102511755D01*
X156141839Y-102450079D01*
X156092034Y-102416988D01*
X156042650Y-102383174D01*
X156034544Y-102378792D01*
X155948383Y-102332980D01*
X155893091Y-102310191D01*
X155838102Y-102286622D01*
X155829299Y-102283897D01*
X155735881Y-102255692D01*
X155677174Y-102244067D01*
X155618684Y-102231635D01*
X155609530Y-102230673D01*
X155609524Y-102230672D01*
X155609519Y-102230672D01*
X155512402Y-102221150D01*
X155480419Y-102218000D01*
X152621581Y-102218000D01*
X152589110Y-102221198D01*
X152582617Y-102221198D01*
X152573453Y-102222162D01*
X152531169Y-102226905D01*
X152524617Y-102227550D01*
X152524148Y-102227692D01*
X152476478Y-102233039D01*
X152417984Y-102245472D01*
X152359284Y-102257095D01*
X152350481Y-102259820D01*
X152257465Y-102289326D01*
X152202505Y-102312882D01*
X152147178Y-102335686D01*
X152139072Y-102340069D01*
X152053559Y-102387080D01*
X152004208Y-102420872D01*
X151954374Y-102453982D01*
X151947274Y-102459856D01*
X151872522Y-102522581D01*
X151830695Y-102565294D01*
X151788226Y-102607467D01*
X151782402Y-102614609D01*
X151721256Y-102690659D01*
X151688535Y-102740661D01*
X151655049Y-102790306D01*
X151650723Y-102798443D01*
X151605513Y-102884922D01*
X151583104Y-102940388D01*
X151559925Y-102995527D01*
X151557262Y-103004349D01*
X151529710Y-103097961D01*
X151518508Y-103156682D01*
X151506471Y-103215322D01*
X151505572Y-103224493D01*
X151496728Y-103321675D01*
X146428709Y-103321675D01*
X146473476Y-103193890D01*
X146352155Y-102964000D01*
X145034000Y-102964000D01*
X145034000Y-102984000D01*
X144780000Y-102984000D01*
X144780000Y-102964000D01*
X143461845Y-102964000D01*
X143340524Y-103193890D01*
X143432648Y-103456858D01*
X143579504Y-103708193D01*
X143772571Y-103926049D01*
X143978722Y-104082538D01*
X143952986Y-104096294D01*
X143726866Y-104281866D01*
X143541294Y-104507986D01*
X143403401Y-104765966D01*
X143318487Y-105045889D01*
X143289815Y-105337000D01*
X140203500Y-105337000D01*
X140203500Y-105204561D01*
X140163726Y-105004602D01*
X140085705Y-104816244D01*
X139972437Y-104646726D01*
X139828274Y-104502563D01*
X139658756Y-104389295D01*
X139470398Y-104311274D01*
X139270439Y-104271500D01*
X139066561Y-104271500D01*
X138866602Y-104311274D01*
X138678244Y-104389295D01*
X138508726Y-104502563D01*
X138364563Y-104646726D01*
X138251295Y-104816244D01*
X138173274Y-105004602D01*
X138133500Y-105204561D01*
X133561926Y-105204561D01*
X133605557Y-105099229D01*
X133645331Y-104899270D01*
X133645331Y-104695392D01*
X133605557Y-104495433D01*
X133527536Y-104307075D01*
X133414268Y-104137557D01*
X133270105Y-103993394D01*
X133100587Y-103880126D01*
X132912229Y-103802105D01*
X132712270Y-103762331D01*
X132508392Y-103762331D01*
X132308433Y-103802105D01*
X132120075Y-103880126D01*
X131950557Y-103993394D01*
X131806394Y-104137557D01*
X131693126Y-104307075D01*
X131615105Y-104495433D01*
X131575331Y-104695392D01*
X123571000Y-104695392D01*
X123571000Y-101117061D01*
X127235000Y-101117061D01*
X127235000Y-101320939D01*
X127274774Y-101520898D01*
X127352795Y-101709256D01*
X127466063Y-101878774D01*
X127610226Y-102022937D01*
X127779744Y-102136205D01*
X127968102Y-102214226D01*
X128168061Y-102254000D01*
X128371939Y-102254000D01*
X128571898Y-102214226D01*
X128760256Y-102136205D01*
X128929774Y-102022937D01*
X129073937Y-101878774D01*
X129187205Y-101709256D01*
X129265226Y-101520898D01*
X129305000Y-101320939D01*
X129305000Y-101117061D01*
X129265226Y-100917102D01*
X129187205Y-100728744D01*
X129073937Y-100559226D01*
X128929774Y-100415063D01*
X128760256Y-100301795D01*
X128582248Y-100228061D01*
X134220000Y-100228061D01*
X134220000Y-100431939D01*
X134259774Y-100631898D01*
X134337795Y-100820256D01*
X134451063Y-100989774D01*
X134595226Y-101133937D01*
X134764744Y-101247205D01*
X134953102Y-101325226D01*
X135153061Y-101365000D01*
X135356939Y-101365000D01*
X135556898Y-101325226D01*
X135745256Y-101247205D01*
X135914774Y-101133937D01*
X136058937Y-100989774D01*
X136172205Y-100820256D01*
X136250226Y-100631898D01*
X136290000Y-100431939D01*
X136290000Y-100228061D01*
X136250226Y-100028102D01*
X136172205Y-99839744D01*
X136058937Y-99670226D01*
X135914774Y-99526063D01*
X135745256Y-99412795D01*
X135556898Y-99334774D01*
X135356939Y-99295000D01*
X135153061Y-99295000D01*
X134953102Y-99334774D01*
X134764744Y-99412795D01*
X134595226Y-99526063D01*
X134451063Y-99670226D01*
X134337795Y-99839744D01*
X134259774Y-100028102D01*
X134220000Y-100228061D01*
X128582248Y-100228061D01*
X128571898Y-100223774D01*
X128371939Y-100184000D01*
X128168061Y-100184000D01*
X127968102Y-100223774D01*
X127779744Y-100301795D01*
X127610226Y-100415063D01*
X127466063Y-100559226D01*
X127352795Y-100728744D01*
X127274774Y-100917102D01*
X127235000Y-101117061D01*
X123571000Y-101117061D01*
X123571000Y-98373825D01*
X132132330Y-98373825D01*
X132132330Y-98577703D01*
X132172104Y-98777662D01*
X132250125Y-98966020D01*
X132363393Y-99135538D01*
X132507556Y-99279701D01*
X132677074Y-99392969D01*
X132865432Y-99470990D01*
X133065391Y-99510764D01*
X133269269Y-99510764D01*
X133469228Y-99470990D01*
X133657586Y-99392969D01*
X133827104Y-99279701D01*
X133971267Y-99135538D01*
X134084535Y-98966020D01*
X134162556Y-98777662D01*
X134173595Y-98722167D01*
X134256744Y-98777725D01*
X134445102Y-98855746D01*
X134645061Y-98895520D01*
X134848939Y-98895520D01*
X135048898Y-98855746D01*
X135237256Y-98777725D01*
X135406774Y-98664457D01*
X135550937Y-98520294D01*
X135664205Y-98350776D01*
X135742226Y-98162418D01*
X135782000Y-97962459D01*
X135782000Y-97958492D01*
X135978148Y-97919476D01*
X136166506Y-97841455D01*
X136336024Y-97728187D01*
X136480187Y-97584024D01*
X136593455Y-97414506D01*
X136671476Y-97226148D01*
X136705456Y-97055316D01*
X136762388Y-97140520D01*
X136920480Y-97298612D01*
X137106376Y-97422824D01*
X137244000Y-97479830D01*
X137244000Y-97534939D01*
X137283774Y-97734898D01*
X137361795Y-97923256D01*
X137475063Y-98092774D01*
X137619226Y-98236937D01*
X137788744Y-98350205D01*
X137977102Y-98428226D01*
X138177061Y-98468000D01*
X138380939Y-98468000D01*
X138580898Y-98428226D01*
X138769256Y-98350205D01*
X138769993Y-98349712D01*
X139163500Y-98349712D01*
X139163500Y-98573288D01*
X139207117Y-98792567D01*
X139292676Y-98999124D01*
X139416888Y-99185020D01*
X139574980Y-99343112D01*
X139760876Y-99467324D01*
X139967433Y-99552883D01*
X140186712Y-99596500D01*
X140410288Y-99596500D01*
X140629567Y-99552883D01*
X140836124Y-99467324D01*
X141022020Y-99343112D01*
X141180112Y-99185020D01*
X141304324Y-98999124D01*
X141389883Y-98792567D01*
X141433500Y-98573288D01*
X141433500Y-98349712D01*
X141389883Y-98130433D01*
X141304324Y-97923876D01*
X141180112Y-97737980D01*
X141022020Y-97579888D01*
X140836124Y-97455676D01*
X140629567Y-97370117D01*
X140410288Y-97326500D01*
X140186712Y-97326500D01*
X139967433Y-97370117D01*
X139760876Y-97455676D01*
X139574980Y-97579888D01*
X139416888Y-97737980D01*
X139292676Y-97923876D01*
X139207117Y-98130433D01*
X139163500Y-98349712D01*
X138769993Y-98349712D01*
X138938774Y-98236937D01*
X139082937Y-98092774D01*
X139196205Y-97923256D01*
X139274226Y-97734898D01*
X139314000Y-97534939D01*
X139314000Y-97331061D01*
X139274226Y-97131102D01*
X139196205Y-96942744D01*
X139082937Y-96773226D01*
X138938774Y-96629063D01*
X138779000Y-96522306D01*
X138779000Y-96305212D01*
X138735383Y-96085933D01*
X138649824Y-95879376D01*
X138525612Y-95693480D01*
X138367520Y-95535388D01*
X138181624Y-95411176D01*
X137975067Y-95325617D01*
X137755788Y-95282000D01*
X137532212Y-95282000D01*
X137312933Y-95325617D01*
X137106376Y-95411176D01*
X136920480Y-95535388D01*
X136762388Y-95693480D01*
X136638176Y-95879376D01*
X136552617Y-96085933D01*
X136509000Y-96305212D01*
X136509000Y-96307598D01*
X136480187Y-96264476D01*
X136336024Y-96120313D01*
X136166506Y-96007045D01*
X135978148Y-95929024D01*
X135778189Y-95889250D01*
X135574311Y-95889250D01*
X135374352Y-95929024D01*
X135185994Y-96007045D01*
X135016476Y-96120313D01*
X134872313Y-96264476D01*
X134759045Y-96433994D01*
X134681024Y-96622352D01*
X134641250Y-96822311D01*
X134641250Y-96826278D01*
X134445102Y-96865294D01*
X134256744Y-96943315D01*
X134087226Y-97056583D01*
X133943063Y-97200746D01*
X133829795Y-97370264D01*
X133751774Y-97558622D01*
X133740735Y-97614117D01*
X133657586Y-97558559D01*
X133469228Y-97480538D01*
X133269269Y-97440764D01*
X133065391Y-97440764D01*
X132865432Y-97480538D01*
X132677074Y-97558559D01*
X132507556Y-97671827D01*
X132363393Y-97815990D01*
X132250125Y-97985508D01*
X132172104Y-98173866D01*
X132132330Y-98373825D01*
X123571000Y-98373825D01*
X123571000Y-95402061D01*
X126854000Y-95402061D01*
X126854000Y-95605939D01*
X126893774Y-95805898D01*
X126971795Y-95994256D01*
X127085063Y-96163774D01*
X127229226Y-96307937D01*
X127398744Y-96421205D01*
X127587102Y-96499226D01*
X127787061Y-96539000D01*
X127990939Y-96539000D01*
X128190898Y-96499226D01*
X128379256Y-96421205D01*
X128548774Y-96307937D01*
X128692937Y-96163774D01*
X128806205Y-95994256D01*
X128884226Y-95805898D01*
X128905000Y-95701459D01*
X128925774Y-95805898D01*
X129003795Y-95994256D01*
X129117063Y-96163774D01*
X129261226Y-96307937D01*
X129430744Y-96421205D01*
X129619102Y-96499226D01*
X129819061Y-96539000D01*
X130022939Y-96539000D01*
X130222898Y-96499226D01*
X130411256Y-96421205D01*
X130580774Y-96307937D01*
X130724937Y-96163774D01*
X130838205Y-95994256D01*
X130916226Y-95805898D01*
X130956000Y-95605939D01*
X130956000Y-95402061D01*
X130916226Y-95202102D01*
X130838205Y-95013744D01*
X130724937Y-94844226D01*
X130580774Y-94700063D01*
X130411256Y-94586795D01*
X130222898Y-94508774D01*
X130022939Y-94469000D01*
X129819061Y-94469000D01*
X129619102Y-94508774D01*
X129430744Y-94586795D01*
X129261226Y-94700063D01*
X129117063Y-94844226D01*
X129003795Y-95013744D01*
X128925774Y-95202102D01*
X128905000Y-95306541D01*
X128884226Y-95202102D01*
X128806205Y-95013744D01*
X128692937Y-94844226D01*
X128548774Y-94700063D01*
X128379256Y-94586795D01*
X128190898Y-94508774D01*
X127990939Y-94469000D01*
X127787061Y-94469000D01*
X127587102Y-94508774D01*
X127398744Y-94586795D01*
X127229226Y-94700063D01*
X127085063Y-94844226D01*
X126971795Y-95013744D01*
X126893774Y-95202102D01*
X126854000Y-95402061D01*
X123571000Y-95402061D01*
X123571000Y-90195000D01*
X131242805Y-90195000D01*
X131162795Y-90314744D01*
G04 #@! TA.AperFunction,Conductor*
D17*
G36*
X131162795Y-90314744D02*
G01*
X131084774Y-90503102D01*
X131045000Y-90703061D01*
X131045000Y-90906939D01*
X131084774Y-91106898D01*
X131162795Y-91295256D01*
X131259510Y-91440000D01*
X131162795Y-91584744D01*
X131084774Y-91773102D01*
X131045000Y-91973061D01*
X131045000Y-92176939D01*
X131084774Y-92376898D01*
X131162795Y-92565256D01*
X131259510Y-92710000D01*
X131162795Y-92854744D01*
X131084774Y-93043102D01*
X131045000Y-93243061D01*
X131045000Y-93446939D01*
X131084774Y-93646898D01*
X131162795Y-93835256D01*
X131276063Y-94004774D01*
X131420226Y-94148937D01*
X131589744Y-94262205D01*
X131778102Y-94340226D01*
X131978061Y-94380000D01*
X132181939Y-94380000D01*
X132381898Y-94340226D01*
X132570256Y-94262205D01*
X132715000Y-94165490D01*
X132859744Y-94262205D01*
X133048102Y-94340226D01*
X133248061Y-94380000D01*
X133451939Y-94380000D01*
X133651898Y-94340226D01*
X133840256Y-94262205D01*
X133985000Y-94165490D01*
X134129744Y-94262205D01*
X134318102Y-94340226D01*
X134518061Y-94380000D01*
X134721939Y-94380000D01*
X134921898Y-94340226D01*
X135110256Y-94262205D01*
X135255000Y-94165490D01*
X135399744Y-94262205D01*
X135588102Y-94340226D01*
X135788061Y-94380000D01*
X135991939Y-94380000D01*
X136191898Y-94340226D01*
X136380256Y-94262205D01*
X136549774Y-94148937D01*
X136693937Y-94004774D01*
X136807205Y-93835256D01*
X136885226Y-93646898D01*
X136925000Y-93446939D01*
X136925000Y-93243061D01*
X136891961Y-93076961D01*
X137058061Y-93110000D01*
X137261939Y-93110000D01*
X137428039Y-93076961D01*
X137395000Y-93243061D01*
X137395000Y-93446939D01*
X137434774Y-93646898D01*
X137512795Y-93835256D01*
X137626063Y-94004774D01*
X137770226Y-94148937D01*
X137939744Y-94262205D01*
X138128102Y-94340226D01*
X138328061Y-94380000D01*
X138531939Y-94380000D01*
X138731898Y-94340226D01*
X138920256Y-94262205D01*
X139089774Y-94148937D01*
X139233937Y-94004774D01*
X139347205Y-93835256D01*
X139425226Y-93646898D01*
X139465000Y-93446939D01*
X139465000Y-93243061D01*
X139425226Y-93043102D01*
X139347205Y-92854744D01*
X139250490Y-92710000D01*
X139347205Y-92565256D01*
X139425226Y-92376898D01*
X139465000Y-92176939D01*
X139465000Y-91973061D01*
X139425226Y-91773102D01*
X139347205Y-91584744D01*
X139250490Y-91440000D01*
X139347205Y-91295256D01*
X139425226Y-91106898D01*
X139465000Y-90906939D01*
X139465000Y-90703061D01*
X139425226Y-90503102D01*
X139347205Y-90314744D01*
X139267195Y-90195000D01*
X141386289Y-90195000D01*
X141309063Y-90272226D01*
X141195795Y-90441744D01*
X141117774Y-90630102D01*
X141078000Y-90830061D01*
X141078000Y-91033939D01*
X141117774Y-91233898D01*
X141195795Y-91422256D01*
X141309063Y-91591774D01*
X141453226Y-91735937D01*
X141622744Y-91849205D01*
X141811102Y-91927226D01*
X142011061Y-91967000D01*
X142094000Y-91967000D01*
X142094000Y-92049939D01*
X142133774Y-92249898D01*
X142211795Y-92438256D01*
X142325063Y-92607774D01*
X142469226Y-92751937D01*
X142638744Y-92865205D01*
X142827102Y-92943226D01*
X143027061Y-92983000D01*
X143230939Y-92983000D01*
X143293928Y-92970471D01*
X143293928Y-93437000D01*
X143310992Y-93610254D01*
X143361528Y-93776850D01*
X143443595Y-93930386D01*
X143554038Y-94064962D01*
X143688614Y-94175405D01*
X143790337Y-94229777D01*
X143726866Y-94281866D01*
X143541294Y-94507986D01*
X143403401Y-94765966D01*
X143318487Y-95045889D01*
X143289815Y-95337000D01*
X143318487Y-95628111D01*
X143403401Y-95908034D01*
X143541294Y-96166014D01*
X143726866Y-96392134D01*
X143952986Y-96577706D01*
X143970374Y-96587000D01*
X143952986Y-96596294D01*
X143726866Y-96781866D01*
X143541294Y-97007986D01*
X143403401Y-97265966D01*
X143318487Y-97545889D01*
X143289815Y-97837000D01*
X143318487Y-98128111D01*
X143403401Y-98408034D01*
X143541294Y-98666014D01*
X143726866Y-98892134D01*
X143952986Y-99077706D01*
X143970374Y-99087000D01*
X143952986Y-99096294D01*
X143726866Y-99281866D01*
X143541294Y-99507986D01*
X143403401Y-99765966D01*
X143318487Y-100045889D01*
X143289815Y-100337000D01*
X143318487Y-100628111D01*
X143403401Y-100908034D01*
X143541294Y-101166014D01*
X143726866Y-101392134D01*
X143952986Y-101577706D01*
X143978722Y-101591462D01*
X143772571Y-101747951D01*
X143579504Y-101965807D01*
X143432648Y-102217142D01*
X143340524Y-102480110D01*
X143461845Y-102710000D01*
X144780000Y-102710000D01*
X144780000Y-102690000D01*
X145034000Y-102690000D01*
X145034000Y-102710000D01*
X146352155Y-102710000D01*
X146473476Y-102480110D01*
X146381352Y-102217142D01*
X146234496Y-101965807D01*
X146041429Y-101747951D01*
X145835278Y-101591462D01*
X145861014Y-101577706D01*
X146087134Y-101392134D01*
X146272706Y-101166014D01*
X146410599Y-100908034D01*
X146495513Y-100628111D01*
X146524185Y-100337000D01*
X146495513Y-100045889D01*
X146410599Y-99765966D01*
X146272706Y-99507986D01*
X146087134Y-99281866D01*
X145861014Y-99096294D01*
X145843626Y-99087000D01*
X145861014Y-99077706D01*
X146087134Y-98892134D01*
X146272706Y-98666014D01*
X146410599Y-98408034D01*
X146495513Y-98128111D01*
X146524185Y-97837000D01*
X146495513Y-97545889D01*
X146410599Y-97265966D01*
X146389064Y-97225675D01*
X151496728Y-97225675D01*
X151497146Y-97285491D01*
X151496728Y-97345308D01*
X151497627Y-97354479D01*
X151507827Y-97451527D01*
X151519861Y-97510152D01*
X151531064Y-97568884D01*
X151533728Y-97577706D01*
X151562584Y-97670925D01*
X151585767Y-97726075D01*
X151608175Y-97781537D01*
X151612502Y-97789673D01*
X151658914Y-97875511D01*
X151692362Y-97925098D01*
X151725119Y-97975156D01*
X151730943Y-97982297D01*
X151793145Y-98057486D01*
X151835594Y-98099639D01*
X151877439Y-98142371D01*
X151884540Y-98148245D01*
X151960160Y-98209921D01*
X152010025Y-98243052D01*
X152059350Y-98276825D01*
X152067445Y-98281202D01*
X152067448Y-98281204D01*
X152067451Y-98281205D01*
X152067456Y-98281208D01*
X152153617Y-98327020D01*
X152208909Y-98349809D01*
X152263898Y-98373378D01*
X152272701Y-98376103D01*
X152366119Y-98404308D01*
X152424826Y-98415933D01*
X152483316Y-98428365D01*
X152492470Y-98429327D01*
X152492476Y-98429328D01*
X152492481Y-98429328D01*
X152589598Y-98438850D01*
X152621581Y-98442000D01*
X155480419Y-98442000D01*
X155512890Y-98438802D01*
X155519383Y-98438802D01*
X155528547Y-98437838D01*
X155570831Y-98433095D01*
X155577383Y-98432450D01*
X155577852Y-98432308D01*
X155625522Y-98426961D01*
X155684002Y-98414531D01*
X155742717Y-98402905D01*
X155751520Y-98400180D01*
X155844535Y-98370674D01*
X155899495Y-98347118D01*
X155954822Y-98324314D01*
X155962928Y-98319931D01*
X156048440Y-98272920D01*
X156097771Y-98239143D01*
X156147626Y-98206019D01*
X156154719Y-98200149D01*
X156154723Y-98200147D01*
X156154726Y-98200144D01*
X156229478Y-98137419D01*
X156271321Y-98094690D01*
X156313774Y-98052533D01*
X156319598Y-98045391D01*
X156319601Y-98045388D01*
X156319604Y-98045384D01*
X156380744Y-97969341D01*
X156413487Y-97919305D01*
X156446951Y-97869693D01*
X156451277Y-97861557D01*
X156496487Y-97775077D01*
X156518890Y-97719626D01*
X156542075Y-97664473D01*
X156544738Y-97655651D01*
X156572290Y-97562040D01*
X156583496Y-97503297D01*
X156595529Y-97444678D01*
X156596428Y-97435507D01*
X156605272Y-97338324D01*
X156604854Y-97278509D01*
X156605272Y-97218693D01*
X156604373Y-97209522D01*
X156594173Y-97112473D01*
X156582140Y-97053854D01*
X156570936Y-96995116D01*
X156568272Y-96986294D01*
X156539416Y-96893075D01*
X156516238Y-96837937D01*
X156493825Y-96782463D01*
X156489498Y-96774327D01*
X156443085Y-96688489D01*
X156409645Y-96638913D01*
X156376881Y-96588844D01*
X156371057Y-96581703D01*
X156308855Y-96506514D01*
X156266406Y-96464361D01*
X156224561Y-96421629D01*
X156217460Y-96415755D01*
X156141839Y-96354079D01*
X156092034Y-96320988D01*
X156042650Y-96287174D01*
X156034544Y-96282792D01*
X155948383Y-96236980D01*
X155893091Y-96214191D01*
X155838102Y-96190622D01*
X155829299Y-96187897D01*
X155735881Y-96159692D01*
X155677174Y-96148067D01*
X155618684Y-96135635D01*
X155609530Y-96134673D01*
X155609524Y-96134672D01*
X155609519Y-96134672D01*
X155512402Y-96125150D01*
X155480419Y-96122000D01*
X152621581Y-96122000D01*
X152589110Y-96125198D01*
X152582617Y-96125198D01*
X152573453Y-96126162D01*
X152531169Y-96130905D01*
X152524617Y-96131550D01*
X152524148Y-96131692D01*
X152476478Y-96137039D01*
X152417984Y-96149472D01*
X152359284Y-96161095D01*
X152350481Y-96163820D01*
X152257465Y-96193326D01*
X152202505Y-96216882D01*
X152147178Y-96239686D01*
X152139072Y-96244069D01*
X152053559Y-96291080D01*
X152004208Y-96324872D01*
X151954374Y-96357982D01*
X151947274Y-96363856D01*
X151872522Y-96426581D01*
X151830695Y-96469294D01*
X151788226Y-96511467D01*
X151782402Y-96518609D01*
X151721256Y-96594659D01*
X151688535Y-96644661D01*
X151655049Y-96694306D01*
X151650723Y-96702443D01*
X151605513Y-96788922D01*
X151583104Y-96844388D01*
X151559925Y-96899527D01*
X151557262Y-96908349D01*
X151529710Y-97001961D01*
X151518508Y-97060682D01*
X151506471Y-97119322D01*
X151505572Y-97128493D01*
X151496728Y-97225675D01*
X146389064Y-97225675D01*
X146272706Y-97007986D01*
X146087134Y-96781866D01*
X145861014Y-96596294D01*
X145843626Y-96587000D01*
X145861014Y-96577706D01*
X146087134Y-96392134D01*
X146272706Y-96166014D01*
X146410599Y-95908034D01*
X146495513Y-95628111D01*
X146524185Y-95337000D01*
X146495513Y-95045889D01*
X146410599Y-94765966D01*
X146272706Y-94507986D01*
X146087134Y-94281866D01*
X146023663Y-94229777D01*
X146125386Y-94175405D01*
X146259962Y-94064962D01*
X146370405Y-93930386D01*
X146452472Y-93776850D01*
X146503008Y-93610254D01*
X146520072Y-93437000D01*
X146520072Y-92237000D01*
X146503008Y-92063746D01*
X146452472Y-91897150D01*
X146370405Y-91743614D01*
X146259962Y-91609038D01*
X146125386Y-91498595D01*
X145971850Y-91416528D01*
X145805254Y-91365992D01*
X145632000Y-91348928D01*
X144182000Y-91348928D01*
X144008746Y-91365992D01*
X143988917Y-91372007D01*
X143932937Y-91288226D01*
X143788774Y-91144063D01*
X143619256Y-91030795D01*
X143430898Y-90952774D01*
X143230939Y-90913000D01*
X143148000Y-90913000D01*
X143148000Y-90830061D01*
X143108226Y-90630102D01*
X143030205Y-90441744D01*
X142916937Y-90272226D01*
X142839711Y-90195000D01*
X155292179Y-90195000D01*
X156132196Y-90268492D01*
X156918743Y-90479247D01*
X157656739Y-90823380D01*
X158323769Y-91290439D01*
X158899560Y-91866231D01*
X159366622Y-92533263D01*
X159710754Y-93271262D01*
X159921509Y-94057806D01*
X159995000Y-94897821D01*
X159995001Y-105635168D01*
X159921509Y-106475194D01*
X159710754Y-107261738D01*
X159366622Y-107999737D01*
X158899560Y-108666769D01*
X158323769Y-109242561D01*
X157656739Y-109709620D01*
X156918743Y-110053753D01*
X156132196Y-110264508D01*
X155292179Y-110338000D01*
X123571000Y-110338000D01*
X123571000Y-107848061D01*
X138030000Y-107848061D01*
X138030000Y-108051939D01*
X138069774Y-108251898D01*
X138147795Y-108440256D01*
X138261063Y-108609774D01*
X138405226Y-108753937D01*
X138574744Y-108867205D01*
X138763102Y-108945226D01*
X138963061Y-108985000D01*
X139166939Y-108985000D01*
X139366898Y-108945226D01*
X139555256Y-108867205D01*
X139724774Y-108753937D01*
X139868937Y-108609774D01*
X139982205Y-108440256D01*
X140060226Y-108251898D01*
X140100000Y-108051939D01*
X140100000Y-107848061D01*
X140060226Y-107648102D01*
X139982205Y-107459744D01*
X139868937Y-107290226D01*
X139724774Y-107146063D01*
X139555256Y-107032795D01*
X139366898Y-106954774D01*
X139166939Y-106915000D01*
X138963061Y-106915000D01*
X138763102Y-106954774D01*
X138574744Y-107032795D01*
X138405226Y-107146063D01*
X138261063Y-107290226D01*
X138147795Y-107459744D01*
X138069774Y-107648102D01*
X138030000Y-107848061D01*
X123571000Y-107848061D01*
X123571000Y-104695392D01*
X131575331Y-104695392D01*
X131575331Y-104899270D01*
X131615105Y-105099229D01*
X131693126Y-105287587D01*
X131806394Y-105457105D01*
X131950557Y-105601268D01*
X132120075Y-105714536D01*
X132308433Y-105792557D01*
X132508392Y-105832331D01*
X132712270Y-105832331D01*
X132912229Y-105792557D01*
X133100587Y-105714536D01*
X133270105Y-105601268D01*
X133414268Y-105457105D01*
X133527536Y-105287587D01*
X133561926Y-105204561D01*
X138133500Y-105204561D01*
X138133500Y-105408439D01*
X138173274Y-105608398D01*
X138251295Y-105796756D01*
X138364563Y-105966274D01*
X138508726Y-106110437D01*
X138678244Y-106223705D01*
X138866602Y-106301726D01*
X139066561Y-106341500D01*
X139270439Y-106341500D01*
X139470398Y-106301726D01*
X139658756Y-106223705D01*
X139828274Y-106110437D01*
X139972437Y-105966274D01*
X140085705Y-105796756D01*
X140163726Y-105608398D01*
X140203500Y-105408439D01*
X140203500Y-105337000D01*
X143289815Y-105337000D01*
X143318487Y-105628111D01*
X143403401Y-105908034D01*
X143541294Y-106166014D01*
X143726866Y-106392134D01*
X143952986Y-106577706D01*
X143970374Y-106587000D01*
X143952986Y-106596294D01*
X143726866Y-106781866D01*
X143541294Y-107007986D01*
X143403401Y-107265966D01*
X143318487Y-107545889D01*
X143289815Y-107837000D01*
X143318487Y-108128111D01*
X143403401Y-108408034D01*
X143541294Y-108666014D01*
X143726866Y-108892134D01*
X143952986Y-109077706D01*
X144210966Y-109215599D01*
X144490889Y-109300513D01*
X144709050Y-109322000D01*
X145104950Y-109322000D01*
X145323111Y-109300513D01*
X145603034Y-109215599D01*
X145861014Y-109077706D01*
X146087134Y-108892134D01*
X146272706Y-108666014D01*
X146410599Y-108408034D01*
X146495513Y-108128111D01*
X146524185Y-107837000D01*
X146495513Y-107545889D01*
X146410599Y-107265966D01*
X146272706Y-107007986D01*
X146087134Y-106781866D01*
X145861014Y-106596294D01*
X145843626Y-106587000D01*
X145861014Y-106577706D01*
X146087134Y-106392134D01*
X146272706Y-106166014D01*
X146410599Y-105908034D01*
X146495513Y-105628111D01*
X146524185Y-105337000D01*
X146495513Y-105045889D01*
X146410599Y-104765966D01*
X146272706Y-104507986D01*
X146087134Y-104281866D01*
X145861014Y-104096294D01*
X145835278Y-104082538D01*
X146041429Y-103926049D01*
X146234496Y-103708193D01*
X146381352Y-103456858D01*
X146428709Y-103321675D01*
X151496728Y-103321675D01*
X151497146Y-103381492D01*
X151496728Y-103441308D01*
X151497627Y-103450479D01*
X151507827Y-103547527D01*
X151519861Y-103606152D01*
X151531064Y-103664884D01*
X151533728Y-103673706D01*
X151562584Y-103766925D01*
X151585767Y-103822075D01*
X151608175Y-103877537D01*
X151612502Y-103885673D01*
X151658914Y-103971511D01*
X151692362Y-104021098D01*
X151725119Y-104071156D01*
X151730943Y-104078297D01*
X151793145Y-104153486D01*
X151835594Y-104195639D01*
X151877439Y-104238371D01*
X151884540Y-104244245D01*
X151960160Y-104305921D01*
X152010025Y-104339052D01*
X152059350Y-104372825D01*
X152067445Y-104377202D01*
X152067448Y-104377204D01*
X152067451Y-104377205D01*
X152067456Y-104377208D01*
X152153617Y-104423020D01*
X152208909Y-104445809D01*
X152263898Y-104469378D01*
X152272701Y-104472103D01*
X152366119Y-104500308D01*
X152424826Y-104511933D01*
X152483316Y-104524365D01*
X152492470Y-104525327D01*
X152492476Y-104525328D01*
X152492481Y-104525328D01*
X152589598Y-104534850D01*
X152621581Y-104538000D01*
X155480419Y-104538000D01*
X155512890Y-104534802D01*
X155519383Y-104534802D01*
X155528547Y-104533838D01*
X155570831Y-104529095D01*
X155577383Y-104528450D01*
X155577852Y-104528308D01*
X155625522Y-104522961D01*
X155684002Y-104510531D01*
X155742717Y-104498905D01*
X155751520Y-104496180D01*
X155844535Y-104466674D01*
X155899495Y-104443118D01*
X155954822Y-104420314D01*
X155962928Y-104415931D01*
X156048440Y-104368920D01*
X156097771Y-104335143D01*
X156147626Y-104302019D01*
X156154719Y-104296149D01*
X156154723Y-104296147D01*
X156154726Y-104296144D01*
X156229478Y-104233419D01*
X156271321Y-104190690D01*
X156313774Y-104148533D01*
X156319598Y-104141391D01*
X156319601Y-104141388D01*
X156319604Y-104141384D01*
X156380744Y-104065341D01*
X156413487Y-104015305D01*
X156446951Y-103965693D01*
X156451277Y-103957557D01*
X156496487Y-103871077D01*
X156518890Y-103815626D01*
X156542075Y-103760473D01*
X156544738Y-103751651D01*
X156572290Y-103658040D01*
X156583496Y-103599297D01*
X156595529Y-103540678D01*
X156596428Y-103531507D01*
X156605272Y-103434324D01*
X156604854Y-103374509D01*
X156605272Y-103314693D01*
X156604373Y-103305522D01*
X156594173Y-103208473D01*
X156582140Y-103149854D01*
X156570936Y-103091116D01*
X156568272Y-103082294D01*
X156539416Y-102989075D01*
X156516238Y-102933937D01*
X156493825Y-102878463D01*
X156489498Y-102870327D01*
X156443085Y-102784489D01*
X156409645Y-102734913D01*
X156376881Y-102684844D01*
X156371057Y-102677703D01*
X156308855Y-102602514D01*
X156266406Y-102560361D01*
X156224561Y-102517629D01*
X156217460Y-102511755D01*
X156141839Y-102450079D01*
X156092034Y-102416988D01*
X156042650Y-102383174D01*
X156034544Y-102378792D01*
X155948383Y-102332980D01*
X155893091Y-102310191D01*
X155838102Y-102286622D01*
X155829299Y-102283897D01*
X155735881Y-102255692D01*
X155677174Y-102244067D01*
X155618684Y-102231635D01*
X155609530Y-102230673D01*
X155609524Y-102230672D01*
X155609519Y-102230672D01*
X155512402Y-102221150D01*
X155480419Y-102218000D01*
X152621581Y-102218000D01*
X152589110Y-102221198D01*
X152582617Y-102221198D01*
X152573453Y-102222162D01*
X152531169Y-102226905D01*
X152524617Y-102227550D01*
X152524148Y-102227692D01*
X152476478Y-102233039D01*
X152417984Y-102245472D01*
X152359284Y-102257095D01*
X152350481Y-102259820D01*
X152257465Y-102289326D01*
X152202505Y-102312882D01*
X152147178Y-102335686D01*
X152139072Y-102340069D01*
X152053559Y-102387080D01*
X152004208Y-102420872D01*
X151954374Y-102453982D01*
X151947274Y-102459856D01*
X151872522Y-102522581D01*
X151830695Y-102565294D01*
X151788226Y-102607467D01*
X151782402Y-102614609D01*
X151721256Y-102690659D01*
X151688535Y-102740661D01*
X151655049Y-102790306D01*
X151650723Y-102798443D01*
X151605513Y-102884922D01*
X151583104Y-102940388D01*
X151559925Y-102995527D01*
X151557262Y-103004349D01*
X151529710Y-103097961D01*
X151518508Y-103156682D01*
X151506471Y-103215322D01*
X151505572Y-103224493D01*
X151496728Y-103321675D01*
X146428709Y-103321675D01*
X146473476Y-103193890D01*
X146352155Y-102964000D01*
X145034000Y-102964000D01*
X145034000Y-102984000D01*
X144780000Y-102984000D01*
X144780000Y-102964000D01*
X143461845Y-102964000D01*
X143340524Y-103193890D01*
X143432648Y-103456858D01*
X143579504Y-103708193D01*
X143772571Y-103926049D01*
X143978722Y-104082538D01*
X143952986Y-104096294D01*
X143726866Y-104281866D01*
X143541294Y-104507986D01*
X143403401Y-104765966D01*
X143318487Y-105045889D01*
X143289815Y-105337000D01*
X140203500Y-105337000D01*
X140203500Y-105204561D01*
X140163726Y-105004602D01*
X140085705Y-104816244D01*
X139972437Y-104646726D01*
X139828274Y-104502563D01*
X139658756Y-104389295D01*
X139470398Y-104311274D01*
X139270439Y-104271500D01*
X139066561Y-104271500D01*
X138866602Y-104311274D01*
X138678244Y-104389295D01*
X138508726Y-104502563D01*
X138364563Y-104646726D01*
X138251295Y-104816244D01*
X138173274Y-105004602D01*
X138133500Y-105204561D01*
X133561926Y-105204561D01*
X133605557Y-105099229D01*
X133645331Y-104899270D01*
X133645331Y-104695392D01*
X133605557Y-104495433D01*
X133527536Y-104307075D01*
X133414268Y-104137557D01*
X133270105Y-103993394D01*
X133100587Y-103880126D01*
X132912229Y-103802105D01*
X132712270Y-103762331D01*
X132508392Y-103762331D01*
X132308433Y-103802105D01*
X132120075Y-103880126D01*
X131950557Y-103993394D01*
X131806394Y-104137557D01*
X131693126Y-104307075D01*
X131615105Y-104495433D01*
X131575331Y-104695392D01*
X123571000Y-104695392D01*
X123571000Y-101117061D01*
X127235000Y-101117061D01*
X127235000Y-101320939D01*
X127274774Y-101520898D01*
X127352795Y-101709256D01*
X127466063Y-101878774D01*
X127610226Y-102022937D01*
X127779744Y-102136205D01*
X127968102Y-102214226D01*
X128168061Y-102254000D01*
X128371939Y-102254000D01*
X128571898Y-102214226D01*
X128760256Y-102136205D01*
X128929774Y-102022937D01*
X129073937Y-101878774D01*
X129187205Y-101709256D01*
X129265226Y-101520898D01*
X129305000Y-101320939D01*
X129305000Y-101117061D01*
X129265226Y-100917102D01*
X129187205Y-100728744D01*
X129073937Y-100559226D01*
X128929774Y-100415063D01*
X128760256Y-100301795D01*
X128582248Y-100228061D01*
X134220000Y-100228061D01*
X134220000Y-100431939D01*
X134259774Y-100631898D01*
X134337795Y-100820256D01*
X134451063Y-100989774D01*
X134595226Y-101133937D01*
X134764744Y-101247205D01*
X134953102Y-101325226D01*
X135153061Y-101365000D01*
X135356939Y-101365000D01*
X135556898Y-101325226D01*
X135745256Y-101247205D01*
X135914774Y-101133937D01*
X136058937Y-100989774D01*
X136172205Y-100820256D01*
X136250226Y-100631898D01*
X136290000Y-100431939D01*
X136290000Y-100228061D01*
X136250226Y-100028102D01*
X136172205Y-99839744D01*
X136058937Y-99670226D01*
X135914774Y-99526063D01*
X135745256Y-99412795D01*
X135556898Y-99334774D01*
X135356939Y-99295000D01*
X135153061Y-99295000D01*
X134953102Y-99334774D01*
X134764744Y-99412795D01*
X134595226Y-99526063D01*
X134451063Y-99670226D01*
X134337795Y-99839744D01*
X134259774Y-100028102D01*
X134220000Y-100228061D01*
X128582248Y-100228061D01*
X128571898Y-100223774D01*
X128371939Y-100184000D01*
X128168061Y-100184000D01*
X127968102Y-100223774D01*
X127779744Y-100301795D01*
X127610226Y-100415063D01*
X127466063Y-100559226D01*
X127352795Y-100728744D01*
X127274774Y-100917102D01*
X127235000Y-101117061D01*
X123571000Y-101117061D01*
X123571000Y-98373825D01*
X132132330Y-98373825D01*
X132132330Y-98577703D01*
X132172104Y-98777662D01*
X132250125Y-98966020D01*
X132363393Y-99135538D01*
X132507556Y-99279701D01*
X132677074Y-99392969D01*
X132865432Y-99470990D01*
X133065391Y-99510764D01*
X133269269Y-99510764D01*
X133469228Y-99470990D01*
X133657586Y-99392969D01*
X133827104Y-99279701D01*
X133971267Y-99135538D01*
X134084535Y-98966020D01*
X134162556Y-98777662D01*
X134173595Y-98722167D01*
X134256744Y-98777725D01*
X134445102Y-98855746D01*
X134645061Y-98895520D01*
X134848939Y-98895520D01*
X135048898Y-98855746D01*
X135237256Y-98777725D01*
X135406774Y-98664457D01*
X135550937Y-98520294D01*
X135664205Y-98350776D01*
X135742226Y-98162418D01*
X135782000Y-97962459D01*
X135782000Y-97958492D01*
X135978148Y-97919476D01*
X136166506Y-97841455D01*
X136336024Y-97728187D01*
X136480187Y-97584024D01*
X136593455Y-97414506D01*
X136671476Y-97226148D01*
X136705456Y-97055316D01*
X136762388Y-97140520D01*
X136920480Y-97298612D01*
X137106376Y-97422824D01*
X137244000Y-97479830D01*
X137244000Y-97534939D01*
X137283774Y-97734898D01*
X137361795Y-97923256D01*
X137475063Y-98092774D01*
X137619226Y-98236937D01*
X137788744Y-98350205D01*
X137977102Y-98428226D01*
X138177061Y-98468000D01*
X138380939Y-98468000D01*
X138580898Y-98428226D01*
X138769256Y-98350205D01*
X138769993Y-98349712D01*
X139163500Y-98349712D01*
X139163500Y-98573288D01*
X139207117Y-98792567D01*
X139292676Y-98999124D01*
X139416888Y-99185020D01*
X139574980Y-99343112D01*
X139760876Y-99467324D01*
X139967433Y-99552883D01*
X140186712Y-99596500D01*
X140410288Y-99596500D01*
X140629567Y-99552883D01*
X140836124Y-99467324D01*
X141022020Y-99343112D01*
X141180112Y-99185020D01*
X141304324Y-98999124D01*
X141389883Y-98792567D01*
X141433500Y-98573288D01*
X141433500Y-98349712D01*
X141389883Y-98130433D01*
X141304324Y-97923876D01*
X141180112Y-97737980D01*
X141022020Y-97579888D01*
X140836124Y-97455676D01*
X140629567Y-97370117D01*
X140410288Y-97326500D01*
X140186712Y-97326500D01*
X139967433Y-97370117D01*
X139760876Y-97455676D01*
X139574980Y-97579888D01*
X139416888Y-97737980D01*
X139292676Y-97923876D01*
X139207117Y-98130433D01*
X139163500Y-98349712D01*
X138769993Y-98349712D01*
X138938774Y-98236937D01*
X139082937Y-98092774D01*
X139196205Y-97923256D01*
X139274226Y-97734898D01*
X139314000Y-97534939D01*
X139314000Y-97331061D01*
X139274226Y-97131102D01*
X139196205Y-96942744D01*
X139082937Y-96773226D01*
X138938774Y-96629063D01*
X138779000Y-96522306D01*
X138779000Y-96305212D01*
X138735383Y-96085933D01*
X138649824Y-95879376D01*
X138525612Y-95693480D01*
X138367520Y-95535388D01*
X138181624Y-95411176D01*
X137975067Y-95325617D01*
X137755788Y-95282000D01*
X137532212Y-95282000D01*
X137312933Y-95325617D01*
X137106376Y-95411176D01*
X136920480Y-95535388D01*
X136762388Y-95693480D01*
X136638176Y-95879376D01*
X136552617Y-96085933D01*
X136509000Y-96305212D01*
X136509000Y-96307598D01*
X136480187Y-96264476D01*
X136336024Y-96120313D01*
X136166506Y-96007045D01*
X135978148Y-95929024D01*
X135778189Y-95889250D01*
X135574311Y-95889250D01*
X135374352Y-95929024D01*
X135185994Y-96007045D01*
X135016476Y-96120313D01*
X134872313Y-96264476D01*
X134759045Y-96433994D01*
X134681024Y-96622352D01*
X134641250Y-96822311D01*
X134641250Y-96826278D01*
X134445102Y-96865294D01*
X134256744Y-96943315D01*
X134087226Y-97056583D01*
X133943063Y-97200746D01*
X133829795Y-97370264D01*
X133751774Y-97558622D01*
X133740735Y-97614117D01*
X133657586Y-97558559D01*
X133469228Y-97480538D01*
X133269269Y-97440764D01*
X133065391Y-97440764D01*
X132865432Y-97480538D01*
X132677074Y-97558559D01*
X132507556Y-97671827D01*
X132363393Y-97815990D01*
X132250125Y-97985508D01*
X132172104Y-98173866D01*
X132132330Y-98373825D01*
X123571000Y-98373825D01*
X123571000Y-95402061D01*
X126854000Y-95402061D01*
X126854000Y-95605939D01*
X126893774Y-95805898D01*
X126971795Y-95994256D01*
X127085063Y-96163774D01*
X127229226Y-96307937D01*
X127398744Y-96421205D01*
X127587102Y-96499226D01*
X127787061Y-96539000D01*
X127990939Y-96539000D01*
X128190898Y-96499226D01*
X128379256Y-96421205D01*
X128548774Y-96307937D01*
X128692937Y-96163774D01*
X128806205Y-95994256D01*
X128884226Y-95805898D01*
X128905000Y-95701459D01*
X128925774Y-95805898D01*
X129003795Y-95994256D01*
X129117063Y-96163774D01*
X129261226Y-96307937D01*
X129430744Y-96421205D01*
X129619102Y-96499226D01*
X129819061Y-96539000D01*
X130022939Y-96539000D01*
X130222898Y-96499226D01*
X130411256Y-96421205D01*
X130580774Y-96307937D01*
X130724937Y-96163774D01*
X130838205Y-95994256D01*
X130916226Y-95805898D01*
X130956000Y-95605939D01*
X130956000Y-95402061D01*
X130916226Y-95202102D01*
X130838205Y-95013744D01*
X130724937Y-94844226D01*
X130580774Y-94700063D01*
X130411256Y-94586795D01*
X130222898Y-94508774D01*
X130022939Y-94469000D01*
X129819061Y-94469000D01*
X129619102Y-94508774D01*
X129430744Y-94586795D01*
X129261226Y-94700063D01*
X129117063Y-94844226D01*
X129003795Y-95013744D01*
X128925774Y-95202102D01*
X128905000Y-95306541D01*
X128884226Y-95202102D01*
X128806205Y-95013744D01*
X128692937Y-94844226D01*
X128548774Y-94700063D01*
X128379256Y-94586795D01*
X128190898Y-94508774D01*
X127990939Y-94469000D01*
X127787061Y-94469000D01*
X127587102Y-94508774D01*
X127398744Y-94586795D01*
X127229226Y-94700063D01*
X127085063Y-94844226D01*
X126971795Y-95013744D01*
X126893774Y-95202102D01*
X126854000Y-95402061D01*
X123571000Y-95402061D01*
X123571000Y-90195000D01*
X131242805Y-90195000D01*
X131162795Y-90314744D01*
G37*
G04 #@! TD.AperFunction*
M02*
