G04 #@! TF.GenerationSoftware,KiCad,Pcbnew,(5.1.7)-1*
G04 #@! TF.CreationDate,2020-10-20T19:41:26+02:00*
G04 #@! TF.ProjectId,EQMOD_DIRECT_Isolated,45514d4f-445f-4444-9952-4543545f4973,rev?*
G04 #@! TF.SameCoordinates,Original*
G04 #@! TF.FileFunction,Copper,L4,Bot*
G04 #@! TF.FilePolarity,Positive*
%FSLAX46Y46*%
G04 Gerber Fmt 4.6, Leading zero omitted, Abs format (unit mm)*
G04 Created by KiCad (PCBNEW (5.1.7)-1) date 2020-10-20 19:41:26*
%MOMM*%
%LPD*%
G01*
G04 APERTURE LIST*
G04 #@! TA.AperFunction,ComponentPad*
%ADD10O,1.950000X1.700000*%
G04 #@! TD*
G04 #@! TA.AperFunction,ComponentPad*
%ADD11R,1.700000X1.700000*%
G04 #@! TD*
G04 #@! TA.AperFunction,ComponentPad*
%ADD12C,1.700000*%
G04 #@! TD*
G04 #@! TA.AperFunction,ComponentPad*
%ADD13C,3.500000*%
G04 #@! TD*
G04 #@! TA.AperFunction,ViaPad*
%ADD14C,0.800000*%
G04 #@! TD*
G04 #@! TA.AperFunction,ViaPad*
%ADD15C,1.000000*%
G04 #@! TD*
G04 #@! TA.AperFunction,Conductor*
%ADD16C,0.300000*%
G04 #@! TD*
G04 #@! TA.AperFunction,Conductor*
%ADD17C,0.254000*%
G04 #@! TD*
G04 #@! TA.AperFunction,Conductor*
%ADD18C,0.100000*%
G04 #@! TD*
G04 APERTURE END LIST*
D10*
X144907000Y-107837000D03*
X144907000Y-105337000D03*
X144907000Y-102837000D03*
X144907000Y-100337000D03*
X144907000Y-97837000D03*
X144907000Y-95337000D03*
G04 #@! TA.AperFunction,ComponentPad*
G36*
G01*
X144182000Y-91987000D02*
X145632000Y-91987000D01*
G75*
G02*
X145882000Y-92237000I0J-250000D01*
G01*
X145882000Y-93437000D01*
G75*
G02*
X145632000Y-93687000I-250000J0D01*
G01*
X144182000Y-93687000D01*
G75*
G02*
X143932000Y-93437000I0J250000D01*
G01*
X143932000Y-92237000D01*
G75*
G02*
X144182000Y-91987000I250000J0D01*
G01*
G37*
G04 #@! TD.AperFunction*
D11*
X100330000Y-99060000D03*
D12*
X100330000Y-101560000D03*
X98330000Y-101560000D03*
X98330000Y-99060000D03*
D13*
X95620000Y-94290000D03*
X95620000Y-106330000D03*
D14*
X107442000Y-103486520D03*
X101594823Y-93522800D03*
X107315000Y-104775000D03*
X107696000Y-94742000D03*
X107696000Y-93726000D03*
X112268000Y-99822000D03*
X115062000Y-100203000D03*
X110786616Y-99937836D03*
X111252000Y-98044000D03*
X114909600Y-101346000D03*
X112014000Y-96926400D03*
X119634000Y-92710000D03*
X120523000Y-93726000D03*
X102870000Y-91440000D03*
X120650000Y-99314000D03*
X118237000Y-100203000D03*
X120396000Y-105410000D03*
X121666000Y-105918000D03*
X102235000Y-106426000D03*
X104013000Y-101727000D03*
X102997000Y-101727000D03*
D15*
X96774000Y-99060000D03*
X97028000Y-97790000D03*
X98330000Y-97250000D03*
D14*
X100318600Y-94626400D03*
X99341447Y-95531447D03*
X106680000Y-100838000D03*
X106533110Y-92300990D03*
X107724010Y-92300990D03*
X108994010Y-92300990D03*
X110264010Y-92300990D03*
X115500998Y-105480001D03*
X106121200Y-101955600D03*
X117476979Y-106043003D03*
X120650000Y-95504000D03*
X118205001Y-94011999D03*
X118110000Y-102705000D03*
X120523000Y-101219000D03*
X118606045Y-101132413D03*
X102235000Y-104775000D03*
D15*
X106181000Y-95495000D03*
X105511600Y-94197500D03*
D14*
X127889000Y-95504000D03*
X129921000Y-95504000D03*
X128270000Y-101219000D03*
X132610331Y-104797331D03*
X142113000Y-90932000D03*
X143129000Y-91948000D03*
D15*
X137644000Y-96417000D03*
X140298500Y-98461500D03*
D14*
X138279000Y-97433000D03*
X133167330Y-98475764D03*
X128905000Y-92583000D03*
X129794000Y-93726000D03*
X133097202Y-101982872D03*
X132945000Y-95591500D03*
X130161000Y-100598000D03*
X128016000Y-99949000D03*
X129159000Y-99949000D03*
X126873000Y-105791000D03*
X128016000Y-105664000D03*
X132588000Y-106426000D03*
X140017500Y-100647500D03*
X141097000Y-97409000D03*
X140335000Y-96647000D03*
D15*
X146271000Y-102837000D03*
X143510000Y-102870000D03*
X146304000Y-101473000D03*
X146177000Y-104267000D03*
X143510000Y-104267000D03*
D14*
X137795000Y-100584000D03*
X131595035Y-95480965D03*
X132080000Y-90805000D03*
X133350000Y-90805000D03*
X134620000Y-90805000D03*
X135890000Y-90805000D03*
X137160000Y-90805000D03*
X138430000Y-90805000D03*
X132080000Y-92075000D03*
X133350000Y-92075000D03*
X134620000Y-92075000D03*
X135890000Y-92075000D03*
X137160000Y-92075000D03*
X138430000Y-92075000D03*
X132080000Y-93345000D03*
X133350000Y-93345000D03*
X134620000Y-93345000D03*
X135890000Y-93345000D03*
X138430000Y-93345000D03*
X135676250Y-96924250D03*
X119356045Y-103357293D03*
X119380000Y-97282000D03*
X139065000Y-107950000D03*
X135255000Y-100330000D03*
X139168500Y-105306500D03*
X134747000Y-97860520D03*
X120142000Y-98044000D03*
X116586000Y-93726000D03*
D16*
X119356045Y-97305955D02*
X119380000Y-97282000D01*
X119356045Y-103357293D02*
X119356045Y-97305955D01*
X135255000Y-100330000D02*
X135255000Y-100965000D01*
X135255000Y-104140000D02*
X139065000Y-107950000D01*
X135255000Y-100965000D02*
X135255000Y-104140000D01*
X134747000Y-98609685D02*
X134747000Y-97860520D01*
X139168500Y-103031185D02*
X134747000Y-98609685D01*
X139168500Y-105306500D02*
X139168500Y-103031185D01*
X120142000Y-96933998D02*
X118458002Y-95250000D01*
X120142000Y-98044000D02*
X120142000Y-96933998D01*
X118458002Y-95250000D02*
X118110000Y-95250000D01*
X118110000Y-95250000D02*
X116586000Y-93726000D01*
D17*
X141097000Y-90734541D02*
X141078000Y-90830061D01*
X141078000Y-91033939D01*
X141097000Y-91129459D01*
X141097000Y-95377000D01*
X138099116Y-95377000D01*
X137975067Y-95325617D01*
X137755788Y-95282000D01*
X137532212Y-95282000D01*
X137312933Y-95325617D01*
X137188884Y-95377000D01*
X133957610Y-95377000D01*
X133940226Y-95289602D01*
X133862205Y-95101244D01*
X133748937Y-94931726D01*
X133604774Y-94787563D01*
X133435256Y-94674295D01*
X133246898Y-94596274D01*
X133046939Y-94556500D01*
X132843061Y-94556500D01*
X132643102Y-94596274D01*
X132454744Y-94674295D01*
X132333253Y-94755472D01*
X132254809Y-94677028D01*
X132085291Y-94563760D01*
X131896933Y-94485739D01*
X131696974Y-94445965D01*
X131493096Y-94445965D01*
X131293137Y-94485739D01*
X131104779Y-94563760D01*
X130935261Y-94677028D01*
X130791098Y-94821191D01*
X130750322Y-94882217D01*
X130724937Y-94844226D01*
X130683000Y-94802289D01*
X130683000Y-94258468D01*
X130711205Y-94216256D01*
X130789226Y-94027898D01*
X130829000Y-93827939D01*
X130829000Y-93624061D01*
X130789226Y-93424102D01*
X130711205Y-93235744D01*
X130683000Y-93193532D01*
X130683000Y-91948000D01*
X130680560Y-91923224D01*
X130673333Y-91899399D01*
X130661597Y-91877443D01*
X130645803Y-91858197D01*
X130626557Y-91842403D01*
X130604601Y-91830667D01*
X130580776Y-91823440D01*
X130556000Y-91821000D01*
X129606711Y-91821000D01*
X129564774Y-91779063D01*
X129395256Y-91665795D01*
X129206898Y-91587774D01*
X129006939Y-91548000D01*
X128803061Y-91548000D01*
X128603102Y-91587774D01*
X128414744Y-91665795D01*
X128245226Y-91779063D01*
X128203289Y-91821000D01*
X126111000Y-91821000D01*
X126111000Y-90195000D01*
X141097000Y-90195000D01*
X141097000Y-90734541D01*
G04 #@! TA.AperFunction,Conductor*
D18*
G36*
X141097000Y-90734541D02*
G01*
X141078000Y-90830061D01*
X141078000Y-91033939D01*
X141097000Y-91129459D01*
X141097000Y-95377000D01*
X138099116Y-95377000D01*
X137975067Y-95325617D01*
X137755788Y-95282000D01*
X137532212Y-95282000D01*
X137312933Y-95325617D01*
X137188884Y-95377000D01*
X133957610Y-95377000D01*
X133940226Y-95289602D01*
X133862205Y-95101244D01*
X133748937Y-94931726D01*
X133604774Y-94787563D01*
X133435256Y-94674295D01*
X133246898Y-94596274D01*
X133046939Y-94556500D01*
X132843061Y-94556500D01*
X132643102Y-94596274D01*
X132454744Y-94674295D01*
X132333253Y-94755472D01*
X132254809Y-94677028D01*
X132085291Y-94563760D01*
X131896933Y-94485739D01*
X131696974Y-94445965D01*
X131493096Y-94445965D01*
X131293137Y-94485739D01*
X131104779Y-94563760D01*
X130935261Y-94677028D01*
X130791098Y-94821191D01*
X130750322Y-94882217D01*
X130724937Y-94844226D01*
X130683000Y-94802289D01*
X130683000Y-94258468D01*
X130711205Y-94216256D01*
X130789226Y-94027898D01*
X130829000Y-93827939D01*
X130829000Y-93624061D01*
X130789226Y-93424102D01*
X130711205Y-93235744D01*
X130683000Y-93193532D01*
X130683000Y-91948000D01*
X130680560Y-91923224D01*
X130673333Y-91899399D01*
X130661597Y-91877443D01*
X130645803Y-91858197D01*
X130626557Y-91842403D01*
X130604601Y-91830667D01*
X130580776Y-91823440D01*
X130556000Y-91821000D01*
X129606711Y-91821000D01*
X129564774Y-91779063D01*
X129395256Y-91665795D01*
X129206898Y-91587774D01*
X129006939Y-91548000D01*
X128803061Y-91548000D01*
X128603102Y-91587774D01*
X128414744Y-91665795D01*
X128245226Y-91779063D01*
X128203289Y-91821000D01*
X126111000Y-91821000D01*
X126111000Y-90195000D01*
X141097000Y-90195000D01*
X141097000Y-90734541D01*
G37*
G04 #@! TD.AperFunction*
M02*
