G04 #@! TF.GenerationSoftware,KiCad,Pcbnew,(5.1.7)-1*
G04 #@! TF.CreationDate,2020-10-20T19:41:26+02:00*
G04 #@! TF.ProjectId,EQMOD_DIRECT_Isolated,45514d4f-445f-4444-9952-4543545f4973,rev?*
G04 #@! TF.SameCoordinates,Original*
G04 #@! TF.FileFunction,Profile,NP*
%FSLAX46Y46*%
G04 Gerber Fmt 4.6, Leading zero omitted, Abs format (unit mm)*
G04 Created by KiCad (PCBNEW (5.1.7)-1) date 2020-10-20 19:41:26*
%MOMM*%
%LPD*%
G01*
G04 APERTURE LIST*
G04 #@! TA.AperFunction,Profile*
%ADD10C,0.050000*%
G04 #@! TD*
G04 APERTURE END LIST*
D10*
X155321000Y-89535000D02*
G75*
G02*
X160655000Y-94869000I0J-5334000D01*
G01*
X160655000Y-105664000D02*
G75*
G02*
X155321000Y-110998000I-5334000J0D01*
G01*
X90043000Y-110998000D02*
G75*
G02*
X84582000Y-105537000I0J5461000D01*
G01*
X84582000Y-94996000D02*
G75*
G02*
X90043000Y-89535000I5461000J0D01*
G01*
X155448000Y-96782000D02*
G75*
G02*
X155448000Y-97782000I0J-500000D01*
G01*
X152654000Y-97782000D02*
X155448000Y-97782000D01*
X152654000Y-96782000D02*
X155448000Y-96782000D01*
X152654000Y-97782000D02*
G75*
G02*
X152654000Y-96782000I0J500000D01*
G01*
X152654000Y-103878000D02*
X155448000Y-103878000D01*
X152654000Y-102878000D02*
X155448000Y-102878000D01*
X155448000Y-102878000D02*
G75*
G02*
X155448000Y-103878000I0J-500000D01*
G01*
X152654000Y-103878000D02*
G75*
G02*
X152654000Y-102878000I0J500000D01*
G01*
X91694000Y-96774000D02*
G75*
G02*
X91694000Y-97790000I0J-508000D01*
G01*
X88900000Y-97782000D02*
G75*
G02*
X88900000Y-96782000I0J500000D01*
G01*
X88900000Y-97782000D02*
X91694000Y-97790000D01*
X88900000Y-96782000D02*
X91694000Y-96774000D01*
X88900000Y-102870000D02*
X91694000Y-102870000D01*
X88900000Y-103886000D02*
G75*
G02*
X88900000Y-102870000I0J508000D01*
G01*
X91694000Y-102870000D02*
G75*
G02*
X91694000Y-103886000I6000J-508000D01*
G01*
X88900000Y-103886000D02*
X91694000Y-103886000D01*
X160655000Y-94869000D02*
X160655000Y-105664000D01*
X155321000Y-89535000D02*
X90043000Y-89535000D01*
X155321000Y-110998000D02*
X90043000Y-110998000D01*
X84582000Y-105537000D02*
X84582000Y-94996000D01*
M02*
